<svg xmlns="http://www.w3.org/2000/svg" xmlns:xlink="http://www.w3.org/1999/xlink" width="1270" height="993.687" viewBox="0 0 1270 993.687">
  <defs>
    <linearGradient id="linear-gradient" x1="0.5" y1="1" x2="0.5" gradientUnits="objectBoundingBox">
      <stop offset="0" stop-color="gray" stop-opacity="0.251"/>
      <stop offset="0.54" stop-color="gray" stop-opacity="0.122"/>
      <stop offset="1" stop-color="gray" stop-opacity="0.102"/>
    </linearGradient>
  </defs>
  <g id="Group_27" data-name="Group 27" transform="translate(0 0.013)">
    <path id="Path_359" data-name="Path 359" d="M450.36,64.7C484.847,33.934,539,27.706,588.37,30.07c154.935,7.706,294.79,82.5,415.769,167.109,43.8,30.623,86.917,63.634,115.342,105.816,57.913,85.865,40.7,204.812-39.759,275.548-27.385,24.063-60.573,42.548-94.647,58.871-60.584,29.075-125.955,52.417-194.718,59.1-49.025,4.728-98.665.886-147.419-5.721-136.191-18.473-269.875-59.32-381.931-129.194-49.143-30.647-95.486-68.751-115.72-118.332s-7.292-112.411,42.891-141.757c20.754-12.138,45.574-17.622,69.862-22.775,35.764-7.576,72.1-15.046,104.362-30.446,33.341-15.908,72.805-46.673,66.186-81.894C421.521,128.6,415.848,95.429,450.36,64.7Z" transform="translate(-49.376 -29.63)" fill="#de1a51" opacity="0.1"/>
    <ellipse id="Ellipse_32" data-name="Ellipse 32" cx="157.358" cy="49.262" rx="157.358" ry="49.262" transform="translate(387.415 883.143)" fill="#de1a51" opacity="0.1"/>
    <path id="Path_360" data-name="Path 360" d="M733.95,360.426l5.709,303.418,12.138,1.43L747.223,359.22Z" transform="translate(133.506 65.345)" fill="#f5c5cc"/>
    <path id="Path_361" data-name="Path 361" d="M739.87,355.45l6.512,315.792,4.337-5.283-4.574-306.053Z" transform="translate(134.583 64.659)" fill="none"/>
    <path id="Path_362" data-name="Path 362" d="M709.12,355.6l5.709,303.418,12.138,1.43L722.393,354.39Z" transform="translate(128.99 64.466)" fill="#f5c5cc"/>
    <path id="Path_363" data-name="Path 363" d="M715.04,350.62l6.5,315.792,4.349-5.283-4.574-306.053Z" transform="translate(130.067 63.781)" fill="none"/>
    <path id="Path_364" data-name="Path 364" d="M715.19,342.99l.591,330.932,12.41-1.182L723.463,336.49Z" transform="translate(130.094 61.21)" fill="#cc929b"/>
    <path id="Path_365" data-name="Path 365" d="M425.56,295.411l5.236,275.04,12.138,1.276L438.845,294.3Z" transform="translate(77.41 53.536)" fill="#f5c5cc"/>
    <path id="Path_366" data-name="Path 366" d="M431.49,290.89l6,286.256,4.361-4.8L437.766,294.92Z" transform="translate(78.489 52.916)" fill="#cc929b"/>
    <path id="Path_367" data-name="Path 367" d="M447.41,301.3l5.236,275.028,12.138,1.276L460.695,300.19Z" transform="translate(81.384 54.607)" fill="#f5c5cc"/>
    <path id="Path_368" data-name="Path 368" d="M453.34,296.77l6.016,286.256,4.349-4.8-4.089-277.416Z" transform="translate(82.463 53.985)" fill="#cc929b"/>
    <path id="Path_369" data-name="Path 369" d="M468.77,307.679l5.236,275.04L486.144,584,482.055,306.58Z" transform="translate(85.27 55.77)" fill="#f5c5cc"/>
    <path id="Path_370" data-name="Path 370" d="M474.7,303.17l6.016,286.245,4.349-4.8L480.976,307.2Z" transform="translate(86.348 55.149)" fill="#cc929b"/>
    <path id="Path_371" data-name="Path 371" d="M489.55,308.985l5.389,284.7L507.078,595,502.823,307.85Z" transform="translate(89.05 56.001)" fill="#f5c5cc"/>
    <path id="Path_372" data-name="Path 372" d="M495.47,304.31l6.181,296.3L506,595.649l-4.255-287.155Z" transform="translate(90.127 55.357)" fill="#cc929b"/>
    <path id="Path_373" data-name="Path 373" d="M512.08,310.866l5.4,284.685,12.138,1.324L525.365,309.72Z" transform="translate(93.148 56.341)" fill="#f5c5cc"/>
    <path id="Path_374" data-name="Path 374" d="M518.01,306.19l6.181,296.291,4.349-4.964-4.255-287.155Z" transform="translate(94.227 55.699)" fill="#cc929b"/>
    <path id="Path_375" data-name="Path 375" d="M534.22,318.735l5.389,284.7,12.138,1.324L547.5,317.6Z" transform="translate(97.175 57.774)" fill="#f5c5cc"/>
    <path id="Path_376" data-name="Path 376" d="M540.14,314.06l6.181,296.3,4.349-4.964-4.243-287.155Z" transform="translate(98.252 57.13)" fill="#cc929b"/>
    <path id="Path_377" data-name="Path 377" d="M559.56,323.94l5.531,292.639,12.138,1.359L572.844,322.77Z" transform="translate(101.785 58.715)" fill="#f5c5cc"/>
    <path id="Path_378" data-name="Path 378" d="M565.48,319.14,571.8,623.7l4.35-5.106L571.768,323.43Z" transform="translate(102.861 58.054)" fill="#cc929b"/>
    <path id="Path_379" data-name="Path 379" d="M581.61,326.57l5.52,292.639,12.15,1.359-4.4-295.168Z" transform="translate(105.796 59.193)" fill="#f5c5cc"/>
    <path id="Path_380" data-name="Path 380" d="M587.53,321.76l6.323,304.576,4.349-5.106-4.4-295.168Z" transform="translate(106.872 58.531)" fill="#cc929b"/>
    <path id="Path_381" data-name="Path 381" d="M604.97,333.168,610.5,625.807l12.138,1.371L618.255,332.01Z" transform="translate(110.045 60.395)" fill="#f5c5cc"/>
    <path id="Path_382" data-name="Path 382" d="M610.9,328.37l6.311,304.576,4.349-5.106-4.385-295.168Z" transform="translate(111.123 59.733)" fill="#cc929b"/>
    <path id="Path_383" data-name="Path 383" d="M405.641,298.028l-.591-17.421,6.146-3.357,440.778,90.4.816,22.113Z" transform="translate(73.679 50.434)" fill="#f5c5cc"/>
    <path id="Path_384" data-name="Path 384" d="M411.056,277.25l442.4,90.333L853,375.868,405.82,280.1" transform="translate(73.819 50.434)" fill="#cc929b"/>
    <path id="Path_385" data-name="Path 385" d="M429.51,734.6l-12.41,4.515H405.281l-.591-466.307,6.5-9.03,6.276-1.844,7.907-1.194Z" transform="translate(73.614 47.431)" fill="#f5c5cc"/>
    <path id="Path_386" data-name="Path 386" d="M427.718,734.6l-12.41,4.515-.768-465.385,1.135-11.8,7.907-1.194Z" transform="translate(75.405 47.431)" fill="#cc929b"/>
    <path id="Path_387" data-name="Path 387" d="M630.35,340.5l5.531,292.627L648.02,634.5,643.635,339.33Z" transform="translate(114.661 61.727)" fill="#f5c5cc"/>
    <path id="Path_388" data-name="Path 388" d="M636.27,335.69l6.323,304.576,4.35-5.106-4.385-295.168Z" transform="translate(115.738 61.065)" fill="#cc929b"/>
    <path id="Path_389" data-name="Path 389" d="M655.92,344.412,661.558,643.3,673.7,644.7l-4.5-301.468Z" transform="translate(119.312 62.436)" fill="#f5c5cc"/>
    <path id="Path_390" data-name="Path 390" d="M661.84,339.51l6.43,311.076,4.349-5.212-4.5-301.467Z" transform="translate(120.389 61.76)" fill="none"/>
    <path id="Path_391" data-name="Path 391" d="M682.25,349.046l5.709,303.418,12.138,1.43L695.535,347.84Z" transform="translate(124.102 63.275)" fill="#f5c5cc"/>
    <path id="Path_392" data-name="Path 392" d="M688.17,344.07l6.512,315.8,4.338-5.3-4.562-306.053Z" transform="translate(125.179 62.589)" fill="#cc929b"/>
    <path id="Path_393" data-name="Path 393" d="M282.191,637.741l-12.41,1.182L269.2,312.494l-.012-4.5,8.273-6.5.13,9.053Z" transform="translate(48.966 54.844)" fill="#f5c5cc"/>
    <path id="Path_394" data-name="Path 394" d="M319.191,622.241l-12.41,1.182-.579-321.1-.012-9.833,8.273-6.5.189,13.19Z" transform="translate(55.696 52.024)" fill="#f5c5cc"/>
    <path id="Path_395" data-name="Path 395" d="M380.191,597.241l-12.41,1.182-.567-317.045-.024-13.887,8.273-6.5.26,18.414Z" transform="translate(66.792 47.477)" fill="#f5c5cc"/>
    <path id="Path_396" data-name="Path 396" d="M406.691,587.241l-12.41,1.182-.556-309.3-.035-21.629,8.273-6.5.425,30.044Z" transform="translate(71.613 45.658)" fill="#f5c5cc"/>
    <path id="Path_397" data-name="Path 397" d="M300.691,634.741l-12.41,1.182-.591-328.569v-2.364l8.273-6.5.083,6.229Z" transform="translate(52.331 54.298)" fill="#f5c5cc"/>
    <path id="Path_398" data-name="Path 398" d="M354.691,609.741l-12.41,1.182L341.7,288.547l-.012-8.557,8.273-6.5.165,12.126Z" transform="translate(62.154 49.751)" fill="#f5c5cc"/>
    <path id="Path_399" data-name="Path 399" d="M337.191,614.741l-12.41,1.182L324.214,295.5l-.024-10.507,8.273-6.5.189,13.686Z" transform="translate(58.971 50.66)" fill="#f5c5cc"/>
    <path id="Path_400" data-name="Path 400" d="M335.125,569.48l-2.955,6.2s-7.682,11.524-6.8,29.252S313,669.646,313,669.646s12.114,5.614,21.274,5.023,28.957,9.16,28.957,9.16l41.036,12.729,83.029,19.5s48.754,27.184,62.05,27.184,66.186,18.024,66.186,18.024,71.505,15.66,77.119,21.57S721.938,796.7,724.3,797.02s38.412,3.841,38.412,3.841,41.957,9.751,47.867-.591a53.28,53.28,0,0,0,6.8-18.91s18.615,4.137,23.638-2.068,5.318-19.5,11.228-18.911,30.138,7.978,32.8,5.319,16.842-33.98,26.888-29.252,27.479,12.114,27.479,12.114L929.362,646.327l-4.432-28.07s-161.034,65.6-166.648,65.6S335.125,569.48,335.125,569.48Z" transform="translate(-17.206 68.572)" fill="#de1a51"/>
    <path id="Path_401" data-name="Path 401" d="M923.419,509.052l-.886,144.192L755.258,717.385,331.547,604.809s-28.661-40.48-2.068-78.3c0,0-34.275-47.276,8.273-78.005l1.052-.248L499.672,409.5l71.541,13.072,316.1,57.819S918.36,491.914,923.419,509.052Z" transform="translate(-16.582 39.471)" fill="#de1a51"/>
    <path id="Path_402" data-name="Path 402" d="M562.119,436.365c-7.978,4.137-65.891,19.206-77.414,28.366s-91.3,16.275-91.3,16.275l-8.864,1.773s.591-5.91-34.571-23.047a44.831,44.831,0,0,1-14.608-11.476L496.229,409.5l71.54,13.072C567.864,428.233,566.894,433.883,562.119,436.365Z" transform="translate(-13.138 39.471)" opacity="0.1"/>
    <path id="Path_403" data-name="Path 403" d="M321.479,384s-2.955,57.322,32.207,74.46,34.606,23.023,34.606,23.023l8.864-1.773s-30.729-34.275-28.661-40.185-27.479-35.753-31.651-36.934S321.479,384,321.479,384Z" transform="translate(-15.674 34.833)" fill="#de1a51"/>
    <path id="Path_404" data-name="Path 404" d="M322.009,384.73s-2.955,57.322,32.207,74.46,34.571,23.047,34.571,23.047l8.864-1.773s-30.729-34.275-28.661-40.185-27.515-35.752-31.616-36.934S322.009,384.73,322.009,384.73Z" transform="translate(-15.578 34.965)" opacity="0.1"/>
    <path id="Path_405" data-name="Path 405" d="M329,405.23s28.366,42.844,33.389,44.321S335.76,405.821,329,405.23Z" transform="translate(-14.295 38.694)" opacity="0.1"/>
    <path id="Path_406" data-name="Path 406" d="M318,386.853s18.319-14.774,20.683-17.728,28.366-4.137,29.252-4.137,20.683-12.114,42.844-15.956,31.025-5.614,31.025-5.614,32.5-13.592,34.275-16.547,16.842-6.205,35.457,8.273,59.686,79.483,59.981,86.574,2.955,20.092-5.023,24.229S500.6,465.154,489.08,474.314s-91.337,16.275-91.337,16.275l-30.1-32.821-15.956-25.706-26.593-28.07Z" transform="translate(-16.296 23.978)" fill="#de1a51"/>
    <path id="Path_407" data-name="Path 407" d="M360.827,593.15s-11.027,2.364-4.728,8.663S360.827,593.15,360.827,593.15Z" transform="translate(-9.719 72.877)" opacity="0.1"/>
    <path id="Path_408" data-name="Path 408" d="M393.973,603.82S382.154,618,384.518,621.938,393.973,603.82,393.973,603.82Z" transform="translate(-4.253 74.818)" opacity="0.1"/>
    <path id="Path_409" data-name="Path 409" d="M452.643,619.15s-11.819,14.183-9.455,18.119S452.643,619.15,452.643,619.15Z" transform="translate(6.419 77.607)" opacity="0.1"/>
    <path id="Path_410" data-name="Path 410" d="M523.973,639.15s-11.819,14.183-9.455,18.119S523.973,639.15,523.973,639.15Z" transform="translate(19.394 81.245)" opacity="0.1"/>
    <path id="Path_411" data-name="Path 411" d="M619.973,663.15s-11.819,14.183-9.455,18.119S619.973,663.15,619.973,663.15Z" transform="translate(36.856 85.61)" opacity="0.1"/>
    <path id="Path_412" data-name="Path 412" d="M422.643,607.15s-11.819,14.183-9.455,18.119S422.643,607.15,422.643,607.15Z" transform="translate(0.962 75.424)" opacity="0.1"/>
    <path id="Path_413" data-name="Path 413" d="M561.973,649.15s-11.819,14.183-9.455,18.119S561.973,649.15,561.973,649.15Z" transform="translate(26.306 83.064)" opacity="0.1"/>
    <path id="Path_414" data-name="Path 414" d="M591.3,658.48s-11.819,14.183-9.455,18.13S591.3,658.48,591.3,658.48Z" transform="translate(31.641 84.761)" opacity="0.1"/>
    <path id="Path_415" data-name="Path 415" d="M478.643,627.15s-11.819,14.183-9.455,18.118S478.643,627.15,478.643,627.15Z" transform="translate(11.148 79.062)" opacity="0.1"/>
    <path id="Path_416" data-name="Path 416" d="M729.14,699.82l12.5,57.807S741.739,717.147,729.14,699.82Z" transform="translate(58.491 92.281)" opacity="0.1"/>
    <path id="Path_417" data-name="Path 417" d="M761.8,707.15l8.77,28.188S769.683,724.489,761.8,707.15Z" transform="translate(64.432 93.614)" opacity="0.1"/>
    <path id="Path_418" data-name="Path 418" d="M800.585,746.73s-18.709-68.148-22.657-72.876S789.321,742.4,800.585,746.73Z" transform="translate(67.25 87.517)" opacity="0.1"/>
    <path id="Path_419" data-name="Path 419" d="M818.172,715.613s-22.054-38.6-13.391-45.692S818.172,715.613,818.172,715.613Z" transform="translate(71.883 86.723)" opacity="0.1"/>
    <path id="Path_420" data-name="Path 420" d="M327.47,508.5l428.238,96.136,164.686-48.068-166.258,43.34S340.471,504.563,327.47,508.5Z" transform="translate(-14.574 57.458)" opacity="0.1"/>
    <path id="Path_421" data-name="Path 421" d="M275.69,390.626l.591,275.087,12.115,1.477.591-277.451Z" transform="translate(50.148 70.896)" fill="#f5c5cc"/>
    <path id="Path_422" data-name="Path 422" d="M281.69,386.24l1.182,286.315,4.432-4.727.591-277.451Z" transform="translate(51.24 70.26)" fill="#cc929b"/>
    <path id="Path_423" data-name="Path 423" d="M297.44,396.876l.591,275.087,12.114,1.478.591-277.451Z" transform="translate(54.105 72.033)" fill="#f5c5cc"/>
    <path id="Path_424" data-name="Path 424" d="M303.44,392.49l1.182,286.316,4.432-4.728.591-277.451Z" transform="translate(55.196 71.397)" fill="#cc929b"/>
    <path id="Path_425" data-name="Path 425" d="M318.69,403.626l.591,275.087,12.115,1.477.591-277.451Z" transform="translate(57.97 73.261)" fill="#f5c5cc"/>
    <path id="Path_426" data-name="Path 426" d="M324.69,399.24l1.182,286.315,4.432-4.727.591-277.451Z" transform="translate(59.061 72.625)" fill="#cc929b"/>
    <path id="Path_427" data-name="Path 427" d="M339.44,405.282l.591,284.744,12.115,1.525.591-287.19Z" transform="translate(61.745 73.556)" fill="#f5c5cc"/>
    <path id="Path_428" data-name="Path 428" d="M345.44,400.74,346.622,697.1l4.432-4.893.591-287.19Z" transform="translate(62.836 72.897)" fill="#cc929b"/>
    <path id="Path_429" data-name="Path 429" d="M361.94,407.532l.591,284.744,12.114,1.525.591-287.19Z" transform="translate(65.837 73.965)" fill="#f5c5cc"/>
    <path id="Path_430" data-name="Path 430" d="M367.94,402.99l1.182,296.362,4.432-4.893.591-287.19Z" transform="translate(66.929 73.307)" fill="#cc929b"/>
    <path id="Path_431" data-name="Path 431" d="M383.94,415.782l.591,284.744,12.114,1.525.591-287.19Z" transform="translate(69.839 75.466)" fill="#f5c5cc"/>
    <path id="Path_432" data-name="Path 432" d="M389.94,411.24,391.122,707.6l4.432-4.893.591-287.19Z" transform="translate(70.931 74.807)" fill="#cc929b"/>
    <path id="Path_433" data-name="Path 433" d="M409.19,421.406l.591,292.686,12.114,1.572.591-295.2Z" transform="translate(74.432 76.484)" fill="none"/>
    <path id="Path_434" data-name="Path 434" d="M415.19,416.74l1.182,304.635,4.432-5.035.591-295.2Z" transform="translate(75.524 75.808)" fill="#cc929b"/>
    <path id="Path_435" data-name="Path 435" d="M431.19,424.406l.591,292.686,12.115,1.572.591-295.2Z" transform="translate(78.434 77.03)" fill="#f5c5cc"/>
    <path id="Path_436" data-name="Path 436" d="M437.19,419.74l1.182,304.635,4.432-5.035.591-295.2Z" transform="translate(79.525 76.354)" fill="#cc929b"/>
    <path id="Path_437" data-name="Path 437" d="M454.44,431.406l.591,292.686,12.115,1.572.591-295.2Z" transform="translate(82.663 78.304)" fill="#f5c5cc"/>
    <path id="Path_438" data-name="Path 438" d="M460.44,426.74l1.182,304.635,4.432-5.035.591-295.2Z" transform="translate(83.755 77.627)" fill="#cc929b"/>
    <path id="Path_439" data-name="Path 439" d="M479.69,439.156l.591,292.686,12.114,1.572.591-295.2Z" transform="translate(87.256 79.713)" fill="#f5c5cc"/>
    <path id="Path_440" data-name="Path 440" d="M485.69,434.49l1.182,304.635,4.432-5.035.591-295.2Z" transform="translate(88.348 79.037)" fill="#cc929b"/>
    <path id="Path_441" data-name="Path 441" d="M505.19,443.509l.591,298.927,12.115,1.607.591-301.5Z" transform="translate(91.895 80.501)" fill="#f5c5cc"/>
    <path id="Path_442" data-name="Path 442" d="M511.19,438.74l1.182,311.135,4.432-5.141.591-301.5Z" transform="translate(92.986 79.81)" fill="#cc929b"/>
    <path id="Path_443" data-name="Path 443" d="M531.44,448.581l.591,303.477,12.115,1.631.591-306.089Z" transform="translate(96.67 81.421)" fill="#cc929b"/>
    <path id="Path_444" data-name="Path 444" d="M537.44,443.74,538.622,759.6l4.432-5.212.591-306.089Z" transform="translate(97.761 80.719)" fill="none"/>
    <path id="Path_445" data-name="Path 445" d="M558.19,455.581l.591,303.477,12.115,1.631.591-306.089Z" transform="translate(101.535 82.695)" fill="#f5c5cc"/>
    <path id="Path_446" data-name="Path 446" d="M564.19,450.74,565.372,766.6l4.432-5.212L570.4,455.3Z" transform="translate(102.627 81.992)" fill="#cc929b"/>
    <path id="Path_447" data-name="Path 447" d="M582.94,460.831l.591,303.477,12.114,1.631.591-306.089Z" transform="translate(106.037 83.65)" fill="#cc929b"/>
    <path id="Path_448" data-name="Path 448" d="M588.94,455.99l1.182,315.863,4.432-5.212.591-306.089Z" transform="translate(107.129 82.947)" fill="none"/>
    <path id="Path_449" data-name="Path 449" d="M266.01,736.7l-12.41,4.728H241.781l-.591-433.758,6.5-9.455,6.276-1.927,9.089-2.8Z" transform="translate(43.873 53.389)" fill="#f5c5cc"/>
    <path id="Path_450" data-name="Path 450" d="M264.218,736.7l-12.41,4.728-.768-432.8,1.135-12.339,9.089-2.8Z" transform="translate(45.664 53.389)" fill="#cc929b"/>
    <circle id="Ellipse_33" data-name="Ellipse 33" cx="14.183" cy="14.183" r="14.183" transform="translate(284.472 780.045)" fill="#40414d"/>
    <path id="Path_451" data-name="Path 451" d="M803.01,797.827l-12.41,4.515H778.781L778.19,325.4l6.5,1.607,6.276-1.844,9.089-2.671Z" transform="translate(141.554 58.664)" fill="#f5c5cc"/>
    <path id="Path_452" data-name="Path 452" d="M801.218,797.827l-12.41,4.515-.768-465.385,1.134-11.8,9.089-2.671Z" transform="translate(143.345 58.664)" fill="#cc929b"/>
    <path id="Path_453" data-name="Path 453" d="M655.691,700.741l-12.41,1.182-.567-318.629-.023-12.3,8.273-6.5.236,16.984Z" transform="translate(116.906 66.303)" fill="#f5c5cc"/>
    <path id="Path_454" data-name="Path 454" d="M692.691,685.241l-12.41,1.182-.555-312.743-.035-18.19,8.273-6.5.307,21.582Z" transform="translate(123.636 63.484)" fill="#f5c5cc"/>
    <path id="Path_455" data-name="Path 455" d="M753.691,660.241l-12.41,1.182-.556-312.01-.035-18.922,8.273-6.5.307,21.877Z" transform="translate(134.732 58.936)" fill="#f5c5cc"/>
    <path id="Path_456" data-name="Path 456" d="M767.19,320.49l.591,330.932,12.41-1.182L775.463,313.99Z" transform="translate(139.553 57.117)" fill="#f5c5cc"/>
    <path id="Path_457" data-name="Path 457" d="M674.191,697.741l-12.41,1.182-.567-320.437-.024-10.5,8.273-6.5.2,14.431Z" transform="translate(120.271 65.758)" fill="#f5c5cc"/>
    <path id="Path_458" data-name="Path 458" d="M710.691,677.741l-12.41,1.182-.556-311.916-.035-19.017,8.273-6.5.307,22.078Z" transform="translate(126.911 62.12)" fill="#f5c5cc"/>
    <path id="Path_459" data-name="Path 459" d="M731.021,671.071l-12.41,1.182-.556-311.916v-1.856l-.035-17.161,8.273-6.5.284,20.163.024,1.915Z" transform="translate(130.609 60.906)" fill="#f5c5cc"/>
    <path id="Path_460" data-name="Path 460" d="M632.69,658.378,804.066,585.49l11.819,2.754.39,27.184L635.846,685.16Z" transform="translate(115.087 106.504)" fill="#f5c5cc"/>
    <path id="Path_461" data-name="Path 461" d="M804.066,585.49,632.69,658.378,815.247,588.09" transform="translate(115.087 106.504)" fill="#cc929b"/>
    <path id="Path_462" data-name="Path 462" d="M257.262,614.49,689.448,745.681l-.792,21.274L255.69,633.4Z" transform="translate(46.51 111.779)" fill="#f5c5cc"/>
    <path id="Path_463" data-name="Path 463" d="M705.24,894.7l-12.41,4.727H681.011l-.591-485.761h0V411.3l.922-1.347,5.579-8.108,6.276-1.927,9.089-2.8.095,16.547Z" transform="translate(49.629 37.219)" fill="#f5c5cc"/>
    <path id="Path_464" data-name="Path 464" d="M640.718,865.07l-12.41,4.728L627.54,382.63l1.135-12.339,9.089-2.8Z" transform="translate(114.15 66.849)" fill="#cc929b"/>
    <path id="Path_465" data-name="Path 465" d="M702.285,397.12l.095,16.547a100.716,100.716,0,0,1-10.318.969c-8.51.331-11.642-.957-11.642-.957h0c0-.165.331-1.489.922-3.7l5.579-8.108,6.276-1.926Z" transform="translate(49.629 37.219)" opacity="0.1"/>
    <path id="Path_466" data-name="Path 466" d="M713.69,394.12l.236,16.984q-4.574,1.064-8.486,1.82v-12.3Z" transform="translate(54.18 36.673)" opacity="0.1"/>
    <path id="Path_467" data-name="Path 467" d="M732.19,391.12l.2,14.431c-2.943.934-5.768,1.785-8.451,2.565v-10.5Z" transform="translate(57.545 36.128)" opacity="0.1"/>
    <path id="Path_468" data-name="Path 468" d="M750.688,378.62,751,400.2q-4.432,1.643-8.545,3.108V385.121Z" transform="translate(60.912 33.854)" opacity="0.1"/>
    <path id="Path_469" data-name="Path 469" d="M768.688,371.12,769,393.2l-6.808,2.742-1.737.7V377.62Z" transform="translate(64.186 32.49)" opacity="0.1"/>
    <path id="Path_470" data-name="Path 470" d="M812,375.5l-8.545,3.546V360.13l8.273-6.5Z" transform="translate(72.008 29.308)" opacity="0.1"/>
    <path id="Path_471" data-name="Path 471" d="M789.312,384.606l-8.522,3.546V370.99l8.273-6.5Z" transform="translate(67.886 31.284)" opacity="0.1"/>
    <path id="Path_472" data-name="Path 472" d="M899.072,368.612s-21.865,0-27.774-1.773-18.32,5.319-94.552,36.048c-46.094,18.591-71.682,22.905-84.683,23.413-8.51.331-11.642-.957-11.642-.957s15.566-71.41,65.135-84.754a147,147,0,0,0,16.275-5.472l.957-.366a96.909,96.909,0,0,1,12.776-3.959c15.908-3.652,27.267-10.637,56.022-10.85a78.655,78.655,0,0,1,49.38,16.381C890.822,344.076,899.32,354.8,899.072,368.612Z" transform="translate(49.629 23.178)" fill="#cc929b"/>
    <path id="Path_473" data-name="Path 473" d="M764.926,332.12c-61.341,26.451-70.7,75.89-72.864,91.964-8.51.331-11.642-.957-11.642-.957s15.566-71.41,65.135-84.754a147,147,0,0,0,16.275-5.472l.957-.366C763.5,332.427,764.205,332.286,764.926,332.12Z" transform="translate(49.629 25.396)" fill="#f5c5cc"/>
    <path id="Path_474" data-name="Path 474" d="M340.192,331.12l.13,9.053c-2.99.745-5.779,1.395-8.392,1.95v-4.5Z" transform="translate(-13.762 25.214)" opacity="0.1"/>
    <path id="Path_475" data-name="Path 475" d="M358.693,328.12l.083,6.229q-4.361,1.442-8.356,2.636V334.62Z" transform="translate(-10.399 24.668)" opacity="0.1"/>
    <path id="Path_476" data-name="Path 476" d="M377.192,315.62l.189,13.19q-4.361,1.666-8.451,3.144V322.12Z" transform="translate(-7.032 22.394)" opacity="0.1"/>
    <path id="Path_477" data-name="Path 477" d="M395.19,308.12l.189,13.686q-4.078,1.572-8.439,3.321V314.62Z" transform="translate(-3.756 21.03)" opacity="0.1"/>
    <path id="Path_478" data-name="Path 478" d="M412.691,303.12l.166,12.126q-4.018,1.347-8.427,2.931v-8.557Z" transform="translate(-0.574 20.12)" opacity="0.1"/>
    <path id="Path_479" data-name="Path 479" d="M438.19,290.62l.26,18.414c-2.612.544-5.437,1.182-8.51,1.974V297.12Z" transform="translate(4.066 17.847)" opacity="0.1"/>
    <path id="Path_480" data-name="Path 480" d="M465.113,310.624a31.17,31.17,0,0,0-8.663-1.915V287.081l8.273-6.5Z" transform="translate(8.888 16.02)" opacity="0.1"/>
    <path id="Path_481" data-name="Path 481" d="M522.572,313.132s-21.865,0-27.775-1.773-18.319-11.228-94.552,19.5c-46.094,18.591-71.682,22.905-84.683,23.413-8.51.331-11.642-.957-11.642-.957s11.736-62.05,63.492-72.521a76.072,76.072,0,0,0,8.545-2.187c3.179-1.04,8.191-2.529,14.927-4.078,17.374-3.995,46.177-8.38,84.459-6.524a52.382,52.382,0,0,1,35.209,15.436,40.551,40.551,0,0,1,12.02,29.689Z" transform="translate(-18.857 13.654)" fill="#cc929b"/>
    <path id="Path_482" data-name="Path 482" d="M390.884,273.46c-61.341,26.451-73.16,63.669-75.323,79.743-8.51.331-11.642-.957-11.642-.957s11.736-62.05,63.492-72.521a76.086,76.086,0,0,0,8.545-2.187C379.136,276.462,384.147,275.008,390.884,273.46Z" transform="translate(-18.857 14.725)" fill="#f5c5cc"/>
    <path id="Path_483" data-name="Path 483" d="M255.736,392.923l-.3-17.433,6.2-3.25,424.3,95.143-1.182,22.161Z" transform="translate(46.465 67.713)" fill="#f5c5cc"/>
    <path id="Path_484" data-name="Path 484" d="M261.5,372.24l424.3,95.143-.591,8.273L256.22,375.006" transform="translate(46.607 67.713)" fill="#cc929b"/>
    <circle id="Ellipse_34" data-name="Ellipse 34" cx="14.183" cy="14.183" r="14.183" transform="translate(917.971 846.823)" fill="#40414d"/>
    <circle id="Ellipse_35" data-name="Ellipse 35" cx="14.183" cy="14.183" r="14.183" transform="translate(730.049 927.192)" fill="#40414d"/>
    <path id="Path_485" data-name="Path 485" d="M334.794,579.45s-12.611,14.183-16.547,26.794,4.728,59.887,4.728,59.887a87.046,87.046,0,0,0,9.455-25.222C335.574,625.946,334.794,579.45,334.794,579.45Z" transform="translate(-16.438 70.385)" fill="#de1a51"/>
    <path id="Path_486" data-name="Path 486" d="M840.148,679.12s7.682,39,8.273,44.912-19.5-2.955-19.5-2.955Z" transform="translate(76.641 88.515)" fill="#de1a51"/>
    <path id="Path_487" data-name="Path 487" d="M687.892,309.855h-.2a2.365,2.365,0,0,0-.437-1.111,5.8,5.8,0,0,0-1.962-1.489l-5.543-3.085,4.787,1.737a10.7,10.7,0,0,0-.745-1.111l.555.307-.378-.532-.508-.177c-2.553-2.99-6.808-4.231-10.933-4.172h.071c.532-.071,1.075-.118,1.607-.154a19.184,19.184,0,0,0-3.546.106h0a1.66,1.66,0,0,0,.414.118,11.091,11.091,0,0,0-1.182.118,3.545,3.545,0,0,1-1.856,0,2.683,2.683,0,0,1-1.43-1.95c-.591-2.364.343-4.9.615-7.375a7.91,7.91,0,0,0-.367-3.439v-.709a3.546,3.546,0,0,0-2.364-2.175,2.219,2.219,0,0,0,0,.272l-.2-.083v6.359a25.348,25.348,0,0,1-4.834-5.035,2.211,2.211,0,0,1-.485-1c-.118-1.076,1.253-1.82,1.336-2.907a1.619,1.619,0,0,0-1.182-1.536l.355-.13a2.659,2.659,0,0,0-1.347-.236,22.64,22.64,0,0,0-2.978.9l.307.059a6.711,6.711,0,0,1-.7.189c-2.967.615-5.614-1.749-7.753-3.888l-.461-.461c-1.017-8.9-2.659-19.1-2.659-19.1s-1.477-11.654-3.546-17.918-5.047-17.327-5.047-17.327-6.808-13.438-8.273-14.029a18.046,18.046,0,0,1-1.666-.945,26.464,26.464,0,0,1-1.182-6.193c-.366-11.748,12.185-20.092,14.076-31.734,1.548-9.455-4.408-18.91-3.546-28.5.4-4.2,2.092-8.143,3-12.256a33.009,33.009,0,0,0,.343-12.138,20.01,20.01,0,0,0-1.938-6.229,33.65,33.65,0,0,0,4.267-7.221c1.915-5.46-.154-11.559-3.144-16.547-9.609-15.873-29.075-28.366-47.276-29.985-7.34-.674-14.7-.8-22.054-.922-8.439-.154-17.161-.248-24.962,3.014C527.437,65.721,520.1,83.06,510.678,97.054a107.224,107.224,0,0,1-29.335,29.276c-5.449,3.64-11.819,7.517-13.1,13.982a12.722,12.722,0,0,0-.225,1.879,17.306,17.306,0,0,1-.39-1.726c-1.288,6.749,3.475,13,5.91,19.442a34.277,34.277,0,0,1,2.175,10.507,45.963,45.963,0,0,0,0-5.106c2.364,12.268-1.974,25.435-4.657,37.974-.2.922-.355,1.844-.544,2.766a22.611,22.611,0,0,0-6.217,2.8,34.96,34.96,0,0,1-13.97,5.437,26.1,26.1,0,0,0-16.807,10.093c-.756,1.016-1.489,1.714-2.127,1.785-2.659.307-17.48,46.591-17.48,46.591s-3.085,19.064-3.085,23.532-5.33,36.733-5.33,36.733-1.785,5.91-1.182,8.356c.343,1.359-.473,5.91-1.241,9.573a2.126,2.126,0,0,1-.827-.615c-.886-1.785-17.2,0-12.15,11.949a23.425,23.425,0,0,0,5.709,8.486c-2.246,5.626-4.2,10.862-3.936,11.524,0,0,0,4.267.378,9.538-3.463,2.364-6.3,4.491-6.3,4.491-.248,6.524,4.1,7.564,8.191,7.328,1.052,3.782,2.588,6.784,4.846,7.6,7.41,2.695,12.15,1.5,14.526,3.546s15.046,6.016,15.046,6.016A149.814,149.814,0,0,0,444.8,422.36l2.175,1.087-.26-1.182c.7-.13.378-.957-.5-2.364-.39-1.808-.886-4.172-1.442-6.867l3.25-1.182.886,1.312c-1.182,6.193-1.938,10.318-1.938,10.318s-5.909,21.2-3.262,24.489,0,7.47,0,7.47-.591,5.366.9,5.366,3.25,6.867,1.773,7.174-8.273,5.969-5.91,7.162,0,3.877,0,6.571c0,1.962,3.617,4.87,5.579,6.3-.354,1.276-.721,2.636-1.064,3.971-1.016,3.947-1.808,7.753-1.56,9.136.591,3.286-1.477,12.54-.886,15.53s2.671,9.55,1.182,12.245.3,11.642.3,11.642l2.671,25.375s-1.773,7.174,0,8.959,3.262,22.7,5.035,25.092,4.456,14.927,2.364,19.111,2.671,12.835,2.671,12.835-.3,10.153-.3,12.835,2.659,6.867,2.659,6.867,2.671,14.336,2.364,17.918,1.773,8.663,1.773,8.663,1.785,10.448,1.489,12.835,2.364,5.673,2.364,5.673,3.262,7.765,2.364,11.051,2.068,6.571,2.068,6.571-.3,7.162-.3,8.06,6.229,8.061,6.229,8.061-2.671,5.378-1.182,7.47,1.182,9.55,3.546,11.949,1.773,12.233,4.728,14.029,5.626,3.286,6.217,7.162,2.967,9.562,5.638,10.46a5.14,5.14,0,0,1,1.3,1.288l-1.182,5.023-3.652,15.187s-3.546,22.09-3.262,25.375-3.546,6.571-3.546,6.571-3.262,19.111-3.853,21.5.3,6.867.3,6.867-2.068,11.346-.591,11.949,7.706,6.867,7.706,6.867h.484l-.638,2.246-10.223,36.284s-9.455,15.826,12.457,23.886c.733,1.418,1.406,1.454.615,1.182.721.615,15.365,13,16.547,18.8s11.263,11.937,14.821,12.54,27.266,19.7,35.859.9-15.116-31.06-15.116-31.06L526.4,935.305s-9.183-13.438-10.637-15.826-4.148-14.041-2.364-15.826c.91-.922,3.758-9.1,6.335-16.878.236-.745.485-1.477.721-2.21,5.035,1.182,10.732-1.182,10.732-1.182l13.2-20.825,2.364-3.652.426.851s10.968.9,16.3,1.8a15.363,15.363,0,0,0,5.011-.627c.2.437.4.887.591,1.336a65.343,65.343,0,0,1,3.286,8.545c.886,3.877,1.785,17.61,1.785,17.61s-5.909,19.714-7.411,23.3,1.477,33.448,30.824,21.5c0,0,3.546-5.673,6.808-5.673s11.263-8.061,8.273-16.724-15.365-35.233-6.808-49.262c6.9-11.3,6.347-26.451-2.931-33.5-.39-.3-.8-.555-1.182-.815a33.8,33.8,0,0,0,0-4.515c-2.08-28.661-15.365-30.162-15.365-30.162s-7.706-1.785-8.592-4.728c-.52-1.726-7.2-10.637-12.729-17.882.189-.307.366-.615.544-.922,0-.107.118-.213.165-.319.26-.485.508-.981.745-1.5,4.3-9.668,3.191-23.733,2.967-26.25-.3-3.286,0-7.47,0-12.244s4.728-11.949,4.148-14.632,5.638-13.734,5.638-16.429,4.361-18.827,4.361-18.827,8.592-18.52,10.377-23.9c1.7-5.153,32.053-99.091,34.512-106.7a4.577,4.577,0,0,1,.165-.5s9.692-31.71,3.2-52.535a33.4,33.4,0,0,0-1.525-4.03c1.986-.957,3.357-1.655,3.357-1.655s-3.853-11.346-2.08-15.53.591-12.245.591-12.245-7.091-4.184-7.4-5.969-3.262-4.184-2.364-6.571,5.91-1.182,5.33-6.571-6.808-11.051-6.217-14.336,2.955-9.254,0-12.835-4.148-9.254-4.444-13.734c-.083-1.182.177-4.669.591-9.266a104.077,104.077,0,0,0,9.774,5.378s12.741,1.8,13.344.6a28.091,28.091,0,0,1,3.853-4.184c16-3.877,8.888-33.093,8.888-33.093s-.236-2.139-.615-5.661a3.109,3.109,0,0,0,1.111-.532c1.359-.993,1.69-2.884,2.517-4.373a21.721,21.721,0,0,1,3.286-3.853c2.931-3.191,4.669-7.269,6.347-11.275,1.064-2.553,2.151-5.106,3.227-7.67s2.364-5.626,4.728-7.481c2.718-2.187,6.406-2.612,9.869-2.931a12.352,12.352,0,0,0-2.825-7.233,7.256,7.256,0,0,1,6.217.946,2.482,2.482,0,0,0,.13-.248h.071A1.6,1.6,0,0,0,687.892,309.855Zm-253.08,81.776c.071-.591.177-1.182.307-1.773.579-.544,1.276-1.182,2.021-1.773l4.137.4c-1.016.827-1.9,1.584-2.624,2.2C437.376,390.035,435.981,390.673,434.811,391.631Zm8.273-8.191a6.364,6.364,0,0,0,1.714-.366h3.617c-1.974,1.383-3.971,2.919-5.744,4.349l.414-3.888Zm6.819-60.277s-.272,8.486.331,17.019c-.922.65-1.879,1.359-2.825,2.1l2.092-19.679Z" transform="translate(-3.937 -24.802)" fill="url(#linear-gradient)"/>
    <path id="Path_488" data-name="Path 488" d="M576.718,808.089c-3.25,0-6.8,5.614-6.8,5.614-29.252,11.819-32.207-17.729-30.729-21.274s7.387-23.047,7.387-23.047-.886-13.592-1.773-17.433a65.908,65.908,0,0,0-3.274-8.451c-1.986-4.527-4.113-8.982-4.113-8.982s12.705-31.32,29.547-28.366a19.006,19.006,0,0,1,8.273,3.546c9.254,6.973,9.81,21.972,2.919,33.093-8.569,13.887,3.841,40.185,6.8,48.753S579.968,808.089,576.718,808.089Z" transform="translate(23.617 93.396)" fill="#fdc2cc"/>
    <path id="Path_489" data-name="Path 489" d="M545.56,850.717c-8.569,18.615-32.207-.3-35.753-.887s-13.592-6.5-14.774-12.41-15.8-18-16.547-18.6c.792.248.118.213-.615-1.182C456.008,809.657,465.463,794,465.463,794l10.188-35.906,2.813-9.893,31.911-2.068s-2.187,6.985-4.621,14.325c-2.565,7.694-5.4,15.79-6.311,16.7-1.773,1.773.886,13.3,2.364,15.66s10.637,15.66,10.637,15.66L530.468,820S554.129,832.1,545.56,850.717Z" transform="translate(10.158 100.705)" fill="#fdc2cc"/>
    <path id="Path_490" data-name="Path 490" d="M508.514,746.12s-2.186,6.985-4.621,14.325a8.5,8.5,0,0,1-4.243-2.8l-25.706.591-.154-.154,2.813-9.892Z" transform="translate(12.042 100.703)" opacity="0.1"/>
    <path id="Path_491" data-name="Path 491" d="M613.762,476.953a1.277,1.277,0,0,1-.154.485c-2.458,7.529-32.715,100.462-34.417,105.591-1.773,5.319-10.342,23.638-10.342,23.638s-4.432,15.956-4.432,18.615-6.205,13.592-5.614,16.251-4.137,9.751-4.137,14.478-.3,8.864,0,12.115c.225,2.494,1.324,16.417-2.967,26a17.48,17.48,0,0,1-4.078,5.909,12.663,12.663,0,0,1-1.524,1.182C535.461,708.31,534.575,781,534.575,781l-.5.78-4.314,6.76L516.551,809.1s-10.637,4.432-15.66-1.773l-25.706.591s-6.2-6.2-7.682-6.8.591-11.819.591-11.819-.886-4.432-.3-6.8,3.841-21.274,3.841-21.274,3.841-3.25,3.546-6.5,3.25-25.115,3.25-25.115l3.64-15.022,1.8-7.411,3.723-15.365,25.115-221.9,31.911-9.751,61.459,2.955,6.737,12.174Z" transform="translate(10.802 48.688)" fill="#5f5d7e"/>
    <path id="Path_492" data-name="Path 492" d="M524.587,586c-.3,5.614-1.773,14.183-1.182,19.206s2.659,23.934,1.773,27.479,3.25,7.682,4.728,9.455.591,7.091.886,11.228,4.137,7.978,4.137,7.978-4.432,9.455-1.182,10.932,10.046,15.069,10.046,15.069,2.281,2.872,5.307,6.772a16.2,16.2,0,0,1-5.6,7.091c-10.637,7.091-11.524,79.778-11.524,79.778l-.5.78-6.6-13.19s-39.3-59.391-41.957-60.277a4.162,4.162,0,0,1-1.655-1.182l3.723-15.365,25.115-221.9L542.02,460.1l61.459,2.955-32.36,3.25s-14.384,10.318-14.478,10.637l-25.848,10.933-4.728,70.914S524.882,580.382,524.587,586Z" transform="translate(13.403 48.675)" opacity="0.1"/>
    <path id="Path_493" data-name="Path 493" d="M610.492,475.239c-.816,3.286-85.924-6.56-85.924-6.56l.591,22.752-4.728,70.914s-1.182,21.57-1.477,27.184-1.773,14.183-1.182,19.206,2.659,23.934,1.773,27.479,3.25,7.682,4.728,9.455.591,7.091.886,11.228,4.137,7.978,4.137,7.978-4.432,9.455-1.182,10.933,10.046,15.069,10.046,15.069,3.25,4.1,7.091,9.136a12.673,12.673,0,0,1-1.525,1.182c-10.637,7.091-11.524,79.778-11.524,79.778l-.5.78-4.267,6.784-8.191-16.369s-30.316-45.822-39.5-57.57l1.8-7.411,3.723-15.365,25.115-221.9L542.3,460.17l61.459,2.955Z" transform="translate(13.126 48.688)" opacity="0.1"/>
    <path id="Path_494" data-name="Path 494" d="M575.276,709.649c-1.182,21.156-23.473,31.51-33.743,33.85-1.986-4.527-4.113-8.982-4.113-8.982s12.706-31.32,29.548-28.366A19.005,19.005,0,0,1,575.276,709.649Z" transform="translate(23.617 93.396)" opacity="0.1"/>
    <path id="Path_495" data-name="Path 495" d="M529.625,594.531c-.3,5.614-1.773,14.183-1.182,19.206s2.659,23.934,1.773,27.479,3.25,7.682,4.728,9.455.591,7.092.886,11.228,4.137,7.978,4.137,7.978-4.432,9.455-1.182,10.933,10.046,15.069,10.046,15.069,19.206,24.229,20.092,27.184,8.569,4.728,8.569,4.728,13.3,1.477,15.365,29.843-32.8,39.3-38.116,38.412-16.251-1.773-16.251-1.773l-8.569-17.137s-39.3-59.391-41.958-60.277-5.023-6.5-5.614-10.341-3.25-5.319-6.2-7.091-2.364-11.523-4.728-13.887-2.068-9.751-3.546-11.819,1.182-7.387,1.182-7.387-6.205-7.091-6.205-7.978.3-7.978.3-7.978-2.955-3.25-2.068-6.5-2.364-10.933-2.364-10.933-2.659-3.25-2.364-5.614-1.477-12.705-1.477-12.705-2.068-5.023-1.773-8.569-2.364-17.728-2.364-17.728-2.659-4.137-2.659-6.8.3-12.706.3-12.706-4.728-8.569-2.659-12.705-.591-16.547-2.364-18.91-3.25-23.047-5.023-24.82,0-8.864,0-8.864l-2.659-25.115s-1.773-8.864-.3-11.523-.591-9.16-1.182-12.115,1.477-12.114.886-15.365c-.248-1.371.544-5.129,1.548-9.042,1.395-5.389,3.179-11.051,3.179-11.051s151.874-14.183,173.74.591c4.727,3.167,7.647,7.978,9.455,13.6,6.465,20.612-3.2,52-3.2,52l-83.915,10.933-4.728,70.914S529.921,588.917,529.625,594.531Z" transform="translate(4.819 40.141)" fill="#5f5d7e"/>
    <path id="Path_496" data-name="Path 496" d="M494.42,656.311s26.3-7.978,32.5-2.659S494.42,656.311,494.42,656.311Z" transform="translate(15.795 83.55)" opacity="0.1"/>
    <path id="Path_497" data-name="Path 497" d="M502.42,685.348s7.978-8.569,19.8-5.91A32.209,32.209,0,0,0,542.9,677.37Z" transform="translate(17.25 88.197)" opacity="0.1"/>
    <path id="Path_498" data-name="Path 498" d="M525.92,692.586s21.57-2.955,22.456-.3S525.92,692.586,525.92,692.586Z" transform="translate(21.525 90.709)" opacity="0.1"/>
    <path id="Path_499" data-name="Path 499" d="M520.852,707.868s23.933-7.091,25.115-4.137-26.3,3.841-26.3,3.841Z" transform="translate(20.388 92.861)" opacity="0.1"/>
    <path id="Path_500" data-name="Path 500" d="M546.425,572.37s-22.456,19.8-19.206,21.865S546.425,572.37,546.425,572.37Z" transform="translate(21.703 69.097)" opacity="0.1"/>
    <path id="Path_501" data-name="Path 501" d="M527.92,613.87s15.66,0,12.705,3.546S527.92,613.87,527.92,613.87Z" transform="translate(21.889 76.646)" opacity="0.1"/>
    <path id="Path_502" data-name="Path 502" d="M536.683,625.62s-6.205,5.319-4.728,6.5S536.683,625.62,536.683,625.62Z" transform="translate(22.581 78.784)" opacity="0.1"/>
    <path id="Path_503" data-name="Path 503" d="M478.17,732.87s19.5,6.5,19.8,10.637S478.17,732.87,478.17,732.87Z" transform="translate(12.839 98.292)" opacity="0.1"/>
    <path id="Path_504" data-name="Path 504" d="M576.149,218.752l-6.2,36.934s-53.776,28.366-54.663,28.366-39.3-6.5-40.776-6.5-26.593-75.937-8.864-80.665c4.8-1.276,11.76-4.349,19.36-8.167,20.494-10.247,45.645-25.813,45.645-25.813s37.525-4.137,28.366,21.865c-3.546,10.2-1.726,17.622,1.855,22.882C566.492,215.809,576.149,218.752,576.149,218.752Z" transform="translate(9.412 -5.428)" fill="#fdc2cc"/>
    <path id="Path_505" data-name="Path 505" d="M576.149,214.742l-6.2,36.934s-53.776,28.366-54.663,28.366-39.3-6.5-40.776-6.5-26.593-75.937-8.864-80.665c4.8-1.276,11.76-4.349,19.36-8.167,4.834.319,8.12.78,8.12.78s11.819,45.208,12.706,59.1,31.616,15.365,33.684,14.774,10.637-34.571,10.637-34.571-.886-11.819,1.773-11.819c2.222,0,7.351-7.091,8.947-9.325C566.492,211.8,576.149,214.742,576.149,214.742Z" transform="translate(9.412 -1.418)" opacity="0.1"/>
    <path id="Path_506" data-name="Path 506" d="M622.564,433.507c-4.113,2.009-13.946,6.6-16.547,5.91-3.25-.886-11.228-.886-11.228-.886s-4.727,5.318-9.751,4.137-24.82-.3-24.82-.3-35.457,1.477-42.253-.886-31.025-4.432-31.025-4.432-33.093-3.841-38.707-6.205a9.68,9.68,0,0,0-9.751,1.182s-1.028-.674-2.293-1.655c1.395-5.389,3.179-11.051,3.179-11.051s151.874-14.183,173.74.591C617.836,423.07,620.8,427.881,622.564,433.507Z" transform="translate(5.203 40.143)" opacity="0.1"/>
    <path id="Path_507" data-name="Path 507" d="M502.063,188.256S472.22,184.12,460.4,192.1a34.961,34.961,0,0,1-13.923,5.378,26.061,26.061,0,0,0-16.759,9.987c-.756,1.017-1.489,1.7-2.116,1.773-2.659.3-17.433,46.094-17.433,46.094l35.752,49.935s-.886,27.775,4.137,33.093-7.091,66.186-7.091,66.186-5.909,20.979-3.25,24.229,0,7.387,0,7.387-.591,5.319.886,5.319,3.25,6.8,1.773,7.091-8.273,5.91-5.909,7.091,0,3.841,0,6.5,6.8,7.091,6.8,7.091a9.68,9.68,0,0,1,9.751-1.182c5.614,2.364,38.707,6.2,38.707,6.2s24.229,2.068,31.025,4.432,42.253.887,42.253.887,19.8-.887,24.82.3,9.751-4.137,9.751-4.137,7.978,0,11.228.886,18.319-6.8,18.319-6.8-3.841-11.228-2.068-15.365.591-12.114.591-12.114-7.091-4.137-7.387-5.91-3.25-4.137-2.364-6.5,5.909-1.182,5.318-6.5-6.8-10.933-6.2-14.183,2.955-9.16,0-12.705-4.137-9.16-4.432-13.592S617,338.358,617,338.358L606.07,257.4l33.389-16.547s-1.477-11.524-3.546-17.728-5.023-17.138-5.023-17.138-6.8-13.3-8.273-13.887-17.138-10.933-20.683-9.455-31.616,23.047-31.616,23.047-6.8,10.046-9.455,10.046-1.773,11.819-1.773,11.819-8.569,33.98-10.637,34.571-32.8-.886-33.684-14.774S502.063,188.256,502.063,188.256Z" transform="translate(0.47 -1.821)" fill="#d39999"/>
    <path id="Path_508" data-name="Path 508" d="M453.14,338.01a67.009,67.009,0,0,1-12.469,1.536c-6.063.166-11.394-.6-12.705-2.789-3.546-5.909-3.546-17.138-3.546-17.138s16.026,3.7,27.089,7.741l1.832.685h0c4.29,1.666,7.552,3.368,8.273,4.858C462.643,334.9,458.683,336.769,453.14,338.01Z" transform="translate(3.062 23.122)" fill="#fdc2cc"/>
    <circle id="Ellipse_36" data-name="Ellipse 36" cx="54.072" cy="54.072" r="54.072" transform="translate(518.193 88.633)" opacity="0.1"/>
    <circle id="Ellipse_37" data-name="Ellipse 37" cx="54.072" cy="54.072" r="54.072" transform="translate(518.193 86.269)" fill="#fdc2cc"/>
    <path id="Path_509" data-name="Path 509" d="M445.67,395.37s15.365,0,21.274,1.477,18.32,1.773,18.32,1.773S450.989,397.438,445.67,395.37Z" transform="translate(6.927 36.901)" opacity="0.1"/>
    <path id="Path_510" data-name="Path 510" d="M446.17,403.37s19.8,1.477,20.092,4.432S446.17,403.37,446.17,403.37Z" transform="translate(7.018 38.356)" opacity="0.1"/>
    <path id="Path_511" data-name="Path 511" d="M573.67,372.62s12.114,4.432,11.819,5.91S574.852,376.166,573.67,372.62Z" transform="translate(30.211 32.763)" opacity="0.1"/>
    <path id="Path_512" data-name="Path 512" d="M421.267,239.62l-7.682,5.319s-3.25,18.91-3.25,23.343-5.319,36.343-5.319,36.343-1.773,5.91-1.182,8.273-2.364,14.478-2.364,14.478-10.637,24.524-10.046,26,50.526,6.205,50.526,6.205l7.091-66.187Z" transform="translate(-2.945 8.57)" fill="#d39999"/>
    <path id="Path_513" data-name="Path 513" d="M398.807,329.12,391.42,337.1s-.3,26,7.091,28.661,12.114,1.477,14.478,3.546,15.069,5.91,15.069,5.91,13.887,2.068,18.024,1.477-24.229-23.343-5.614-42.548Z" transform="translate(-2.941 24.85)" fill="#d39999"/>
    <path id="Path_514" data-name="Path 514" d="M599.376,222.12l10.341,11.523s4.432,27.479,3.25,31.32,6.205,70.619,6.205,70.619,7.091,28.957-8.864,32.8a27.893,27.893,0,0,0-3.841,4.137c-.591,1.182-13.3-.591-13.3-.591l-19.5-127.941Z" transform="translate(30.211 5.386)" fill="#d39999"/>
    <path id="Path_515" data-name="Path 515" d="M484.333,318.76s38.707-23.047,45.8-24.229,51.117-22.161,51.117-22.161,21.865,11.228,23.933,19.8-9.16,42.844-9.16,42.844-36.048,25.115-38.116,30.434-33.093,20.979-33.093,23.638-49.049,31.616-70.619,6.2-21.274-32.8-21.274-32.8l54.663-12.705,5.319-23.638Z" transform="translate(4.608 14.527)" opacity="0.1"/>
    <path id="Path_516" data-name="Path 516" d="M484.333,316.76s38.707-23.047,45.8-24.229,51.117-22.161,51.117-22.161,21.865,11.228,23.933,19.8-9.16,42.844-9.16,42.844-36.048,25.115-38.116,30.434-33.093,20.979-33.093,23.638-49.049,31.616-70.619,6.2-21.274-32.8-21.274-32.8l54.663-12.705,5.319-23.638Z" transform="translate(4.608 14.163)" fill="#c4c8e2"/>
    <path id="Path_517" data-name="Path 517" d="M432.616,320.139l-1.773,14.774-14.053-1.028-13.722-1.016s-7.978,0-13-11.819,11.228-13.592,12.115-11.819c.674,1.336,17.728,6.9,26,9.538Z" transform="translate(-3.362 21.125)" fill="#fdc2cc"/>
    <path id="Path_518" data-name="Path 518" d="M428.356,318.581l-1.773,14.774-14.053-1.028c2.293-3.4,7.092-9.632,11.405-15.117Z" transform="translate(0.899 22.683)" opacity="0.1"/>
    <path id="Path_519" data-name="Path 519" d="M424.42,319.62s16.026,3.7,27.089,7.741c-.733,1.182-5.626,8.841-10.838,12.185-6.063.166-11.394-.6-12.705-2.789C424.42,330.848,424.42,319.62,424.42,319.62Z" transform="translate(3.062 23.122)" opacity="0.1"/>
    <path id="Path_520" data-name="Path 520" d="M448.819,336.712l-.26-2.045s-.118-.437-.225-1.1c-.213-1.347-.366-3.617.626-5,.579-.816.449-1.395.071-1.808,4.29,1.667,7.552,3.368,8.273,4.858C458.321,333.6,454.362,335.471,448.819,336.712Z" transform="translate(7.383 24.421)" opacity="0.1"/>
    <path id="Path_521" data-name="Path 521" d="M510.226,332.672s-16.05,16.062-17.043,19.5-31.32,3.546-31.32,3.546l-2.068-16.547s-.118-.437-.224-1.1c-.213-1.347-.366-3.617.626-5,1.477-2.068-1.678-2.659-1.678-2.659S450.339,343.9,443.448,344.3c0,0-9.55,6.89-9.455,8.273,0,0-4.633,4.231-4.728,9.349s-6,7.2-10.342,5.72-15.069-4.633-18.52-4.137-14.372,3.735-13.982-6.406c0,0,14.183-10.637,17.728-10.342s11.819-3.841,13-7.091,21.274-28.07,21.274-28.07,12.706-12.02,17.823-13.2c0,0,10.247-7.978,25.706,4.137,0,0,21.381,13.19,22.066,14.963.544,1.395,6.749,7.351,7.269,11.819a3.652,3.652,0,0,1-1.064,3.357Z" transform="translate(-3.852 18.792)" fill="#fdc2cc"/>
    <path id="Path_522" data-name="Path 522" d="M448.992,307.12s1.572,9.065.792,12.315-2.364,8.864-2.364,8.864S456.97,313.325,448.992,307.12Z" transform="translate(7.245 20.848)" opacity="0.1"/>
    <path id="Path_523" data-name="Path 523" d="M449.33,326.447s4.929-5.425,6.016-4.042S449.33,326.447,449.33,326.447Z" transform="translate(7.593 23.587)" opacity="0.1"/>
    <path id="Path_524" data-name="Path 524" d="M630.691,284.313a34.583,34.583,0,0,1-25.1,33.259,34.014,34.014,0,0,1-9.3,1.324h-.177a34.571,34.571,0,0,1-34.559-34.582,32.933,32.933,0,0,1,.544-6.051A34.512,34.512,0,0,1,593.6,249.9c.827-.071,1.666-.106,2.506-.106A34.571,34.571,0,0,1,630.691,284.313Z" transform="translate(28.006 10.42)" fill="#f8bdc5"/>
    <path id="Path_525" data-name="Path 525" d="M644.087,280.923a12.16,12.16,0,0,1,2.813,7.162c-3.451.319-7.091.733-9.833,2.9-2.364,1.844-3.546,4.728-4.728,7.411q-1.619,3.794-3.215,7.588c-1.678,3.959-3.4,8-6.323,11.157a21.84,21.84,0,0,0-3.286,3.806c-.816,1.477-1.182,3.345-2.506,4.338a4.727,4.727,0,0,1-4.467.248c-1.454-.544-2.754-1.454-4.208-2.033a13.4,13.4,0,0,0-2.9-.757h0c-4.326-.638-9.089.3-12.765-2.033a7.62,7.62,0,0,1-1.182-.969,11.44,11.44,0,0,1-3.014-5.106,5.743,5.743,0,0,1-.284-2.446,5.283,5.283,0,0,1,2.742-3.546c.2-.118.4-.236.615-.343,3.546-1.856,8.474-2.293,10.33-5.91,1.773-3.427-.425-7.6-3.12-10.365-1.276-1.3-2.789-2.777-2.612-4.6.165-1.607,1.6-2.73,2.789-3.806A20.707,20.707,0,0,0,605.415,272a8.83,8.83,0,0,0-.071-4.2,11.124,11.124,0,0,0-1.5-2.754l-3.829-5.673a15.568,15.568,0,0,0-4.728-5.011c-1.6-.957-3.427-1.288-5.035-2.234a3.993,3.993,0,0,1-1.489-1.418,1.524,1.524,0,0,1-.189-1.111c.2-.946,1.182-1.406,2.163-1.678a21.071,21.071,0,0,1,7.824-.745,6.076,6.076,0,0,0,2.529,0,1.784,1.784,0,0,0,1.312-1.926c2.908-.756,5.661,1.513,7.789,3.64s4.728,4.456,7.73,3.853c1.076-.213,2.068-.827,3.156-.946s2.435.591,2.364,1.69-1.442,1.808-1.324,2.872a2.115,2.115,0,0,0,.484.993,24.987,24.987,0,0,0,4.81,4.988c0-2.092,0-4.2,0-6.288,2.364.591,3.227,3.617,2.955,6.063s-1.182,4.917-.615,7.3a2.684,2.684,0,0,0,1.418,1.926,3.544,3.544,0,0,0,1.856,0c5.425-.768,11.76.674,14.455,5.437l-4.728-1.714,5.5,3a5.78,5.78,0,0,1,1.962,1.477,1.962,1.962,0,0,1,.142,2.293A7.339,7.339,0,0,0,644.087,280.923Z" transform="translate(32.847 9.567)" fill="#585268"/>
    <g id="Group_25" data-name="Group 25" transform="translate(621.261 254.41)" opacity="0.1">
      <path id="Path_526" data-name="Path 526" d="M626.683,267.11a3.546,3.546,0,0,0,1.856,0c.532-.071,1.064-.118,1.608-.154a19.037,19.037,0,0,0-3.546.106Z" transform="translate(-581.422 -240.875)"/>
      <path id="Path_527" data-name="Path 527" d="M636.43,270.26l2.033,1.123-.378-.532Z" transform="translate(-579.634 -240.267)"/>
      <path id="Path_528" data-name="Path 528" d="M623.894,260.428v-4.137a3.641,3.641,0,0,0-2.364-2.151v4.16a25.408,25.408,0,0,0,2.364,2.127Z" transform="translate(-582.345 -243.199)"/>
      <path id="Path_529" data-name="Path 529" d="M638.43,275.072a7.327,7.327,0,0,1,2.907,1.182,1.464,1.464,0,0,0,.3-.957A7.516,7.516,0,0,0,638.43,275.072Z" transform="translate(-579.271 -239.406)"/>
      <path id="Path_530" data-name="Path 530" d="M615.116,325.069c-1.454-.544-2.754-1.454-4.208-2.033a13.388,13.388,0,0,0-2.9-.756h0c-4.326-.638-9.089.3-12.764-2.033a7.621,7.621,0,0,1-1.182-.969,11.441,11.441,0,0,1-3.014-5.106,5.74,5.74,0,0,1-.283-2.447,5.282,5.282,0,0,1,2.742-3.546c.2-.118.4-.236.614-.343,3.605-1.856,8.474-2.293,10.33-5.909,1.773-3.428-.425-7.6-3.12-10.365-1.276-1.3-2.789-2.777-2.612-4.6.165-1.607,1.6-2.73,2.789-3.806a20.706,20.706,0,0,0,6.477-11.618,8.832,8.832,0,0,0-.071-4.2,11.126,11.126,0,0,0-1.5-2.754l-3.829-5.673a15.564,15.564,0,0,0-4.728-5.011c-1.6-.957-3.427-1.288-5.035-2.234a4,4,0,0,1-1.489-1.418,1.525,1.525,0,0,1-.189-1.111c.2-.945,1.241-1.406,2.163-1.678a21.843,21.843,0,0,1,4.727-.78,21.271,21.271,0,0,0-7.091.78c-.922.272-1.962.733-2.163,1.678a1.525,1.525,0,0,0,.189,1.111,3.994,3.994,0,0,0,1.489,1.418c1.607.946,3.439,1.276,5.035,2.234a15.566,15.566,0,0,1,4.728,5.011l3.829,5.673a11.118,11.118,0,0,1,1.5,2.754,8.83,8.83,0,0,1,.071,4.2,20.71,20.71,0,0,1-6.477,11.618c-1.182,1.076-2.624,2.2-2.789,3.806-.177,1.82,1.336,3.3,2.612,4.6,2.695,2.766,4.893,6.938,3.12,10.365-1.856,3.6-6.725,4.042-10.33,5.909-.213.106-.414.225-.615.343a5.283,5.283,0,0,0-2.742,3.546,5.743,5.743,0,0,0,.284,2.447,11.439,11.439,0,0,0,3.014,5.106,7.609,7.609,0,0,0,1.182.969c3.676,2.364,8.439,1.395,12.765,2.033h0a13.392,13.392,0,0,1,2.9.756c1.454.579,2.754,1.489,4.207,2.033a5.579,5.579,0,0,0,3.333.284A7.008,7.008,0,0,1,615.116,325.069Z" transform="translate(-588.375 -244.562)"/>
      <path id="Path_531" data-name="Path 531" d="M615.833,251.487a17.371,17.371,0,0,0,2.139-.7,2.541,2.541,0,0,0-1.347-.248,24.912,24.912,0,0,0-2.955.9,4.929,4.929,0,0,0,2.163.047Z" transform="translate(-583.774 -243.856)"/>
      <path id="Path_532" data-name="Path 532" d="M599.133,247.007a6.077,6.077,0,0,0,2.529-.059,1.785,1.785,0,0,0,1.312-1.915,4.728,4.728,0,0,0-2.364,0,1.785,1.785,0,0,1-1.312,1.926,1.889,1.889,0,0,1-.248.059Z" transform="translate(-586.434 -244.883)"/>
    </g>
    <path id="Path_533" data-name="Path 533" d="M571.265,265.315c-4.409,3.3-11.441,4.728-17.906,5.2a96.167,96.167,0,0,1-15.187,0l-11.382-4.278s.922-1.832,2.482-4.255c3.108-4.822,8.758-12,14.656-11.7,8.864.437,18.178.875,19.064.875S581.157,257.928,571.265,265.315Z" transform="translate(21.683 10.507)" fill="#fdc2cc"/>
    <path id="Path_534" data-name="Path 534" d="M555.389,62.839c-8.415-.154-17.1-.248-24.82,2.99-15.518,6.418-22.834,23.567-32.219,37.4A106.95,106.95,0,0,1,469.1,132.193c-5.437,3.546-11.748,7.446-13.06,13.828-1.395,6.749,3.428,13,5.91,19.4,5.259,13.6,0,28.673-3.108,42.927a139.316,139.316,0,0,0-2.8,20.778,28.835,28.835,0,0,0,.626,9.668c2.364,8.344,11.3,14.372,11.37,23.047,0,5.909-4.16,11.488-2.943,17.232,1.572,7.34,10.483,9.987,17.87,11.252a9.136,9.136,0,0,0,5.377-.165c1.182-.567,2.151-1.655,3.357-2.258,4.1-2.033,8.651,2.258,13.237,2.175,5.756-.106,8.994-6.9,9.136-12.658s-1.395-11.819.674-17.138c2.754-7.091,10.637-10.46,17.291-14.183,7.363-4.125,14.372-10.082,16.547-18.225,1.359-5.035.745-10.365.2-15.542-.827-7.942-1.477-15.92-1.927-23.886-1.182-20.329,15.707-37.265,36-35.682h.378c5.909.485,12.883,1.052,17.055-3.25,1.655-1.714,2.707-4.078,4.728-5.259,3.948-2.246,9.373.957,13.344-1.253,3.108-1.737,3.77-5.909,3.286-9.455s-1.726-7.091-1.064-10.566c.946-4.929,5.425-8.451,7.091-13.19,1.915-5.4-.154-11.441-3.132-16.334C615,77.719,595.585,65.4,577.384,63.749,570.068,63.04,562.729,62.957,555.389,62.839Z" transform="translate(8.768 -23.598)" fill="#865a61"/>
    <path id="Path_535" data-name="Path 535" d="M529.272,260.15c7.021,1.442,15.565,4.645,24.087,8.557a96.179,96.179,0,0,1-15.187,0l-11.382-4.278A49.418,49.418,0,0,1,529.272,260.15Z" transform="translate(21.683 12.304)" opacity="0.1"/>
    <path id="Path_536" data-name="Path 536" d="M610.292,317.5c-4.326-.638-9.089.3-12.765-2.033a7.6,7.6,0,0,1-1.182-.969h-.177a34.57,34.57,0,0,1-34.618-34.571,32.934,32.934,0,0,1,.544-6.051c12.114,6.772,21.936,13.734,23.827,17.138a70.348,70.348,0,0,0,9.81,12.374c3.3,3.546,6.831,6.95,9.857,9.8C607.384,314.857,609,316.334,610.292,317.5Z" transform="translate(28.006 14.802)" opacity="0.1"/>
    <path id="Path_537" data-name="Path 537" d="M620.845,323.885s-21.57-18.615-27.479-29.252-88.938-55.845-78.3-21.57,47.276,37.525,47.276,37.525,11.819,13.3,13,19.8,5.319,15.956,5.319,15.956l19.8,8.864,9.16-2.068S631.187,341.318,620.845,323.885Z" transform="translate(19.379 12.356)" fill="#fdc2cc"/>
    <path id="Path_538" data-name="Path 538" d="M569.42,336.213s34.866,19.8,38.412-26.593l8.864,2.955L607.832,343.9l-15.069,10.932S571.784,345.077,569.42,336.213Z" transform="translate(29.437 21.303)" opacity="0.1"/>
    <path id="Path_539" data-name="Path 539" d="M570.42,337.213s34.866,19.8,38.412-26.593l8.864,2.955L608.832,344.9l-15.069,10.933S572.784,346.077,570.42,337.213Z" transform="translate(29.619 21.485)" fill="#d39999"/>
    <path id="Path_540" data-name="Path 540" d="M607.035,139.725c.4-4.148,2.092-8.061,2.978-12.138a32.067,32.067,0,0,0,.354-12.008,17.433,17.433,0,0,0-3.12-7.99c-1.182-1.477-4.728-4.728-6.8-3.262-1.182.839-1.5,5.7-1.974,7.091a61.238,61.238,0,0,1-6.618,13.3A54.06,54.06,0,0,1,548.129,210.5c-1.288,0-2.565-.059-3.829-.154-1.182,2.057-2.257,4.137-3.345,6.217a19.309,19.309,0,0,0-2.553,6.891,17.94,17.94,0,0,0,1.052,6.855,96.688,96.688,0,0,0,9.053,20.671,31.264,31.264,0,0,1,3.25,6.465c.674,2.187.792,4.527,1.666,6.63,1.962,4.728,7.091,7.091,11.819,9.065,2.825,1.182,5.78,2.364,8.829,2.116a2.056,2.056,0,0,0,2.21-2.092,8,8,0,0,0-2.364-6.8,33.921,33.921,0,0,0,12.41,1.477,2,2,0,0,0,2.151-2.931,53.186,53.186,0,0,0-4.94-12.788c-2.151-3.971-4.893-8.592-2.931-12.646,1.123-2.364,3.487-3.688,5.638-5.094,7.269-4.728,13.71-12.434,13.143-21.1-.307-4.728-2.695-9.231-2.837-13.994-.366-11.618,12.138-19.927,14.029-31.4C612.082,158.505,606.125,149.216,607.035,139.725Z" transform="translate(23.792 -16.108)" fill="#865a61"/>
    <g id="Group_26" data-name="Group 26" transform="translate(463.998 79.249)" opacity="0.1">
      <path id="Path_541" data-name="Path 541" d="M467.48,231.367c-.071-8.675-8.994-14.7-11.37-23.047a19.416,19.416,0,0,1-.674-4.03,26.544,26.544,0,0,0,.674,8.758c2.175,7.623,9.786,13.32,11.145,20.872A14.174,14.174,0,0,0,467.48,231.367Z" transform="translate(-455.314 -77.106)"/>
      <path id="Path_542" data-name="Path 542" d="M502.993,252.856c-4.586.083-9.136-4.208-13.237-2.175-1.182.6-2.127,1.69-3.357,2.257a9.136,9.136,0,0,1-5.378.165c-7.363-1.265-16.251-3.9-17.847-11.181a12.1,12.1,0,0,0,0,4.657c1.572,7.34,10.483,9.987,17.87,11.252a9.136,9.136,0,0,0,5.378-.165c1.182-.567,2.151-1.655,3.357-2.257,4.1-2.033,8.652,2.257,13.237,2.175,5.756-.106,8.994-6.9,9.136-12.658,0-1.182,0-2.364-.083-3.546C511.467,246.84,508.347,252.75,502.993,252.856Z" transform="translate(-453.928 -70.359)"/>
      <path id="Path_543" data-name="Path 543" d="M539.164,199.178c-2.2,8.143-9.207,14.1-16.547,18.225-6.654,3.735-14.537,7.091-17.291,14.183a22.608,22.608,0,0,0-1.016,9.514,16.734,16.734,0,0,1,1.016-4.787c2.754-7.091,10.637-10.46,17.291-14.183,7.363-4.125,14.372-10.082,16.547-18.225a29.876,29.876,0,0,0,.745-9.455A24.321,24.321,0,0,1,539.164,199.178Z" transform="translate(-446.428 -78.896)"/>
      <path id="Path_544" data-name="Path 544" d="M598.763,127.353c-2.848-.213-5.815-.875-8.273.5-2.068,1.182-3.12,3.546-4.728,5.259-4.172,4.3-11.086,3.735-17.055,3.25h-.378c-20.293-1.584-37.159,15.365-36,35.682v.473a33.649,33.649,0,0,1,35.977-31.427h.378c5.909.485,12.883,1.052,17.055-3.25,1.655-1.714,2.706-4.078,4.728-5.259,2.364-1.371,5.378-.709,8.273-.5a53.866,53.866,0,0,1,3.841,17.729c0-.768.059-1.537.059-2.364a54,54,0,0,0-3.878-20.1Z" transform="translate(-441.318 -91.164)"/>
      <path id="Path_545" data-name="Path 545" d="M463.606,163a36.508,36.508,0,0,0-2.163-15.128c-1.867-4.834-5.07-9.573-5.909-14.5-1.288,6.678,3.475,12.859,5.909,19.23A33.9,33.9,0,0,1,463.606,163Z" transform="translate(-455.316 -90.006)"/>
      <path id="Path_546" data-name="Path 546" d="M599.627,116.12a30.726,30.726,0,0,1-.662,4.527c-.887,4.078-2.577,7.99-2.978,12.138a23.237,23.237,0,0,0,0,4.444c.449-4.042,2.068-7.871,2.943-11.819a32.015,32.015,0,0,0,.7-9.29Z" transform="translate(-429.747 -93.144)"/>
      <path id="Path_547" data-name="Path 547" d="M601.09,154.228c-1.891,11.476-14.4,19.785-14.029,31.4a16.324,16.324,0,0,0,.165,1.879c1.489-10.176,12.138-18.036,13.864-28.555a21.852,21.852,0,0,0,.118-5.756A7.569,7.569,0,0,1,601.09,154.228Z" transform="translate(-431.353 -86.399)"/>
      <path id="Path_548" data-name="Path 548" d="M601.4,98.867a33.084,33.084,0,0,1-4.255,7.091,16.408,16.408,0,0,1,1.182,2.978,23.5,23.5,0,0,0,3.038-5.4,14.183,14.183,0,0,0,.544-6.855A12.488,12.488,0,0,1,601.4,98.867Z" transform="translate(-429.517 -96.68)"/>
      <path id="Path_549" data-name="Path 549" d="M592.313,195.39c-1.052,7.233-6.713,13.533-13,17.658-2.151,1.406-4.515,2.777-5.638,5.094a7.824,7.824,0,0,0-.319,5.531,5.163,5.163,0,0,1,.319-.8c1.123-2.364,3.487-3.688,5.638-5.094,7.269-4.728,13.71-12.434,13.143-21.1C592.431,196.241,592.372,195.815,592.313,195.39Z" transform="translate(-433.91 -78.725)"/>
      <path id="Path_550" data-name="Path 550" d="M575.067,251.819a2.53,2.53,0,0,1-1.525.52c-3.049.26-6-.934-8.829-2.116-4.728-1.962-9.881-4.349-11.819-9.065-.875-2.1-.993-4.444-1.666-6.63a31.247,31.247,0,0,0-3.25-6.465,96.69,96.69,0,0,1-9.053-20.671,31.844,31.844,0,0,1-.851-3.321c-.083.39-.154.792-.2,1.182a17.945,17.945,0,0,0,1.052,6.855,96.7,96.7,0,0,0,9.053,20.671,31.254,31.254,0,0,1,3.25,6.465c.674,2.187.792,4.527,1.667,6.63,1.962,4.728,7.091,7.091,11.819,9.065,2.825,1.182,5.779,2.364,8.829,2.116a2.056,2.056,0,0,0,2.21-2.092,7.836,7.836,0,0,0-.355-3.546,1.428,1.428,0,0,1-.331.4Z" transform="translate(-440.302 -77.146)"/>
      <path id="Path_551" data-name="Path 551" d="M581.868,238.5a3.77,3.77,0,0,1-1.548.366,33.921,33.921,0,0,1-12.41-1.477,7.979,7.979,0,0,1,2.423,5.378,33.79,33.79,0,0,0,9.987.827,2,2,0,0,0,2.151-2.931C582.294,239.931,582.081,239.21,581.868,238.5Z" transform="translate(-434.835 -71.085)"/>
    </g>
    <path id="Path_552" data-name="Path 552" d="M440.2,260.37s-1.182,24.229,2.364,26S440.2,260.37,440.2,260.37Z" transform="translate(5.898 12.344)" opacity="0.1"/>
    <path id="Path_553" data-name="Path 553" d="M496.92,314.37c1.182,0,5.909,2.364,6.5,5.023S496.92,314.37,496.92,314.37Z" transform="translate(16.25 22.167)" opacity="0.1"/>
    <path id="Path_554" data-name="Path 554" d="M494.42,317.62c1.182,0,5.909,2.364,6.5,5.023S494.42,317.62,494.42,317.62Z" transform="translate(15.795 22.758)" opacity="0.1"/>
    <path id="Path_555" data-name="Path 555" d="M503.67,326.62c1.182,0,5.91,2.364,6.5,5.023S503.67,326.62,503.67,326.62Z" transform="translate(17.478 24.395)" opacity="0.1"/>
    <path id="Path_556" data-name="Path 556" d="M498.966,327.613s-16.05,16.062-17.043,19.5-31.32,3.546-31.32,3.546l-2.068-16.547s-.118-.437-.225-1.1c8.38-2.151,35.552-12.185,51.72-8.628A3.652,3.652,0,0,1,498.966,327.613Z" transform="translate(7.407 23.851)" opacity="0.1"/>
    <path id="Path_557" data-name="Path 557" d="M429.9,347.768s15.471-13.686,20.2-13.391,62.345-24.229,66.186,3.25-73.573,28.957-73.573,28.957l-11.819,4.432S421.035,349.541,429.9,347.768Z" transform="translate(3.386 24.025)" fill="#fdc2cc"/>
    <path id="Path_558" data-name="Path 558" d="M425.682,346.455s7.091-9.845,9.254,2.163,5.425,26.794,5.425,26.794L424.5,367.528Z" transform="translate(3.076 27.312)" fill="#d39999"/>
    <ellipse id="Ellipse_38" data-name="Ellipse 38" cx="52.937" cy="8.12" rx="52.937" ry="8.12" transform="translate(1032.497 777.244)" fill="#de1a51" opacity="0.1"/>
    <ellipse id="Ellipse_39" data-name="Ellipse 39" cx="82.733" cy="12.694" rx="82.733" ry="12.694" transform="translate(853.274 919.273)" fill="#de1a51" opacity="0.1"/>
    <ellipse id="Ellipse_40" data-name="Ellipse 40" cx="109.432" cy="16.795" rx="109.432" ry="16.795" transform="translate(1051.136 960.084)" fill="#de1a51" opacity="0.1"/>
    <ellipse id="Ellipse_41" data-name="Ellipse 41" cx="82.733" cy="12.694" rx="82.733" ry="12.694" transform="translate(0 789.276)" fill="#de1a51" opacity="0.1"/>
    <path id="Path_559" data-name="Path 559" d="M945.9,628.21s-7.481,34.866,25.825,39l2.068-3.876S947.969,639.06,945.9,628.21Z" transform="translate(97.789 79.255)" fill="#de1a51"/>
    <path id="Path_560" data-name="Path 560" d="M982.8,665.767l-7.742,1.643-.78.177s-20.66-16.783-20.4-54.237a94.048,94.048,0,0,0,9.869,15.625C971.94,639.8,981.206,654.3,982.8,665.767Z" transform="translate(99.371 76.552)" fill="#de1a51"/>
    <path id="Path_561" data-name="Path 561" d="M983.407,671.346a4.845,4.845,0,0,1-4.172.544c-19.891-4.645-13.166-69.46-13.166-69.46,1.1.52,2.364,8.758,6.879,19.407C980.972,640.535,989.825,666.654,983.407,671.346Z" transform="translate(101.389 74.565)" fill="#de1a51"/>
    <path id="Path_562" data-name="Path 562" d="M1023.136,628.21s1.3,34.866-32.018,39l-2.068-3.876S1021.08,639.06,1023.136,628.21Z" transform="translate(105.769 79.255)" fill="#de1a51"/>
    <path id="Path_563" data-name="Path 563" d="M1015.214,613.35c.248,37.455-26.593,54.238-26.593,54.238l-.78-.177-7.742-1.643c1.525-11.5,10.862-26,19.041-36.792A83.8,83.8,0,0,1,1015.214,613.35Z" transform="translate(104.141 76.552)" fill="#de1a51"/>
    <path id="Path_564" data-name="Path 564" d="M988.459,667.955a12.285,12.285,0,0,1-4.432,3.392h0a7.892,7.892,0,0,1-1.619.544c-4.9,1.182-6.607-2.364-6.323-8.38.461-10.637,7.174-29.193,13.2-43.045,4.338-9.975,11.429-17.539,12.481-18.036C1001.744,602.43,1001.448,652.9,988.459,667.955Z" transform="translate(103.405 74.565)" fill="#de1a51"/>
    <path id="Path_565" data-name="Path 565" d="M983.511,583.2s-22.208,78.762-3.1,90.64S988.428,590.173,983.511,583.2Z" transform="translate(102.786 71.067)" fill="#de1a51"/>
    <path id="Path_566" data-name="Path 566" d="M945.9,628.21s-7.481,34.866,25.825,39l2.068-3.876S947.969,639.06,945.9,628.21Z" transform="translate(97.789 79.255)" opacity="0.1"/>
    <path id="Path_567" data-name="Path 567" d="M982.8,665.767l-7.742,1.643-.78.177s-20.66-16.783-20.4-54.237a94.048,94.048,0,0,0,9.869,15.625C971.94,639.8,981.206,654.3,982.8,665.767Z" transform="translate(99.371 76.552)" opacity="0.1"/>
    <path id="Path_568" data-name="Path 568" d="M983.407,671.346a4.845,4.845,0,0,1-4.172.544c-19.891-4.645-13.166-69.46-13.166-69.46,1.1.52,2.364,8.758,6.879,19.407C980.972,640.535,989.825,666.654,983.407,671.346Z" transform="translate(101.389 74.565)" opacity="0.1"/>
    <path id="Path_569" data-name="Path 569" d="M1023.136,628.21s1.3,34.866-32.018,39l-2.068-3.876S1021.08,639.06,1023.136,628.21Z" transform="translate(105.769 79.255)" opacity="0.1"/>
    <path id="Path_570" data-name="Path 570" d="M1015.214,613.35c.248,37.455-26.593,54.238-26.593,54.238l-.78-.177-7.742-1.643c1.525-11.5,10.862-26,19.041-36.792A83.8,83.8,0,0,1,1015.214,613.35Z" transform="translate(104.141 76.552)" opacity="0.1"/>
    <path id="Path_571" data-name="Path 571" d="M988.459,667.955a12.285,12.285,0,0,1-4.432,3.392h0a7.892,7.892,0,0,1-1.619.544c-4.9,1.182-6.607-2.364-6.323-8.38.461-10.637,7.174-29.193,13.2-43.045,4.338-9.975,11.429-17.539,12.481-18.036C1001.744,602.43,1001.448,652.9,988.459,667.955Z" transform="translate(103.405 74.565)" opacity="0.1"/>
    <path id="Path_572" data-name="Path 572" d="M983.511,583.2s-22.208,78.762-3.1,90.64S988.428,590.173,983.511,583.2Z" transform="translate(102.786 71.067)" opacity="0.1"/>
    <path id="Path_573" data-name="Path 573" d="M945.819,628.21s-4.385,34.866,28.921,39l2.068-3.876S947.888,639.06,945.819,628.21Z" transform="translate(97.87 79.255)" fill="#de1a51"/>
    <path id="Path_574" data-name="Path 574" d="M985.928,665.767l-7.742,1.643-.78.177S953.65,650.8,953.91,613.35c0,0,6.087,6.524,13,15.625C975.043,639.8,984.344,654.3,985.928,665.767Z" transform="translate(99.376 76.552)" fill="#de1a51"/>
    <path id="Path_575" data-name="Path 575" d="M983.932,663.363l-7.742,1.643c-7.34-6.441-10.259-23.271-11.311-38.435C973.047,637.4,982.348,651.9,983.932,663.363Z" transform="translate(101.372 78.956)" opacity="0.1"/>
    <path id="Path_576" data-name="Path 576" d="M986.375,671.346a4.846,4.846,0,0,1-4.172.544c-19.891-4.645-16.263-69.46-16.263-69.46,1.1.52,5.4,8.758,9.975,19.407C983.94,640.535,992.757,666.654,986.375,671.346Z" transform="translate(101.518 74.565)" fill="#de1a51"/>
    <path id="Path_577" data-name="Path 577" d="M1022.658,628.21s4.4,34.866-28.921,39l-2.057-3.876S1020.6,639.06,1022.658,628.21Z" transform="translate(106.247 79.255)" fill="#de1a51"/>
    <path id="Path_578" data-name="Path 578" d="M1014.738,613.35c.248,37.455-23.5,54.238-23.5,54.238l-.78-.177-7.741-1.643c1.536-11.5,10.862-26,19.04-36.792C1008.651,619.874,1014.738,613.35,1014.738,613.35Z" transform="translate(104.617 76.552)" fill="#de1a51"/>
    <path id="Path_579" data-name="Path 579" d="M1001.76,626.57c-.993,14.183-3.546,29.713-9.869,36.993a11.8,11.8,0,0,1-1.43,1.442l-7.741-1.643C984.233,651.9,993.582,637.4,1001.76,626.57Z" transform="translate(104.617 78.956)" opacity="0.1"/>
    <path id="Path_580" data-name="Path 580" d="M991.081,667.955a12.185,12.185,0,0,1-4.432,3.392h0a8.249,8.249,0,0,1-1.631.544c-4.893,1.182-6.607-2.364-6.323-8.38.461-10.637,7.174-29.193,13.2-43.045,4.338-9.975,8.273-17.539,9.384-18.036C1001.269,602.43,1004.082,652.9,991.081,667.955Z" transform="translate(103.88 74.565)" fill="#de1a51"/>
    <path id="Path_581" data-name="Path 581" d="M984.981,668.353a5.446,5.446,0,0,1-3.144-1c-9.361-5.827-9.55-27.7-7.316-48.458C982.547,637.54,991.364,663.66,984.981,668.353Z" transform="translate(102.911 77.559)" opacity="0.1"/>
    <path id="Path_582" data-name="Path 582" d="M991.076,665.179c-1.075,2.364-2.529,3.546-4.432,3.392h0a6.2,6.2,0,0,1-2.671-1,14.183,14.183,0,0,1-5.283-6.831c.461-10.637,7.174-29.193,13.2-43.045C994.031,636.967,994.74,657.3,991.076,665.179Z" transform="translate(103.884 77.341)" opacity="0.1"/>
    <path id="Path_583" data-name="Path 583" d="M983.147,583.2s-19.1,78.762,0,90.64S988.063,590.173,983.147,583.2Z" transform="translate(103.151 71.067)" fill="#de1a51"/>
    <path id="Path_584" data-name="Path 584" d="M962.38,626.99H882.85v13.167h12.126l.307,1.548,4.858,25.564h46.236l4.858-25.564.3-1.548h10.85Z" transform="translate(160.591 114.053)" fill="#4b4770"/>
    <path id="Path_585" data-name="Path 585" d="M962.38,626.99H882.85v13.167h12.126l.307,1.548,4.858,25.564h46.236l4.858-25.564.3-1.548h10.85Z" transform="translate(160.591 114.053)" opacity="0.1"/>
    <path id="Path_586" data-name="Path 586" d="M953.482,633.54l-1.324,6.973-4.87,25.564H901.053L896.2,640.513l-1.336-6.973Z" transform="translate(162.776 115.244)" fill="#4b4770"/>
    <path id="Path_587" data-name="Path 587" d="M953.482,633.54l-1.324,6.973H896.2l-1.336-6.973Z" transform="translate(162.776 115.244)" opacity="0.1"/>
    <rect id="Rectangle_58" data-name="Rectangle 58" width="79.53" height="13.166" transform="translate(1046.538 741.043)" fill="#4b4770"/>
    <path id="Path_588" data-name="Path 588" d="M183.228,592.14a20.306,20.306,0,0,0-2.695,5.07c-.165.437-.331.946-.5,1.43a4.358,4.358,0,0,0-.934-.319,13.054,13.054,0,0,0-4.219-.367c0-.544.071-1.182.083-1.737.177-6.228-.555-14.9-6.5-11.228-5.7,3.546-1.631,9.455,2.045,13.237.319.331.638.638.946.934-3.357,2.364-3.995,7.954-4.55,13.757s-5.484,12.15-8.758,15.767c-.331.366-.626.7-.922,1a11.937,11.937,0,0,0-9.455-2.446c-.13-.508-.272-1.04-.437-1.607-2.707-9.609-8.191-26.155-15.211-29.7.3-.366.6-.745.922-1.182,2.978-3.9,6.335-9.692,1.383-11.169s-5.4,5.023-5.129,9.893c0,.6.095,1.182.142,1.726a7.258,7.258,0,0,0-5.165,2.506l-.768-.91c-4.018-4.728-11.382-12.244-13.615-6.56-2.068,5.283,4.408,12.162,8.971,16.145l.284.248c-3.061,12.434,10.306,22.562,17.5,26.983l.934.579c-9.928,11.689-16.062,33.625-16.062,33.625l27.81,4.964s18.426-15.908,16.062-30.836h.189c18.426-3.7,22.61-23.343,19.75-35l.319-.142a20.919,20.919,0,0,0,8.533-6.441C199.325,593.192,188.523,585.108,183.228,592.14Z" transform="translate(-54.223 71.098)" fill="#de1a51"/>
    <path id="Path_589" data-name="Path 589" d="M183.228,592.14a20.306,20.306,0,0,0-2.695,5.07c-.165.437-.331.946-.5,1.43a4.358,4.358,0,0,0-.934-.319,13.054,13.054,0,0,0-4.219-.367c0-.544.071-1.182.083-1.737.177-6.228-.555-14.9-6.5-11.228-5.7,3.546-1.631,9.455,2.045,13.237.319.331.638.638.946.934-3.357,2.364-3.995,7.954-4.55,13.757s-5.484,12.15-8.758,15.767c-.331.366-.626.7-.922,1a11.937,11.937,0,0,0-9.455-2.446c-.13-.508-.272-1.04-.437-1.607-2.707-9.609-8.191-26.155-15.211-29.7.3-.366.6-.745.922-1.182,2.978-3.9,6.335-9.692,1.383-11.169s-5.4,5.023-5.129,9.893c0,.6.095,1.182.142,1.726a7.258,7.258,0,0,0-5.165,2.506l-.768-.91c-4.018-4.728-11.382-12.244-13.615-6.56-2.068,5.283,4.408,12.162,8.971,16.145l.284.248c-3.061,12.434,10.306,22.562,17.5,26.983l.934.579c-9.928,11.689-16.062,33.625-16.062,33.625l27.81,4.964s18.426-15.908,16.062-30.836h.189c18.426-3.7,22.61-23.343,19.75-35l.319-.142a20.919,20.919,0,0,0,8.533-6.441C199.325,593.192,188.523,585.108,183.228,592.14Z" transform="translate(-54.223 71.098)" opacity="0.1"/>
    <path id="Path_590" data-name="Path 590" d="M127.631,599.419l-3.25,9.455s-1.808-1.276-4.089-3.286c-4.562-3.983-11.039-10.862-8.971-16.145,2.234-5.685,9.6,1.82,13.616,6.559C126.556,597.954,127.631,599.419,127.631,599.419Z" transform="translate(-53.963 71.832)" fill="#de1a51"/>
    <path id="Path_591" data-name="Path 591" d="M131.446,594.751a45.963,45.963,0,0,1-3.167,3.723,49.9,49.9,0,0,1-.579-5c-.272-4.87.248-11.334,5.129-9.893S134.424,590.827,131.446,594.751Z" transform="translate(-50.923 71.099)" fill="#de1a51"/>
    <path id="Path_592" data-name="Path 592" d="M167.766,596.1c-.095,3.132-.4,5.638-.4,5.638a39.479,39.479,0,0,1-4.054-3.628c-3.676-3.806-7.741-9.692-2.045-13.237C167.211,581.2,167.943,589.909,167.766,596.1Z" transform="translate(-45.321 71.213)" fill="#de1a51"/>
    <path id="Path_593" data-name="Path 593" d="M184.923,599.4a20.919,20.919,0,0,1-8.533,6.441,22.887,22.887,0,0,1-2.86,1.04L169.7,601.5a39.045,39.045,0,0,1,1.584-5.224,20.3,20.3,0,0,1,2.695-5.07C179.273,584.174,190.076,592.258,184.923,599.4Z" transform="translate(-43.272 72.031)" fill="#de1a51"/>
    <path id="Path_594" data-name="Path 594" d="M123.495,594.73c1.619,1.891,2.695,3.357,2.695,3.357l-3.25,9.455s-1.808-1.276-4.089-3.286a18.557,18.557,0,0,1,3.664-8.356C122.833,595.522,123.176,595.108,123.495,594.73Z" transform="translate(-52.522 73.165)" opacity="0.1"/>
    <path id="Path_595" data-name="Path 595" d="M131.437,593.2a45.985,45.985,0,0,1-3.167,3.723,49.893,49.893,0,0,1-.579-5A6.454,6.454,0,0,1,131.437,593.2Z" transform="translate(-50.914 72.654)" opacity="0.1"/>
    <path id="Path_596" data-name="Path 596" d="M149.065,630.678l-8.1,3.546s-1.761-.851-4.3-2.435c-8.5-5.224-25.576-18.379-14.183-33.885s21,12.3,24.82,25.907C148.451,627.889,149.065,630.678,149.065,630.678Z" transform="translate(-52.551 72.91)" fill="#de1a51"/>
    <path id="Path_597" data-name="Path 597" d="M162.56,596.249a6.666,6.666,0,0,1,4.456-2.009c-.095,3.132-.4,5.638-.4,5.638A39.5,39.5,0,0,1,162.56,596.249Z" transform="translate(-44.571 73.076)" opacity="0.1"/>
    <path id="Path_598" data-name="Path 598" d="M176.39,604.642a22.916,22.916,0,0,1-2.86,1.04L169.7,600.3a39.05,39.05,0,0,1,1.584-5.224C173.754,596.522,175.574,600.115,176.39,604.642Z" transform="translate(-43.272 73.228)" opacity="0.1"/>
    <path id="Path_599" data-name="Path 599" d="M160.882,639.675l-1.359.236c-27.1,4.113-8.935-10.507-8.935-10.507s1.182-1.182,2.872-2.955c3.274-3.617,8.191-9.928,8.758-15.766.851-8.782,1.832-17.019,12.2-14.6C184.59,598.426,186.541,634.533,160.882,639.675Z" transform="translate(-47.833 73.333)" fill="#de1a51"/>
    <rect id="Rectangle_59" data-name="Rectangle 59" width="51.779" height="13.616" transform="translate(60.762 780.483)" fill="#d4dfec"/>
    <rect id="Rectangle_60" data-name="Rectangle 60" width="67.652" height="47.512" transform="translate(52.536 736.22)" fill="#d4dfec"/>
    <rect id="Rectangle_61" data-name="Rectangle 61" width="51.779" height="13.616" transform="translate(60.762 780.483)" opacity="0.1"/>
    <rect id="Rectangle_62" data-name="Rectangle 62" width="67.652" height="47.512" transform="translate(52.536 736.22)" opacity="0.1"/>
    <rect id="Rectangle_63" data-name="Rectangle 63" width="51.779" height="13.616" transform="translate(64.165 780.483)" fill="#d4dfec"/>
    <path id="Path_600" data-name="Path 600" d="M144.537,619.13c1.182,4.066,1.761,6.855,1.761,6.855l-8.1,3.546s-1.761-.851-4.3-2.435C137.067,623.1,140.637,620.064,144.537,619.13Z" transform="translate(-49.784 77.603)" opacity="0.1"/>
    <path id="Path_601" data-name="Path 601" d="M160.882,634.936l-1.359.236c-27.1,4.113-8.935-10.507-8.935-10.507s1.182-1.182,2.872-2.955C158.518,625.752,160.61,630.326,160.882,634.936Z" transform="translate(-47.833 78.072)" opacity="0.1"/>
    <path id="Path_602" data-name="Path 602" d="M121.1,661.1s15.176-54.368,36.462-37.585-8.652,42.548-8.652,42.548Z" transform="translate(-52.112 77.816)" fill="#de1a51"/>
    <circle id="Ellipse_42" data-name="Ellipse 42" cx="1.702" cy="1.702" r="1.702" transform="translate(74.944 677.645)" opacity="0.1"/>
    <circle id="Ellipse_43" data-name="Ellipse 43" cx="1.702" cy="1.702" r="1.702" transform="translate(74.803 685.588)" opacity="0.1"/>
    <circle id="Ellipse_44" data-name="Ellipse 44" cx="1.702" cy="1.702" r="1.702" transform="translate(124.171 679.206)" opacity="0.1"/>
    <circle id="Ellipse_45" data-name="Ellipse 45" cx="1.702" cy="1.702" r="1.702" transform="translate(84.447 719.91)" opacity="0.1"/>
    <circle id="Ellipse_46" data-name="Ellipse 46" cx="1.702" cy="1.702" r="1.702" transform="translate(120.625 692.396)" opacity="0.1"/>
    <circle id="Ellipse_47" data-name="Ellipse 47" cx="1.702" cy="1.702" r="1.702" transform="translate(103.038 709.982)" opacity="0.1"/>
    <circle id="Ellipse_48" data-name="Ellipse 48" cx="1.702" cy="1.702" r="1.702" transform="translate(80.759 681.049)" opacity="0.1"/>
    <circle id="Ellipse_49" data-name="Ellipse 49" cx="1.702" cy="1.702" r="1.702" transform="translate(119.49 684.311)" opacity="0.1"/>
    <circle id="Ellipse_50" data-name="Ellipse 50" cx="1.702" cy="1.702" r="1.702" transform="translate(113.675 697.501)" opacity="0.1"/>
    <circle id="Ellipse_51" data-name="Ellipse 51" cx="1.702" cy="1.702" r="1.702" transform="translate(95.805 718.634)" opacity="0.1"/>
    <circle id="Ellipse_52" data-name="Ellipse 52" cx="1.702" cy="1.702" r="1.702" transform="translate(92.117 710.266)" opacity="0.1"/>
    <circle id="Ellipse_53" data-name="Ellipse 53" cx="1.702" cy="1.702" r="1.702" transform="translate(83.312 691.403)" opacity="0.1"/>
    <rect id="Rectangle_64" data-name="Rectangle 64" width="51.779" height="4.976" transform="translate(64.165 780.483)" opacity="0.1"/>
    <rect id="Rectangle_65" data-name="Rectangle 65" width="67.652" height="47.512" transform="translate(55.939 736.22)" fill="#d4dfec"/>
    <circle id="Ellipse_54" data-name="Ellipse 54" cx="1.702" cy="1.702" r="1.702" transform="translate(98.074 726.292)" opacity="0.1"/>
    <circle id="Ellipse_55" data-name="Ellipse 55" cx="1.702" cy="1.702" r="1.702" transform="translate(87.863 728.42)" opacity="0.1"/>
  </g>
</svg>
