<svg xmlns="http://www.w3.org/2000/svg" xmlns:xlink="http://www.w3.org/1999/xlink" width="1320" height="1032.809" viewBox="0 0 1320 1032.809">
  <defs>
    <linearGradient id="linear-gradient" x1="0.5" y1="1" x2="0.5" gradientUnits="objectBoundingBox">
      <stop offset="0" stop-color="gray" stop-opacity="0.251"/>
      <stop offset="0.54" stop-color="gray" stop-opacity="0.122"/>
      <stop offset="1" stop-color="gray" stop-opacity="0.102"/>
    </linearGradient>
  </defs>
  <g id="Group_27" data-name="Group 27" transform="translate(0 0.013)">
    <path id="Path_359" data-name="Path 359" d="M462.73,66.081c35.846-31.976,92.132-38.45,143.444-35.993,161.035,8.009,306.4,85.745,432.138,173.688,45.526,31.829,90.339,66.139,119.883,109.982,60.193,89.246,42.307,212.875-41.324,286.4-28.463,25.011-62.957,44.224-98.373,61.188-62.969,30.219-130.914,54.481-202.384,61.422-50.955,4.914-102.55.921-153.222-5.946-141.552-19.2-280.5-61.655-396.968-134.28-51.078-31.853-99.245-71.458-120.276-122.991s-7.579-116.836,44.58-147.338c21.571-12.616,47.368-18.316,72.613-23.672,37.172-7.874,74.934-15.638,108.471-31.644,34.654-16.535,75.672-48.511,68.792-85.118C432.756,132.5,426.86,98.02,462.73,66.081Z" transform="translate(-45.96 -29.63)" fill="#54a591" opacity="0.1"/>
    <ellipse id="Ellipse_32" data-name="Ellipse 32" cx="163.554" cy="51.201" rx="163.554" ry="51.201" transform="translate(402.668 917.912)" fill="#54a591" opacity="0.1"/>
    <path id="Path_360" data-name="Path 360" d="M733.95,360.473l5.933,315.363,12.616,1.486-4.754-318.1Z" transform="translate(167.658 82.061)" fill="#f5c5cc"/>
    <path id="Path_361" data-name="Path 361" d="M739.87,355.45l6.769,328.225,4.508-5.491-4.754-318.1Z" transform="translate(169.01 81.199)" fill="none"/>
    <path id="Path_362" data-name="Path 362" d="M709.12,355.643l5.933,315.363,12.616,1.486-4.754-318.1Z" transform="translate(161.986 80.957)" fill="#f5c5cc"/>
    <path id="Path_363" data-name="Path 363" d="M715.04,350.62,721.8,678.845l4.521-5.491-4.754-318.1Z" transform="translate(163.339 80.096)" fill="none"/>
    <path id="Path_364" data-name="Path 364" d="M715.19,343.246l.614,343.961,12.9-1.228L723.789,336.49Z" transform="translate(163.373 76.868)" fill="#cc929b"/>
    <path id="Path_365" data-name="Path 365" d="M425.56,295.455,431,581.323l12.616,1.327-4.25-288.35Z" transform="translate(97.212 67.231)" fill="#f5c5cc"/>
    <path id="Path_366" data-name="Path 366" d="M431.49,290.89l6.24,297.526,4.533-4.987-4.25-288.35Z" transform="translate(98.566 66.452)" fill="#cc929b"/>
    <path id="Path_367" data-name="Path 367" d="M447.41,301.345,452.852,587.2l12.616,1.327-4.25-288.338Z" transform="translate(102.203 68.576)" fill="#f5c5cc"/>
    <path id="Path_368" data-name="Path 368" d="M453.34,296.77,459.593,594.3l4.521-4.987-4.25-288.338Z" transform="translate(103.558 67.795)" fill="#cc929b"/>
    <path id="Path_369" data-name="Path 369" d="M468.77,307.722l5.442,285.869,12.616,1.327-4.25-288.338Z" transform="translate(107.082 70.036)" fill="#f5c5cc"/>
    <path id="Path_370" data-name="Path 370" d="M474.7,303.17l6.253,297.514,4.521-4.987-4.25-288.338Z" transform="translate(108.437 69.257)" fill="#cc929b"/>
    <path id="Path_371" data-name="Path 371" d="M489.55,309.029l5.6,295.9,12.616,1.376-4.422-298.46Z" transform="translate(111.829 70.326)" fill="#f5c5cc"/>
    <path id="Path_372" data-name="Path 372" d="M495.47,304.31l6.425,307.968,4.521-5.159-4.422-298.46Z" transform="translate(113.181 69.517)" fill="#cc929b"/>
    <path id="Path_373" data-name="Path 373" d="M512.08,310.912,517.694,606.8l12.616,1.376-4.422-298.46Z" transform="translate(116.976 70.753)" fill="#f5c5cc"/>
    <path id="Path_374" data-name="Path 374" d="M518.01,306.19l6.425,307.956,4.521-5.159-4.422-298.46Z" transform="translate(118.33 69.947)" fill="#cc929b"/>
    <path id="Path_375" data-name="Path 375" d="M534.22,318.779l5.6,295.9,12.616,1.376-4.41-298.46Z" transform="translate(122.033 72.553)" fill="#f5c5cc"/>
    <path id="Path_376" data-name="Path 376" d="M540.14,314.06l6.425,307.968,4.521-5.159-4.41-298.46Z" transform="translate(123.386 71.745)" fill="#cc929b"/>
    <path id="Path_377" data-name="Path 377" d="M559.56,323.986l5.749,304.16,12.616,1.413L573.367,322.77Z" transform="translate(127.822 73.734)" fill="#f5c5cc"/>
    <path id="Path_378" data-name="Path 378" d="M565.48,319.14l6.572,316.555,4.521-5.307L572.015,323.6Z" transform="translate(129.174 72.905)" fill="#cc929b"/>
    <path id="Path_379" data-name="Path 379" d="M581.61,326.616l5.737,304.16,12.628,1.413L595.405,325.4Z" transform="translate(132.859 74.335)" fill="#f5c5cc"/>
    <path id="Path_380" data-name="Path 380" d="M587.53,321.76,594.1,638.327l4.521-5.307-4.57-306.789Z" transform="translate(134.211 73.504)" fill="#cc929b"/>
    <path id="Path_381" data-name="Path 381" d="M604.97,333.214l5.749,304.16,12.616,1.425L618.778,332.01Z" transform="translate(138.195 75.845)" fill="#f5c5cc"/>
    <path id="Path_382" data-name="Path 382" d="M610.9,328.37l6.56,316.567,4.521-5.307-4.558-306.789Z" transform="translate(139.55 75.013)" fill="#cc929b"/>
    <path id="Path_383" data-name="Path 383" d="M405.664,298.846l-.614-18.107,6.388-3.489L869.57,371.213l.848,22.984Z" transform="translate(92.527 63.336)" fill="#f5c5cc"/>
    <path id="Path_384" data-name="Path 384" d="M411.262,277.25l459.815,93.889-.467,8.611-464.79-99.54" transform="translate(92.703 63.336)" fill="#cc929b"/>
    <path id="Path_385" data-name="Path 385" d="M430.487,753.255l-12.9,4.693H405.3l-.614-484.666,6.756-9.385,6.523-1.916,8.218-1.241Z" transform="translate(92.444 59.564)" fill="#f5c5cc"/>
    <path id="Path_386" data-name="Path 386" d="M428.237,753.255l-12.9,4.693-.8-483.708,1.179-12.26,8.218-1.241Z" transform="translate(94.695 59.564)" fill="#cc929b"/>
    <path id="Path_387" data-name="Path 387" d="M630.35,340.546,636.1,644.694l12.616,1.425L644.158,339.33Z" transform="translate(143.993 77.517)" fill="#f5c5cc"/>
    <path id="Path_388" data-name="Path 388" d="M636.27,335.69l6.572,316.567,4.521-5.307-4.557-306.789Z" transform="translate(145.345 76.686)" fill="#cc929b"/>
    <path id="Path_389" data-name="Path 389" d="M655.92,344.458l5.86,310.658,12.616,1.45-4.68-313.336Z" transform="translate(149.834 78.408)" fill="#f5c5cc"/>
    <path id="Path_390" data-name="Path 390" d="M661.84,339.51l6.683,323.324,4.521-5.417-4.68-313.336Z" transform="translate(151.186 77.558)" fill="none"/>
    <path id="Path_391" data-name="Path 391" d="M682.25,349.093l5.933,315.363,12.616,1.486-4.742-318.1Z" transform="translate(155.848 79.461)" fill="#f5c5cc"/>
    <path id="Path_392" data-name="Path 392" d="M688.17,344.07l6.769,328.237,4.508-5.5-4.742-318.1Z" transform="translate(157.201 78.6)" fill="#cc929b"/>
    <path id="Path_393" data-name="Path 393" d="M282.7,650.979l-12.9,1.228-.6-339.281-.012-4.68,8.6-6.756.135,9.41Z" transform="translate(61.492 68.873)" fill="#f5c5cc"/>
    <path id="Path_394" data-name="Path 394" d="M319.7,635.479l-12.9,1.228-.6-333.741-.012-10.221,8.6-6.756.2,13.709Z" transform="translate(69.944 65.332)" fill="#f5c5cc"/>
    <path id="Path_395" data-name="Path 395" d="M380.7,610.479l-12.9,1.228-.59-329.527-.025-14.434,8.6-6.756.27,19.139Z" transform="translate(83.878 59.622)" fill="#f5c5cc"/>
    <path id="Path_396" data-name="Path 396" d="M407.2,600.479l-12.9,1.228-.577-321.481-.037-22.48,8.6-6.756.442,31.227Z" transform="translate(89.932 57.337)" fill="#f5c5cc"/>
    <path id="Path_397" data-name="Path 397" d="M301.2,647.979l-12.9,1.228-.614-341.5v-2.457l8.6-6.756.086,6.474Z" transform="translate(65.718 68.188)" fill="#f5c5cc"/>
    <path id="Path_398" data-name="Path 398" d="M355.2,622.979l-12.9,1.228-.6-335.067-.012-8.894,8.6-6.756.172,12.6Z" transform="translate(78.053 62.477)" fill="#f5c5cc"/>
    <path id="Path_399" data-name="Path 399" d="M337.7,627.979l-12.9,1.228-.59-333.04-.025-10.921,8.6-6.756.2,14.225Z" transform="translate(74.056 63.619)" fill="#f5c5cc"/>
    <path id="Path_400" data-name="Path 400" d="M336,569.48l-3.071,6.449s-7.985,11.977-7.063,30.4S313,673.59,313,673.59s12.591,5.835,22.112,5.221,30.1,9.521,30.1,9.521l42.651,13.23,86.3,20.269s50.673,28.254,64.493,28.254,68.792,18.734,68.792,18.734,74.32,16.277,80.155,22.419,30.441,14.41,32.9,14.741,39.924,3.992,39.924,3.992,43.609,10.135,49.751-.614a55.376,55.376,0,0,0,7.063-19.655s19.348,4.3,24.569-2.15,5.528-20.269,11.67-19.655,31.325,8.292,34.089,5.528,17.505-35.318,27.947-30.4,28.561,12.591,28.561,12.591L953.628,649.353l-4.607-29.175s-167.374,68.178-173.209,68.178S336,569.48,336,569.48Z" transform="translate(-5.56 93.692)" fill="#54a591"/>
    <path id="Path_401" data-name="Path 401" d="M947.316,512.971,946.4,662.84l-173.86,66.667L332.142,612.5s-29.789-42.074-2.15-81.384c0,0-35.625-49.137,8.6-81.077l1.093-.258,167.2-40.28,74.357,13.586,328.544,60.095S942.058,495.159,947.316,512.971Z" transform="translate(-4.777 57.148)" fill="#54a591"/>
    <path id="Path_402" data-name="Path 402" d="M571.047,437.422c-8.292,4.3-68.485,19.962-80.462,29.482s-94.9,16.916-94.9,16.916l-9.213,1.843s.614-6.142-35.932-23.954A46.6,46.6,0,0,1,335.36,449.78l167.2-40.28,74.357,13.586C577.017,428.971,576.01,434.843,571.047,437.422Z" transform="translate(-0.452 57.148)" opacity="0.1"/>
    <path id="Path_403" data-name="Path 403" d="M321.482,384s-3.071,59.579,33.475,77.391,35.969,23.93,35.969,23.93l9.213-1.843s-31.939-35.625-29.79-41.767-28.561-37.16-32.9-38.389S321.482,384,321.482,384Z" transform="translate(-3.637 51.323)" fill="#54a591"/>
    <path id="Path_404" data-name="Path 404" d="M322.012,384.73s-3.071,59.579,33.475,77.391,35.932,23.954,35.932,23.954l9.213-1.843s-31.939-35.625-29.789-41.767-28.6-37.16-32.861-38.389S322.012,384.73,322.012,384.73Z" transform="translate(-3.516 51.489)" opacity="0.1"/>
    <path id="Path_405" data-name="Path 405" d="M329,405.23s29.482,44.531,34.7,46.066S336.027,405.844,329,405.23Z" transform="translate(-1.905 56.172)" opacity="0.1"/>
    <path id="Path_406" data-name="Path 406" d="M318,389.315s19.041-15.355,21.5-18.427,29.482-4.3,30.4-4.3S391.4,354,414.432,350s32.246-5.835,32.246-5.835,33.782-14.127,35.625-17.2,17.505-6.449,36.853,8.6,62.036,82.612,62.343,89.983,3.071,20.883-5.221,25.183-68.485,19.962-80.462,29.482-94.933,16.916-94.933,16.916l-31.288-34.114L353.01,436.3l-27.64-29.175Z" transform="translate(-4.418 37.692)" fill="#54a591"/>
    <path id="Path_407" data-name="Path 407" d="M361.089,593.15s-11.461,2.457-4.914,9S361.089,593.15,361.089,593.15Z" transform="translate(3.841 99.099)" opacity="0.1"/>
    <path id="Path_408" data-name="Path 408" d="M394.358,603.82s-12.284,14.741-9.828,18.832S394.358,603.82,394.358,603.82Z" transform="translate(10.706 101.537)" opacity="0.1"/>
    <path id="Path_409" data-name="Path 409" d="M453.028,619.15s-12.284,14.741-9.827,18.832S453.028,619.15,453.028,619.15Z" transform="translate(24.108 105.039)" opacity="0.1"/>
    <path id="Path_410" data-name="Path 410" d="M524.358,639.15s-12.284,14.741-9.828,18.832S524.358,639.15,524.358,639.15Z" transform="translate(40.402 109.607)" opacity="0.1"/>
    <path id="Path_411" data-name="Path 411" d="M620.358,663.15s-12.284,14.741-9.828,18.832S620.358,663.15,620.358,663.15Z" transform="translate(62.331 115.09)" opacity="0.1"/>
    <path id="Path_412" data-name="Path 412" d="M423.028,607.15s-12.284,14.741-9.828,18.832S423.028,607.15,423.028,607.15Z" transform="translate(17.255 102.297)" opacity="0.1"/>
    <path id="Path_413" data-name="Path 413" d="M562.358,649.15s-12.284,14.741-9.828,18.832S562.358,649.15,562.358,649.15Z" transform="translate(49.082 111.892)" opacity="0.1"/>
    <path id="Path_414" data-name="Path 414" d="M591.688,658.48s-12.284,14.741-9.827,18.844S591.688,658.48,591.688,658.48Z" transform="translate(55.782 114.023)" opacity="0.1"/>
    <path id="Path_415" data-name="Path 415" d="M479.028,627.15s-12.284,14.741-9.827,18.832S479.028,627.15,479.028,627.15Z" transform="translate(30.047 106.866)" opacity="0.1"/>
    <path id="Path_416" data-name="Path 416" d="M729.14,699.82l13,60.083S742.235,717.829,729.14,699.82Z" transform="translate(89.5 123.466)" opacity="0.1"/>
    <path id="Path_417" data-name="Path 417" d="M761.8,707.15l9.115,29.3S769.994,725.171,761.8,707.15Z" transform="translate(96.961 125.141)" opacity="0.1"/>
    <path id="Path_418" data-name="Path 418" d="M801.5,749.607s-19.446-70.831-23.549-75.745S789.795,745.111,801.5,749.607Z" transform="translate(100.5 117.485)" opacity="0.1"/>
    <path id="Path_419" data-name="Path 419" d="M818.778,717.438s-22.923-40.121-13.918-47.491S818.778,717.438,818.778,717.438Z" transform="translate(106.318 116.487)" opacity="0.1"/>
    <path id="Path_420" data-name="Path 420" d="M327.47,508.5l445.1,99.921,171.17-49.96-172.8,45.047S340.983,504.412,327.47,508.5Z" transform="translate(-2.255 79.735)" opacity="0.1"/>
    <path id="Path_421" data-name="Path 421" d="M275.69,390.661l.614,285.918,12.591,1.536.614-288.375Z" transform="translate(62.977 89.032)" fill="#f5c5cc"/>
    <path id="Path_422" data-name="Path 422" d="M281.69,386.24l1.228,297.588,4.607-4.914.614-288.375Z" transform="translate(64.347 88.233)" fill="#cc929b"/>
    <path id="Path_423" data-name="Path 423" d="M297.44,396.911l.614,285.918,12.591,1.536.614-288.375Z" transform="translate(67.945 90.46)" fill="#f5c5cc"/>
    <path id="Path_424" data-name="Path 424" d="M303.44,392.49l1.228,297.588,4.607-4.914.614-288.375Z" transform="translate(69.316 89.661)" fill="#cc929b"/>
    <path id="Path_425" data-name="Path 425" d="M318.69,403.661l.614,285.918,12.591,1.536.614-288.375Z" transform="translate(72.799 92.002)" fill="#f5c5cc"/>
    <path id="Path_426" data-name="Path 426" d="M324.69,399.24l1.228,297.588,4.607-4.914.614-288.375Z" transform="translate(74.17 91.202)" fill="#cc929b"/>
    <path id="Path_427" data-name="Path 427" d="M339.44,405.318l.614,295.954,12.591,1.585.614-298.5Z" transform="translate(77.539 92.372)" fill="#f5c5cc"/>
    <path id="Path_428" data-name="Path 428" d="M345.44,400.74l1.228,308.029,4.607-5.086.614-298.5Z" transform="translate(78.91 91.545)" fill="#cc929b"/>
    <path id="Path_429" data-name="Path 429" d="M361.94,407.568l.614,295.954,12.591,1.585.614-298.5Z" transform="translate(82.679 92.886)" fill="#f5c5cc"/>
    <path id="Path_430" data-name="Path 430" d="M367.94,402.99l1.228,308.029,4.607-5.086.614-298.5Z" transform="translate(84.05 92.059)" fill="#cc929b"/>
    <path id="Path_431" data-name="Path 431" d="M383.94,415.818l.614,295.954,12.591,1.585.614-298.5Z" transform="translate(87.704 94.771)" fill="#f5c5cc"/>
    <path id="Path_432" data-name="Path 432" d="M389.94,411.24l1.229,308.029,4.607-5.086.614-298.5Z" transform="translate(89.075 93.944)" fill="#cc929b"/>
    <path id="Path_433" data-name="Path 433" d="M409.19,421.443l.614,304.209,12.591,1.634.614-306.826Z" transform="translate(93.472 96.05)" fill="none"/>
    <path id="Path_434" data-name="Path 434" d="M415.19,416.74l1.228,316.629,4.607-5.233.614-306.826Z" transform="translate(94.843 95.2)" fill="#cc929b"/>
    <path id="Path_435" data-name="Path 435" d="M431.19,424.443l.614,304.209,12.591,1.634.614-306.826Z" transform="translate(98.498 96.735)" fill="#f5c5cc"/>
    <path id="Path_436" data-name="Path 436" d="M437.19,419.74l1.228,316.629,4.607-5.233.614-306.826Z" transform="translate(99.868 95.885)" fill="#cc929b"/>
    <path id="Path_437" data-name="Path 437" d="M454.44,431.443l.614,304.209,12.591,1.634.614-306.826Z" transform="translate(103.809 98.334)" fill="#f5c5cc"/>
    <path id="Path_438" data-name="Path 438" d="M460.44,426.74l1.228,316.629,4.607-5.233.614-306.826Z" transform="translate(105.18 97.484)" fill="#cc929b"/>
    <path id="Path_439" data-name="Path 439" d="M479.69,439.193,480.3,743.4l12.591,1.634.614-306.826Z" transform="translate(109.577 100.104)" fill="#f5c5cc"/>
    <path id="Path_440" data-name="Path 440" d="M485.69,434.49l1.228,316.628,4.607-5.233.614-306.826Z" transform="translate(110.947 99.255)" fill="#cc929b"/>
    <path id="Path_441" data-name="Path 441" d="M505.19,443.547l.614,310.7,12.591,1.671.614-313.373Z" transform="translate(115.402 101.094)" fill="#f5c5cc"/>
    <path id="Path_442" data-name="Path 442" d="M511.19,438.74l1.228,323.385,4.607-5.344.614-313.373Z" transform="translate(116.773 100.226)" fill="#cc929b"/>
    <path id="Path_443" data-name="Path 443" d="M531.44,448.62l.614,315.425,12.592,1.7L545.26,447.6Z" transform="translate(121.398 102.249)" fill="#cc929b"/>
    <path id="Path_444" data-name="Path 444" d="M537.44,443.74l1.228,328.3,4.607-5.417.614-318.139Z" transform="translate(122.769 101.368)" fill="none"/>
    <path id="Path_445" data-name="Path 445" d="M558.19,455.62l.614,315.425,12.592,1.7L572.01,454.6Z" transform="translate(127.509 103.849)" fill="#f5c5cc"/>
    <path id="Path_446" data-name="Path 446" d="M564.19,450.74l1.229,328.3,4.607-5.417.614-318.139Z" transform="translate(128.879 102.967)" fill="#cc929b"/>
    <path id="Path_447" data-name="Path 447" d="M582.94,460.87l.614,315.425,12.591,1.7.614-318.139Z" transform="translate(133.163 105.048)" fill="#cc929b"/>
    <path id="Path_448" data-name="Path 448" d="M588.94,455.99l1.228,328.3,4.607-5.417.614-318.139Z" transform="translate(134.533 104.166)" fill="none"/>
    <path id="Path_449" data-name="Path 449" d="M266.987,754.152l-12.9,4.914H241.8l-.614-450.835,6.756-9.827,6.523-2,9.447-2.911Z" transform="translate(55.096 67.046)" fill="#f5c5cc"/>
    <path id="Path_450" data-name="Path 450" d="M264.737,754.152l-12.9,4.914-.8-449.84,1.179-12.825,9.447-2.911Z" transform="translate(57.346 67.046)" fill="#cc929b"/>
    <circle id="Ellipse_33" data-name="Ellipse 33" cx="14.741" cy="14.741" r="14.741" transform="translate(295.671 810.756)" fill="#40414d"/>
    <path id="Path_451" data-name="Path 451" d="M803.987,816.541l-12.9,4.693H778.8l-.614-495.722,6.756,1.671,6.523-1.916,9.447-2.776Z" transform="translate(177.764 73.67)" fill="#f5c5cc"/>
    <path id="Path_452" data-name="Path 452" d="M801.737,816.541l-12.9,4.693-.8-483.708,1.179-12.26,9.447-2.776Z" transform="translate(180.014 73.67)" fill="#cc929b"/>
    <path id="Path_453" data-name="Path 453" d="M656.2,713.979l-12.9,1.228-.59-331.173-.025-12.788,8.6-6.756.246,17.653Z" transform="translate(146.811 83.264)" fill="#f5c5cc"/>
    <path id="Path_454" data-name="Path 454" d="M693.2,698.479l-12.9,1.228-.577-325.056-.037-18.906,8.6-6.756.319,22.431Z" transform="translate(155.263 79.724)" fill="#f5c5cc"/>
    <path id="Path_455" data-name="Path 455" d="M754.2,673.479l-12.9,1.228-.578-324.294-.037-19.667,8.6-6.756.319,22.738Z" transform="translate(169.198 74.013)" fill="#f5c5cc"/>
    <path id="Path_456" data-name="Path 456" d="M767.19,320.746l.614,343.961,12.9-1.228L775.789,313.99Z" transform="translate(175.251 71.729)" fill="#f5c5cc"/>
    <path id="Path_457" data-name="Path 457" d="M674.7,710.979l-12.9,1.228-.59-333.053-.025-10.909,8.6-6.756.209,15Z" transform="translate(151.037 82.579)" fill="#f5c5cc"/>
    <path id="Path_458" data-name="Path 458" d="M711.2,690.979l-12.9,1.228-.578-324.2-.037-19.766,8.6-6.756.319,22.947Z" transform="translate(159.375 78.01)" fill="#f5c5cc"/>
    <path id="Path_459" data-name="Path 459" d="M731.533,684.309l-12.9,1.229-.578-324.2v-1.929l-.037-17.837,8.6-6.756.295,20.957.025,1.99Z" transform="translate(164.019 76.487)" fill="#f5c5cc"/>
    <path id="Path_460" data-name="Path 460" d="M632.69,661.247,810.813,585.49l12.284,2.862.405,28.254L635.97,689.084Z" transform="translate(144.527 133.748)" fill="#f5c5cc"/>
    <path id="Path_461" data-name="Path 461" d="M810.813,585.49,632.69,661.247l189.744-73.055" transform="translate(144.527 133.748)" fill="#cc929b"/>
    <path id="Path_462" data-name="Path 462" d="M257.324,614.49l449.2,136.356-.823,22.112L255.69,634.145Z" transform="translate(58.408 140.373)" fill="#f5c5cc"/>
    <path id="Path_463" data-name="Path 463" d="M706.217,914.29l-12.9,4.914H681.034l-.614-504.886h0v-2.457l.958-1.4,5.8-8.427,6.523-2,9.447-2.911.1,17.2Z" transform="translate(78.371 54.32)" fill="#f5c5cc"/>
    <path id="Path_464" data-name="Path 464" d="M641.237,884.66l-12.9,4.914-.8-506.348,1.179-12.825,9.447-2.911Z" transform="translate(143.351 83.95)" fill="#cc929b"/>
    <path id="Path_465" data-name="Path 465" d="M703.146,397.12l.1,17.2a104.689,104.689,0,0,1-10.724,1.007c-8.845.344-12.1-1-12.1-1h0c0-.172.344-1.548.958-3.845l5.8-8.427,6.523-2Z" transform="translate(78.371 54.32)" opacity="0.1"/>
    <path id="Path_466" data-name="Path 466" d="M714.014,394.12l.246,17.653q-4.754,1.106-8.82,1.892V400.876Z" transform="translate(84.086 53.634)" opacity="0.1"/>
    <path id="Path_467" data-name="Path 467" d="M732.515,391.12l.209,15c-3.059.97-5.995,1.855-8.783,2.666V397.876Z" transform="translate(88.312 52.949)" opacity="0.1"/>
    <path id="Path_468" data-name="Path 468" d="M751.012,378.62l.319,22.431q-4.607,1.708-8.881,3.231V385.376Z" transform="translate(92.54 50.094)" opacity="0.1"/>
    <path id="Path_469" data-name="Path 469" d="M769.012,371.12l.319,22.947-7.076,2.85-1.806.725V377.876Z" transform="translate(96.652 48.38)" opacity="0.1"/>
    <path id="Path_470" data-name="Path 470" d="M812.332,376.356l-8.882,3.685V360.386l8.6-6.756Z" transform="translate(106.475 44.385)" opacity="0.1"/>
    <path id="Path_471" data-name="Path 471" d="M789.647,385.4l-8.857,3.685V371.246l8.6-6.756Z" transform="translate(101.298 46.866)" opacity="0.1"/>
    <path id="Path_472" data-name="Path 472" d="M907.68,370.529s-22.726,0-28.868-1.843-19.041,5.528-98.275,37.467c-47.909,19.323-74.5,23.807-88.017,24.335-8.845.344-12.1-.995-12.1-.995s16.178-74.222,67.7-88.091a152.8,152.8,0,0,0,16.916-5.688l.995-.381a100.722,100.722,0,0,1,13.279-4.115c16.535-3.8,28.34-11.056,58.228-11.277a81.751,81.751,0,0,1,51.324,17.026C899.106,345.027,907.938,356.169,907.68,370.529Z" transform="translate(78.371 36.687)" fill="#cc929b"/>
    <path id="Path_473" data-name="Path 473" d="M768.253,332.12C704.5,359.612,694.768,411,692.52,427.7c-8.845.344-12.1-1-12.1-1s16.178-74.222,67.7-88.091a152.778,152.778,0,0,0,16.916-5.688l.995-.381C766.767,332.439,767.5,332.292,768.253,332.12Z" transform="translate(78.371 39.472)" fill="#f5c5cc"/>
    <path id="Path_474" data-name="Path 474" d="M340.517,331.12l.135,9.41c-3.108.774-6.007,1.45-8.722,2.027v-4.68Z" transform="translate(-1.236 39.243)" opacity="0.1"/>
    <path id="Path_475" data-name="Path 475" d="M359.019,328.12l.086,6.474q-4.533,1.5-8.685,2.739v-2.457Z" transform="translate(2.988 38.558)" opacity="0.1"/>
    <path id="Path_476" data-name="Path 476" d="M377.517,315.62l.2,13.709q-4.533,1.732-8.783,3.268V322.376Z" transform="translate(7.216 35.702)" opacity="0.1"/>
    <path id="Path_477" data-name="Path 477" d="M395.514,308.12l.2,14.225q-4.238,1.634-8.771,3.452V314.876Z" transform="translate(11.33 33.989)" opacity="0.1"/>
    <path id="Path_478" data-name="Path 478" d="M413.017,303.12l.172,12.6q-4.177,1.4-8.759,3.047v-8.894Z" transform="translate(15.325 32.847)" opacity="0.1"/>
    <path id="Path_479" data-name="Path 479" d="M438.514,290.62l.27,19.139c-2.715.565-5.651,1.228-8.845,2.051V297.376Z" transform="translate(21.153 29.992)" opacity="0.1"/>
    <path id="Path_480" data-name="Path 480" d="M465.454,311.807a32.393,32.393,0,0,0-9-1.99v-22.48l8.6-6.756Z" transform="translate(27.209 27.698)" opacity="0.1"/>
    <path id="Path_481" data-name="Path 481" d="M531.18,314.926s-22.726,0-28.868-1.843-19.041-11.67-98.275,20.269c-47.909,19.323-74.5,23.807-88.017,24.335-8.845.344-12.1-1-12.1-1s12.2-64.493,65.991-75.377a79.063,79.063,0,0,0,8.882-2.273c3.3-1.081,8.513-2.629,15.515-4.238,18.058-4.152,47.995-8.71,87.784-6.781a54.444,54.444,0,0,1,36.6,16.043,42.147,42.147,0,0,1,12.493,30.858Z" transform="translate(-7.634 24.726)" fill="#cc929b"/>
    <path id="Path_482" data-name="Path 482" d="M394.308,273.46c-63.756,27.492-76.04,66.176-78.288,82.882-8.845.344-12.1-1-12.1-1s12.2-64.493,65.991-75.377a79.093,79.093,0,0,0,8.882-2.273C382.1,276.58,387.306,275.069,394.308,273.46Z" transform="translate(-7.634 26.072)" fill="#f5c5cc"/>
    <path id="Path_483" data-name="Path 483" d="M255.747,393.738l-.307-18.119,6.449-3.378L702.9,471.129l-1.228,23.033Z" transform="translate(58.351 85.035)" fill="#f5c5cc"/>
    <path id="Path_484" data-name="Path 484" d="M261.711,372.24l441.007,98.889-.614,8.6L256.22,375.115" transform="translate(58.529 85.035)" fill="#cc929b"/>
    <circle id="Ellipse_34" data-name="Ellipse 34" cx="14.741" cy="14.741" r="14.741" transform="translate(954.111 880.163)" fill="#40414d"/>
    <circle id="Ellipse_35" data-name="Ellipse 35" cx="14.741" cy="14.741" r="14.741" transform="translate(758.791 963.696)" fill="#40414d"/>
    <path id="Path_485" data-name="Path 485" d="M335.486,579.45s-13.107,14.741-17.2,27.849,4.914,62.245,4.914,62.245a90.473,90.473,0,0,0,9.827-26.215C336.3,627.776,335.486,579.45,335.486,579.45Z" transform="translate(-4.596 95.97)" fill="#54a591"/>
    <path id="Path_486" data-name="Path 486" d="M840.59,679.12s7.985,40.538,8.6,46.68-20.269-3.071-20.269-3.071Z" transform="translate(112.293 118.738)" fill="#54a591"/>
    <path id="Path_487" data-name="Path 487" d="M699.78,319.843h-.209a2.459,2.459,0,0,0-.455-1.155,6.03,6.03,0,0,0-2.039-1.548l-5.761-3.206,4.975,1.806a11.107,11.107,0,0,0-.774-1.155l.577.319-.393-.553-.528-.184c-2.653-3.108-7.076-4.4-11.363-4.336h.074c.552-.074,1.118-.123,1.67-.16a19.938,19.938,0,0,0-3.685.111h0a1.724,1.724,0,0,0,.43.123,11.532,11.532,0,0,0-1.228.123,3.685,3.685,0,0,1-1.929,0A2.789,2.789,0,0,1,677.655,308c-.614-2.457.356-5.1.639-7.665a8.223,8.223,0,0,0-.381-3.575v-.737a3.685,3.685,0,0,0-2.457-2.26,2.273,2.273,0,0,0,0,.283l-.209-.086v6.609a26.353,26.353,0,0,1-5.024-5.233,2.3,2.3,0,0,1-.5-1.044c-.123-1.118,1.3-1.892,1.388-3.022a1.683,1.683,0,0,0-1.229-1.6l.369-.135a2.764,2.764,0,0,0-1.4-.246,23.521,23.521,0,0,0-3.1.934l.319.061a6.977,6.977,0,0,1-.725.2c-3.084.639-5.835-1.818-8.059-4.041l-.479-.479c-1.057-9.25-2.764-19.851-2.764-19.851S652.51,254,650.36,247.488s-5.245-18.009-5.245-18.009-7.076-13.967-8.6-14.581a18.766,18.766,0,0,1-1.732-.983,27.511,27.511,0,0,1-1.229-6.437c-.381-12.211,12.665-20.883,14.631-32.983,1.609-9.827-4.582-19.655-3.685-29.617.418-4.361,2.174-8.464,3.12-12.739a34.309,34.309,0,0,0,.356-12.616,20.8,20.8,0,0,0-2.015-6.474,34.971,34.971,0,0,0,4.435-7.506c1.99-5.675-.16-12.014-3.267-17.2-9.987-16.5-30.219-29.482-49.137-31.165-7.629-.7-15.282-.835-22.922-.958-8.771-.16-17.837-.258-25.944,3.133-16.117,6.744-23.746,24.765-33.536,39.31a111.446,111.446,0,0,1-30.49,30.428c-5.663,3.784-12.284,7.813-13.611,14.532a13.224,13.224,0,0,0-.233,1.953,17.971,17.971,0,0,1-.406-1.794c-1.339,7.014,3.612,13.513,6.142,20.208a35.626,35.626,0,0,1,2.26,10.921,47.773,47.773,0,0,0,0-5.307c2.457,12.751-2.051,26.436-4.84,39.47-.209.958-.369,1.916-.565,2.875a23.5,23.5,0,0,0-6.462,2.911,36.336,36.336,0,0,1-14.52,5.651A27.124,27.124,0,0,0,435.4,231c-.786,1.056-1.548,1.781-2.211,1.855-2.764.319-18.169,48.425-18.169,48.425s-3.206,19.815-3.206,24.458-5.54,38.18-5.54,38.18-1.855,6.142-1.229,8.685c.356,1.413-.491,6.142-1.29,9.95a2.211,2.211,0,0,1-.86-.639c-.921-1.855-17.874,0-12.628,12.419a24.348,24.348,0,0,0,5.933,8.82c-2.334,5.847-4.361,11.289-4.091,11.977,0,0,0,4.435.393,9.913-3.6,2.457-6.548,4.668-6.548,4.668-.258,6.781,4.263,7.862,8.513,7.616,1.093,3.931,2.69,7.051,5.037,7.9,7.7,2.8,12.628,1.56,15.1,3.685s15.638,6.253,15.638,6.253a155.716,155.716,0,0,0,16.879,1.609l2.26,1.13-.27-1.228c.725-.135.393-1-.516-2.457-.405-1.879-.921-4.336-1.5-7.137l3.378-1.228.921,1.364c-1.228,6.437-2.015,10.724-2.015,10.724s-6.142,22.038-3.39,25.453,0,7.764,0,7.764-.614,5.577.934,5.577,3.378,7.137,1.843,7.457-8.6,6.2-6.142,7.444,0,4.029,0,6.83c0,2.039,3.759,5.061,5.8,6.548-.368,1.327-.749,2.739-1.106,4.127-1.056,4.1-1.879,8.059-1.622,9.5.614,3.415-1.536,13.034-.921,16.142s2.776,9.926,1.228,12.727.307,12.1.307,12.1l2.776,26.374s-1.843,7.457,0,9.312,3.39,23.6,5.233,26.08,4.631,15.515,2.457,19.864,2.776,13.341,2.776,13.341-.307,10.552-.307,13.341S462,675.057,462,675.057s2.776,14.9,2.457,18.623,1.843,9,1.843,9,1.855,10.859,1.548,13.341,2.457,5.9,2.457,5.9,3.391,8.071,2.457,11.486,2.15,6.83,2.15,6.83-.307,7.444-.307,8.378,6.474,8.378,6.474,8.378-2.776,5.589-1.229,7.764,1.229,9.926,3.685,12.419,1.843,12.714,4.914,14.581,5.847,3.415,6.462,7.444,3.083,9.938,5.859,10.872a5.342,5.342,0,0,1,1.351,1.339l-1.228,5.221-3.8,15.785s-3.685,22.959-3.39,26.374-3.685,6.83-3.685,6.83-3.391,19.864-4,22.345.307,7.137.307,7.137-2.15,11.793-.614,12.419,8.01,7.137,8.01,7.137h.5L493.563,917l-10.626,37.713s-9.828,16.449,12.948,24.827c.762,1.474,1.462,1.511.639,1.228.749.639,15.97,13.513,17.2,19.544s11.707,12.407,15.4,13.034,28.34,20.478,37.271.934-15.712-32.283-15.712-32.283l-18.758-12.075s-9.545-13.967-11.056-16.449-4.312-14.594-2.457-16.449c.946-.958,3.906-9.459,6.584-17.542.246-.774.5-1.536.749-2.3,5.233,1.228,11.154-1.229,11.154-1.229l13.722-21.645,2.457-3.8.442.884s11.4.934,16.94,1.867a15.97,15.97,0,0,0,5.208-.651c.209.455.418.921.614,1.388a67.94,67.94,0,0,1,3.415,8.882c.921,4.029,1.855,18.3,1.855,18.3s-6.142,20.49-7.7,24.213,1.536,34.765,32.038,22.345c0,0,3.685-5.9,7.076-5.9s11.707-8.378,8.6-17.382-15.97-36.62-7.076-51.2c7.174-11.744,6.6-27.492-3.047-34.814-.406-.307-.835-.577-1.229-.848a35.141,35.141,0,0,0,0-4.693c-2.162-29.79-15.97-31.35-15.97-31.35s-8.009-1.855-8.931-4.914c-.541-1.794-7.481-11.056-13.23-18.586.2-.319.381-.639.565-.958,0-.111.123-.221.172-.332.27-.5.528-1.02.774-1.56,4.471-10.049,3.317-24.667,3.083-27.284-.307-3.415,0-7.764,0-12.727s4.914-12.419,4.312-15.208,5.86-14.274,5.86-17.075,4.533-19.569,4.533-19.569,8.931-19.249,10.786-24.839c1.769-5.356,33.315-102.992,35.87-110.9a4.774,4.774,0,0,1,.172-.516s10.073-32.959,3.329-54.6a34.715,34.715,0,0,0-1.585-4.189c2.064-1,3.489-1.72,3.489-1.72s-4-11.793-2.162-16.142.614-12.727.614-12.727-7.371-4.349-7.69-6.2-3.391-4.349-2.457-6.83,6.142-1.228,5.54-6.83-7.076-11.486-6.462-14.9,3.071-9.619,0-13.341-4.312-9.619-4.619-14.274c-.086-1.228.184-4.852.614-9.631a108.154,108.154,0,0,0,10.159,5.589s13.243,1.867,13.869.627a29.193,29.193,0,0,1,4-4.349c16.633-4.029,9.238-34.4,9.238-34.4s-.246-2.223-.639-5.884a3.235,3.235,0,0,0,1.155-.553c1.413-1.032,1.757-3,2.616-4.545a22.577,22.577,0,0,1,3.415-4c3.046-3.317,4.852-7.555,6.6-11.719,1.106-2.653,2.236-5.307,3.354-7.973s2.457-5.847,4.914-7.776c2.825-2.273,6.658-2.715,10.258-3.047a12.839,12.839,0,0,0-2.936-7.518,7.543,7.543,0,0,1,6.462.983,2.6,2.6,0,0,0,.135-.258h.074A1.658,1.658,0,0,0,699.78,319.843Zm-263.044,85c.074-.614.184-1.228.319-1.843.6-.565,1.327-1.228,2.1-1.843l4.3.418c-1.056.86-1.978,1.646-2.727,2.285C439.4,403.18,437.951,403.843,436.735,404.838Zm8.6-8.513a6.609,6.609,0,0,0,1.781-.381h3.759c-2.052,1.437-4.128,3.034-5.97,4.521l.43-4.042Zm7.088-62.65s-.283,8.82.344,17.689c-.958.676-1.953,1.413-2.936,2.187L452,333.1Z" transform="translate(11.102 -23.567)" fill="url(#linear-gradient)"/>
    <path id="Path_488" data-name="Path 488" d="M578.265,812.11c-3.378,0-7.063,5.835-7.063,5.835-30.4,12.284-33.475-18.426-31.939-22.112s7.677-23.954,7.677-23.954-.921-14.127-1.843-18.119a68.512,68.512,0,0,0-3.4-8.783c-2.064-4.7-4.275-9.336-4.275-9.336s13.206-32.553,30.711-29.482a19.752,19.752,0,0,1,8.6,3.685c9.619,7.248,10.2,22.837,3.034,34.4-8.906,14.434,3.992,41.767,7.063,50.673S581.644,812.11,578.265,812.11Z" transform="translate(45.705 124.867)" fill="#fdc2cc"/>
    <path id="Path_489" data-name="Path 489" d="M548.794,854.834c-8.906,19.348-33.475-.307-37.16-.921s-14.127-6.756-15.355-12.9-16.424-18.709-17.2-19.335c.823.258.123.221-.639-1.229-22.726-8.292-12.9-24.569-12.9-24.569l10.589-37.32,2.924-10.282,33.168-2.15s-2.273,7.26-4.8,14.889c-2.666,8-5.614,16.412-6.56,17.358-1.843,1.843.921,13.82,2.457,16.277s11.056,16.277,11.056,16.277l18.734,11.977S557.7,835.486,548.794,854.834Z" transform="translate(28.803 134.045)" fill="#fdc2cc"/>
    <path id="Path_490" data-name="Path 490" d="M509.881,746.12s-2.273,7.26-4.8,14.889a8.833,8.833,0,0,1-4.41-2.911l-26.719.614-.16-.16,2.924-10.282Z" transform="translate(31.17 134.043)" opacity="0.1"/>
    <path id="Path_491" data-name="Path 491" d="M619.541,477.614a1.328,1.328,0,0,1-.16.5c-2.555,7.825-34,104.417-35.772,109.748-1.843,5.528-10.749,24.569-10.749,24.569s-4.606,16.584-4.606,19.348-6.449,14.127-5.835,16.891-4.3,10.135-4.3,15.048-.307,9.213,0,12.591c.233,2.592,1.376,17.063-3.083,27.026a18.167,18.167,0,0,1-4.238,6.142,13.168,13.168,0,0,1-1.584,1.229c-11.056,7.371-11.977,82.919-11.977,82.919l-.516.811-4.484,7.027L518.5,822.84s-11.056,4.607-16.277-1.843l-26.718.614s-6.449-6.449-7.985-7.063.614-12.284.614-12.284-.921-4.607-.307-7.064,3.992-22.112,3.992-22.112,3.992-3.378,3.685-6.756,3.378-26.1,3.378-26.1l3.784-15.613,1.867-7.7,3.87-15.97L514.51,470.3l33.168-10.135,63.879,3.071,7,12.653Z" transform="translate(29.612 68.722)" fill="#5f5d7e"/>
    <path id="Path_492" data-name="Path 492" d="M526.292,590.953c-.307,5.835-1.843,14.741-1.229,19.962s2.764,24.876,1.843,28.561,3.378,7.985,4.914,9.828.614,7.37.921,11.67,4.3,8.292,4.3,8.292-4.607,9.827-1.229,11.363,10.442,15.662,10.442,15.662,2.371,2.985,5.516,7.039a16.841,16.841,0,0,1-5.823,7.371c-11.056,7.371-11.977,82.919-11.977,82.919l-.516.811L526.6,780.721s-40.845-61.729-43.609-62.65a4.327,4.327,0,0,1-1.72-1.229l3.87-15.97,26.1-230.638L544.411,460.1l63.878,3.071-33.634,3.378s-14.95,10.724-15.048,11.056l-26.866,11.363-4.914,73.706S526.6,585.118,526.292,590.953Z" transform="translate(32.878 68.706)" opacity="0.1"/>
    <path id="Path_493" data-name="Path 493" d="M615.639,475.833c-.848,3.415-89.307-6.818-89.307-6.818l.614,23.647-4.914,73.706s-1.229,22.419-1.536,28.254-1.843,14.741-1.228,19.962,2.764,24.876,1.843,28.561,3.378,7.985,4.914,9.828.614,7.371.921,11.67,4.3,8.292,4.3,8.292-4.606,9.827-1.228,11.363,10.442,15.663,10.442,15.663,3.378,4.263,7.371,9.5a13.18,13.18,0,0,1-1.585,1.228c-11.056,7.37-11.977,82.919-11.977,82.919l-.516.811-4.435,7.051L520.8,784.452s-31.509-47.626-41.054-59.837l1.867-7.7,3.87-15.97,26.1-230.638,33.168-10.135,63.878,3.071Z" transform="translate(32.531 68.722)" opacity="0.1"/>
    <path id="Path_494" data-name="Path 494" d="M576.767,709.794c-1.229,21.989-24.4,32.75-35.072,35.182-2.064-4.7-4.275-9.336-4.275-9.336s13.206-32.553,30.711-29.482A19.755,19.755,0,0,1,576.767,709.794Z" transform="translate(45.705 124.867)" opacity="0.1"/>
    <path id="Path_495" data-name="Path 495" d="M533.387,601.67c-.307,5.835-1.843,14.741-1.228,19.962s2.764,24.876,1.843,28.561,3.378,7.985,4.914,9.827.614,7.371.921,11.67,4.3,8.292,4.3,8.292-4.607,9.827-1.228,11.363,10.442,15.662,10.442,15.662,19.962,25.183,20.883,28.254,8.906,4.914,8.906,4.914,13.82,1.535,15.969,31.018-34.089,40.845-39.617,39.924-16.891-1.843-16.891-1.843l-8.906-17.812s-40.845-61.729-43.609-62.65-5.221-6.756-5.835-10.749-3.378-5.528-6.449-7.371-2.457-11.977-4.914-14.434-2.15-10.135-3.685-12.284,1.228-7.678,1.228-7.678-6.449-7.371-6.449-8.292.307-8.292.307-8.292-3.071-3.378-2.15-6.756-2.457-11.363-2.457-11.363-2.764-3.378-2.457-5.835-1.536-13.206-1.536-13.206-2.15-5.221-1.843-8.906-2.457-18.426-2.457-18.426-2.764-4.3-2.764-7.064.307-13.206.307-13.206-4.914-8.906-2.764-13.206-.614-17.2-2.457-19.655-3.378-23.954-5.221-25.8,0-9.213,0-9.213l-2.764-26.1s-1.843-9.213-.307-11.977-.614-9.52-1.228-12.591,1.536-12.591.921-15.97c-.258-1.425.565-5.331,1.609-9.4,1.45-5.6,3.3-11.486,3.3-11.486s157.854-14.741,180.58.614c4.914,3.292,7.948,8.292,9.827,14.139,6.719,21.424-3.329,54.051-3.329,54.051l-87.219,11.363-4.914,73.706S533.694,595.835,533.387,601.67Z" transform="translate(22.098 57.989)" fill="#5f5d7e"/>
    <path id="Path_496" data-name="Path 496" d="M494.42,656.487s27.333-8.292,33.782-2.764S494.42,656.487,494.42,656.487Z" transform="translate(35.882 112.502)" opacity="0.1"/>
    <path id="Path_497" data-name="Path 497" d="M502.42,685.662s8.292-8.906,20.576-6.142a33.475,33.475,0,0,0,21.5-2.15Z" transform="translate(37.71 118.338)" opacity="0.1"/>
    <path id="Path_498" data-name="Path 498" d="M525.92,692.642s22.419-3.071,23.34-.307S525.92,692.642,525.92,692.642Z" transform="translate(43.078 121.493)" opacity="0.1"/>
    <path id="Path_499" data-name="Path 499" d="M520.9,708.059s24.876-7.371,26.1-4.3-27.333,3.992-27.333,3.992Z" transform="translate(41.65 124.195)" opacity="0.1"/>
    <path id="Path_500" data-name="Path 500" d="M547.194,572.37s-23.34,20.576-19.962,22.726S547.194,572.37,547.194,572.37Z" transform="translate(43.301 94.353)" opacity="0.1"/>
    <path id="Path_501" data-name="Path 501" d="M527.92,613.87s16.277,0,13.206,3.685S527.92,613.87,527.92,613.87Z" transform="translate(43.535 103.832)" opacity="0.1"/>
    <path id="Path_502" data-name="Path 502" d="M536.878,625.62s-6.449,5.528-4.914,6.756S536.878,625.62,536.878,625.62Z" transform="translate(44.404 106.517)" opacity="0.1"/>
    <path id="Path_503" data-name="Path 503" d="M478.17,732.87s20.269,6.756,20.576,11.056S478.17,732.87,478.17,732.87Z" transform="translate(32.17 131.016)" opacity="0.1"/>
    <path id="Path_504" data-name="Path 504" d="M580.748,220.96,574.3,259.349s-55.894,29.482-56.815,29.482-40.845-6.756-42.381-6.756-27.64-78.927-9.213-83.841c4.987-1.327,12.223-4.521,20.122-8.488,21.3-10.651,47.442-26.829,47.442-26.829s39-4.3,29.482,22.726c-3.685,10.6-1.794,18.316,1.929,23.782C570.711,217.9,580.748,220.96,580.748,220.96Z" transform="translate(27.867 0.763)" fill="#fdc2cc"/>
    <path id="Path_505" data-name="Path 505" d="M580.748,215.924,574.3,254.313S518.4,283.8,517.483,283.8s-40.845-6.756-42.381-6.756-27.64-78.927-9.213-83.841c4.987-1.327,12.223-4.521,20.122-8.488,5.024.332,8.439.811,8.439.811s12.284,46.988,13.206,61.422,32.861,15.97,35.01,15.355,11.056-35.932,11.056-35.932-.921-12.284,1.843-12.284c2.309,0,7.641-7.371,9.3-9.692C570.711,212.866,580.748,215.924,580.748,215.924Z" transform="translate(27.867 5.798)" opacity="0.1"/>
    <path id="Path_506" data-name="Path 506" d="M629.9,434.306c-4.275,2.088-14.5,6.855-17.2,6.142-3.378-.921-11.67-.921-11.67-.921s-4.914,5.528-10.135,4.3-25.8-.307-25.8-.307-36.853,1.536-43.916-.921-32.246-4.607-32.246-4.607-34.4-3.992-40.231-6.449a10.061,10.061,0,0,0-10.135,1.228s-1.069-.7-2.383-1.72c1.45-5.6,3.3-11.486,3.3-11.486s157.854-14.741,180.58.614C624.988,423.459,628.071,428.459,629.9,434.306Z" transform="translate(22.58 57.991)" opacity="0.1"/>
    <path id="Path_507" data-name="Path 507" d="M505.681,188.483s-31.018-4.3-43.3,3.992a36.338,36.338,0,0,1-14.471,5.589,27.087,27.087,0,0,0-17.419,10.38c-.786,1.056-1.548,1.769-2.2,1.843-2.764.307-18.119,47.909-18.119,47.909l37.16,51.9s-.921,28.868,4.3,34.4-7.371,68.792-7.371,68.792-6.142,21.8-3.378,25.183,0,7.678,0,7.678-.614,5.528.921,5.528,3.378,7.064,1.843,7.371-8.6,6.142-6.142,7.371,0,3.992,0,6.756,7.064,7.371,7.064,7.371a10.061,10.061,0,0,1,10.135-1.229c5.835,2.457,40.231,6.449,40.231,6.449s25.183,2.15,32.246,4.607,43.917.921,43.917.921,20.576-.921,25.8.307,10.135-4.3,10.135-4.3,8.292,0,11.67.921,19.041-7.063,19.041-7.063-3.992-11.67-2.15-15.97.614-12.591.614-12.591-7.371-4.3-7.678-6.142-3.378-4.3-2.457-6.756,6.142-1.228,5.528-6.756-7.063-11.363-6.449-14.741,3.071-9.52,0-13.206-4.3-9.52-4.607-14.127,4.607-46.373,4.607-46.373l-11.363-84.148,34.7-17.2s-1.536-11.977-3.685-18.426-5.221-17.812-5.221-17.812-7.063-13.82-8.6-14.434-17.812-11.363-21.5-9.827S576.623,206.6,576.623,206.6s-7.064,10.442-9.828,10.442-1.843,12.284-1.843,12.284-8.906,35.318-11.056,35.932-34.089-.921-35.01-15.355S505.681,188.483,505.681,188.483Z" transform="translate(16.637 5.293)" fill="#d39999"/>
    <path id="Path_508" data-name="Path 508" d="M454.271,338.734a69.643,69.643,0,0,1-12.96,1.6c-6.3.172-11.842-.626-13.206-2.9-3.685-6.142-3.685-17.812-3.685-17.812s16.657,3.845,28.156,8.046l1.9.712h0c4.459,1.732,7.85,3.5,8.6,5.049C464.147,335.5,460.032,337.445,454.271,338.734Z" transform="translate(19.892 36.616)" fill="#fdc2cc"/>
    <circle id="Ellipse_36" data-name="Ellipse 36" cx="56.201" cy="56.201" r="56.201" transform="translate(538.594 92.123)" opacity="0.1"/>
    <circle id="Ellipse_37" data-name="Ellipse 37" cx="56.201" cy="56.201" r="56.201" transform="translate(538.594 89.666)" fill="#fdc2cc"/>
    <path id="Path_509" data-name="Path 509" d="M445.67,395.37s15.97,0,22.112,1.536,19.041,1.843,19.041,1.843S451.2,397.52,445.67,395.37Z" transform="translate(24.746 53.92)" opacity="0.1"/>
    <path id="Path_510" data-name="Path 510" d="M446.17,403.37s20.576,1.536,20.883,4.607S446.17,403.37,446.17,403.37Z" transform="translate(24.86 55.747)" opacity="0.1"/>
    <path id="Path_511" data-name="Path 511" d="M573.67,372.62s12.592,4.607,12.285,6.142S574.9,376.305,573.67,372.62Z" transform="translate(53.985 48.723)" opacity="0.1"/>
    <path id="Path_512" data-name="Path 512" d="M422.442,239.62l-7.985,5.528s-3.378,19.655-3.378,24.262-5.528,37.774-5.528,37.774-1.843,6.142-1.228,8.6-2.457,15.048-2.457,15.048-11.056,25.49-10.442,27.026,52.516,6.449,52.516,6.449l7.371-68.792Z" transform="translate(12.349 18.342)" fill="#d39999"/>
    <path id="Path_513" data-name="Path 513" d="M399.1,329.12l-7.678,8.292s-.307,27.026,7.371,29.789,12.591,1.536,15.048,3.685,15.663,6.142,15.663,6.142,14.434,2.15,18.734,1.535S423.052,354.3,442.4,334.341Z" transform="translate(12.353 38.786)" fill="#d39999"/>
    <path id="Path_514" data-name="Path 514" d="M600.389,222.12,611.137,234.1s4.607,28.561,3.378,32.554,6.449,73.4,6.449,73.4,7.371,30.1-9.213,34.089a28.981,28.981,0,0,0-3.993,4.3c-.614,1.228-13.82-.614-13.82-.614L573.67,244.846Z" transform="translate(53.985 14.344)" fill="#d39999"/>
    <path id="Path_515" data-name="Path 515" d="M486.357,320.586s40.231-23.954,47.6-25.183,53.13-23.033,53.13-23.033,22.726,11.67,24.876,20.576-9.521,44.531-9.521,44.531-37.467,26.1-39.617,31.632-34.4,21.8-34.4,24.569-50.98,32.861-73.4,6.449-22.112-34.089-22.112-34.089l56.815-13.206,5.528-24.569Z" transform="translate(21.833 25.823)" opacity="0.1"/>
    <path id="Path_516" data-name="Path 516" d="M486.357,318.586s40.231-23.954,47.6-25.183,53.13-23.033,53.13-23.033,22.726,11.67,24.876,20.576-9.521,44.531-9.521,44.531-37.467,26.1-39.617,31.632-34.4,21.8-34.4,24.569-50.98,32.861-73.4,6.449-22.112-34.089-22.112-34.089l56.815-13.206,5.528-24.569Z" transform="translate(21.833 25.366)" fill="#c4c8e2"/>
    <path id="Path_517" data-name="Path 517" d="M434.329,320.592l-1.843,15.355-14.606-1.069-14.262-1.056s-8.292,0-13.513-12.284,11.67-14.127,12.592-12.284c.7,1.388,18.426,7.174,27.025,9.914Z" transform="translate(11.825 34.109)" fill="#fdc2cc"/>
    <path id="Path_518" data-name="Path 518" d="M428.979,318.635l-1.842,15.355-14.606-1.069c2.383-3.538,7.371-10.012,11.854-15.712Z" transform="translate(17.176 36.066)" opacity="0.1"/>
    <path id="Path_519" data-name="Path 519" d="M424.42,319.62s16.657,3.845,28.156,8.046c-.762,1.228-5.847,9.189-11.265,12.665-6.3.172-11.842-.626-13.206-2.9C424.42,331.29,424.42,319.62,424.42,319.62Z" transform="translate(19.892 36.616)" opacity="0.1"/>
    <path id="Path_520" data-name="Path 520" d="M448.844,337.1l-.27-2.125s-.123-.454-.233-1.142c-.221-1.4-.381-3.759.651-5.2.6-.848.467-1.45.074-1.88,4.459,1.732,7.85,3.5,8.6,5.049C458.721,333.873,454.605,335.814,448.844,337.1Z" transform="translate(25.319 38.247)" opacity="0.1"/>
    <path id="Path_521" data-name="Path 521" d="M515.1,334.123s-16.682,16.694-17.714,20.269-32.554,3.685-32.554,3.685l-2.15-17.2s-.123-.455-.233-1.143c-.221-1.4-.381-3.759.651-5.2,1.536-2.15-1.744-2.764-1.744-2.764s-8.5,14.017-15.662,14.434c0,0-9.926,7.162-9.827,8.6,0,0-4.815,4.4-4.914,9.717s-6.24,7.481-10.749,5.946-15.662-4.815-19.25-4.3-14.938,3.882-14.532-6.658c0,0,14.741-11.056,18.426-10.749s12.284-3.992,13.513-7.371,22.112-29.175,22.112-29.175S453.679,299.727,459,298.5c0,0,10.651-8.292,26.718,4.3,0,0,22.222,13.709,22.935,15.552.565,1.45,7.014,7.641,7.555,12.284a3.8,3.8,0,0,1-1.105,3.489Z" transform="translate(11.209 31.179)" fill="#fdc2cc"/>
    <path id="Path_522" data-name="Path 522" d="M449.054,307.12s1.634,9.422.823,12.8-2.457,9.213-2.457,9.213S457.346,313.569,449.054,307.12Z" transform="translate(25.146 33.761)" opacity="0.1"/>
    <path id="Path_523" data-name="Path 523" d="M449.33,326.615s5.123-5.638,6.253-4.2S449.33,326.615,449.33,326.615Z" transform="translate(25.582 37.201)" opacity="0.1"/>
    <path id="Path_524" data-name="Path 524" d="M633.413,285.673a35.944,35.944,0,0,1-26.093,34.568,35.351,35.351,0,0,1-9.667,1.376h-.184a35.932,35.932,0,0,1-35.919-35.944,34.223,34.223,0,0,1,.565-6.29,35.87,35.87,0,0,1,32.75-29.482c.86-.074,1.732-.111,2.6-.111A35.932,35.932,0,0,1,633.413,285.673Z" transform="translate(51.217 20.665)" fill="#f8bdc5"/>
    <path id="Path_525" data-name="Path 525" d="M646.288,282.333a12.639,12.639,0,0,1,2.924,7.444c-3.587.332-7.371.762-10.221,3.01-2.457,1.916-3.685,4.914-4.914,7.7q-1.683,3.943-3.341,7.887c-1.744,4.115-3.538,8.316-6.572,11.6a22.7,22.7,0,0,0-3.415,3.956c-.848,1.536-1.229,3.476-2.6,4.508a4.913,4.913,0,0,1-4.643.258c-1.511-.565-2.862-1.511-4.373-2.113a13.926,13.926,0,0,0-3.01-.786h0c-4.5-.663-9.447.307-13.267-2.113a7.911,7.911,0,0,1-1.229-1.007,11.892,11.892,0,0,1-3.132-5.307,5.972,5.972,0,0,1-.295-2.543,5.491,5.491,0,0,1,2.85-3.685c.209-.123.418-.246.639-.356,3.685-1.929,8.808-2.383,10.737-6.142,1.843-3.562-.442-7.9-3.243-10.773-1.327-1.351-2.9-2.887-2.715-4.779.172-1.671,1.658-2.838,2.9-3.956a21.522,21.522,0,0,0,6.732-12.076,9.177,9.177,0,0,0-.074-4.361,11.554,11.554,0,0,0-1.56-2.862l-3.98-5.9a16.179,16.179,0,0,0-4.914-5.209c-1.658-1-3.562-1.339-5.233-2.322a4.15,4.15,0,0,1-1.548-1.474,1.584,1.584,0,0,1-.2-1.155c.209-.983,1.228-1.462,2.248-1.744a21.9,21.9,0,0,1,8.132-.774,6.314,6.314,0,0,0,2.629,0,1.855,1.855,0,0,0,1.364-2c3.022-.786,5.884,1.572,8.1,3.784s4.914,4.631,8.034,4c1.118-.221,2.15-.86,3.28-.983s2.531.614,2.457,1.757-1.5,1.879-1.376,2.985a2.2,2.2,0,0,0,.5,1.032,25.969,25.969,0,0,0,5,5.184c0-2.174,0-4.361,0-6.535,2.457.614,3.354,3.759,3.071,6.3s-1.228,5.11-.639,7.592a2.789,2.789,0,0,0,1.474,2,3.684,3.684,0,0,0,1.929,0c5.638-.8,12.223.7,15.024,5.651l-4.914-1.781,5.712,3.12a6.008,6.008,0,0,1,2.039,1.536,2.039,2.039,0,0,1,.147,2.383A7.629,7.629,0,0,0,646.288,282.333Z" transform="translate(57.297 19.594)" fill="#585268"/>
    <g id="Group_25" data-name="Group 25" transform="translate(645.72 264.427)" opacity="0.1">
      <path id="Path_526" data-name="Path 526" d="M626.686,267.117a3.685,3.685,0,0,0,1.929,0c.553-.074,1.106-.123,1.671-.16a19.789,19.789,0,0,0-3.685.111Z" transform="translate(-579.644 -239.849)"/>
      <path id="Path_527" data-name="Path 527" d="M636.43,270.26l2.113,1.167-.393-.553Z" transform="translate(-577.398 -239.086)"/>
      <path id="Path_528" data-name="Path 528" d="M623.987,260.675v-4.3a3.783,3.783,0,0,0-2.457-2.236v4.324a26.419,26.419,0,0,0,2.457,2.211Z" transform="translate(-580.802 -242.768)"/>
      <path id="Path_529" data-name="Path 529" d="M638.43,275.075a7.615,7.615,0,0,1,3.022,1.228,1.522,1.522,0,0,0,.307-1A7.813,7.813,0,0,0,638.43,275.075Z" transform="translate(-576.941 -238.005)"/>
      <path id="Path_530" data-name="Path 530" d="M616.168,328.157c-1.511-.565-2.862-1.511-4.373-2.113a13.914,13.914,0,0,0-3.01-.786h0c-4.5-.663-9.447.307-13.267-2.113a7.91,7.91,0,0,1-1.228-1.007,11.892,11.892,0,0,1-3.133-5.307,5.969,5.969,0,0,1-.295-2.543,5.491,5.491,0,0,1,2.85-3.685c.209-.123.418-.246.639-.356,3.747-1.929,8.808-2.383,10.737-6.142,1.842-3.563-.442-7.9-3.243-10.773-1.327-1.351-2.9-2.887-2.715-4.779.172-1.671,1.658-2.838,2.9-3.956a21.522,21.522,0,0,0,6.732-12.076,9.18,9.18,0,0,0-.074-4.361,11.567,11.567,0,0,0-1.56-2.862l-3.98-5.9a16.176,16.176,0,0,0-4.914-5.209c-1.658-.995-3.562-1.339-5.233-2.322a4.151,4.151,0,0,1-1.548-1.474,1.585,1.585,0,0,1-.2-1.155c.209-.983,1.29-1.462,2.248-1.744a22.707,22.707,0,0,1,4.914-.811,22.109,22.109,0,0,0-7.37.811c-.958.283-2.039.762-2.248,1.744a1.585,1.585,0,0,0,.2,1.155,4.152,4.152,0,0,0,1.548,1.474c1.671.983,3.575,1.327,5.233,2.322a16.177,16.177,0,0,1,4.914,5.209l3.98,5.9a11.558,11.558,0,0,1,1.56,2.862,9.177,9.177,0,0,1,.074,4.361,21.525,21.525,0,0,1-6.732,12.076c-1.228,1.118-2.727,2.285-2.9,3.956-.184,1.892,1.388,3.427,2.715,4.779,2.8,2.875,5.086,7.211,3.243,10.773-1.929,3.747-6.99,4.2-10.736,6.142-.221.111-.43.233-.639.356a5.491,5.491,0,0,0-2.85,3.685,5.969,5.969,0,0,0,.3,2.543,11.888,11.888,0,0,0,3.132,5.307,7.9,7.9,0,0,0,1.228,1.007c3.82,2.457,8.771,1.45,13.267,2.113h0a13.917,13.917,0,0,1,3.01.786c1.511.6,2.862,1.548,4.373,2.113a5.8,5.8,0,0,0,3.464.295A7.271,7.271,0,0,1,616.168,328.157Z" transform="translate(-588.375 -244.48)"/>
      <path id="Path_531" data-name="Path 531" d="M615.918,251.525a18.046,18.046,0,0,0,2.223-.725,2.64,2.64,0,0,0-1.4-.258,25.879,25.879,0,0,0-3.071.934,5.124,5.124,0,0,0,2.248.049Z" transform="translate(-582.597 -243.593)"/>
      <path id="Path_532" data-name="Path 532" d="M599.136,247.091a6.316,6.316,0,0,0,2.629-.061,1.855,1.855,0,0,0,1.363-1.99,4.915,4.915,0,0,0-2.457,0,1.855,1.855,0,0,1-1.363,2,1.971,1.971,0,0,1-.258.061Z" transform="translate(-585.937 -244.883)"/>
    </g>
    <path id="Path_533" data-name="Path 533" d="M573.016,265.907c-4.582,3.427-11.891,4.914-18.611,5.405a99.962,99.962,0,0,1-15.785,0l-11.83-4.447s.958-1.9,2.58-4.422c3.231-5.012,9.1-12.469,15.233-12.162,9.213.455,18.893.909,19.815.909S583.3,258.23,573.016,265.907Z" transform="translate(43.276 20.775)" fill="#fdc2cc"/>
    <path id="Path_534" data-name="Path 534" d="M559.31,62.841c-8.746-.16-17.775-.258-25.8,3.108-16.129,6.67-23.733,24.495-33.487,38.868a111.162,111.162,0,0,1-30.4,30.109c-5.651,3.685-12.211,7.739-13.574,14.373-1.45,7.014,3.562,13.513,6.142,20.159,5.467,14.139,0,29.8-3.231,44.617a144.818,144.818,0,0,0-2.911,21.6,29.973,29.973,0,0,0,.651,10.049c2.457,8.673,11.744,14.938,11.818,23.954,0,6.142-4.324,11.94-3.059,17.911,1.634,7.629,10.9,10.38,18.574,11.695a9.5,9.5,0,0,0,5.589-.172c1.228-.59,2.236-1.72,3.489-2.346,4.263-2.113,8.992,2.346,13.758,2.26,5.982-.111,9.348-7.174,9.5-13.156s-1.45-12.284.7-17.812c2.862-7.371,11.056-10.872,17.972-14.741,7.653-4.287,14.938-10.479,17.2-18.942,1.413-5.233.774-10.773.209-16.154-.86-8.255-1.535-16.547-2-24.827-1.228-21.129,16.326-38.732,37.418-37.086h.393c6.142.5,13.39,1.093,17.726-3.378,1.72-1.781,2.813-4.238,4.914-5.467,4.1-2.334,9.742,1,13.869-1.3,3.231-1.806,3.919-6.142,3.415-9.827s-1.793-7.371-1.106-10.982c.983-5.123,5.638-8.783,7.371-13.709,1.99-5.614-.16-11.891-3.255-16.977-9.913-16.35-30.1-29.151-49.014-30.871C574.567,63.05,566.939,62.964,559.31,62.841Z" transform="translate(27.058 -22.054)" fill="#865a61"/>
    <path id="Path_535" data-name="Path 535" d="M529.37,260.15c7.3,1.5,16.178,4.828,25.035,8.894a99.953,99.953,0,0,1-15.785,0L526.79,264.6A51.4,51.4,0,0,1,529.37,260.15Z" transform="translate(43.276 23.031)" opacity="0.1"/>
    <path id="Path_536" data-name="Path 536" d="M612.211,319.221c-4.5-.663-9.447.307-13.267-2.113a7.908,7.908,0,0,1-1.229-1.007h-.184A35.932,35.932,0,0,1,561.55,280.17a34.223,34.223,0,0,1,.565-6.29c12.591,7.039,22.8,14.274,24.765,17.812a73.114,73.114,0,0,0,10.2,12.862c3.427,3.685,7.1,7.223,10.245,10.184C609.189,316.47,610.872,318.005,612.211,319.221Z" transform="translate(51.217 26.168)" opacity="0.1"/>
    <path id="Path_537" data-name="Path 537" d="M625.046,326.383s-22.419-19.348-28.561-30.4-92.44-58.043-81.384-22.419,49.137,39,49.137,39,12.284,13.82,13.513,20.576,5.528,16.584,5.528,16.584l20.576,9.213,9.521-2.15S635.8,344.5,625.046,326.383Z" transform="translate(40.383 23.097)" fill="#fdc2cc"/>
    <path id="Path_538" data-name="Path 538" d="M569.42,337.26s36.239,20.576,39.924-27.64l9.213,3.071-9.213,32.554-15.662,11.363S571.877,346.473,569.42,337.26Z" transform="translate(53.014 34.332)" opacity="0.1"/>
    <path id="Path_539" data-name="Path 539" d="M570.42,338.26s36.239,20.576,39.924-27.64l9.213,3.071-9.213,32.554-15.663,11.363S572.877,347.473,570.42,338.26Z" transform="translate(53.243 34.56)" fill="#d39999"/>
    <path id="Path_540" data-name="Path 540" d="M609.738,141.133c.418-4.312,2.174-8.378,3.1-12.616a33.332,33.332,0,0,0,.368-12.481,18.12,18.12,0,0,0-3.243-8.3c-1.228-1.536-4.914-4.914-7.063-3.39-1.229.872-1.56,5.921-2.052,7.371a63.647,63.647,0,0,1-6.879,13.82,56.188,56.188,0,0,1-45.452,89.16c-1.339,0-2.666-.061-3.98-.16-1.228,2.137-2.346,4.3-3.476,6.462a20.07,20.07,0,0,0-2.653,7.162,18.648,18.648,0,0,0,1.093,7.125,100.492,100.492,0,0,0,9.41,21.485,32.494,32.494,0,0,1,3.378,6.72c.7,2.273.823,4.7,1.732,6.892,2.039,4.914,7.371,7.371,12.284,9.422,2.936,1.228,6.007,2.457,9.176,2.2a2.137,2.137,0,0,0,2.3-2.174,8.317,8.317,0,0,0-2.457-7.063,35.256,35.256,0,0,0,12.9,1.535,2.076,2.076,0,0,0,2.236-3.047,55.279,55.279,0,0,0-5.135-13.292c-2.236-4.128-5.086-8.931-3.046-13.144,1.167-2.457,3.624-3.833,5.86-5.295,7.555-4.914,14.25-12.923,13.66-21.928-.319-4.914-2.8-9.594-2.948-14.545-.381-12.076,12.616-20.711,14.582-32.639C614.984,160.653,608.792,151,609.738,141.133Z" transform="translate(45.925 -12.649)" fill="#865a61"/>
    <g id="Group_26" data-name="Group 26" transform="translate(482.266 82.369)" opacity="0.1">
      <path id="Path_541" data-name="Path 541" d="M467.958,232.433c-.074-9.017-9.348-15.282-11.818-23.954a20.18,20.18,0,0,1-.7-4.189,27.59,27.59,0,0,0,.7,9.1c2.26,7.923,10.171,13.844,11.584,21.694A14.74,14.74,0,0,0,467.958,232.433Z" transform="translate(-455.313 -72.098)"/>
      <path id="Path_542" data-name="Path 542" d="M504.57,253.308c-4.766.086-9.5-4.373-13.758-2.26-1.229.627-2.211,1.757-3.489,2.346a9.5,9.5,0,0,1-5.589.172c-7.653-1.314-16.891-4.054-18.549-11.621a12.577,12.577,0,0,0,0,4.84c1.634,7.629,10.9,10.38,18.574,11.695a9.5,9.5,0,0,0,5.589-.172c1.229-.59,2.236-1.72,3.489-2.346,4.263-2.113,8.992,2.346,13.758,2.26,5.982-.111,9.348-7.174,9.5-13.156,0-1.228,0-2.457-.086-3.685C513.378,247.055,510.134,253.2,504.57,253.308Z" transform="translate(-453.573 -63.626)"/>
      <path id="Path_543" data-name="Path 543" d="M540.541,199.364c-2.285,8.464-9.569,14.655-17.2,18.942-6.916,3.882-15.11,7.371-17.972,14.741a23.5,23.5,0,0,0-1.056,9.889,17.394,17.394,0,0,1,1.056-4.975c2.862-7.371,11.056-10.872,17.972-14.741,7.653-4.287,14.938-10.479,17.2-18.942a31.051,31.051,0,0,0,.774-9.827A25.267,25.267,0,0,1,540.541,199.364Z" transform="translate(-444.154 -74.346)"/>
      <path id="Path_544" data-name="Path 544" d="M601.381,127.367c-2.96-.221-6.044-.909-8.6.516-2.15,1.228-3.243,3.685-4.914,5.466-4.336,4.472-11.523,3.882-17.726,3.378h-.393c-21.092-1.646-38.622,15.97-37.418,37.086v.491a34.973,34.973,0,0,1,37.393-32.664h.393c6.142.5,13.39,1.093,17.726-3.378,1.72-1.781,2.813-4.238,4.914-5.467,2.457-1.425,5.589-.737,8.6-.516a55.991,55.991,0,0,1,3.992,18.426c0-.8.062-1.6.062-2.457a56.119,56.119,0,0,0-4.031-20.887Z" transform="translate(-437.737 -89.753)"/>
      <path id="Path_545" data-name="Path 545" d="M463.932,164.167a37.944,37.944,0,0,0-2.248-15.724c-1.941-5.024-5.27-9.95-6.142-15.073-1.339,6.941,3.612,13.365,6.142,19.987A35.234,35.234,0,0,1,463.932,164.167Z" transform="translate(-455.316 -88.299)"/>
      <path id="Path_546" data-name="Path 546" d="M599.774,116.12a31.928,31.928,0,0,1-.688,4.7c-.922,4.238-2.678,8.3-3.1,12.616a24.168,24.168,0,0,0,0,4.619c.467-4.2,2.15-8.181,3.059-12.284a33.276,33.276,0,0,0,.725-9.655Z" transform="translate(-423.207 -92.239)"/>
      <path id="Path_547" data-name="Path 547" d="M601.643,154.269c-1.965,11.928-14.962,20.564-14.581,32.639a16.963,16.963,0,0,0,.172,1.953c1.548-10.577,12.616-18.746,14.409-29.679a22.716,22.716,0,0,0,.123-5.982A7.883,7.883,0,0,1,601.643,154.269Z" transform="translate(-425.223 -83.769)"/>
      <path id="Path_548" data-name="Path 548" d="M601.572,98.953a34.388,34.388,0,0,1-4.422,7.371,17.052,17.052,0,0,1,1.228,3.1,24.425,24.425,0,0,0,3.157-5.614,14.738,14.738,0,0,0,.565-7.125A12.978,12.978,0,0,1,601.572,98.953Z" transform="translate(-422.917 -96.68)"/>
      <path id="Path_549" data-name="Path 549" d="M593.074,195.39c-1.093,7.518-6.978,14.066-13.513,18.353-2.236,1.462-4.693,2.887-5.86,5.295a8.132,8.132,0,0,0-.332,5.749,5.361,5.361,0,0,1,.332-.835c1.167-2.457,3.624-3.833,5.86-5.295,7.555-4.914,14.25-12.923,13.66-21.927C593.2,196.274,593.135,195.832,593.074,195.39Z" transform="translate(-428.434 -74.131)"/>
      <path id="Path_550" data-name="Path 550" d="M576.532,253.7a2.629,2.629,0,0,1-1.585.54c-3.169.27-6.24-.97-9.176-2.2-4.914-2.039-10.27-4.521-12.284-9.422-.909-2.187-1.032-4.619-1.732-6.892a32.482,32.482,0,0,0-3.378-6.72,100.5,100.5,0,0,1-9.41-21.485,33.111,33.111,0,0,1-.884-3.452c-.086.405-.16.823-.209,1.228a18.653,18.653,0,0,0,1.093,7.125,100.509,100.509,0,0,0,9.41,21.485,32.484,32.484,0,0,1,3.378,6.72c.7,2.273.823,4.7,1.732,6.891,2.039,4.914,7.371,7.371,12.284,9.422,2.936,1.228,6.007,2.457,9.176,2.2a2.137,2.137,0,0,0,2.3-2.174,8.148,8.148,0,0,0-.369-3.685,1.485,1.485,0,0,1-.344.418Z" transform="translate(-436.461 -72.149)"/>
      <path id="Path_551" data-name="Path 551" d="M582.418,238.545a3.917,3.917,0,0,1-1.609.381,35.256,35.256,0,0,1-12.9-1.536,8.292,8.292,0,0,1,2.518,5.589,35.121,35.121,0,0,0,10.38.86,2.076,2.076,0,0,0,2.236-3.047C582.86,240.031,582.639,239.282,582.418,238.545Z" transform="translate(-429.596 -64.537)"/>
    </g>
    <path id="Path_552" data-name="Path 552" d="M440.207,260.37s-1.228,25.183,2.457,27.026S440.207,260.37,440.207,260.37Z" transform="translate(23.453 23.082)" opacity="0.1"/>
    <path id="Path_553" data-name="Path 553" d="M496.92,314.37c1.229,0,6.142,2.457,6.756,5.221S496.92,314.37,496.92,314.37Z" transform="translate(36.453 35.417)" opacity="0.1"/>
    <path id="Path_554" data-name="Path 554" d="M494.42,317.62c1.228,0,6.142,2.457,6.756,5.221S494.42,317.62,494.42,317.62Z" transform="translate(35.882 36.159)" opacity="0.1"/>
    <path id="Path_555" data-name="Path 555" d="M503.67,326.62c1.228,0,6.142,2.457,6.756,5.221S503.67,326.62,503.67,326.62Z" transform="translate(37.995 38.215)" opacity="0.1"/>
    <path id="Path_556" data-name="Path 556" d="M500.961,327.77s-16.682,16.694-17.714,20.269-32.553,3.685-32.553,3.685l-2.15-17.2s-.123-.455-.233-1.142c8.71-2.236,36.951-12.665,53.756-8.967A3.8,3.8,0,0,1,500.961,327.77Z" transform="translate(25.349 37.532)" opacity="0.1"/>
    <path id="Path_557" data-name="Path 557" d="M430.045,348.681s16.08-14.225,20.994-13.918,64.8-25.183,68.792,3.378-76.47,30.1-76.47,30.1l-12.284,4.607S420.831,350.523,430.045,348.681Z" transform="translate(20.299 37.75)" fill="#fdc2cc"/>
    <path id="Path_558" data-name="Path 558" d="M425.728,346.6s7.371-10.233,9.619,2.248,5.638,27.849,5.638,27.849L424.5,368.507Z" transform="translate(19.91 41.878)" fill="#d39999"/>
    <ellipse id="Ellipse_38" data-name="Ellipse 38" cx="55.022" cy="8.439" rx="55.022" ry="8.439" transform="translate(1073.147 807.845)" fill="#54a591" opacity="0.1"/>
    <ellipse id="Ellipse_39" data-name="Ellipse 39" cx="85.99" cy="13.193" rx="85.99" ry="13.193" transform="translate(886.867 955.466)" fill="#54a591" opacity="0.1"/>
    <ellipse id="Ellipse_40" data-name="Ellipse 40" cx="113.741" cy="17.456" rx="113.741" ry="17.456" transform="translate(1092.519 997.883)" fill="#54a591" opacity="0.1"/>
    <ellipse id="Ellipse_41" data-name="Ellipse 41" cx="85.99" cy="13.193" rx="85.99" ry="13.193" transform="translate(0 820.35)" fill="#54a591" opacity="0.1"/>
    <path id="Path_559" data-name="Path 559" d="M945.929,628.21s-7.776,36.239,26.841,40.538l2.15-4.029S948.079,639.487,945.929,628.21Z" transform="translate(138.851 107.108)" fill="#54a591"/>
    <path id="Path_560" data-name="Path 560" d="M983.94,667.831l-8.046,1.708-.811.184s-21.473-17.444-21.2-56.373a97.739,97.739,0,0,0,10.257,16.24C972.651,640.842,982.282,655.915,983.94,667.831Z" transform="translate(140.837 103.714)" fill="#54a591"/>
    <path id="Path_561" data-name="Path 561" d="M984.133,674.06a5.036,5.036,0,0,1-4.336.565c-20.675-4.828-13.685-72.195-13.685-72.195,1.142.54,2.457,9.1,7.149,20.171C981.6,642.035,990.8,669.183,984.133,674.06Z" transform="translate(143.372 101.219)" fill="#54a591"/>
    <path id="Path_562" data-name="Path 562" d="M1024.478,628.21s1.351,36.239-33.278,40.538l-2.15-4.029S1022.341,639.487,1024.478,628.21Z" transform="translate(148.872 107.108)" fill="#54a591"/>
    <path id="Path_563" data-name="Path 563" d="M1016.6,613.35c.258,38.929-27.64,56.373-27.64,56.373l-.811-.184-8.046-1.708c1.585-11.953,11.289-27.026,19.79-38.241A87.1,87.1,0,0,1,1016.6,613.35Z" transform="translate(146.827 103.714)" fill="#54a591"/>
    <path id="Path_564" data-name="Path 564" d="M988.947,670.534a12.766,12.766,0,0,1-4.607,3.526h0a8.21,8.21,0,0,1-1.683.565c-5.1,1.229-6.867-2.457-6.572-8.709.479-11.056,7.457-30.342,13.722-44.74,4.508-10.368,11.879-18.23,12.972-18.746C1002.755,602.43,1002.448,654.884,988.947,670.534Z" transform="translate(145.903 101.219)" fill="#54a591"/>
    <path id="Path_565" data-name="Path 565" d="M983.938,583.2s-23.083,81.863-3.219,94.209S989.048,590.448,983.938,583.2Z" transform="translate(145.127 96.826)" fill="#54a591"/>
    <path id="Path_566" data-name="Path 566" d="M945.929,628.21s-7.776,36.239,26.841,40.538l2.15-4.029S948.079,639.487,945.929,628.21Z" transform="translate(138.851 107.108)" opacity="0.1"/>
    <path id="Path_567" data-name="Path 567" d="M983.94,667.831l-8.046,1.708-.811.184s-21.473-17.444-21.2-56.373a97.739,97.739,0,0,0,10.257,16.24C972.651,640.842,982.282,655.915,983.94,667.831Z" transform="translate(140.837 103.714)" opacity="0.1"/>
    <path id="Path_568" data-name="Path 568" d="M984.133,674.06a5.036,5.036,0,0,1-4.336.565c-20.675-4.828-13.685-72.195-13.685-72.195,1.142.54,2.457,9.1,7.149,20.171C981.6,642.035,990.8,669.183,984.133,674.06Z" transform="translate(143.372 101.219)" opacity="0.1"/>
    <path id="Path_569" data-name="Path 569" d="M1024.478,628.21s1.351,36.239-33.278,40.538l-2.15-4.029S1022.341,639.487,1024.478,628.21Z" transform="translate(148.872 107.108)" opacity="0.1"/>
    <path id="Path_570" data-name="Path 570" d="M1016.6,613.35c.258,38.929-27.64,56.373-27.64,56.373l-.811-.184-8.046-1.708c1.585-11.953,11.289-27.026,19.79-38.241A87.1,87.1,0,0,1,1016.6,613.35Z" transform="translate(146.827 103.714)" opacity="0.1"/>
    <path id="Path_571" data-name="Path 571" d="M988.947,670.534a12.766,12.766,0,0,1-4.607,3.526h0a8.21,8.21,0,0,1-1.683.565c-5.1,1.229-6.867-2.457-6.572-8.709.479-11.056,7.457-30.342,13.722-44.74,4.508-10.368,11.879-18.23,12.972-18.746C1002.755,602.43,1002.448,654.884,988.947,670.534Z" transform="translate(145.903 101.219)" opacity="0.1"/>
    <path id="Path_572" data-name="Path 572" d="M983.938,583.2s-23.083,81.863-3.219,94.209S989.048,590.448,983.938,583.2Z" transform="translate(145.127 96.826)" opacity="0.1"/>
    <path id="Path_573" data-name="Path 573" d="M945.827,628.21s-4.557,36.239,30.06,40.538l2.15-4.029S947.977,639.487,945.827,628.21Z" transform="translate(138.953 107.108)" fill="#54a591"/>
    <path id="Path_574" data-name="Path 574" d="M987.189,667.831l-8.046,1.708-.811.184S953.64,652.279,953.91,613.35c0,0,6.327,6.781,13.513,16.24C975.875,640.842,985.542,655.915,987.189,667.831Z" transform="translate(140.844 103.714)" fill="#54a591"/>
    <path id="Path_575" data-name="Path 575" d="M984.682,664.811l-8.046,1.707c-7.629-6.695-10.663-24.188-11.756-39.949C973.368,637.822,983.036,652.9,984.682,664.811Z" transform="translate(143.351 106.734)" opacity="0.1"/>
    <path id="Path_576" data-name="Path 576" d="M987.19,674.06a5.037,5.037,0,0,1-4.337.565c-20.674-4.828-16.9-72.195-16.9-72.195,1.142.54,5.614,9.1,10.368,20.171C984.659,642.035,993.823,669.183,987.19,674.06Z" transform="translate(143.533 101.219)" fill="#54a591"/>
    <path id="Path_577" data-name="Path 577" d="M1023.877,628.21s4.57,36.239-30.06,40.538l-2.138-4.029S1021.74,639.487,1023.877,628.21Z" transform="translate(149.473 107.108)" fill="#54a591"/>
    <path id="Path_578" data-name="Path 578" d="M1016,613.35c.258,38.929-24.421,56.373-24.421,56.373l-.811-.184-8.046-1.708c1.6-11.953,11.289-27.026,19.79-38.241C1009.672,620.131,1016,613.35,1016,613.35Z" transform="translate(147.426 103.714)" fill="#54a591"/>
    <path id="Path_579" data-name="Path 579" d="M1002.51,626.57c-1.032,14.741-3.685,30.883-10.257,38.45a12.279,12.279,0,0,1-1.487,1.5l-8.046-1.708C984.292,652.9,994.009,637.822,1002.51,626.57Z" transform="translate(147.426 106.734)" opacity="0.1"/>
    <path id="Path_580" data-name="Path 580" d="M991.57,670.534a12.665,12.665,0,0,1-4.606,3.526h0a8.579,8.579,0,0,1-1.7.565c-5.086,1.229-6.867-2.457-6.572-8.709.479-11.056,7.457-30.342,13.721-44.74,4.509-10.368,8.6-18.23,9.754-18.746C1002.159,602.43,1005.083,654.884,991.57,670.534Z" transform="translate(146.499 101.219)" fill="#54a591"/>
    <path id="Path_581" data-name="Path 581" d="M985.44,670.3a5.662,5.662,0,0,1-3.268-1.044c-9.729-6.056-9.926-28.794-7.6-50.366C982.909,638.275,992.073,665.423,985.44,670.3Z" transform="translate(145.284 104.979)" opacity="0.1"/>
    <path id="Path_582" data-name="Path 582" d="M991.564,667.048c-1.118,2.457-2.629,3.685-4.606,3.526h0a6.451,6.451,0,0,1-2.776-1.044,14.742,14.742,0,0,1-5.491-7.1c.479-11.056,7.456-30.342,13.722-44.74C994.635,637.726,995.372,658.855,991.564,667.048Z" transform="translate(146.505 104.705)" opacity="0.1"/>
    <path id="Path_583" data-name="Path 583" d="M983.481,583.2s-19.851,81.863,0,94.209S988.591,590.448,983.481,583.2Z" transform="translate(145.584 96.826)" fill="#54a591"/>
    <path id="Path_584" data-name="Path 584" d="M965.511,626.99H882.85v13.685h12.6l.319,1.609,5.049,26.571h48.056l5.049-26.571.307-1.609h11.277Z" transform="translate(201.672 143.228)" fill="#4b4770"/>
    <path id="Path_585" data-name="Path 585" d="M965.511,626.99H882.85v13.685h12.6l.319,1.609,5.049,26.571h48.056l5.049-26.571.307-1.609h11.277Z" transform="translate(201.672 143.228)" opacity="0.1"/>
    <path id="Path_586" data-name="Path 586" d="M955.79,633.54l-1.376,7.248-5.061,26.571H901.3l-5.049-26.571-1.388-7.248Z" transform="translate(204.415 144.724)" fill="#4b4770"/>
    <path id="Path_587" data-name="Path 587" d="M955.79,633.54l-1.376,7.248H896.248l-1.388-7.248Z" transform="translate(204.415 144.724)" opacity="0.1"/>
    <rect id="Rectangle_58" data-name="Rectangle 58" width="82.661" height="13.685" transform="translate(1087.74 770.218)" fill="#4b4770"/>
    <path id="Path_588" data-name="Path 588" d="M186.131,592.485a21.1,21.1,0,0,0-2.8,5.27c-.172.455-.344.983-.516,1.486a4.528,4.528,0,0,0-.97-.332,13.572,13.572,0,0,0-4.385-.381c0-.565.074-1.229.086-1.806.184-6.474-.577-15.49-6.756-11.67-5.921,3.685-1.7,9.828,2.125,13.759.332.344.663.663.983.97-3.489,2.457-4.152,8.267-4.73,14.3s-5.7,12.628-9.1,16.387c-.344.381-.651.725-.958,1.044a12.407,12.407,0,0,0-9.827-2.543c-.135-.528-.283-1.081-.455-1.671-2.813-9.987-8.513-27.185-15.81-30.87.307-.381.626-.774.958-1.228,3.1-4.054,6.584-10.073,1.437-11.609s-5.614,5.221-5.331,10.282c0,.627.1,1.229.147,1.794a7.543,7.543,0,0,0-5.368,2.6l-.8-.946c-4.177-4.914-11.83-12.727-14.152-6.818-2.15,5.491,4.582,12.641,9.324,16.78l.295.258c-3.182,12.923,10.712,23.451,18.193,28.045l.97.6c-10.319,12.149-16.694,34.949-16.694,34.949L150.9,676.3s19.151-16.535,16.694-32.05h.2c19.151-3.845,23.5-24.262,20.527-36.374l.332-.147a21.743,21.743,0,0,0,8.869-6.695C202.862,593.578,191.634,585.176,186.131,592.485Z" transform="translate(-52.047 96.865)" fill="#54a591"/>
    <path id="Path_589" data-name="Path 589" d="M186.131,592.485a21.1,21.1,0,0,0-2.8,5.27c-.172.455-.344.983-.516,1.486a4.528,4.528,0,0,0-.97-.332,13.572,13.572,0,0,0-4.385-.381c0-.565.074-1.229.086-1.806.184-6.474-.577-15.49-6.756-11.67-5.921,3.685-1.7,9.828,2.125,13.759.332.344.663.663.983.97-3.489,2.457-4.152,8.267-4.73,14.3s-5.7,12.628-9.1,16.387c-.344.381-.651.725-.958,1.044a12.407,12.407,0,0,0-9.827-2.543c-.135-.528-.283-1.081-.455-1.671-2.813-9.987-8.513-27.185-15.81-30.87.307-.381.626-.774.958-1.228,3.1-4.054,6.584-10.073,1.437-11.609s-5.614,5.221-5.331,10.282c0,.627.1,1.229.147,1.794a7.543,7.543,0,0,0-5.368,2.6l-.8-.946c-4.177-4.914-11.83-12.727-14.152-6.818-2.15,5.491,4.582,12.641,9.324,16.78l.295.258c-3.182,12.923,10.712,23.451,18.193,28.045l.97.6c-10.319,12.149-16.694,34.949-16.694,34.949L150.9,676.3s19.151-16.535,16.694-32.05h.2c19.151-3.845,23.5-24.262,20.527-36.374l.332-.147a21.743,21.743,0,0,0,8.869-6.695C202.862,593.578,191.634,585.176,186.131,592.485Z" transform="translate(-52.047 96.865)" opacity="0.1"/>
    <path id="Path_590" data-name="Path 590" d="M128.289,599.892l-3.378,9.827s-1.88-1.327-4.25-3.415c-4.742-4.14-11.474-11.289-9.324-16.78,2.322-5.909,9.975,1.892,14.152,6.818C127.171,598.369,128.289,599.892,128.289,599.892Z" transform="translate(-51.721 97.787)" fill="#54a591"/>
    <path id="Path_591" data-name="Path 591" d="M131.6,595.2a47.773,47.773,0,0,1-3.292,3.87,51.858,51.858,0,0,1-.6-5.2c-.283-5.061.258-11.781,5.331-10.282S134.691,591.12,131.6,595.2Z" transform="translate(-47.902 96.867)" fill="#54a591"/>
    <path id="Path_592" data-name="Path 592" d="M168.133,596.579c-.1,3.255-.418,5.86-.418,5.86a41.024,41.024,0,0,1-4.214-3.771c-3.82-3.955-8.046-10.073-2.125-13.758C167.556,581.089,168.318,590.142,168.133,596.579Z" transform="translate(-40.868 97.009)" fill="#54a591"/>
    <path id="Path_593" data-name="Path 593" d="M185.522,599.826a21.743,21.743,0,0,1-8.869,6.7,23.786,23.786,0,0,1-2.973,1.081l-3.98-5.589a40.589,40.589,0,0,1,1.646-5.43,21.1,21.1,0,0,1,2.8-5.27C179.65,584,190.878,592.406,185.522,599.826Z" transform="translate(-38.295 98.037)" fill="#54a591"/>
    <path id="Path_594" data-name="Path 594" d="M123.678,594.73c1.683,1.965,2.8,3.489,2.8,3.489l-3.378,9.827s-1.88-1.327-4.25-3.415a19.288,19.288,0,0,1,3.808-8.685C122.99,595.553,123.346,595.123,123.678,594.73Z" transform="translate(-49.91 99.46)" opacity="0.1"/>
    <path id="Path_595" data-name="Path 595" d="M131.584,593.247a47.781,47.781,0,0,1-3.292,3.87,51.854,51.854,0,0,1-.6-5.2A6.707,6.707,0,0,1,131.584,593.247Z" transform="translate(-47.891 98.818)" opacity="0.1"/>
    <path id="Path_596" data-name="Path 596" d="M150.261,632.148l-8.415,3.685s-1.83-.885-4.472-2.531c-8.832-5.43-26.583-19.1-14.741-35.219s21.829,12.788,25.8,26.927C149.622,629.249,150.261,632.148,150.261,632.148Z" transform="translate(-49.947 99.141)" fill="#54a591"/>
    <path id="Path_597" data-name="Path 597" d="M162.56,596.328a6.929,6.929,0,0,1,4.631-2.088c-.1,3.255-.418,5.86-.418,5.86A41.044,41.044,0,0,1,162.56,596.328Z" transform="translate(-39.926 99.348)" opacity="0.1"/>
    <path id="Path_598" data-name="Path 598" d="M176.653,605.018a23.826,23.826,0,0,1-2.973,1.081l-3.98-5.589a40.594,40.594,0,0,1,1.646-5.43C173.913,596.579,175.805,600.313,176.653,605.018Z" transform="translate(-38.295 99.54)" opacity="0.1"/>
    <path id="Path_599" data-name="Path 599" d="M161.521,641.407l-1.413.246c-28.168,4.275-9.287-10.921-9.287-10.921s1.228-1.228,2.985-3.071c3.4-3.759,8.513-10.319,9.1-16.387.884-9.127,1.9-17.689,12.677-15.171C186.164,598.535,188.191,636.064,161.521,641.407Z" transform="translate(-44.022 99.672)" fill="#54a591"/>
    <rect id="Rectangle_59" data-name="Rectangle 59" width="53.818" height="14.152" transform="translate(63.154 811.211)" fill="#d4dfec"/>
    <rect id="Rectangle_60" data-name="Rectangle 60" width="70.315" height="49.383" transform="translate(54.604 765.206)" fill="#d4dfec"/>
    <rect id="Rectangle_61" data-name="Rectangle 61" width="53.818" height="14.152" transform="translate(63.154 811.211)" opacity="0.1"/>
    <rect id="Rectangle_62" data-name="Rectangle 62" width="70.315" height="49.383" transform="translate(54.604 765.206)" opacity="0.1"/>
    <rect id="Rectangle_63" data-name="Rectangle 63" width="53.818" height="14.152" transform="translate(66.692 811.211)" fill="#d4dfec"/>
    <path id="Path_600" data-name="Path 600" d="M144.956,619.13c1.228,4.226,1.83,7.125,1.83,7.125l-8.415,3.685s-1.83-.884-4.471-2.531C137.192,623.257,140.9,620.1,144.956,619.13Z" transform="translate(-46.472 105.034)" opacity="0.1"/>
    <path id="Path_601" data-name="Path 601" d="M161.521,635.456l-1.413.246c-28.168,4.275-9.287-10.921-9.287-10.921s1.228-1.229,2.985-3.071C159.065,625.911,161.239,630.665,161.521,635.456Z" transform="translate(-44.022 105.623)" opacity="0.1"/>
    <path id="Path_602" data-name="Path 602" d="M121.1,662.706S136.873,606.2,159,623.642,150,667.865,150,667.865Z" transform="translate(-49.396 105.301)" fill="#54a591"/>
    <circle id="Ellipse_42" data-name="Ellipse 42" cx="1.769" cy="1.769" r="1.769" transform="translate(77.895 704.325)" opacity="0.1"/>
    <circle id="Ellipse_43" data-name="Ellipse 43" cx="1.769" cy="1.769" r="1.769" transform="translate(77.748 712.58)" opacity="0.1"/>
    <circle id="Ellipse_44" data-name="Ellipse 44" cx="1.769" cy="1.769" r="1.769" transform="translate(129.059 705.946)" opacity="0.1"/>
    <circle id="Ellipse_45" data-name="Ellipse 45" cx="1.769" cy="1.769" r="1.769" transform="translate(87.772 748.254)" opacity="0.1"/>
    <circle id="Ellipse_46" data-name="Ellipse 46" cx="1.769" cy="1.769" r="1.769" transform="translate(125.374 719.656)" opacity="0.1"/>
    <circle id="Ellipse_47" data-name="Ellipse 47" cx="1.769" cy="1.769" r="1.769" transform="translate(107.095 737.935)" opacity="0.1"/>
    <circle id="Ellipse_48" data-name="Ellipse 48" cx="1.769" cy="1.769" r="1.769" transform="translate(83.939 707.863)" opacity="0.1"/>
    <circle id="Ellipse_49" data-name="Ellipse 49" cx="1.769" cy="1.769" r="1.769" transform="translate(124.195 711.253)" opacity="0.1"/>
    <circle id="Ellipse_50" data-name="Ellipse 50" cx="1.769" cy="1.769" r="1.769" transform="translate(118.151 724.963)" opacity="0.1"/>
    <circle id="Ellipse_51" data-name="Ellipse 51" cx="1.769" cy="1.769" r="1.769" transform="translate(99.577 746.927)" opacity="0.1"/>
    <circle id="Ellipse_52" data-name="Ellipse 52" cx="1.769" cy="1.769" r="1.769" transform="translate(95.744 738.23)" opacity="0.1"/>
    <circle id="Ellipse_53" data-name="Ellipse 53" cx="1.769" cy="1.769" r="1.769" transform="translate(86.592 718.624)" opacity="0.1"/>
    <rect id="Rectangle_64" data-name="Rectangle 64" width="53.818" height="5.172" transform="translate(66.692 811.211)" opacity="0.1"/>
    <rect id="Rectangle_65" data-name="Rectangle 65" width="70.315" height="49.383" transform="translate(58.142 765.206)" fill="#d4dfec"/>
    <circle id="Ellipse_54" data-name="Ellipse 54" cx="1.769" cy="1.769" r="1.769" transform="translate(101.935 754.887)" opacity="0.1"/>
    <circle id="Ellipse_55" data-name="Ellipse 55" cx="1.769" cy="1.769" r="1.769" transform="translate(91.322 757.098)" opacity="0.1"/>
  </g>
</svg>
