<svg xmlns="http://www.w3.org/2000/svg" xmlns:xlink="http://www.w3.org/1999/xlink" width="1375.184" height="990.988" viewBox="0 0 1375.184 990.988">
  <defs>
    <linearGradient id="linear-gradient" x1="0.5" y1="1" x2="0.5" gradientUnits="objectBoundingBox">
      <stop offset="0" stop-color="gray" stop-opacity="0.251"/>
      <stop offset="0.54" stop-color="gray" stop-opacity="0.122"/>
      <stop offset="1" stop-color="gray" stop-opacity="0.102"/>
    </linearGradient>
    <linearGradient id="linear-gradient-2" x1="0.5" y1="1" x2="0.5" y2="0" xlink:href="#linear-gradient"/>
  </defs>
  <g id="Group_24" data-name="Group 24" transform="translate(0.001 -0.015)">
    <path id="Path_268" data-name="Path 268" d="M855.95,228.588c-88.161-3.064-172.195-31.527-252.316-62.661S444.1,100.29,358,83.792C302.647,73.169,239.34,71.675,194.747,101.354,151.825,129.9,137.96,179.2,130.5,224.929c-5.609,34.414-8.863,70.625,6.47,102.848,10.674,22.36,29.615,41.162,42.72,62.585,45.581,74.537,13.358,166.459-36.047,239.3-23.17,34.186-50.05,66.713-67.928,103.064S49.559,810.72,65.208,847.793c15.51,36.718,52.456,64.345,92.491,83.755,81.311,39.39,177.12,50.658,270.548,57.116,206.811,14.143,414.736,8.015,622.092,1.886,76.741-2.279,153.823-4.571,229.31-16.46,41.922-6.6,85.211-17.055,115.649-42.3,38.63-32.059,48.215-86.325,22.322-126.525-43.429-67.409-163.5-84.16-193.858-156.507-16.7-39.82.456-84.185,24.74-121.119,52.076-79.222,139.389-148.733,143.985-239.3,3.166-62.205-38.807-124.487-103.709-153.924-68.017-30.881-162.344-26.981-212.521,24.057C1024.587,211.052,933.779,231.285,855.95,228.588Z" transform="translate(-56.94 -53.827)" fill="#54a591" opacity="0.1"/>
    <path id="Path_269" data-name="Path 269" d="M332.024,829.311S262.386,776.665,249.231,709.7a132.363,132.363,0,0,0-40.782-73.069,222.844,222.844,0,0,0-32.628-24.31" transform="translate(-25.301 88.686)" fill="none" stroke="#535461" stroke-miterlimit="10" stroke-width="2"/>
    <path id="Path_270" data-name="Path 270" d="M176.139,580.582c6.1,8.255,8.863,43.239,8.863,43.239s-32.628-12.852-38.744-21.094a18.6,18.6,0,0,1,29.881-22.145Z" transform="translate(-34.142 78.237)" fill="#54a591"/>
    <path id="Path_271" data-name="Path 271" d="M223.118,604.342c.633,10.243-16.042,41.111-16.042,41.111s-20.423-28.539-21.069-38.782a18.586,18.586,0,1,1,37.1-2.33Z" transform="translate(-22.6 81.926)" fill="#54a591"/>
    <path id="Path_272" data-name="Path 272" d="M267.611,668.664c-4.609,9.167-34.6,27.4-34.6,27.4s-3.2-34.945,1.405-44.112a18.585,18.585,0,1,1,33.2,16.714Z" transform="translate(-10.37 96.51)" fill="#54a591"/>
    <path id="Path_273" data-name="Path 273" d="M291,722.812c-3,9.813-29.476,32.844-29.476,32.844s-9.078-33.894-6.077-43.72A18.59,18.59,0,0,1,291,722.812Z" transform="translate(-4.271 111.696)" fill="#54a591"/>
    <path id="Path_274" data-name="Path 274" d="M182.187,660.53c10.129,1.367,42.15-13.092,42.15-13.092s-27.019-22.385-37.2-23.753a18.588,18.588,0,1,0-4.951,36.844Z" transform="translate(-27.895 91.666)" fill="#54a591"/>
    <path id="Path_275" data-name="Path 275" d="M211.418,724.192c10.129-1.734,36.3-25.095,36.3-25.095s-32.489-13.269-42.606-11.534a18.587,18.587,0,1,0,6.331,36.63Z" transform="translate(-21.611 108.67)" fill="#54a591"/>
    <path id="Path_276" data-name="Path 276" d="M246.51,782.464c10.268,0,40.023-18.6,40.023-18.6S256.765,745.29,246.5,745.29a18.587,18.587,0,0,0,0,37.174Z" transform="translate(-11.438 124.075)" fill="#54a591"/>
    <path id="Path_277" data-name="Path 277" d="M833.49,462.679s42.922-76.032,107.622-97.936a132.349,132.349,0,0,0,67-50.126A222.019,222.019,0,0,0,1027.855,279" transform="translate(149.73 -0.023)" fill="none" stroke="#535461" stroke-miterlimit="10" stroke-width="2"/>
    <path id="Path_278" data-name="Path 278" d="M1027.839,274.711c-7.369,7.141-41.669,14.535-41.669,14.535s8.42-34.059,15.788-41.213a18.585,18.585,0,1,1,25.882,26.68Z" transform="translate(190.364 -9.661)" fill="#54a591"/>
    <path id="Path_279" data-name="Path 279" d="M1012.774,324.385c-10.129,2-42.884-10.433-42.884-10.433s25.576-24.057,35.642-26.019a18.587,18.587,0,1,1,7.242,36.452Z" transform="translate(186.031 2.237)" fill="#54a591"/>
    <path id="Path_280" data-name="Path 280" d="M954.672,376.868c-9.7-3.355-31.742-30.653-31.742-30.653s34.186-7.825,43.909-4.469a18.586,18.586,0,1,1-12.168,35.124Z" transform="translate(173.533 16.453)" fill="#54a591"/>
    <path id="Path_281" data-name="Path 281" d="M904.414,407.421c-10.129-1.671-36.414-24.9-36.414-24.9s32.4-13.5,42.517-11.826a18.606,18.606,0,1,1-6.039,36.718Z" transform="translate(158.914 24.341)" fill="#54a591"/>
    <path id="Path_282" data-name="Path 282" d="M947.3,291.359c-.013,10.268,18.612,40.061,18.612,40.061s18.6-29.754,18.6-40.01a18.587,18.587,0,1,0-37.161,0Z" transform="translate(180.019 -1.797)" fill="#54a591"/>
    <path id="Path_283" data-name="Path 283" d="M888,328.562c3.064,9.8,29.7,32.654,29.7,32.654s8.863-33.958,5.774-43.758a18.587,18.587,0,0,0-35.452,11.1Z" transform="translate(164.068 6.91)" fill="#54a591"/>
    <path id="Path_284" data-name="Path 284" d="M835.049,371.31C836.416,381.439,858.8,408.5,858.8,408.5s14.447-31.97,13.079-42.137a18.587,18.587,0,1,0-36.832,4.951Z" transform="translate(150.083 18.822)" fill="#54a591"/>
    <path id="Path_285" data-name="Path 285" d="M1027.839,274.711c-7.369,7.141-41.669,14.535-41.669,14.535s8.42-34.059,15.788-41.213a18.585,18.585,0,1,1,25.882,26.68Z" transform="translate(190.364 -9.661)" opacity="0.25"/>
    <path id="Path_286" data-name="Path 286" d="M1012.774,324.385c-10.129,2-42.884-10.433-42.884-10.433s25.576-24.057,35.642-26.019a18.587,18.587,0,1,1,7.242,36.452Z" transform="translate(186.031 2.237)" opacity="0.25"/>
    <path id="Path_287" data-name="Path 287" d="M954.672,376.868c-9.7-3.355-31.742-30.653-31.742-30.653s34.186-7.825,43.909-4.469a18.586,18.586,0,1,1-12.168,35.124Z" transform="translate(173.533 16.453)" opacity="0.25"/>
    <path id="Path_288" data-name="Path 288" d="M904.414,407.421c-10.129-1.671-36.414-24.9-36.414-24.9s32.4-13.5,42.517-11.826a18.606,18.606,0,1,1-6.039,36.718Z" transform="translate(158.914 24.341)" opacity="0.25"/>
    <path id="Path_289" data-name="Path 289" d="M947.3,291.359c-.013,10.268,18.612,40.061,18.612,40.061s18.6-29.754,18.6-40.01a18.587,18.587,0,1,0-37.161,0Z" transform="translate(180.019 -1.797)" opacity="0.25"/>
    <path id="Path_290" data-name="Path 290" d="M888,328.562c3.064,9.8,29.7,32.654,29.7,32.654s8.863-33.958,5.774-43.758a18.587,18.587,0,0,0-35.452,11.1Z" transform="translate(164.068 6.91)" opacity="0.25"/>
    <path id="Path_291" data-name="Path 291" d="M835.049,371.31C836.416,381.439,858.8,408.5,858.8,408.5s14.447-31.97,13.079-42.137a18.587,18.587,0,1,0-36.832,4.951Z" transform="translate(150.083 18.822)" opacity="0.25"/>
    <path id="Path_292" data-name="Path 292" d="M835.44,474.718s8.432-86.908,58.647-133.122a132.4,132.4,0,0,0,40.947-72.98,221.923,221.923,0,0,0,3.659-40.516" transform="translate(150.249 -13.569)" fill="none" stroke="#535461" stroke-miterlimit="10" stroke-width="2"/>
    <path id="Path_293" data-name="Path 293" d="M949.363,210.3c-3.8,9.521-32.21,30.185-32.21,30.185s-6.1-34.553-2.266-44.074a18.592,18.592,0,1,1,34.477,13.928Z" transform="translate(171.056 -25.098)" fill="#54a591"/>
    <path id="Path_294" data-name="Path 294" d="M956.689,262.829c-8.395,5.9-43.429,7.837-43.429,7.837s13.649-32.337,22.043-38.237a18.587,18.587,0,1,1,21.385,30.387Z" transform="translate(170.96 -13.404)" fill="#54a591"/>
    <path id="Path_295" data-name="Path 295" d="M926.613,334.246c-10.23.861-41.453-15.194-41.453-15.194s28.108-21.018,38.339-21.879a18.589,18.589,0,0,1,3.115,37.047Z" transform="translate(163.481 4.796)" fill="#54a591"/>
    <path id="Path_296" data-name="Path 296" d="M892.516,382.62c-9.939,2.532-43.416-7.939-43.416-7.939s24.145-25.462,34.085-28.045a18.587,18.587,0,1,1,9.331,35.984Z" transform="translate(153.885 17.818)" fill="#54a591"/>
    <path id="Path_297" data-name="Path 297" d="M884.388,257.176c4.153,9.382,33.2,29.121,33.2,29.121s4.938-34.743.785-44.125a18.587,18.587,0,0,0-33.983,15.042Z" transform="translate(162.898 -12.663)" fill="#54a591"/>
    <path id="Path_298" data-name="Path 298" d="M845.422,315.485C852.2,323.2,885.8,333.3,885.8,333.3s-5.672-34.629-12.446-42.34a18.586,18.586,0,1,0-27.932,24.526Z" transform="translate(151.675 1.477)" fill="#54a591"/>
    <path id="Path_299" data-name="Path 299" d="M814.066,375.773c5.369,8.736,36.781,24.373,36.781,24.373s.266-35.085-5.065-43.834a18.587,18.587,0,0,0-31.653,19.461Z" transform="translate(143.92 18.321)" fill="#54a591"/>
    <path id="Path_300" data-name="Path 300" d="M784.44,158.962c2.1-7.711,4.634-15.46,6.406-23.272C788.719,143.5,786.174,151.276,784.44,158.962Z" transform="translate(136.676 -38.163)" fill="url(#linear-gradient)"/>
    <path id="Path_301" data-name="Path 301" d="M917.324,253.73c-.177-.3-.3-.608-.443-.886h0c0-.127-.127-.228-.177-.355a7.926,7.926,0,0,1-.848.342c-.557.215-1.127.418-1.709.582s-.823.253-1.266.355a7.38,7.38,0,0,1-1.127.291l.1.228c.468-.1.924-.19,1.393-.317l.127,1.57c.532,0,1.026-.076,1.507-.076a6.214,6.214,0,0,1,.684,0H918.1C917.831,254.895,917.552,254.3,917.324,253.73ZM1174.35,662.857c-5.951-8.015-17.827-94.036-17.827-94.036s-23.36-61.167-16.992-85.578-17.4-86.87-17.4-86.87-15.7-6.825-16.549-16.954c0,0-64.1-20.258-67.105-35.452-2.431-12.459-42.188-21.4-56.47-24.221-4.356-17.574-8.737-33.971-11.965-42.922-.874-2.786-1.7-5.191-2.456-7.09-5.457-13.928-22.322-15.194-34.553-14.079a18.844,18.844,0,0,0-2.9-6.622,3.632,3.632,0,0,0-1.152-1.76,6.74,6.74,0,0,0-.836-.608,4,4,0,0,0-.861-1.089,6.09,6.09,0,0,0-1.14-.81,7.6,7.6,0,0,0-.911-.418,12.17,12.17,0,0,0-2.267-.62,18.669,18.669,0,0,0-2.735-.355,16.652,16.652,0,0,0,5.837-4.267,12.17,12.17,0,0,0,2.393-4.406,12.966,12.966,0,0,0,.532-4.153,10.731,10.731,0,0,1-1.14,1.633c.532-5.609-2.431-11.307-4.128-16.89a49.977,49.977,0,0,1-1.114-22.347h0c1.7-11.218,5.9-22.563,8.749-33.983a.823.823,0,0,0,0-.19,88.223,88.223,0,0,0,2.76-17.333c.494-11.813-2.532-23.6-7.394-34.363-4.317-9.534-10.686-18.916-20.435-22.791-7.242-2.925-15.358-2.456-23.158-2.937-17.5-1.089-34.186-7.242-50.823-12.839S798.56,57.82,781.05,58.8s-35.528,9.42-43.517,24.918c-2.532,4.837-3.989,10.218-7.014,14.763-5.672,8.572-15.827,12.864-24.3,18.777s-15.928,14.307-18.992,24.323a32.451,32.451,0,0,0-.684,16.65h0a29.78,29.78,0,0,0,1.064,3.672,26.02,26.02,0,0,0,5.508,9,26.852,26.852,0,0,0,6.255,4.849h0a36.8,36.8,0,0,0,9.243,3.6c-.114.38-.228.785-.355,1.178-.2.646-.38,1.266-.57,1.963-.418,1.557-.81,3.14-1.14,4.735a1.479,1.479,0,0,0,0,.342,103.414,103.414,0,0,0-2.33,21.917,101.177,101.177,0,0,0,.532,10.433h0c5.065,51.38,47.48,91.909,99.886,94.543,1.8.089,3.608.139,5.444.139h2.532c.823,1.089,1.633,2.2,2.406,3.292s1.481,2.2,2.153,3.292l-1.836-1.9h0l-1.836-1.684a14.931,14.931,0,0,1-1.659,1.912,30.8,30.8,0,0,0-3.659-1.038h0c-5.255-1.165-13.256-1.6-23.791,1.583-9.686,2.9-21.524,8.863-35.376,20.195l-67.5,40.516L645,402.97l-13.155,32.16s-9.888,38.212-20.891,82c-.431.127-.848.253-1.266.405a23.687,23.687,0,0,0-2.684-.152,24.677,24.677,0,0,0-24.715,23.689c-21.879,26.589-23.12,53.178-17.979,65.383h0a17.416,17.416,0,0,0,1.747,3.254c3.368,4.862,9.661,17.4,16.042,30.754-.165,1.1-.266,2.026-.317,2.722a6.777,6.777,0,0,0,0,.684s3.8,57.369-8.863,73.816c-2.773,3.583-2.355,8.293,0,13.51h0c8.483,18.764,42.023,43.821,42.023,43.821s40.225-.215,62.636-2.659c-.063,2.254-.114,4.495-.165,6.685-.507,22.132-.507,40.681-.507,40.681l-.836,23.208s-7.6,48.911-11.4,62.4c-2.393,8.458.367,86.769,2.773,144.34h396.327c4.659-34.059-1.912-137.541-1.912-137.541s-6.242-26.754-6.47-50.076a.191.191,0,0,1,0-.165c0-2.039,0-4.026.076-5.976l2.874-.1,5.166-.177h.468s.127-.481.418-1.266h0a24.2,24.2,0,0,1,2.773-5.533c2.2-3.254,5.647-6.445,10.825-6.66,2.861-.114,7.293-2.431,12.294-5.85a.227.227,0,0,0,.1,0c13.459-9.1,31.248-25.905,35.566-28.665,5.938-3.8,34.376-29.121,34.376-29.121s4.241-5.368,8.761-11.838l.165-.228c5.622-8.1,11.6-17.789,10.129-20.841-2.532-5.47,1.7-18.549,1.7-18.549C1194.292,702.905,1180.3,670.872,1174.35,662.857ZM929.517,273.418a5.071,5.071,0,0,1,.228,1.165c-.317-.418-.633-.861-.95-1.266l-.3-.405-.215-.3.481-.658v.089h0a4.393,4.393,0,0,1,.76,1.38ZM925.263,262.2c-1.38.279-2.469.532-3.178.722-.9-1.6-1.76-3.191-2.532-4.811A36.706,36.706,0,0,1,925.263,262.2Zm-2.38,2a.268.268,0,0,1,0-.076l.1.076h0c.519.342,1.026.671,1.494,1.013h0c.418.3.8.6,1.178.9a12.086,12.086,0,0,1-.81,1.266c-.443-.7-.861-1.367-1.266-2.064A4.563,4.563,0,0,1,922.883,264.2Zm-7.6-15.624a37.461,37.461,0,0,1,7.356,0h0a5.569,5.569,0,0,1,.95.114h0a10.519,10.519,0,0,1,2.013.519,14.712,14.712,0,0,1,2.672,7.1l-.684.1-.671.127c-1.266.215-2.532.43-3.52.633l-1.266.266c-1.684.367-2.659.646-2.7.658-.165-.342-.329-.658-.506-.988-.279-.544-.57-1.1-.823-1.646s-.582-1.165-.848-1.735c-.177-.3-.3-.608-.443-.886h0c0-.127-.127-.228-.177-.355a3.054,3.054,0,0,1-.19-.418c-.772-1.57-1.481-3.14-2.165-4.685-.076-.152-.139-.317-.2-.468l.962-.063v.329ZM613.2,1034.013c-.1-18.853-1.469-39.25-5.267-58.394-1.621-8.141-3.292-16.282-4.989-24.285-.43-2-.848-3.976-1.266-5.951l-3.9.519h-.355c-10.636-50.152-21.752-94.34-21.752-94.34s-22.081-84.312-19.524-91.035c.329-.874-.089-3.229-1.026-6.685-5.343-19.169-27.653-71.993-35.452-90.048h0a.712.712,0,0,0-.089-.228h0c-1.266-3.026-2.178-5.065-2.456-5.66l1.836-26.943.1-1.621.241-3.444-.1-.089.1-1.6s-19.271-15.8-51.912-27.209c-1.266-.456-2.608-.9-3.938-1.329,1.633-10.9,3.8-23.208,6.622-35.2.266-1.2.557-2.368.861-3.545h0c.266-1.177.57-2.317.874-3.469.481-1.874,1-3.722,1.532-5.546,1.76-.557,3.495-1.177,5.2-1.836l.658-.253A93.441,93.441,0,0,0,536.178,436.94h0a92.922,92.922,0,0,0-16.308-34.376h0c-.582-.785-1.2-1.57-1.823-2.342s-1.367-1.633-2.064-2.418c3.659-8.319,7.977-16.232,8.331-24.322a24.951,24.951,0,0,0,0-3.077h0v-.127c-.469-5.2-2.773-10.471-8.141-16-7.837-8.116-18.992-12.231-30.147-14.206s-22.525-2.026-33.743-3.355c-18.6-2.228-36.718-7.964-55.318-9.724a131.438,131.438,0,0,0-66.89,11.4c-13.839,6.331-27.855,17.4-28.691,32.578-.684,12.547,8.053,24.576,5.849,36.971-2.19,12.18-14.6,21.765-13.51,34.085.418,4.811,2.887,9.116,5.976,12.953h0c1.063,1.266,2.19,2.532,3.355,3.8,4.507,4.773,9.471,9.357,11.99,15.371.1.253.2.507.291.76,2.14,5.938,1.177,13.446-4.115,16.852a.191.191,0,0,1,.063.089h0c.076.1.152.177.215.279a.089.089,0,0,0,0-.063,13.851,13.851,0,0,0,7.23,4.507l1.076.329c-.874.95-1.7,1.937-2.532,2.975l-.544.722a52.681,52.681,0,0,0-3.8,5.887c-.646,1.14-1.266,2.279-1.785,3.419a42.948,42.948,0,0,0-3.735,10.977c-1.355,8.382.557,17.118-1.494,25.323-2.532,10.129-10.547,17.9-15.067,27.311-8.559,17.726-3.71,38.529-1.988,58.1,2.342,26.589-1.456,53.292-5.242,79.7q-3.013,21.069-6.027,42.175L262.4,859.438c-1.849,12.94-4.039,26.589-12.661,36.579h.089a.112.112,0,0,1-.089.1,26.462,26.462,0,0,0,8.154,2.1h0c11.256,1.127,23.183-4.318,33.312-10.268a157.413,157.413,0,0,0,22.7-15.941q-1.557,5.7-3.343,12.4a.7.7,0,0,1,0,.126h0c-14.295,54.444-37.288,154.254-37.288,154.254s-2.089,4.343-4.8,10.813H625.53c-4.178-5.065-8.065-9.914-11.1-13.826ZM348.828,530.6c.089-.152.152-.291.241-.431v2.748h0a9.371,9.371,0,0,1-.2,1.557v.114l1.266.468,1.469.608h0q13.016,5.141,26.361,9.306c.912.291,1.836.57,2.76.836l.19,1.57c.228,1.608.443,3.241.646,4.875v.127c.57,4.52,1.127,9.027,1.621,13.434,0,0-23.246-8.863-22.955,4.6a6.566,6.566,0,0,0,0,.722,6,6,0,0,0,0,.962c.215,10.484,3.495,16.7,4.153,19.891a.9.9,0,0,1-.2.355,6.925,6.925,0,0,0-.557,3.912,38.466,38.466,0,0,0,.532,6.761c-.684.418-1.355.836-2.026,1.266h0c-.506.317-.988.671-1.481,1.025A188.024,188.024,0,0,0,348.5,574c-3.482-7.166-7.394-14.636-7.356-22.5a12.694,12.694,0,0,1,.063-1.545,26.582,26.582,0,0,1,1.291-6.7c.291-.823.608-1.633.962-2.431a59.64,59.64,0,0,1,2.773-5.546h0c.658-1.19,1.355-2.368,2.026-3.558.215-.354.418-.722.62-1.076Zm568.5-276.867c-.177-.3-.3-.608-.443-.886h0c0-.127-.127-.228-.177-.355a7.926,7.926,0,0,1-.848.342c-.557.215-1.127.418-1.709.582s-.823.253-1.266.355l-1.127.291.1.228c.468-.1.924-.19,1.393-.317l.127,1.57c.532,0,1.026-.076,1.507-.076H918.1C917.831,254.895,917.552,254.3,917.324,253.73Z" transform="translate(-5.628 -58.66)" fill="url(#linear-gradient-2)"/>
    <path id="Path_302" data-name="Path 302" d="M570.505,361.026l-7.6,3.355S513.39,556.758,513.39,572.306s105,102.063,105,102.063l16.384-110.585S611.25,310.19,570.505,361.026Z" transform="translate(64.539 20.015)" fill="#e8f5ff"/>
    <path id="Path_303" data-name="Path 303" d="M758.432,342.945l-43.872-22.892A87.883,87.883,0,0,0,701.7,290.742c-6.419-9.268-14.953-18.372-25.589-23.12-26.88-12.054,113.7-75.323,113.7-75.323a228.7,228.7,0,0,0,7.812,22.411c7.242,17.878,19.258,41,34.743,47.581C858.685,273.5,758.432,342.945,758.432,342.945Z" transform="translate(106.936 -23.097)" fill="#ffc1c7"/>
    <path id="Path_304" data-name="Path 304" d="M797.62,214.711A104.811,104.811,0,0,1,701.7,290.742c-6.419-9.268-14.953-18.372-25.589-23.12-26.88-12.054,113.7-75.323,113.7-75.323a228.63,228.63,0,0,0,7.812,22.411Z" transform="translate(106.936 -23.097)" opacity="0.1"/>
    <path id="Path_305" data-name="Path 305" d="M818.515,206.783a104.254,104.254,0,1,1-30.539-74.193,104.753,104.753,0,0,1,30.539,74.193Z" transform="translate(89.99 -47.114)" fill="#ffc1c7"/>
    <path id="Path_306" data-name="Path 306" d="M762.678,246l-28.564,66.65-25.2,44.239H628.265L604.74,296.408l9.534-62.724h61.6l39.769-2.241,13.434-4.482,8.66,4.913Z" transform="translate(160.945 60.399)" fill="#575a89"/>
    <path id="Path_307" data-name="Path 307" d="M793.181,230.5s17.815,3.8,1.861,16.878-70.992,54.672-70.992,54.672,19.334,17.22,15.333,37.389l64.054-35.705,11.4-57.128S816.111,229.436,793.181,230.5Z" transform="translate(120.604 -12.943)" opacity="0.1"/>
    <path id="Path_308" data-name="Path 308" d="M745.242,287,704.5,293.723s8.407,31.084,4.2,39.909a5.923,5.923,0,0,0-.317.848L691.76,379.415,704.219,414.7l43.125-58.812-14.7-22.259s15.536-20.587,24.778-27.728S745.242,287,745.242,287Z" transform="translate(112.01 2.106)" opacity="0.1"/>
    <path id="Path_309" data-name="Path 309" d="M745.242,285.63,704.5,292.34s8.407,31.084,4.2,39.909a5.923,5.923,0,0,0-.317.848L691.76,378.033l12.459,35.287,43.125-58.85-14.7-22.259s15.535-20.587,24.778-27.728S745.242,285.63,745.242,285.63Z" transform="translate(112.01 1.741)" fill="#dce6f2"/>
    <path id="Path_310" data-name="Path 310" d="M794.89,227.85s17.815,3.8,1.849,16.878-72.689,58.027-72.689,58.027,21.005,13.864,17.017,34.021l64.054-35.692,11.4-57.128S817.782,226.786,794.89,227.85Z" transform="translate(120.604 -13.649)" fill="#575a89"/>
    <path id="Path_311" data-name="Path 311" d="M707.692,273.18s3.887,7.268,21.043,20.372c0,0-28.564,15.194-17.637,36.553L667.4,318.71l-6.723-21.005Z" transform="translate(103.739 -1.572)" opacity="0.1"/>
    <path id="Path_312" data-name="Path 312" d="M706.359,271.86s3.887,7.268,21.043,20.372c0,0-28.564,15.118-17.637,36.541l-43.682-11.4-6.723-20.993Z" transform="translate(103.387 -1.923)" fill="#575a89"/>
    <path id="Path_313" data-name="Path 313" d="M819.618,303.63,791.054,370.28l-25.145,44.239H685.2L661.68,354.035l9.521-62.725h17.131c-.279,14.637,5.064,31.831,4.723,38.225-.583,10.509,15.675,67.207,15.675,67.207s34.021-55.026,47.455-59.926c8.445-3.077,26.336-28.678,38.478-47.316Z" transform="translate(104.005 2.771)" opacity="0.1"/>
    <path id="Path_314" data-name="Path 314" d="M961.178,659.622l-2.9,3.647S979.284,768.7,973.473,792.643a67.956,67.956,0,0,0-1.684,13.142v.19c-1.026,24.361,6.331,55.976,6.331,55.976s5.875,93.188,2.532,131.514H587.364c-2.3-56.672-4.786-130.1-2.532-138.237,3.8-13.434,11.4-62.167,11.4-62.167l.836-23.095s0-22.322.684-47.189c.291-11.18.722-22.917,1.342-33.325.8-13.092,1.912-24.12,3.444-29.539a65.12,65.12,0,0,0,1.621-12.51,6.455,6.455,0,0,1,.076-1.2c0-1.266.127-2.634.177-4.039V640.9c.241-8.154.152-17.827-.114-27.855v-1.659c-.215-7.521-.532-15.194-.886-22.487-1.1-22.79-2.532-42.061-2.532-42.061l-48.3-160.04,13.016-32.059L601.709,332.6,668.5,292.278c32.578-26.779,54.026-23.563,62.205-20.625a21.637,21.637,0,0,1,2.33.95c.253.127.456.228.646.342a5.362,5.362,0,0,1,.747.431h0a15.421,15.421,0,0,0-5.672,4.672,20.662,20.662,0,0,0-3.507,7.6,35.34,35.34,0,0,0-.9,5.178c-.165,1.836-.228,3.735-.228,5.647a97.927,97.927,0,0,0,1.076,12.522v.279c.418,2.963.937,5.862,1.443,8.584a.578.578,0,0,0,0,.139c.582,3.178,1.165,6.115,1.557,8.648.076.456.139.874.2,1.266a28.972,28.972,0,0,1,.393,5.065,61.546,61.546,0,0,0,1.646,12.155c.329,1.671.709,3.457,1.127,5.318.57,2.532,1.19,5.292,1.861,8.1.367,1.545.759,3.14,1.165,4.723.152.633.316,1.266.469,1.912l.253,1c2.7,10.724,5.622,21.4,7.419,27.855,1.064,3.8,1.735,6.141,1.735,6.141s19.068-30.83,34.287-48.379c.228-.253.431-.494.646-.722,1.507-1.735,2.988-3.317,4.406-4.71,3.1-3.089,5.888-5.293,8.129-6.1a8.863,8.863,0,0,0,1.38-.646c6.229-3.533,16.282-16.358,25.69-29.792.924-1.266,1.823-2.646,2.735-3.95,2.089-3.013,4.115-6.039,6.027-8.939,1.469-2.216,2.874-4.368,4.2-6.419,6.331-9.851,10.788-17.194,10.788-17.194l8.787-.392,1.532-.076H854.1l39.9-1.849s1.722.291,4.558.861a.81.81,0,0,1,.468.1c14.156,2.811,53.482,11.712,55.887,24.057,2.937,15.118,66.371,35.287,66.371,35.287.836,10.129,16.371,16.8,16.371,16.8s23.525,62.167,17.232,86.528c-6.217,24.057,16.181,83.565,16.776,85.236h0l-4.292,5.419Z" transform="translate(74.966 -2.488)" fill="#e8f5ff"/>
    <path id="Path_315" data-name="Path 315" d="M789.847,227.562s38.832-11.015,47.657,11.661S866.069,353.48,866.069,353.48s-51.253,9.661-64.687,0a38.707,38.707,0,0,0-27.311-7.141l-28.982,19.739-8.559-2.532s46.366-68.928,56.444-92.352S806.459,237.3,789.847,227.562Z" transform="translate(123.925 -14.424)" opacity="0.1"/>
    <path id="Path_316" data-name="Path 316" d="M788.507,223.562s38.858-11.015,47.721,11.661S864.791,349.48,864.791,349.48s-51.241,9.661-64.687,0a38.667,38.667,0,0,0-27.3-7.141L743.8,362.078l-8.559-2.532s46.366-68.929,56.444-92.352S805.118,233.324,788.507,223.562Z" transform="translate(123.582 -15.489)" fill="#e8f5ff"/>
    <path id="Path_317" data-name="Path 317" d="M571.535,511.55s28.982,7.141,34.452,23.525-21.423,16.8-21.423,16.8S568.18,522.895,571.535,511.55Z" transform="translate(79.893 61.867)" opacity="0.1"/>
    <path id="Path_318" data-name="Path 318" d="M668.692,607.09s-70.98,145.34-54.6,159.2S668.692,607.09,668.692,607.09Z" transform="translate(90.687 87.294)" opacity="0.1"/>
    <path id="Path_319" data-name="Path 319" d="M734,522.5s56.711,141.174,45.366,162.977,24.361,0,24.361,0Z" transform="translate(123.252 64.782)" opacity="0.1"/>
    <path id="Path_320" data-name="Path 320" d="M827.034,632.64s-191.542,9.243-135.667,68.891S861.9,704.063,861.9,704.063Z" transform="translate(109.187 94.094)" fill="#ffc1c7"/>
    <path id="Path_321" data-name="Path 321" d="M817.778,206.78a104.258,104.258,0,0,1-7.939,40.035c-1.76.2-3.52.329-5.216.405-2.532-5.558-1.178-11.978-1.127-18.093s-2.2-13.307-8.09-14.953c-11.737-3.3-19.84,18.638-31.413,14.674-8.863-3.013-6.546-16.46-11.648-24.221-4.039-6.141-12.13-7.875-18.422-11.724-13.383-8.217-12.978-21.36-19.194-33.793-6.508-13.029-20.258-9.18-32.2-1.494-9.065,5.85-16.89,13.687-26.589,18.346-8.394,4.052-17.827,5.52-27.133,5.736a59.623,59.623,0,0,1-17.017-1.8,104.748,104.748,0,0,1,205.975,26.88Z" transform="translate(90.727 -47.111)" opacity="0.1"/>
    <path id="Path_322" data-name="Path 322" d="M687.12,163.832c-9.078,5.85-16.89,13.674-26.589,18.359-8.394,4.039-17.827,5.508-27.133,5.723-11.4.253-23.664-1.747-31.451-9.977-7.154-7.6-8.863-19.283-5.837-29.248s10.281-18.232,18.8-24.221,18.41-10.129,24.057-18.7c2.988-4.533,4.432-9.876,6.913-14.7,7.939-15.434,25.791-23.791,43.049-24.829s34.363,4.1,50.8,9.673,33,11.7,50.342,12.851c7.723.481,15.751,0,22.917,2.925,9.635,3.912,15.953,13.269,20.258,22.79,4.824,10.737,7.825,22.461,7.318,34.186-1.064,25.032-17.6,49.595-10.332,73.575,1.925,6.394,5.533,12.953,3.608,19.347-2.811,9.331-14.852,11.459-24.588,11.9-2.532-5.558-1.178-11.99-1.127-18.093s-2.2-13.307-8.078-14.953c-11.75-3.279-19.853,18.625-31.4,14.675-8.8-3.026-6.521-16.46-11.636-24.221-4.039-6.153-12.142-7.875-18.422-11.724-13.383-8.217-12.978-21.36-19.195-33.793C712.835,152.285,699.073,156.134,687.12,163.832Z" transform="translate(86.174 -56.683)" fill="#99607e"/>
    <path id="Path_323" data-name="Path 323" d="M525.3,527.711l-9.661,3.368s3.8,57.128-8.863,73.512,41.58,57.116,41.58,57.116,74.348-.418,76.45-6.331S621,549.526,621,549.526,581.095,533.978,584.45,509.2c0,0-12.18,58.382-30.235,55.862S515.661,547.463,525.3,527.711Z" transform="translate(62.268 61.242)" fill="#e8f5ff"/>
    <ellipse id="Ellipse_29" data-name="Ellipse 29" cx="25.487" cy="23.31" rx="25.487" ry="23.31" transform="translate(594.3 597.36)" opacity="0.1"/>
    <path id="Path_324" data-name="Path 324" d="M587.274,551.453s-5.065-154.57-49.152-120.131S493.605,506.948,502,519.116,537.312,592.2,537.312,592.2h0a30.805,30.805,0,0,0,45.581-20.258Z" transform="translate(60.381 39.184)" fill="#ffc1c7"/>
    <path id="Path_325" data-name="Path 325" d="M857.692,216.768a3.723,3.723,0,0,0-1.14-1.747c-2.178-1.988-6.863-2.684-13.928-2.076l.291,3.343c9.42-.81,11.281,1.064,11.522,1.38v.316l.291.418a14.131,14.131,0,0,1,2.532,11.142c-2.064,10.319-14.738,18.536-14.865,18.625l-.3.177-.19.291c-5.47,8.116-36.4,31.02-44.492,36.946l-.709-.81c-3.621,3.14-35.452,31.008-37.174,41.681-1.114,6.7-8.66,9.293-11.4,10.015-2.887-2.19-12.256-9.648-17.131-18-4.571-7.863,13.826-23.208,15.447-29.2l-2.532-2.6c-.266.962-23.892,23.044-17.321,34.325,5.267,9.053,14.89,16.8,18.258,19.359-1.076,9.775-7.774,67.169-18.068,80.767-12.788,16.9-23.538,102.089-22.348,131.83,1.051,26.424-5.849,76.336-28.893,97.771a36.933,36.933,0,0,1-30.476,10.129h-.557c-.329,0-33.755,3.419-61.838-20.258-22.981-19.334-36-50.886-38.706-93.808h-.557l-.228-12.5a24.373,24.373,0,1,0-3.634.291h.279L540.056,547l-1.114.076c2.785,44.315,16.46,77.1,40.516,97.341A93.694,93.694,0,0,0,644.8,665.8a47.042,47.042,0,0,0,5.064.279,41.53,41.53,0,0,0,29.121-11.712c24.272-22.6,31.653-74.348,30.5-101.671-1.266-31.514,10.015-113.636,21.335-128.589,11.091-14.675,17.814-71.853,18.992-82.932,4.014-1.127,13.092-4.685,14.636-13.927,1.114-6.685,22.373-27.285,35.452-38.693l-.393-.456c7.04-5.141,28.931-21.347,39.782-31.755,3.368-3.229,6.711-6.457,10.2-9.534,4.2-3.722,9.547-9.635,10.952-16.624A17.282,17.282,0,0,0,857.692,216.768Z" transform="translate(64.981 -17.659)" opacity="0.1"/>
    <path id="Path_326" data-name="Path 326" d="M700.542,324.371c-.532-.367-13.143-9.395-19.461-20.258-6.558-11.281,17.067-33.35,17.321-34.312l2.532,2.6c-1.608,5.976-20.005,21.334-15.434,29.184,5.761,9.914,17.891,18.587,18.017,18.676Z" transform="translate(108.862 -2.471)" fill="#353146"/>
    <path id="Path_327" data-name="Path 327" d="M737.175,288.393l-1.975-2.722c.405-.291,40.175-29.058,46.442-38.364l.2-.279.291-.19c.127-.089,12.8-8.293,14.865-18.625a14.042,14.042,0,0,0-2.532-11.129l-.291-.43v-.3c-.253-.329-2.114-2.19-11.534-1.38l-.291-3.355c7.078-.608,11.75.089,13.927,2.077a3.8,3.8,0,0,1,1.153,1.76,17.3,17.3,0,0,1,2.861,13.434c-1.406,7-6.736,12.915-10.952,16.624-3.482,3.077-6.837,6.331-10.193,9.534C766.423,267.236,738.568,287.393,737.175,288.393Z" transform="translate(123.571 -18.013)" fill="#e8f5ff"/>
    <rect id="Rectangle_57" data-name="Rectangle 57" width="3.355" height="20.397" transform="translate(603.172 512.287) rotate(-1.05)" fill="#e8f5ff"/>
    <circle id="Ellipse_30" data-name="Ellipse 30" cx="24.5" cy="24.5" r="24.5" transform="translate(578.398 466.315)" fill="#54a591"/>
    <circle id="Ellipse_31" data-name="Ellipse 31" cx="20.347" cy="20.347" r="20.347" transform="translate(582.551 470.468)" fill="#e8f5ff"/>
    <path id="Path_328" data-name="Path 328" d="M643.586,649.658a46.98,46.98,0,0,1-5.065-.266,93.833,93.833,0,0,1-65.345-21.385c-24.057-20.258-37.706-53-40.516-97.353l5.065-.317c2.71,42.922,15.725,74.487,38.719,93.808,28.083,23.614,61.5,20.258,61.825,20.258h.557a37.009,37.009,0,0,0,30.489-10.129c23.031-21.436,29.932-71.347,28.881-97.771-1.266-29.767,9.483-114.953,22.284-131.843,11.205-14.8,18.156-81.514,18.232-82.185l.19-1.9,1.874-.329c.114,0,11.053-2.077,12.421-10.256,1.773-10.661,33.553-38.529,37.161-41.681l3.3,3.8c-13.13,11.4-34.388,32.008-35.452,38.706-1.545,9.268-10.623,12.813-14.624,13.928-1.266,11.091-7.939,68.258-18.992,82.932-11.319,14.953-22.6,97.075-21.334,128.589,1.089,27.323-6.217,79.083-30.489,101.671A41.542,41.542,0,0,1,643.586,649.658Z" transform="translate(69.668 -2.868)" fill="#353146"/>
    <g id="Group_22" data-name="Group 22" transform="translate(681.937 90.221)" opacity="0.1">
      <path id="Path_329" data-name="Path 329" d="M783,166c2.076-7.673,4.583-15.4,6.331-23.17C787.241,150.642,784.722,158.328,783,166Z" transform="translate(-545.644 -126.484)"/>
      <path id="Path_330" data-name="Path 330" d="M811.709,229.73c-2.532-5.558-1.177-11.99-1.127-18.093s-2.2-13.244-8.078-14.953c-11.75-3.279-19.853,18.638-31.4,14.675-8.863-3.026-6.521-16.46-11.636-24.221-4.039-6.153-12.13-7.875-18.41-11.724-13.4-8.217-12.99-21.36-19.195-33.793-6.521-13.041-20.258-9.192-32.21-1.494-9.078,5.85-16.89,13.687-26.589,18.359-8.395,4.039-17.827,5.508-27.133,5.723-11.332.266-23.664-1.747-31.451-9.977-6-6.331-8.167-15.611-6.926-24.31-.215.6-.405,1.19-.595,1.785-3.039,9.965-1.266,21.676,5.837,29.248,7.787,8.23,20.119,10.23,31.451,9.977,9.319-.215,18.739-1.684,27.146-5.723,9.724-4.685,17.536-12.509,26.589-18.359,11.952-7.7,25.7-11.547,32.211,1.494,6.2,12.433,5.812,25.576,19.195,33.793,6.331,3.8,14.371,5.571,18.422,11.724,5.064,7.787,2.823,21.2,11.636,24.221,11.534,3.95,19.638-17.954,31.387-14.675,5.875,1.646,8.141,8.863,8.078,14.953s-1.38,12.535,1.127,18.093c9.737-.443,21.778-2.532,24.6-11.9a13.645,13.645,0,0,0,.532-4.14C831.055,227.514,820.471,229.337,811.709,229.73Z" transform="translate(-595.536 -129.92)"/>
    </g>
    <path id="Path_331" data-name="Path 331" d="M990.878,485.13l14.7,15.548s11.763,85.68,17.637,93.694,19.752,39.9,6.723,63.839c0,0-4.2,13.029-1.684,18.485s-18.891,32.768-18.891,32.768-28.146,25.2-34.034,28.982-36.958,34.021-47.455,34.439-13.928,13.446-13.928,13.446l-59.23,2.1s-32.717-1.709-39.833,2.912c0,0,3.8-49.987-32.755-82.755l46.619-16.8s17.65-7.6,23.107-15.536a28.526,28.526,0,0,1,13.928-10.5s13.016-9.243,13.434-14.282,15.916-11.218,15.916-11.218l-8.774-74.892,4.622-124.335s14.7-104.178,45.784-98.29S990.878,485.13,990.878,485.13Z" transform="translate(136.061 16.877)" opacity="0.1"/>
    <path id="Path_332" data-name="Path 332" d="M994.878,485.13l14.7,15.548s11.762,85.68,17.637,93.694,19.752,39.9,6.723,63.839c0,0-4.191,13.029-1.671,18.485s-18.9,32.768-18.9,32.768-28.146,25.2-34.034,28.982-36.959,34.021-47.455,34.439-13.928,13.446-13.928,13.446l-59.23,2.1s-32.742-1.709-39.833,2.912c0,0,3.8-49.987-32.755-82.755l46.619-16.8s17.65-7.6,23.107-15.536a28.524,28.524,0,0,1,13.927-10.5s13.016-9.243,13.434-14.282,15.915-11.218,15.915-11.218l-8.775-74.892,4.621-124.335s14.7-104.178,45.784-98.29S994.878,485.13,994.878,485.13Z" transform="translate(137.126 16.877)" fill="#e8f5ff"/>
    <path id="Path_333" data-name="Path 333" d="M907.84,555.273s43.264-11.4,54.609,2.532S907.84,555.273,907.84,555.273Z" transform="translate(169.517 72.335)" opacity="0.1"/>
    <path id="Path_334" data-name="Path 334" d="M899.88,569.44c14.7,10.294,60.065,10.712,60.065,10.712Z" transform="translate(167.399 77.274)" opacity="0.1"/>
    <path id="Path_335" data-name="Path 335" d="M917.46,610.08c1.266.418,31.185,32.35,43.745,22.689S917.46,610.08,917.46,610.08Z" transform="translate(172.078 88.09)" opacity="0.1"/>
    <path id="Path_336" data-name="Path 336" d="M599.22,398.42s8.787,60.5,4.457,85.135,11.471,55.166,11.471,55.166Z" transform="translate(87.382 31.759)" opacity="0.1"/>
    <path id="Path_337" data-name="Path 337" d="M470.831,420.27C460.7,428.209,453.308,447,447.952,467.649c-9.344,36.022-12.4,77.792-12.4,77.792s-80.653-18.486-74.778-26.88c3.7-5.28-1.266-45.062-5.406-73.9-2.469-17.042-4.672-30.273-4.672-30.273S498.56,398.417,470.831,420.27Z" transform="translate(21.241 34.51)" fill="#ffccd0"/>
    <path id="Path_338" data-name="Path 338" d="M470.831,418.939c-10.129,7.951-17.523,26.728-22.879,47.379a93.062,93.062,0,0,1-92.58-22.98c-2.469-17.055-4.672-30.286-4.672-30.286S498.56,397.1,470.831,418.939Z" transform="translate(21.241 34.157)" opacity="0.1"/>
    <path id="Path_339" data-name="Path 339" d="M519.041,400.383a93.289,93.289,0,1,1-20.524-58.344A93.289,93.289,0,0,1,519.041,400.383Z" transform="translate(16.384 7.462)" fill="#ffccd0"/>
    <path id="Path_340" data-name="Path 340" d="M544.452,862.008H517.863l-2.241-46.961L513.28,766.44s6.04-.9,15.662-2.241l3.887-.519h.317c2.1,9.863,4.178,19.992,6.179,30.109a309.417,309.417,0,0,1,5.179,54.444c0,1.266,0,2.532,0,3.723C544.579,855.336,544.5,858.716,544.452,862.008Z" transform="translate(64.51 128.969)" opacity="0.1"/>
    <path id="Path_341" data-name="Path 341" d="M603.96,935.115H270.51c1.443-3.279,2.406-5.267,2.406-5.267s26.678-116.713,40.238-166.092a.635.635,0,0,0,0-.127,197.521,197.521,0,0,1,6.128-19.815h0a6.806,6.806,0,0,1,.6-1.266c6.711-10.914,15.118-22.677,3.355-39.478s-7.6-90.731-7.6-90.731,14.282-63.016,29.4-96.619a45.2,45.2,0,0,1,9.6-13.927,39.239,39.239,0,0,1,4.2-3.571h0a36.927,36.927,0,0,1,3.52-2.342l.241-.152a50.8,50.8,0,0,1,20.676-6.419,58.986,58.986,0,0,1,15.51.431c24.512,3.6,44.138,9.61,59.736,16.46,42.276,18.574,55.077,43.467,55.33,43.986h0l.1.215c1.7,3.963,26.513,61.9,35.452,88.934,2.317,7.04,3.583,11.99,3.077,13.345C549.947,659.388,571.8,743.4,571.8,743.4s10.129,40.516,20.258,88.009c.443,1.975.861,3.95,1.266,5.951,1.81,8.622,3.608,17.409,5.343,26.184a307.784,307.784,0,0,1,5.179,54.824Q604.125,926.961,603.96,935.115Z" transform="translate(-0.101 55.863)" fill="#ff748e"/>
    <path id="Path_342" data-name="Path 342" d="M362.778,467.022s-23.006-8.863-22.727,4.584,5.609,19.878,3.925,21.841.836,13.725.836,13.725,31.084,0,45.366,6.432,66.928,19.321,73.651,23.246,31.653,21.524,31.653,21.524l2.241-33.325s-25.766-21.284-68.042-32.2S362.778,467.022,362.778,467.022Z" transform="translate(18.406 49.254)" opacity="0.1"/>
    <path id="Path_343" data-name="Path 343" d="M362.778,465.693s-23.006-8.863-22.727,4.583,5.609,19.878,3.925,21.841.836,13.725.836,13.725,31.084,0,45.366,6.445,66.928,19.321,73.651,23.234,31.653,21.524,31.653,21.524l2.266-33.223s-25.766-21.284-68.042-32.2S362.778,465.693,362.778,465.693Z" transform="translate(18.406 48.9)" fill="#ff748e"/>
    <path id="Path_344" data-name="Path 344" d="M412.85,528.43s43.96,47.594,41.719,60.775S412.85,528.43,412.85,528.43Z" transform="translate(37.782 66.36)" opacity="0.1"/>
    <path id="Path_345" data-name="Path 345" d="M443.384,741.85s-17.08,34.73-7.837,32.489S443.384,741.85,443.384,741.85Z" transform="translate(43.092 123.159)" fill="none"/>
    <path id="Path_346" data-name="Path 346" d="M365.809,664.22s-32.223,29.691-41.719,31.375,7.28,7.28,18.194,2.811,34.186-16.232,34.186-16.232Z" transform="translate(13.413 102.499)" opacity="0.1"/>
    <path id="Path_347" data-name="Path 347" d="M571.62,862.637H496.474C485.965,853.52,476.026,845.075,469.7,840c-10.129-8.129-17.435-20.094-22.094-29.716-1.051-2.19-1.962-4.242-2.735-6.1a101.848,101.848,0,0,1-3.647-9.813l55.647-33.046a87.017,87.017,0,0,1,8.648,8.458l.671.772c3.089,3.646,5.812,7.787,6.052,11.18.279,3.95,11.269,19.232,22.5,33.907,11.4,14.928,23.069,29.2,23.841,30.159h0s1.924,2.621,5.065,6.647C565.859,855.356,568.593,858.851,571.62,862.637Z" transform="translate(45.332 128.341)" fill="#ffccd0"/>
    <path id="Path_348" data-name="Path 348" d="M498.507,342.029c-2.672,6.027-5.065,12.282-5.419,18.992-1,19.372.621,62.686-20.828,72.41-10.623,4.786-21.993-5.723-33.641-5.976-8.382-.177-16.067,5.141-21.183,11.788s-8.293,14.535-12,22.056A150.654,150.654,0,0,1,393.8,480.925a49.365,49.365,0,0,1-4.3,5.432A93.264,93.264,0,1,1,498.507,342.08Z" transform="translate(16.394 7.472)" opacity="0.1"/>
    <path id="Path_349" data-name="Path 349" d="M512.29,365.73c-1.013,19.372.62,62.686-20.841,72.4-10.623,4.786-21.993-5.71-33.641-5.964-8.382-.19-16.055,5.14-21.183,11.775s-8.281,14.535-12,22.069a150.985,150.985,0,0,1-11.636,19.625c-2.608,3.7-5.5,7.407-9.509,9.483-6.989,3.646-15.46,1.6-22.955-.747q-14.586-4.6-28.741-10.357a28.985,28.985,0,0,0,.329-4.3c-.279.532-.582,1.026-.886,1.557l-.6,1.038c-1.076,1.9-2.127,3.8-3.089,5.748-.367.747-.722,1.519-1.038,2.292a29.123,29.123,0,0,0-2.368,9.066c-.646,8.445,3.52,16.46,7.217,24.057,14.219,29.387,23.006,63.75,12.307,94.58-4.634,13.409-12.661,25.323-18.524,38.275a123.664,123.664,0,0,0-8.648,73.158c2.925,15.346,8.787,30.539,7.344,46.1-2.532,26.779-25.627,46.708-48.759,60.408-12.5,7.369-27.792,13.927-41.061,8.1,8.458-9.876,10.636-23.537,12.459-36.427q7.483-52.735,15-105.52,3-21.005,5.989-42.011c3.722-26.31,7.5-52.912,5.166-79.387-1.7-19.511-6.483-40.225,1.975-57.888,4.469-9.357,12.434-17.106,14.915-27.184,2.038-8.192.139-16.9,1.481-25.247a42.975,42.975,0,0,1,3.7-10.94,53.749,53.749,0,0,1,8.483-12.94c-3.393-.988-6.559-2.342-8.483-5.178,5.444-3.545,6.267-11.535,3.8-17.536s-7.407-10.572-11.851-15.308-8.724-10.256-9.281-16.713c-1.076-12.294,11.205-21.816,13.37-33.945,2.19-12.345-6.47-24.348-5.774-36.845.81-15.1,14.687-26.082,28.387-32.451a129.146,129.146,0,0,1,66.194-11.4c18.46,1.747,36.326,7.457,54.735,9.673,11.1,1.266,22.36,1.393,33.388,3.343s22.081,6.065,29.843,14.155C537.967,325.682,513.454,343.243,512.29,365.73Z" transform="translate(-4.492 -0.656)" fill="#ffe0d0"/>
    <path id="Path_350" data-name="Path 350" d="M476.393,867.67c-6.457-2.8-18.207-1.127-38.377-7.268s-24.057-33.895-24.057-33.895v-.089h0c-.241-.633-2.115-4.761-14.8-19.22-14.016-15.966-44.315-96.606-44.315-96.606s-26.868-28.855-26.019-39.491-4.773-38.934-4.216-70.587,60.483-52.646,60.483-52.646C500.475,527.42,473.3,660.441,470.227,670.519s12.889,37.3,12.889,37.3c-2.254,11.851,9.243,30.2,9.243,30.2s2.786,16.232,3.355,22.4a3.8,3.8,0,0,0,.19.836c1.849,5.812,16.916,11.079,23.044,14.282,6.445,3.368,27.171,32.768,27.171,32.768C550.589,829.888,482.825,870.506,476.393,867.67Z" transform="translate(14.287 70.965)" opacity="0.1"/>
    <path id="Path_351" data-name="Path 351" d="M479.04,863.656c-6.445-2.811-18.207-1.127-38.364-7.28s-24.057-33.882-24.057-33.882v-.089h0c-.228-.646-2.114-4.761-14.8-19.22C387.8,787.219,357.5,706.567,357.5,706.567s-26.867-28.843-26.032-39.478-4.761-38.934-4.2-70.562,60.445-52.608,60.445-52.608C503.1,523.47,475.926,656.491,472.849,666.569s12.889,37.3,12.889,37.3c-2.254,11.851,9.243,30.2,9.243,30.2s2.786,16.232,3.368,22.4a3.181,3.181,0,0,0,.177.836c1.849,5.812,16.916,11.079,23.057,14.282,6.432,3.355,27.171,32.768,27.171,32.768C553.249,825.9,485.485,866.518,479.04,863.656Z" transform="translate(14.995 69.914)" fill="#ff748e"/>
    <path id="Path_352" data-name="Path 352" d="M376.8,598.32S427.205,651.5,440.36,651.5,376.8,598.32,376.8,598.32Z" transform="translate(28.187 84.96)" opacity="0.1"/>
    <path id="Path_353" data-name="Path 353" d="M460.251,818.366c-6.445-2.811-18.207-1.127-38.364-7.28S397.83,777.2,397.83,777.2v-.089h0c13.358-8.863,47.189-33.894,60.521-43.049,9.382-6.419,17.042-15.852,21.524-22.107,1.849,5.812,16.916,11.079,23.056,14.282C509.364,729.6,530.1,759.01,530.1,759.01,534.459,780.61,466.7,821.228,460.251,818.366Z" transform="translate(33.784 115.204)" fill="#ff748e"/>
    <g id="Group_23" data-name="Group 23" transform="translate(249.518 300.299)" opacity="0.1">
      <path id="Path_354" data-name="Path 354" d="M302,407.087c.063.1.152.19.228.291.38-.481.772-.962,1.178-1.418A9.449,9.449,0,0,1,302,407.087Z" transform="translate(-241.238 -266.533)"/>
      <path id="Path_355" data-name="Path 355" d="M344.146,458.242c.532-7.027,4.292-13.219,7.812-19.4-2.3-.886-4.609-1.785-6.888-2.722a28.682,28.682,0,0,0,.329-4.292c-3.558,6.331-7.432,12.56-7.977,19.689-.646,8.458,3.52,16.46,7.217,24.057,14.231,29.374,23.006,63.737,12.307,94.58-4.647,13.4-12.661,25.323-18.524,38.275a123.613,123.613,0,0,0-8.635,73.145c2.9,15.358,8.774,30.539,7.331,46.1-2.532,26.779-25.614,46.708-48.759,60.395-9.458,5.6-20.511,10.724-31.084,10.357a38.3,38.3,0,0,1-3.267,4.495c13.282,5.862,28.564-.734,41.061-8.128,23.158-13.674,46.29-33.553,48.822-60.382,1.443-15.561-4.431-30.742-7.344-46.1a123.714,123.714,0,0,1,8.61-73.145c5.824-12.94,13.927-24.88,18.524-38.275,10.7-30.843,1.912-65.206-12.307-94.581C347.692,474.663,343.5,466.7,344.146,458.242Z" transform="translate(-254.01 -259.648)"/>
      <path id="Path_356" data-name="Path 356" d="M496.93,299.385a36.591,36.591,0,0,0-4-3.545c15.346,19.9-6.812,36.819-7.913,58.242-.988,19.372.633,62.7-20.828,72.4-10.61,4.8-21.993-5.71-33.629-5.964-8.394-.177-16.067,5.153-21.2,11.788s-8.281,14.535-11.99,22.056a151.649,151.649,0,0,1-11.649,19.625c-2.532,3.71-5.495,7.407-9.521,9.5-6.964,3.634-15.434,1.6-22.942-.76q-10.952-3.444-21.7-7.6a27.383,27.383,0,0,1-.329,3.938q14.168,5.774,28.754,10.357c7.5,2.355,15.966,4.393,22.942.76,4.014-2.089,6.926-5.8,9.521-9.509a149.146,149.146,0,0,0,11.636-19.613c3.722-7.521,6.863-15.434,12-22.069s12.8-11.952,21.183-11.775c11.648.253,23.031,10.762,33.641,5.964,21.461-9.7,19.828-53.026,20.828-72.4C492.9,338.256,517.416,320.707,496.93,299.385Z" transform="translate(-233.459 -295.84)"/>
    </g>
    <path id="Path_357" data-name="Path 357" d="M337.883,445.89c-1.076,1.9-2.127,3.8-3.089,5.748-.367.747-.722,1.519-1.038,2.292-6.635-6.685-22.791-22.575-31.805-27.5a54,54,0,0,1,8.483-12.94S331.919,424.847,337.883,445.89Z" transform="translate(8.267 35.77)" opacity="0.1"/>
    <path id="Path_358" data-name="Path 358" d="M338.478,445.558c-4.976-22.525-28.045-34.718-28.045-34.718a53.738,53.738,0,0,0-8.483,12.94c9.509,5.2,27.032,22.651,32.844,28.564Z" transform="translate(8.267 35.065)" fill="#ff748e"/>
  </g>
</svg>
