<svg xmlns="http://www.w3.org/2000/svg" xmlns:xlink="http://www.w3.org/1999/xlink" width="1344.913" height="969.174" viewBox="0 0 1344.913 969.174">
  <defs>
    <linearGradient id="linear-gradient" x1="0.5" y1="1" x2="0.5" gradientUnits="objectBoundingBox">
      <stop offset="0" stop-color="gray" stop-opacity="0.251"/>
      <stop offset="0.54" stop-color="gray" stop-opacity="0.122"/>
      <stop offset="1" stop-color="gray" stop-opacity="0.102"/>
    </linearGradient>
    <linearGradient id="linear-gradient-2" x1="0.5" y1="1" x2="0.5" y2="0" xlink:href="#linear-gradient"/>
  </defs>
  <g id="Group_24" data-name="Group 24" transform="translate(0.001 -0.015)">
    <path id="Path_268" data-name="Path 268" d="M838.361,225.247c-86.221-3-168.4-30.833-246.762-61.282S435.578,99.774,351.376,83.639c-54.137-10.389-116.05-11.85-159.662,17.175-41.977,27.923-55.536,76.129-62.83,120.855-5.486,33.656-8.668,69.071,6.328,100.584,10.439,21.868,28.963,40.256,41.779,61.208,44.578,72.9,13.064,162.8-35.253,234.033-22.66,33.433-48.949,65.244-66.433,100.795S49.721,794.566,65.026,830.822c15.169,35.91,51.3,62.929,90.455,81.911C235,951.256,328.7,962.277,420.075,968.592c202.259,13.831,405.607,7.838,608.4,1.845,75.051-2.229,150.437-4.47,224.263-16.1,41-6.451,83.335-16.679,113.1-41.37,37.78-31.353,47.153-84.425,21.831-123.74-42.473-65.925-159.9-82.308-189.591-153.062-16.333-38.944.446-82.332,24.2-118.453,50.93-77.478,136.321-145.459,140.816-234.033,3.1-60.836-37.953-121.746-101.427-150.536-66.52-30.2-158.771-26.388-207.843,23.527C1003.286,208.1,914.478,227.885,838.361,225.247Z" transform="translate(-56.94 -54.333)" fill="#de1a51" opacity="0.1"/>
    <path id="Path_269" data-name="Path 269" d="M328.585,824.534s-68.1-51.487-80.97-116.979a129.448,129.448,0,0,0-39.885-71.461,217.941,217.941,0,0,0-31.91-23.775" transform="translate(-28.614 73.256)" fill="none" stroke="#535461" stroke-miterlimit="10" stroke-width="2"/>
    <path id="Path_270" data-name="Path 270" d="M175.4,580.416c5.969,8.073,8.668,42.287,8.668,42.287s-31.91-12.569-37.891-20.63A18.187,18.187,0,1,1,175.4,580.416Z" transform="translate(-36.529 63.9)" fill="#de1a51"/>
    <path id="Path_271" data-name="Path 271" d="M222.3,603.959c.619,10.018-15.689,40.206-15.689,40.206s-19.973-27.91-20.6-37.928a18.177,18.177,0,1,1,36.283-2.278Z" transform="translate(-26.196 67.204)" fill="#de1a51"/>
    <path id="Path_272" data-name="Path 272" d="M266.826,668.071c-4.507,8.965-33.842,26.8-33.842,26.8s-3.133-34.176,1.374-43.141a18.176,18.176,0,1,1,32.47,16.347Z" transform="translate(-15.247 80.26)" fill="#de1a51"/>
    <path id="Path_273" data-name="Path 273" d="M290.205,722.282c-2.935,9.6-28.827,32.121-28.827,32.121s-8.878-33.148-5.944-42.757a18.181,18.181,0,0,1,34.771,10.637Z" transform="translate(-9.787 93.856)" fill="#de1a51"/>
    <path id="Path_274" data-name="Path 274" d="M181.833,659.715c9.906,1.337,41.222-12.8,41.222-12.8s-26.425-21.893-36.38-23.23a18.179,18.179,0,0,0-4.842,36.034Z" transform="translate(-30.937 75.924)" fill="#de1a51"/>
    <path id="Path_275" data-name="Path 275" d="M210.939,723.382c9.906-1.7,35.5-24.542,35.5-24.542s-31.774-12.977-41.668-11.281a18.177,18.177,0,1,0,6.191,35.824Z" transform="translate(-25.31 91.146)" fill="#de1a51"/>
    <path id="Path_276" data-name="Path 276" d="M246.1,781.645c10.042,0,39.142-18.19,39.142-18.19S256.13,745.29,246.088,745.29a18.178,18.178,0,1,0,0,36.355Z" transform="translate(-16.203 104.938)" fill="#de1a51"/>
    <path id="Path_277" data-name="Path 277" d="M833.49,458.635s41.977-74.358,105.253-95.78a129.436,129.436,0,0,0,65.529-49.023,217.119,217.119,0,0,0,19.3-34.833" transform="translate(128.087 -6.164)" fill="none" stroke="#535461" stroke-miterlimit="10" stroke-width="2"/>
    <path id="Path_278" data-name="Path 278" d="M1026.921,274.008c-7.207,6.984-40.751,14.215-40.751,14.215s8.234-33.309,15.441-40.306a18.176,18.176,0,1,1,25.312,26.092Z" transform="translate(164.466 -14.792)" fill="#de1a51"/>
    <path id="Path_279" data-name="Path 279" d="M1011.83,323.573c-9.906,1.956-41.94-10.2-41.94-10.2s25.013-23.527,34.857-25.446a18.178,18.178,0,1,1,7.083,35.65Z" transform="translate(160.587 -4.141)" fill="#de1a51"/>
    <path id="Path_280" data-name="Path 280" d="M953.973,376.077C944.488,372.8,922.93,346.1,922.93,346.1s33.433-7.653,42.943-4.371a18.177,18.177,0,1,1-11.9,34.351Z" transform="translate(149.398 8.587)" fill="#de1a51"/>
    <path id="Path_281" data-name="Path 281" d="M903.613,406.609C893.706,404.975,868,382.252,868,382.252s31.687-13.2,41.581-11.565a18.2,18.2,0,1,1-5.906,35.91Z" transform="translate(136.309 15.649)" fill="#de1a51"/>
    <path id="Path_282" data-name="Path 282" d="M947.3,290.94c-.012,10.042,18.2,39.179,18.2,39.179s18.19-29.1,18.19-39.129a18.178,18.178,0,1,0-36.343,0Z" transform="translate(155.204 -7.752)" fill="#de1a51"/>
    <path id="Path_283" data-name="Path 283" d="M887.991,328.044c3,9.584,29.05,31.935,29.05,31.935s8.668-33.21,5.646-42.794a18.178,18.178,0,0,0-34.671,10.86Z" transform="translate(140.923 0.044)" fill="#de1a51"/>
    <path id="Path_284" data-name="Path 284" d="M835.043,370.836c1.337,9.906,23.23,36.368,23.23,36.368s14.128-31.266,12.791-41.21a18.178,18.178,0,1,0-36.021,4.842Z" transform="translate(128.403 10.707)" fill="#de1a51"/>
    <path id="Path_285" data-name="Path 285" d="M1026.921,274.008c-7.207,6.984-40.751,14.215-40.751,14.215s8.234-33.309,15.441-40.306a18.176,18.176,0,1,1,25.312,26.092Z" transform="translate(164.466 -14.792)" opacity="0.25"/>
    <path id="Path_286" data-name="Path 286" d="M1011.83,323.573c-9.906,1.956-41.94-10.2-41.94-10.2s25.013-23.527,34.857-25.446a18.178,18.178,0,1,1,7.083,35.65Z" transform="translate(160.587 -4.141)" opacity="0.25"/>
    <path id="Path_287" data-name="Path 287" d="M953.973,376.077C944.488,372.8,922.93,346.1,922.93,346.1s33.433-7.653,42.943-4.371a18.177,18.177,0,1,1-11.9,34.351Z" transform="translate(149.398 8.587)" opacity="0.25"/>
    <path id="Path_288" data-name="Path 288" d="M903.613,406.609C893.706,404.975,868,382.252,868,382.252s31.687-13.2,41.581-11.565a18.2,18.2,0,1,1-5.906,35.91Z" transform="translate(136.309 15.649)" opacity="0.25"/>
    <path id="Path_289" data-name="Path 289" d="M947.3,290.94c-.012,10.042,18.2,39.179,18.2,39.179s18.19-29.1,18.19-39.129a18.178,18.178,0,1,0-36.343,0Z" transform="translate(155.204 -7.752)" opacity="0.25"/>
    <path id="Path_290" data-name="Path 290" d="M887.991,328.044c3,9.584,29.05,31.935,29.05,31.935s8.668-33.21,5.646-42.794a18.178,18.178,0,0,0-34.671,10.86Z" transform="translate(140.923 0.044)" opacity="0.25"/>
    <path id="Path_291" data-name="Path 291" d="M835.043,370.836c1.337,9.906,23.23,36.368,23.23,36.368s14.128-31.266,12.791-41.21a18.178,18.178,0,1,0-36.021,4.842Z" transform="translate(128.403 10.707)" opacity="0.25"/>
    <path id="Path_292" data-name="Path 292" d="M835.44,469.29S843.687,384.3,892.8,339.1a129.484,129.484,0,0,0,40.045-71.374A217.012,217.012,0,0,0,936.42,228.1" transform="translate(128.551 -18.291)" fill="none" stroke="#535461" stroke-miterlimit="10" stroke-width="2"/>
    <path id="Path_293" data-name="Path 293" d="M948.576,209.743c-3.715,9.312-31.5,29.52-31.5,29.52s-5.969-33.792-2.217-43.1a18.183,18.183,0,1,1,33.718,13.621Z" transform="translate(147.179 -28.613)" fill="#de1a51"/>
    <path id="Path_294" data-name="Path 294" d="M955.733,262.078c-8.21,5.77-42.473,7.665-42.473,7.665s13.349-31.625,21.558-37.4a18.178,18.178,0,1,1,20.914,29.718Z" transform="translate(147.093 -18.143)" fill="#de1a51"/>
    <path id="Path_295" data-name="Path 295" d="M925.7,333.429c-10.005.842-40.541-14.859-40.541-14.859s27.49-20.555,37.495-21.4A18.18,18.18,0,0,1,925.7,333.4Z" transform="translate(140.398 -1.849)" fill="#de1a51"/>
    <path id="Path_296" data-name="Path 296" d="M891.56,381.814c-9.72,2.477-42.46-7.764-42.46-7.764s23.614-24.9,33.334-27.428a18.178,18.178,0,1,1,9.126,35.192Z" transform="translate(131.806 9.809)" fill="#de1a51"/>
    <path id="Path_297" data-name="Path 297" d="M884.357,256.611c4.062,9.176,32.467,28.48,32.467,28.48s4.829-33.978.768-43.154a18.178,18.178,0,0,0-33.235,14.711Z" transform="translate(139.876 -17.48)" fill="#de1a51"/>
    <path id="Path_298" data-name="Path 298" d="M845.32,314.805c6.625,7.541,39.488,17.422,39.488,17.422s-5.547-33.867-12.172-41.408a18.177,18.177,0,1,0-27.318,23.986Z" transform="translate(129.829 -4.821)" fill="#de1a51"/>
    <path id="Path_299" data-name="Path 299" d="M814.013,375.16C819.263,383.7,849.985,399,849.985,399s.26-34.312-4.953-42.869a18.178,18.178,0,0,0-30.957,19.032Z" transform="translate(122.885 10.26)" fill="#de1a51"/>
    <path id="Path_300" data-name="Path 300" d="M784.44,158.449c2.055-7.541,4.532-15.119,6.266-22.759C788.625,143.33,786.136,150.933,784.44,158.449Z" transform="translate(116.4 -40.31)" fill="url(#linear-gradient)"/>
    <path id="Path_301" data-name="Path 301" d="M902.629,249.436c-.173-.3-.3-.594-.433-.867h0c0-.124-.124-.223-.173-.347a7.744,7.744,0,0,1-.83.334c-.545.211-1.1.409-1.671.57s-.8.248-1.238.347a7.212,7.212,0,0,1-1.1.285l.1.223c.458-.1.9-.186,1.362-.31l.124,1.535c.52,0,1-.074,1.474-.074a6.062,6.062,0,0,1,.669,0h2.477C903.124,250.576,902.852,249.994,902.629,249.436ZM1154,649.558c-5.82-7.838-17.435-91.966-17.435-91.966s-22.846-59.821-16.618-83.694-17.014-84.958-17.014-84.958-15.354-6.674-16.184-16.58c0,0-62.693-19.812-65.628-34.671C1018.741,325.5,979.86,316.761,965.892,314c-4.26-17.187-8.544-33.223-11.7-41.977-.854-2.724-1.659-5.077-2.4-6.934-5.337-13.621-21.831-14.859-33.792-13.77a18.43,18.43,0,0,0-2.836-6.476,3.553,3.553,0,0,0-1.127-1.721,6.6,6.6,0,0,0-.817-.594,3.914,3.914,0,0,0-.842-1.065,5.956,5.956,0,0,0-1.115-.793,7.428,7.428,0,0,0-.891-.409,11.9,11.9,0,0,0-2.217-.607,18.252,18.252,0,0,0-2.675-.347,16.286,16.286,0,0,0,5.709-4.173,11.9,11.9,0,0,0,2.34-4.309,12.68,12.68,0,0,0,.52-4.061,10.5,10.5,0,0,1-1.115,1.6c.52-5.486-2.377-11.058-4.037-16.519a48.878,48.878,0,0,1-1.09-21.855h0c1.659-10.971,5.77-22.066,8.556-33.235a.8.8,0,0,0,0-.186,86.283,86.283,0,0,0,2.7-16.952c.483-11.553-2.477-23.081-7.232-33.607-4.222-9.324-10.451-18.5-19.986-22.289-7.083-2.86-15.02-2.4-22.648-2.873-17.113-1.065-33.433-7.083-49.7-12.556s-33.012-10.451-50.138-9.5S734.608,68.005,726.8,83.162c-2.477,4.73-3.9,9.993-6.86,14.438-5.547,8.383-15.478,12.581-23.762,18.363S680.6,129.956,677.6,139.751a31.737,31.737,0,0,0-.669,16.283h0a29.137,29.137,0,0,0,1.04,3.591,25.448,25.448,0,0,0,5.386,8.8,26.262,26.262,0,0,0,6.117,4.743h0a35.994,35.994,0,0,0,9.039,3.517c-.112.371-.223.768-.347,1.152-.2.632-.371,1.238-.557,1.919-.409,1.523-.793,3.071-1.115,4.631a1.445,1.445,0,0,0,0,.334,101.133,101.133,0,0,0-2.279,21.434,98.94,98.94,0,0,0,.52,10.2h0c4.953,50.249,46.435,89.886,97.687,92.461,1.758.087,3.529.136,5.325.136h2.476c.805,1.065,1.6,2.155,2.353,3.22s1.449,2.155,2.105,3.219l-1.8-1.857h0l-1.8-1.647a14.607,14.607,0,0,1-1.622,1.87,30.128,30.128,0,0,0-3.578-1.015h0c-5.139-1.139-12.965-1.56-23.267,1.548-9.473,2.836-21.05,8.668-34.6,19.75l-66.012,39.625L636.3,395.391l-12.865,31.452s-9.671,37.371-20.431,80.19c-.421.124-.83.248-1.238.4a23.159,23.159,0,0,0-2.625-.149,24.134,24.134,0,0,0-24.171,23.168c-21.4,26-22.611,52.007-17.583,63.944h0a17.033,17.033,0,0,0,1.709,3.182c3.294,4.755,9.448,17.014,15.689,30.077-.161,1.077-.26,1.981-.31,2.662a6.6,6.6,0,0,0,0,.669s3.715,56.106-8.668,72.191c-2.712,3.5-2.3,8.111,0,13.212h0c8.3,18.351,41.1,42.856,41.1,42.856s39.34-.211,61.257-2.6c-.062,2.2-.112,4.4-.161,6.538-.5,21.645-.5,39.786-.5,39.786l-.817,22.7s-7.43,47.834-11.144,61.022c-2.34,8.272.359,84.859,2.712,141.163h387.6c4.557-33.31-1.87-134.513-1.87-134.513s-6.1-26.165-6.328-48.973a.186.186,0,0,1,0-.161c0-1.994,0-3.938.074-5.845l2.811-.1,5.052-.173h.458s.124-.471.409-1.238h0a23.667,23.667,0,0,1,2.712-5.411c2.155-3.182,5.523-6.3,10.587-6.513,2.8-.112,7.132-2.377,12.024-5.721a.223.223,0,0,0,.1,0c13.163-8.9,30.561-25.335,34.783-28.034,5.807-3.715,33.619-28.48,33.619-28.48s4.148-5.25,8.569-11.578l.161-.223c5.5-7.925,11.343-17.4,9.906-20.382-2.476-5.349,1.659-18.141,1.659-18.141C1173.5,688.724,1159.817,657.4,1154,649.558ZM914.554,268.691a4.963,4.963,0,0,1,.223,1.139c-.309-.409-.619-.842-.929-1.238l-.3-.4-.211-.3.471-.644v.087h0a4.3,4.3,0,0,1,.743,1.35Zm-4.161-10.971c-1.35.272-2.415.52-3.108.706-.879-1.56-1.721-3.12-2.476-4.705A35.9,35.9,0,0,1,910.393,257.72Zm-2.328,1.957a.261.261,0,0,1,0-.074l.1.074h0c.508.334,1,.656,1.461.991h0c.409.3.78.582,1.152.879a11.829,11.829,0,0,1-.793,1.238c-.433-.681-.842-1.337-1.238-2.018A4.465,4.465,0,0,1,908.065,259.677Zm-7.43-15.28a36.638,36.638,0,0,1,7.194,0h0a5.448,5.448,0,0,1,.929.111h0a10.287,10.287,0,0,1,1.969.508,14.387,14.387,0,0,1,2.613,6.947l-.669.1-.656.124c-1.238.211-2.476.421-3.443.619l-1.238.26c-1.647.359-2.6.632-2.637.644-.161-.334-.322-.644-.5-.966-.273-.532-.557-1.077-.8-1.61s-.57-1.139-.83-1.7c-.173-.3-.3-.594-.433-.867h0c0-.124-.124-.223-.173-.347a3,3,0,0,1-.186-.409c-.755-1.535-1.449-3.071-2.118-4.582-.074-.149-.136-.31-.2-.458l.941-.062v.322ZM605.2,1012.543c-.1-18.438-1.436-38.386-5.151-57.109-1.585-7.962-3.219-15.924-4.879-23.75-.421-1.956-.83-3.888-1.238-5.82l-3.814.508h-.347c-10.4-49.048-21.273-92.263-21.273-92.263s-21.6-82.456-19.094-89.031c.322-.854-.087-3.158-1-6.538-5.226-18.747-27.044-70.408-34.672-88.066h0a.7.7,0,0,0-.087-.223h0c-1.238-2.959-2.13-4.953-2.4-5.535l1.8-26.35.1-1.585.235-3.368-.1-.087.1-1.56s-18.846-15.454-50.769-26.61c-1.238-.446-2.551-.879-3.851-1.3,1.6-10.661,3.715-22.7,6.476-34.424.26-1.176.545-2.316.842-3.467h0c.26-1.152.557-2.266.854-3.393.471-1.833.978-3.641,1.5-5.424,1.721-.545,3.418-1.152,5.089-1.8l.644-.248a91.384,91.384,0,0,0,55.722-106.491h0a90.877,90.877,0,0,0-15.949-33.619h0c-.57-.768-1.176-1.535-1.783-2.291s-1.337-1.6-2.018-2.365c3.579-8.135,7.8-15.875,8.148-23.787a24.381,24.381,0,0,0,0-3.009h0v-.124c-.458-5.089-2.712-10.24-7.962-15.652-7.665-7.937-18.574-11.962-29.483-13.893s-22.029-1.981-33-3.281c-18.19-2.179-35.91-7.789-54.1-9.51a128.544,128.544,0,0,0-65.418,11.144c-13.534,6.191-27.242,17.014-28.059,31.861-.669,12.271,7.875,24.035,5.721,36.157-2.142,11.912-14.277,21.286-13.212,33.334.409,4.705,2.823,8.915,5.845,12.667h0c1.04,1.238,2.142,2.477,3.281,3.715,4.408,4.668,9.262,9.151,11.726,15.033.1.248.2.5.285.743,2.093,5.807,1.152,13.15-4.024,16.481a.187.187,0,0,1,.062.087h0c.074.1.149.173.211.272a.087.087,0,0,0,0-.062,13.546,13.546,0,0,0,7.07,4.408l1.053.322c-.854.929-1.659,1.895-2.477,2.91l-.532.706a51.531,51.531,0,0,0-3.715,5.758c-.632,1.115-1.238,2.229-1.746,3.343a42,42,0,0,0-3.653,10.736c-1.325,8.2.545,16.741-1.461,24.765-2.477,9.906-10.315,17.509-14.735,26.71-8.371,17.336-3.628,37.68-1.944,56.824,2.291,26-1.424,52.119-5.126,77.949q-2.947,20.6-5.894,41.247L262.122,841.811c-1.808,12.655-3.95,26-12.383,35.773h.087a.109.109,0,0,1-.087.1,25.88,25.88,0,0,0,7.974,2.055h0c11.008,1.1,22.673-4.222,32.579-10.042a153.946,153.946,0,0,0,22.2-15.59q-1.523,5.573-3.269,12.123a.687.687,0,0,1,0,.124h0c-13.98,53.245-36.467,150.858-36.467,150.858s-2.043,4.247-4.693,10.575H617.258c-4.086-4.953-7.888-9.7-10.86-13.522ZM346.647,520.208c.087-.149.149-.285.235-.421v2.687h0a9.164,9.164,0,0,1-.2,1.523v.111l1.238.458,1.436.594h0q12.729,5.027,25.781,9.1c.892.285,1.8.557,2.7.817l.186,1.536c.223,1.572.433,3.17.631,4.767v.124c.557,4.421,1.1,8.829,1.585,13.138,0,0-22.735-8.668-22.45,4.495a6.437,6.437,0,0,0,0,.706,5.866,5.866,0,0,0,0,.941c.21,10.253,3.418,16.333,4.061,19.453a.88.88,0,0,1-.2.347,6.773,6.773,0,0,0-.545,3.826,37.621,37.621,0,0,0,.52,6.612c-.669.409-1.325.817-1.981,1.238h0c-.5.31-.966.656-1.449,1a183.877,183.877,0,0,0-11.875-30.61c-3.405-7.009-7.231-14.314-7.194-22a12.423,12.423,0,0,1,.062-1.511,26,26,0,0,1,1.263-6.55c.285-.8.594-1.6.941-2.378a58.316,58.316,0,0,1,2.712-5.424h0c.644-1.164,1.325-2.315,1.981-3.48.211-.347.409-.706.607-1.052ZM902.629,249.436c-.173-.3-.3-.594-.433-.867h0c0-.124-.124-.223-.173-.347a7.744,7.744,0,0,1-.83.334c-.545.211-1.1.409-1.671.57s-.8.248-1.238.347l-1.1.285.1.223c.458-.1.9-.186,1.362-.31l.124,1.535c.52,0,1-.074,1.474-.074h3.145C903.124,250.576,902.852,249.994,902.629,249.436Z" transform="translate(-11.002 -58.66)" fill="url(#linear-gradient-2)"/>
    <path id="Path_302" data-name="Path 302" d="M569.248,360.878l-7.43,3.281S513.39,552.3,513.39,567.507s102.69,99.817,102.69,99.817L632.1,559.174S609.1,311.161,569.248,360.878Z" transform="translate(51.817 11.775)" fill="#e8f5ff"/>
    <path id="Path_303" data-name="Path 303" d="M756.545,339.629l-42.906-22.388a85.945,85.945,0,0,0-12.581-28.666c-6.278-9.064-14.624-17.967-25.025-22.611-26.289-11.788,111.2-73.665,111.2-73.665a223.636,223.636,0,0,0,7.64,21.917c7.083,17.484,18.834,40.1,33.978,46.534C854.591,271.71,756.545,339.629,756.545,339.629Z" transform="translate(89.774 -26.821)" fill="#ffc1c7"/>
    <path id="Path_304" data-name="Path 304" d="M794.869,214.217a102.5,102.5,0,0,1-93.811,74.358c-6.278-9.064-14.624-17.967-25.025-22.611-26.289-11.788,111.2-73.665,111.2-73.665a223.6,223.6,0,0,0,7.64,21.917Z" transform="translate(89.774 -26.821)" opacity="0.1"/>
    <path id="Path_305" data-name="Path 305" d="M813.9,204.477a101.959,101.959,0,1,1-29.867-72.559A102.447,102.447,0,0,1,813.9,204.477Z" transform="translate(74.603 -48.323)" fill="#ffc1c7"/>
    <path id="Path_306" data-name="Path 306" d="M759.2,245.584l-27.935,65.182-24.641,43.265H627.747L604.74,294.879l9.324-61.344h60.242l38.894-2.192,13.138-4.383,8.47,4.8Z" transform="translate(144.09 54.074)" fill="#575a89"/>
    <path id="Path_307" data-name="Path 307" d="M791.659,230.5s17.422,3.715,1.82,16.506-69.43,53.468-69.43,53.468,18.908,16.84,15,36.566l62.644-34.919,11.145-55.871S814.084,229.459,791.659,230.5Z" transform="translate(102.011 -17.731)" opacity="0.1"/>
    <path id="Path_308" data-name="Path 308" d="M744.064,287l-39.847,6.575s8.222,30.4,4.111,39.03a5.8,5.8,0,0,0-.31.83L691.76,377.381l12.185,34.511,42.175-57.518-14.376-21.769s15.194-20.134,24.233-27.118S744.064,287,744.064,287Z" transform="translate(94.317 -4.258)" opacity="0.1"/>
    <path id="Path_309" data-name="Path 309" d="M744.064,285.63l-39.847,6.563s8.222,30.4,4.111,39.03a5.8,5.8,0,0,0-.31.83L691.76,376l12.185,34.511,42.175-57.555-14.376-21.769s15.194-20.134,24.233-27.118S744.064,285.63,744.064,285.63Z" transform="translate(94.317 -4.584)" fill="#dce6f2"/>
    <path id="Path_310" data-name="Path 310" d="M793.331,227.849s17.422,3.715,1.808,16.506S724.05,301.1,724.05,301.1s20.543,13.559,16.642,33.272l62.644-34.907L814.481,243.6S815.719,226.809,793.331,227.849Z" transform="translate(102.011 -18.362)" fill="#575a89"/>
    <path id="Path_311" data-name="Path 311" d="M706.657,273.18s3.8,7.108,20.58,19.924c0,0-27.935,14.859-17.249,35.749l-42.733-11.144-6.575-20.543Z" transform="translate(86.912 -7.55)" opacity="0.1"/>
    <path id="Path_312" data-name="Path 312" d="M705.325,271.86s3.8,7.108,20.58,19.924c0,0-27.935,14.785-17.249,35.736l-42.72-11.144-6.575-20.53Z" transform="translate(86.597 -7.865)" fill="#575a89"/>
    <path id="Path_313" data-name="Path 313" d="M816.142,303.319,788.206,368.5l-24.592,43.265H684.687L661.68,352.615l9.312-61.344h16.754c-.272,14.314,4.953,31.13,4.619,37.383-.57,10.278,15.33,65.727,15.33,65.727s33.272-53.815,46.41-58.607c8.259-3.009,25.756-28.047,37.631-46.274Z" transform="translate(87.15 -3.662)" opacity="0.1"/>
    <path id="Path_314" data-name="Path 314" d="M952.184,651.04l-2.836,3.566s20.543,103.111,14.859,126.526a66.467,66.467,0,0,0-1.647,12.853v.186c-1,23.824,6.191,54.744,6.191,54.744s5.745,91.137,2.476,128.619H586.6c-2.254-55.425-4.681-127.232-2.477-135.194,3.715-13.138,11.144-60.8,11.144-60.8l.817-22.586s0-21.831.669-46.15c.285-10.934.706-22.413,1.313-32.591.78-12.8,1.87-23.589,3.368-28.889a63.67,63.67,0,0,0,1.585-12.234,6.321,6.321,0,0,1,.074-1.176c0-1.238.124-2.576.173-3.95v-1.238c.235-7.974.149-17.435-.111-27.242v-1.622c-.211-7.355-.52-14.859-.867-21.992-1.077-22.289-2.476-41.135-2.476-41.135L552.57,384.218,565.3,352.865l35.328-21.645,65.319-39.439c31.86-26.189,52.837-23.044,60.836-20.171a21.142,21.142,0,0,1,2.279.929c.248.124.446.223.631.334a5.241,5.241,0,0,1,.731.421h0a15.083,15.083,0,0,0-5.547,4.569,20.209,20.209,0,0,0-3.43,7.43,34.569,34.569,0,0,0-.879,5.064c-.161,1.8-.223,3.653-.223,5.523a95.779,95.779,0,0,0,1.052,12.246v.272c.409,2.9.916,5.733,1.412,8.4a.565.565,0,0,0,0,.136c.57,3.108,1.139,5.981,1.523,8.457.074.446.136.854.2,1.238a28.323,28.323,0,0,1,.384,4.953,60.187,60.187,0,0,0,1.61,11.887c.322,1.635.693,3.38,1.1,5.2.557,2.476,1.164,5.176,1.82,7.925.359,1.511.743,3.071,1.139,4.619.149.619.309,1.238.458,1.87l.248.978c2.637,10.488,5.5,20.927,7.256,27.242,1.04,3.715,1.7,6.006,1.7,6.006s18.648-30.152,33.532-47.314c.223-.248.421-.483.631-.706,1.474-1.7,2.922-3.244,4.309-4.606,3.034-3.021,5.758-5.176,7.95-5.968a8.666,8.666,0,0,0,1.35-.632c6.092-3.455,15.924-16,25.125-29.136.9-1.238,1.783-2.588,2.675-3.863,2.043-2.947,4.024-5.906,5.894-8.742,1.437-2.167,2.811-4.272,4.111-6.278,6.192-9.634,10.55-16.816,10.55-16.816l8.594-.384,1.5-.074h1l39.018-1.808s1.684.285,4.458.842a.792.792,0,0,1,.458.1c13.844,2.749,52.3,11.454,54.657,23.527,2.873,14.785,64.91,34.51,64.91,34.51.817,9.906,16.011,16.432,16.011,16.432s23.007,60.8,16.853,84.623c-6.08,23.527,15.825,81.726,16.407,83.36h0l-4.2,5.3Z" transform="translate(61.153 -8.37)" fill="#e8f5ff"/>
    <path id="Path_315" data-name="Path 315" d="M788.674,227.5s37.978-10.773,46.608,11.4,27.935,111.741,27.935,111.741-50.125,9.448-63.263,0a37.855,37.855,0,0,0-26.71-6.984L744.9,362.97l-8.371-2.477s45.345-67.411,55.2-90.319S804.919,237.026,788.674,227.5Z" transform="translate(104.984 -19.057)" opacity="0.1"/>
    <path id="Path_316" data-name="Path 316" d="M787.334,223.5s38-10.773,46.67,11.4S861.94,346.649,861.94,346.649s-50.113,9.448-63.263,0a37.816,37.816,0,0,0-26.7-6.984l-28.369,19.3-8.371-2.477s45.345-67.411,55.2-90.319S803.58,233.05,787.334,223.5Z" transform="translate(104.677 -20.01)" fill="#e8f5ff"/>
    <path id="Path_317" data-name="Path 317" d="M571.525,511.55s28.344,6.984,33.693,23.007-20.952,16.432-20.952,16.432S568.244,522.645,571.525,511.55Z" transform="translate(65.564 49.245)" opacity="0.1"/>
    <path id="Path_318" data-name="Path 318" d="M667.436,607.09s-69.417,142.141-53.394,155.7S667.436,607.09,667.436,607.09Z" transform="translate(75.227 72.009)" opacity="0.1"/>
    <path id="Path_319" data-name="Path 319" d="M734,522.5s55.462,138.067,44.367,159.39,23.824,0,23.824,0Z" transform="translate(104.382 51.854)" opacity="0.1"/>
    <path id="Path_320" data-name="Path 320" d="M823.823,632.64s-187.325,9.04-132.681,67.374,166.782,2.477,166.782,2.477Z" transform="translate(91.79 78.097)" fill="#ffc1c7"/>
    <path id="Path_321" data-name="Path 321" d="M813.244,204.475a101.961,101.961,0,0,1-7.764,39.154c-1.721.2-3.442.322-5.1.4-2.477-5.436-1.152-11.714-1.1-17.695s-2.155-13.014-7.912-14.624c-11.479-3.232-19.4,18.227-30.721,14.351-8.668-2.947-6.4-16.1-11.392-23.688-3.95-6.006-11.863-7.7-18.017-11.466-13.088-8.036-12.692-20.89-18.772-33.049-6.365-12.742-19.812-8.977-31.489-1.461-8.866,5.721-16.518,13.386-26,17.942-8.21,3.962-17.435,5.4-26.536,5.609a58.31,58.31,0,0,1-16.642-1.758,102.442,102.442,0,0,1,201.441,26.288Z" transform="translate(75.263 -48.32)" opacity="0.1"/>
    <path id="Path_322" data-name="Path 322" d="M685.085,161.681c-8.878,5.721-16.518,13.373-26,17.955-8.21,3.95-17.435,5.386-26.536,5.6-11.144.248-23.143-1.709-30.758-9.758-7-7.43-8.668-18.859-5.708-28.6s10.055-17.831,18.388-23.688,18-9.906,23.527-18.289c2.922-4.433,4.334-9.658,6.761-14.376,7.764-15.094,25.224-23.267,42.1-24.282s33.607,4.012,49.679,9.46S768.8,87.137,785.769,88.264c7.553.471,15.4,0,22.412,2.86,9.423,3.826,15.6,12.977,19.812,22.289,4.718,10.5,7.652,21.967,7.157,33.433-1.04,24.481-17.212,48.5-10.1,71.956,1.882,6.253,5.411,12.667,3.529,18.921-2.749,9.126-14.525,11.206-24.047,11.64-2.477-5.436-1.152-11.726-1.1-17.695s-2.154-13.014-7.9-14.624c-11.491-3.207-19.416,18.215-30.709,14.352-8.606-2.959-6.377-16.1-11.38-23.688-3.95-6.018-11.875-7.7-18.017-11.466-13.088-8.036-12.692-20.89-18.772-33.049C710.235,150.388,696.775,154.152,685.085,161.681Z" transform="translate(71.187 -56.89)" fill="#99607e"/>
    <path id="Path_323" data-name="Path 323" d="M524.846,527.3,515.4,530.6s3.715,55.871-8.668,71.894S547.4,658.349,547.4,658.349s72.711-.409,74.767-6.191-3.715-103.519-3.715-103.519S579.417,533.433,582.7,509.2c0,0-11.912,57.1-29.57,54.632S515.423,546.62,524.846,527.3Z" transform="translate(49.784 48.686)" fill="#e8f5ff"/>
    <ellipse id="Ellipse_29" data-name="Ellipse 29" cx="24.926" cy="22.797" rx="24.926" ry="22.797" transform="translate(581.218 584.211)" opacity="0.1"/>
    <path id="Path_324" data-name="Path 324" d="M585.3,548.7s-4.953-151.168-48.07-117.487-43.537,73.962-35.328,85.861,34.535,71.473,34.535,71.473h0a30.127,30.127,0,0,0,44.578-19.812Z" transform="translate(48.095 28.937)" fill="#ffc1c7"/>
    <path id="Path_325" data-name="Path 325" d="M850.15,216.68a3.642,3.642,0,0,0-1.115-1.709c-2.13-1.944-6.712-2.625-13.621-2.031l.285,3.269c9.213-.792,11.033,1.04,11.268,1.35v.31l.285.409a13.819,13.819,0,0,1,2.477,10.9c-2.018,10.092-14.413,18.128-14.537,18.215l-.3.173-.186.285c-5.349,7.937-35.6,30.338-43.513,36.133l-.693-.792c-3.541,3.071-34.671,30.325-36.355,40.764-1.09,6.55-8.47,9.089-11.144,9.795-2.823-2.142-11.986-9.436-16.754-17.608-4.47-7.69,13.522-22.7,15.107-28.554l-2.476-2.538c-.26.941-23.366,22.536-16.94,33.569,5.151,8.854,14.562,16.432,17.856,18.933-1.052,9.559-7.6,65.69-17.67,78.989-12.506,16.531-23.02,99.842-21.856,128.928,1.028,25.843-5.721,74.655-28.257,95.619a36.12,36.12,0,0,1-29.805,9.906h-.545c-.322,0-33.012,3.343-60.477-19.812-22.475-18.908-35.2-49.766-37.854-91.743h-.545l-.223-12.222a23.836,23.836,0,1,0-3.554.285h.272l.223,12.147-1.09.074c2.724,43.339,16.1,75.4,39.624,95.2a91.632,91.632,0,0,0,63.907,20.914,46.034,46.034,0,0,0,4.953.272,40.616,40.616,0,0,0,28.48-11.454c23.737-22.1,30.957-72.711,29.83-99.433-1.238-30.821,9.795-111.135,20.865-125.758,10.847-14.352,17.422-70.272,18.574-81.107,3.925-1.1,12.8-4.582,14.314-13.621,1.09-6.538,21.88-26.685,34.672-37.841l-.384-.446c6.885-5.027,28.294-20.877,38.906-31.056,3.294-3.158,6.563-6.315,9.98-9.324,4.111-3.64,9.337-9.423,10.711-16.258A16.9,16.9,0,0,0,850.15,216.68Z" transform="translate(52.213 -21.953)" opacity="0.1"/>
    <path id="Path_326" data-name="Path 326" d="M700.089,323.169c-.52-.359-12.853-9.188-19.032-19.812-6.414-11.033,16.692-32.616,16.94-33.557l2.477,2.538c-1.573,5.845-19.565,20.865-15.095,28.542,5.634,9.7,17.5,18.178,17.621,18.264Z" transform="translate(91.499 -8.356)" fill="#353146"/>
    <path id="Path_327" data-name="Path 327" d="M737.132,286.7l-1.932-2.662c.4-.285,39.29-28.418,45.42-37.519l.2-.272.285-.186c.124-.087,12.519-8.111,14.537-18.215a13.732,13.732,0,0,0-2.476-10.884l-.285-.421v-.3c-.248-.322-2.068-2.142-11.281-1.35l-.285-3.281c6.922-.594,11.491.087,13.621,2.031a3.714,3.714,0,0,1,1.127,1.721,16.915,16.915,0,0,1,2.8,13.138c-1.374,6.848-6.588,12.63-10.711,16.258-3.405,3.009-6.687,6.191-9.968,9.324C765.736,266.007,738.494,285.72,737.132,286.7Z" transform="translate(104.668 -22.27)" fill="#e8f5ff"/>
    <rect id="Rectangle_57" data-name="Rectangle 57" width="3.281" height="19.948" transform="translate(589.894 501.01) rotate(-1.05)" fill="#e8f5ff"/>
    <circle id="Ellipse_30" data-name="Ellipse 30" cx="23.96" cy="23.96" r="23.96" transform="translate(565.666 456.05)" fill="#de1a51"/>
    <circle id="Ellipse_31" data-name="Ellipse 31" cx="19.899" cy="19.899" r="19.899" transform="translate(569.727 460.112)" fill="#e8f5ff"/>
    <path id="Path_328" data-name="Path 328" d="M641.145,641.264a45.981,45.981,0,0,1-4.953-.26,91.767,91.767,0,0,1-63.907-20.914c-23.527-19.812-36.876-51.834-39.625-95.21l4.953-.31c2.65,41.977,15.379,72.847,37.866,91.743,27.465,23.094,60.143,19.812,60.465,19.812h.545a36.194,36.194,0,0,0,29.817-9.906c22.524-20.964,29.273-69.776,28.245-95.619-1.238-29.112,9.275-112.422,21.794-128.941,10.959-14.475,17.757-79.72,17.831-80.376l.186-1.857,1.833-.322c.112,0,10.81-2.031,12.147-10.03,1.734-10.426,32.814-37.68,36.343-40.764l3.232,3.715c-12.841,11.144-33.631,31.3-34.672,37.854-1.511,9.064-10.389,12.531-14.3,13.621-1.238,10.847-7.764,66.755-18.574,81.107-11.07,14.624-22.1,94.938-20.865,125.758,1.065,26.722-6.08,77.342-29.817,99.433A40.628,40.628,0,0,1,641.145,641.264Z" transform="translate(56.409 -8.711)" fill="#353146"/>
    <g id="Group_22" data-name="Group 22" transform="translate(666.926 88.235)" opacity="0.1">
      <path id="Path_329" data-name="Path 329" d="M783,165.49c2.031-7.5,4.483-15.057,6.191-22.66C787.148,150.47,784.684,157.986,783,165.49Z" transform="translate(-550.869 -126.844)"/>
      <path id="Path_330" data-name="Path 330" d="M806.951,227.533c-2.477-5.436-1.152-11.726-1.1-17.695s-2.155-12.952-7.9-14.624c-11.491-3.207-19.416,18.227-30.709,14.352-8.668-2.959-6.377-16.1-11.38-23.688-3.95-6.018-11.863-7.7-18-11.466-13.1-8.036-12.7-20.89-18.772-33.049-6.377-12.754-19.812-8.99-31.5-1.461-8.878,5.721-16.519,13.386-26,17.955-8.21,3.95-17.435,5.386-26.536,5.6-11.083.26-23.143-1.709-30.759-9.758-5.869-6.191-7.987-15.268-6.773-23.775-.21.582-.4,1.164-.582,1.746-2.972,9.745-1.238,21.2,5.708,28.6,7.615,8.049,19.676,10.005,30.759,9.758,9.114-.211,18.327-1.647,26.549-5.6,9.51-4.582,17.15-12.234,26-17.955,11.689-7.529,25.137-11.293,31.5,1.461,6.068,12.16,5.684,25.013,18.772,33.049,6.191,3.715,14.054,5.448,18.017,11.466,4.953,7.615,2.761,20.729,11.38,23.688,11.281,3.863,19.206-17.559,30.7-14.352,5.746,1.61,7.962,8.668,7.9,14.624s-1.35,12.259,1.1,17.695c9.522-.433,21.3-2.477,24.06-11.64a13.343,13.343,0,0,0,.52-4.049C825.871,225.366,815.519,227.149,806.951,227.533Z" transform="translate(-595.536 -129.92)"/>
    </g>
    <path id="Path_331" data-name="Path 331" d="M986.283,481.991l14.376,15.206s11.5,83.794,17.249,91.632,19.317,39.018,6.575,62.433c0,0-4.111,12.742-1.647,18.079s-18.475,32.046-18.475,32.046-27.527,24.641-33.285,28.344S934.932,763,924.667,763.412s-13.621,13.15-13.621,13.15l-57.926,2.056s-32-1.672-38.956,2.848c0,0,3.715-48.887-32.034-80.933L827.723,684.1s17.261-7.43,22.6-15.193a27.9,27.9,0,0,1,13.621-10.265s12.729-9.039,13.138-13.968S892.645,633.7,892.645,633.7l-8.581-73.244,4.52-121.6s14.376-101.885,44.776-96.127S986.283,481.991,986.283,481.991Z" transform="translate(115.85 8.966)" opacity="0.1"/>
    <path id="Path_332" data-name="Path 332" d="M990.283,481.991,1004.66,497.2s11.5,83.794,17.249,91.632,19.317,39.018,6.575,62.433c0,0-4.1,12.742-1.635,18.079s-18.487,32.046-18.487,32.046-27.527,24.641-33.285,28.344S938.932,763,928.667,763.412s-13.621,13.15-13.621,13.15l-57.926,2.056s-32.022-1.672-38.956,2.848c0,0,3.715-48.887-32.034-80.933L831.723,684.1s17.261-7.43,22.6-15.193a27.9,27.9,0,0,1,13.621-10.265s12.729-9.039,13.138-13.968S896.646,633.7,896.646,633.7l-8.581-73.244,4.52-121.6s14.376-101.885,44.776-96.127S990.283,481.991,990.283,481.991Z" transform="translate(116.802 8.966)" fill="#e8f5ff"/>
    <path id="Path_333" data-name="Path 333" d="M907.84,555.176s42.312-11.144,53.407,2.477S907.84,555.176,907.84,555.176Z" transform="translate(145.802 58.617)" opacity="0.1"/>
    <path id="Path_334" data-name="Path 334" d="M899.88,569.44c14.376,10.067,58.743,10.476,58.743,10.476Z" transform="translate(143.906 63.039)" opacity="0.1"/>
    <path id="Path_335" data-name="Path 335" d="M917.46,610.08c1.238.409,30.5,31.638,42.782,22.19S917.46,610.08,917.46,610.08Z" transform="translate(148.094 72.722)" opacity="0.1"/>
    <path id="Path_336" data-name="Path 336" d="M599.22,398.42s8.594,59.164,4.359,83.261S614.8,535.632,614.8,535.632Z" transform="translate(72.268 22.29)" opacity="0.1"/>
    <path id="Path_337" data-name="Path 337" d="M468.187,420.017c-9.906,7.764-17.138,26.14-22.375,46.336-9.138,35.229-12.123,76.079-12.123,76.079s-78.878-18.079-73.132-26.288c3.616-5.164-1.238-44.07-5.287-72.278-2.415-16.667-4.569-29.607-4.569-29.607S495.3,398.644,468.187,420.017Z" transform="translate(13.054 24.753)" fill="#ffccd0"/>
    <path id="Path_338" data-name="Path 338" d="M468.187,418.686c-9.906,7.776-17.138,26.14-22.375,46.336a91.013,91.013,0,0,1-90.542-22.475c-2.415-16.68-4.569-29.619-4.569-29.619S495.3,397.326,468.187,418.686Z" transform="translate(13.054 24.437)" opacity="0.1"/>
    <path id="Path_339" data-name="Path 339" d="M514.934,398.33a91.236,91.236,0,1,1-20.072-57.059A91.235,91.235,0,0,1,514.934,398.33Z" transform="translate(8.705 0.537)" fill="#ffccd0"/>
    <path id="Path_340" data-name="Path 340" d="M543.766,859.844h-26l-2.192-45.927-2.291-47.537s5.907-.879,15.317-2.192l3.8-.508h.31c2.056,9.646,4.086,19.552,6.043,29.446a302.594,302.594,0,0,1,5.065,53.245c0,1.238,0,2.476,0,3.641C543.89,853.318,543.816,856.624,543.766,859.844Z" transform="translate(51.791 109.32)" opacity="0.1"/>
    <path id="Path_341" data-name="Path 341" d="M596.62,925.294H270.51c1.412-3.207,2.353-5.151,2.353-5.151S298.953,806,312.215,757.707a.626.626,0,0,0,0-.124,193.159,193.159,0,0,1,5.993-19.379h0a6.658,6.658,0,0,1,.582-1.238c6.563-10.674,14.785-22.177,3.281-38.609s-7.43-88.734-7.43-88.734,13.968-61.629,28.753-94.492a44.206,44.206,0,0,1,9.386-13.621,38.364,38.364,0,0,1,4.111-3.492h0a36.1,36.1,0,0,1,3.442-2.291l.235-.149A49.679,49.679,0,0,1,380.79,489.3a57.691,57.691,0,0,1,15.169.421c23.973,3.517,43.166,9.4,58.421,16.1,41.346,18.165,53.865,42.51,54.112,43.018h0l.1.21c1.659,3.876,25.929,60.539,34.672,86.976,2.266,6.885,3.5,11.727,3.009,13.051-2.477,6.563,18.9,88.722,18.9,88.722s9.906,39.624,19.812,86.072c.433,1.932.842,3.863,1.238,5.82,1.771,8.432,3.529,17.026,5.225,25.607a301.017,301.017,0,0,1,5.065,53.617Q596.781,917.32,596.62,925.294Z" transform="translate(-6.053 43.87)" fill="#ff748e"/>
    <path id="Path_342" data-name="Path 342" d="M362.277,466.959s-22.5-8.668-22.227,4.483,5.485,19.441,3.839,21.36.817,13.423.817,13.423,30.4,0,44.367,6.29,65.455,18.9,72.03,22.735S492.06,556.3,492.06,556.3l2.192-32.591s-25.2-20.815-66.545-31.489S362.277,466.959,362.277,466.959Z" transform="translate(10.516 37.953)" opacity="0.1"/>
    <path id="Path_343" data-name="Path 343" d="M362.277,465.629s-22.5-8.668-22.227,4.482,5.485,19.441,3.839,21.36.817,13.423.817,13.423,30.4,0,44.367,6.3,65.455,18.9,72.03,22.722,30.957,21.05,30.957,21.05l2.216-32.492s-25.2-20.815-66.545-31.489S362.277,465.629,362.277,465.629Z" transform="translate(10.516 37.636)" fill="#ff748e"/>
    <path id="Path_344" data-name="Path 344" d="M412.85,528.43s42.993,46.547,40.8,59.437S412.85,528.43,412.85,528.43Z" transform="translate(27.862 53.268)" opacity="0.1"/>
    <path id="Path_345" data-name="Path 345" d="M443.151,741.85s-16.7,33.966-7.665,31.774S443.151,741.85,443.151,741.85Z" transform="translate(32.616 104.119)" fill="none"/>
    <path id="Path_346" data-name="Path 346" d="M364.829,664.22s-31.514,29.037-40.8,30.684,7.12,7.12,17.794,2.749,33.433-15.875,33.433-15.875Z" transform="translate(6.045 85.622)" opacity="0.1"/>
    <path id="Path_347" data-name="Path 347" d="M568.749,860.406H495.258c-10.278-8.915-20-17.175-26.189-22.14-9.906-7.95-17.051-19.651-21.608-29.062-1.028-2.142-1.919-4.148-2.675-5.969a99.588,99.588,0,0,1-3.566-9.6l54.422-32.319a85.085,85.085,0,0,1,8.457,8.271l.656.755c3.021,3.566,5.684,7.615,5.919,10.934.273,3.863,11.021,18.809,22,33.161,11.144,14.6,22.561,28.554,23.317,29.5h0s1.882,2.563,4.953,6.5C563.115,853.286,565.79,856.7,568.749,860.406Z" transform="translate(34.622 108.757)" fill="#ffccd0"/>
    <path id="Path_348" data-name="Path 348" d="M494.853,341.262c-2.613,5.894-4.953,12.011-5.3,18.574-.978,18.945.607,61.307-20.37,70.816-10.389,4.681-21.509-5.6-32.9-5.845-8.2-.173-15.714,5.027-20.716,11.528s-8.111,14.215-11.739,21.571a147.335,147.335,0,0,1-11.38,19.193,48.294,48.294,0,0,1-4.21,5.312,91.211,91.211,0,1,1,106.615-141.1Z" transform="translate(8.714 0.546)" opacity="0.1"/>
    <path id="Path_349" data-name="Path 349" d="M506.6,363.769c-.991,18.945.607,61.307-20.382,70.8-10.389,4.681-21.509-5.585-32.9-5.832-8.2-.186-15.7,5.027-20.716,11.516s-8.1,14.215-11.739,21.583a147.646,147.646,0,0,1-11.38,19.193c-2.551,3.616-5.374,7.244-9.3,9.275-6.835,3.566-15.119,1.56-22.45-.731q-14.265-4.495-28.109-10.129a28.345,28.345,0,0,0,.322-4.21c-.272.52-.57,1-.867,1.523l-.582,1.015c-1.053,1.857-2.08,3.715-3.021,5.622-.359.73-.706,1.486-1.015,2.241a28.485,28.485,0,0,0-2.316,8.866c-.632,8.259,3.442,16.1,7.058,23.527,13.906,28.74,22.5,62.347,12.036,92.5-4.532,13.113-12.383,24.765-18.116,37.433a120.942,120.942,0,0,0-8.457,71.547c2.86,15.008,8.594,29.867,7.182,45.085-2.477,26.189-25.062,45.68-47.686,59.078-12.222,7.207-27.18,13.621-40.157,7.925,8.272-9.658,10.4-23.019,12.185-35.625q7.318-51.574,14.673-103.2,2.935-20.543,5.857-41.086c3.641-25.731,7.331-51.747,5.052-77.639-1.659-19.082-6.34-39.34,1.932-56.614,4.371-9.151,12.16-16.729,14.587-26.586,1.994-8.012.136-16.531,1.449-24.691a42.033,42.033,0,0,1,3.616-10.7,52.567,52.567,0,0,1,8.3-12.655c-3.319-.966-6.414-2.291-8.3-5.064,5.325-3.467,6.129-11.281,3.715-17.15s-7.244-10.34-11.59-14.971-8.532-10.03-9.077-16.345c-1.053-12.024,10.959-21.335,13.076-33.2,2.142-12.073-6.328-23.812-5.646-36.034.792-14.773,14.364-25.508,27.762-31.737a126.3,126.3,0,0,1,64.737-11.144c18.054,1.709,35.526,7.293,53.53,9.46,10.86,1.238,21.868,1.362,32.653,3.269s21.6,5.931,29.186,13.844C531.716,324.6,507.743,341.777,506.6,363.769Z" transform="translate(-9.984 -6.73)" fill="#ffe0d0"/>
    <path id="Path_350" data-name="Path 350" d="M473.051,860.583c-6.315-2.737-17.806-1.1-37.532-7.108s-23.527-33.148-23.527-33.148v-.087h0c-.235-.619-2.068-4.656-14.475-18.8-13.708-15.615-43.339-94.48-43.339-94.48s-26.276-28.22-25.446-38.621-4.668-38.077-4.123-69.033,59.152-51.487,59.152-51.487c112.843-20,86.27,110.094,83.261,119.951s12.606,36.479,12.606,36.479c-2.2,11.59,9.039,29.533,9.039,29.533s2.724,15.875,3.281,21.905a3.717,3.717,0,0,0,.186.817c1.808,5.684,16.543,10.835,22.536,13.968,6.3,3.294,26.573,32.046,26.573,32.046C545.613,823.633,479.341,863.357,473.051,860.583Z" transform="translate(6.828 57.391)" opacity="0.1"/>
    <path id="Path_351" data-name="Path 351" d="M475.7,856.571c-6.3-2.749-17.806-1.1-37.52-7.12s-23.527-33.136-23.527-33.136v-.087h0c-.223-.631-2.068-4.656-14.475-18.8-13.708-15.615-43.339-94.492-43.339-94.492s-26.276-28.208-25.459-38.609-4.656-38.077-4.111-69.009,59.115-51.45,59.115-51.45c112.843-20,86.27,110.094,83.261,119.951S482.249,700.3,482.249,700.3c-2.2,11.59,9.039,29.533,9.039,29.533s2.724,15.875,3.294,21.905a3.107,3.107,0,0,0,.173.817c1.808,5.684,16.543,10.835,22.549,13.968,6.29,3.281,26.573,32.046,26.573,32.046C548.273,819.646,482,859.37,475.7,856.571Z" transform="translate(7.461 56.449)" fill="#ff748e"/>
    <path id="Path_352" data-name="Path 352" d="M376.8,598.32s49.3,52.007,62.161,52.007S376.8,598.32,376.8,598.32Z" transform="translate(19.273 69.92)" opacity="0.1"/>
    <path id="Path_353" data-name="Path 353" d="M458.877,816.024c-6.3-2.749-17.806-1.1-37.52-7.12s-23.527-33.136-23.527-33.136v-.087h0c13.064-8.668,46.15-33.148,59.189-42.1,9.176-6.278,16.667-15.5,21.051-21.62,1.808,5.684,16.543,10.835,22.549,13.968,6.29,3.281,26.573,32.046,26.573,32.046C531.451,779.1,465.179,818.822,458.877,816.024Z" transform="translate(24.283 96.997)" fill="#ff748e"/>
    <g id="Group_23" data-name="Group 23" transform="translate(244.026 293.689)" opacity="0.1">
      <path id="Path_354" data-name="Path 354" d="M302,407.062c.062.1.149.186.223.285.372-.471.755-.941,1.152-1.387a9.24,9.24,0,0,1-1.374,1.1Z" transform="translate(-242.576 -269.602)"/>
      <path id="Path_355" data-name="Path 355" d="M342.162,457.66c.52-6.872,4.2-12.928,7.64-18.97-2.254-.867-4.507-1.746-6.736-2.662a28.049,28.049,0,0,0,.322-4.2c-3.479,6.191-7.269,12.284-7.8,19.255-.632,8.272,3.442,16.1,7.058,23.527,13.918,28.728,22.5,62.334,12.036,92.5-4.544,13.1-12.383,24.765-18.116,37.433a120.892,120.892,0,0,0-8.445,71.535c2.836,15.02,8.581,29.867,7.169,45.085-2.477,26.189-25.05,45.68-47.686,59.065-9.25,5.473-20.06,10.488-30.4,10.129a37.456,37.456,0,0,1-3.195,4.4c12.989,5.733,27.935-.718,40.157-7.949,22.648-13.373,45.271-32.814,47.747-59.053,1.412-15.218-4.334-30.065-7.182-45.085a120.991,120.991,0,0,1,8.42-71.535c5.7-12.655,13.621-24.332,18.116-37.433,10.463-30.164,1.87-63.771-12.036-92.5C345.629,473.721,341.531,465.932,342.162,457.66Z" transform="translate(-254.01 -263.438)"/>
      <path id="Path_356" data-name="Path 356" d="M493.282,299.307a35.78,35.78,0,0,0-3.913-3.467c15.008,19.466-6.662,36.009-7.739,56.96-.966,18.945.619,61.319-20.37,70.8-10.377,4.693-21.509-5.585-32.888-5.832-8.21-.173-15.714,5.04-20.729,11.528s-8.1,14.215-11.726,21.57a148.308,148.308,0,0,1-11.392,19.193c-2.477,3.628-5.374,7.244-9.312,9.287-6.81,3.554-15.095,1.56-22.437-.743q-10.711-3.368-21.224-7.43a26.779,26.779,0,0,1-.322,3.851q13.856,5.647,28.121,10.129c7.331,2.3,15.615,4.3,22.437.743,3.925-2.043,6.773-5.671,9.312-9.3a145.866,145.866,0,0,0,11.38-19.181c3.641-7.355,6.711-15.094,11.739-21.583s12.519-11.689,20.716-11.516c11.392.248,22.524,10.525,32.9,5.832,20.989-9.485,19.391-51.859,20.37-70.8C489.344,337.322,513.317,320.16,493.282,299.307Z" transform="translate(-235.611 -295.84)"/>
    </g>
    <path id="Path_357" data-name="Path 357" d="M337.092,445.177c-1.053,1.857-2.08,3.715-3.021,5.622-.359.731-.706,1.486-1.015,2.241-6.488-6.538-22.289-22.078-31.105-26.9a52.808,52.808,0,0,1,8.3-12.655S331.26,424.6,337.092,445.177Z" transform="translate(1.438 25.881)" opacity="0.1"/>
    <path id="Path_358" data-name="Path 358" d="M337.674,444.793c-4.866-22.029-27.428-33.953-27.428-33.953a52.558,52.558,0,0,0-8.3,12.655c9.3,5.089,26.437,22.153,32.121,27.935Z" transform="translate(1.438 25.25)" fill="#ff748e"/>
  </g>
</svg>
