<svg xmlns="http://www.w3.org/2000/svg" xmlns:xlink="http://www.w3.org/1999/xlink" width="1096.019" height="790.11" viewBox="0 0 1096.019 790.11">
  <defs>
    <linearGradient id="linear-gradient" x1="0.5" y1="1.001" x2="0.5" gradientUnits="objectBoundingBox">
      <stop offset="0" stop-color="gray" stop-opacity="0.251"/>
      <stop offset="0.54" stop-color="gray" stop-opacity="0.122"/>
      <stop offset="1" stop-color="gray" stop-opacity="0.102"/>
    </linearGradient>
  </defs>
  <g id="Group_30" data-name="Group 30" transform="translate(0.01 0.003)">
    <path id="Path_603" data-name="Path 603" d="M63.3,484.53c17.343,74.126,54.056,138.2,112.069,169.3,120.59,64.546,392.531,31.249,595.48-6.993a464.74,464.74,0,0,0,264.278-151.07Z" transform="translate(-51.462 -54.986)" fill="#54a591" opacity="0.1"/>
    <path id="Path_604" data-name="Path 604" d="M1127.623,135.19h-111.36a9.62,9.62,0,1,1,0-19.241h19.251a9.63,9.63,0,0,1,0-19.251h-13.746a9.63,9.63,0,0,1,0-19.251h58.122c-12.9-5.994-27.972-10.26-45.345-12.5C876.062,44.6,819.478,58.067,799.518,71.943c-24.626,17.083-52.1,29.651-81.459,35.7-97.783,20.17-280.652,44.446-446.4-7.772-82.378-25.974-143.6,17.9-180.3,91.19H1146.954c-1.379-21.3-5.5-40.959-13.077-58.182A9.55,9.55,0,0,1,1127.623,135.19Z" transform="translate(-51.49 -54.56)" fill="#54a591" opacity="0.1"/>
    <path id="Path_605" data-name="Path 605" d="M53.838,329.66a490.621,490.621,0,0,0,4.316,129.322l977.711,35.765A459.4,459.4,0,0,0,1103.8,391.139Zm386.7,92.249H421.283a9.62,9.62,0,1,1,0,19.241H309.924a9.62,9.62,0,1,1,0-19.241h19.251a9.63,9.63,0,0,1,0-19.251H315.428a9.631,9.631,0,0,1,0-19.251h111.36a9.63,9.63,0,0,1,0,19.251h13.746a9.63,9.63,0,0,1,0,19.251Z" transform="translate(-51.45 -54.832)" fill="#54a591" opacity="0.1"/>
    <path id="Path_606" data-name="Path 606" d="M1146.967,191.84,79.545,217.814C66.558,251.191,58,288.9,54,328.035H1128.265a456.611,456.611,0,0,0,15.515-70.26C1146.977,234.787,1148.255,212.549,1146.967,191.84ZM270.705,276.916H251.454a9.62,9.62,0,1,1,0,19.241H140.095a9.62,9.62,0,1,1,0-19.241h19.251a9.63,9.63,0,0,1,0-19.251H145.6a9.63,9.63,0,0,1,0-19.251h111.36a9.63,9.63,0,0,1,0,19.251h13.746a9.63,9.63,0,0,1,0,19.251Z" transform="translate(-51.453 -54.696)" fill="#54a591" opacity="0.1"/>
    <ellipse id="Ellipse_56" data-name="Ellipse 56" cx="348.485" cy="18.861" rx="348.485" ry="18.861" transform="translate(214.577 752.384)" fill="#54a591" opacity="0.1"/>
    <path id="Path_607" data-name="Path 607" d="M904.645,687.74s5.485,7.183-2.537,17.982-14.635,19.98-11.988,26.744c0,0,12.1-20.13,21.978-20.41S915.474,699.848,904.645,687.74Z" transform="translate(-52.28 -55.187)" fill="#54a591"/>
    <path id="Path_608" data-name="Path 608" d="M904.645,687.74a9.269,9.269,0,0,1,1.119,2.248c9.61,11.3,14.725,21.838,5.495,22.1-8.611.25-18.931,15.634-21.4,19.521a7.618,7.618,0,0,0,.29.889s12.1-20.13,21.978-20.41S915.475,699.848,904.645,687.74Z" transform="translate(-52.28 -55.187)" opacity="0.1"/>
    <path id="Path_609" data-name="Path 609" d="M914.869,696.9c0,2.527-.28,4.575-.629,4.575s-.639-2.048-.639-4.575.36-1.339.709-1.339S914.869,694.371,914.869,696.9Z" transform="translate(-52.304 -55.194)" fill="#ffd037"/>
    <path id="Path_610" data-name="Path 610" d="M918.365,699.918c-2.218,1.209-4.146,1.938-4.316,1.628s1.5-1.538,3.716-2.747,1.339-.33,1.509,0S920.583,698.709,918.365,699.918Z" transform="translate(-52.304 -55.197)" fill="#ffd037"/>
    <path id="Path_611" data-name="Path 611" d="M875.628,687.74s-5.484,7.183,2.537,17.982,14.626,19.98,11.988,26.744c0,0-12.108-20.13-21.978-20.41S864.788,699.848,875.628,687.74Z" transform="translate(-52.254 -55.187)" fill="#54a591"/>
    <path id="Path_612" data-name="Path 612" d="M875.628,687.74a8.847,8.847,0,0,0-1.119,2.248c-9.611,11.3-14.736,21.838-5.495,22.1,8.6.25,18.981,15.634,21.4,19.521-.08.3-.18.589-.29.889,0,0-12.108-20.13-21.978-20.41S864.788,699.848,875.628,687.74Z" transform="translate(-52.254 -55.187)" opacity="0.1"/>
    <path id="Path_613" data-name="Path 613" d="M865.43,696.9c0,2.527.28,4.575.629,4.575s.639-2.048.639-4.575-.36-1.339-.709-1.339S865.43,694.371,865.43,696.9Z" transform="translate(-52.256 -55.194)" fill="#ffd037"/>
    <path id="Path_614" data-name="Path 614" d="M861.919,699.918c2.218,1.209,4.156,1.938,4.326,1.628s-1.5-1.538-3.716-2.747-1.339-.33-1.509,0S859.7,698.709,861.919,699.918Z" transform="translate(-52.251 -55.197)" fill="#ffd037"/>
    <path id="Path_615" data-name="Path 615" d="M867.18,731.592s15.345-.48,19.98-3.766,23.607-7.233,24.755-2,23.057,26.264,5.734,26.4-40.25-2.7-44.865-5.5S867.18,731.592,867.18,731.592Z" transform="translate(-52.258 -55.222)" fill="#a8a8a8"/>
    <path id="Path_616" data-name="Path 616" d="M917.95,750.451c-17.323.14-40.25-2.7-44.865-5.5-3.517-2.148-4.915-9.83-5.385-13.367h-.509s1,12.368,5.585,15.185,27.543,5.644,44.865,5.5c4.995,0,6.733-1.818,6.634-4.456C923.574,749.432,921.666,750.421,917.95,750.451Z" transform="translate(-52.258 -55.23)" opacity="0.2"/>
    <path id="Path_617" data-name="Path 617" d="M320.643,737.2a11.716,11.716,0,0,0,3.836-5.784c.489-2.288-.489-5-2.677-5.884-2.458-.939-5.085.769-7.083,2.487s-4.266,3.686-6.873,3.317a10.46,10.46,0,0,0,3.237-9.8,4.116,4.116,0,0,0-.9-2c-1.369-1.458-3.836-.839-5.475.31-5.195,3.656-6.643,10.719-6.673,17.063-.52-2.288-.08-4.676-.09-6.993s-.659-5-2.637-6.224a7.992,7.992,0,0,0-4-.939c-2.338-.09-4.935.15-6.533,1.848-2,2.128-1.469,5.684.26,7.992s4.346,3.806,6.753,5.415a14.986,14.986,0,0,1,4.835,4.605,5.754,5.754,0,0,1,.36.829h14.635A40.725,40.725,0,0,0,320.643,737.2Z" transform="translate(-51.68 -55.218)" fill="#54a591"/>
    <path id="Path_618" data-name="Path 618" d="M204.244,752.849s-14.046-47.663,2.627-82.738a75.286,75.286,0,0,0,6.114-47.243A126.1,126.1,0,0,0,206.3,600.71" transform="translate(-51.596 -55.101)" fill="none" stroke="#535461" stroke-miterlimit="10" stroke-width="2"/>
    <path id="Path_619" data-name="Path 619" d="M216.639,578.5c0,5.844-10.569,22.787-10.569,22.787S195.49,584.3,195.49,578.5a10.58,10.58,0,0,1,21.149,0Z" transform="translate(-51.593 -55.069)" fill="#54a591"/>
    <path id="Path_620" data-name="Path 620" d="M234.139,610.884c-3.167,4.905-21.259,13.377-21.259,13.377s.33-19.98,3.507-24.875a10.579,10.579,0,0,1,17.752,11.5Z" transform="translate(-51.61 -55.095)" fill="#54a591"/>
    <path id="Path_621" data-name="Path 621" d="M233.375,666.23c-5.215,2.627-25.105.809-25.105.809s10.37-17.073,15.585-19.7a10.578,10.578,0,1,1,9.522,18.893Z" transform="translate(-51.605 -55.146)" fill="#54a591"/>
    <path id="Path_622" data-name="Path 622" d="M223.366,707.981c-4.7,3.477-24.606,5-24.606,5s7.333-18.572,11.988-22.048a10.579,10.579,0,1,1,12.578,16.983Z" transform="translate(-51.596 -55.188)" fill="#54a591"/>
    <path id="Path_623" data-name="Path 623" d="M190.657,625.4c4.186,4.066,23.706,8.292,23.706,8.292s-4.785-19.39-8.991-23.466A10.579,10.579,0,1,0,190.637,625.4Z" transform="translate(-51.584 -55.107)" fill="#54a591"/>
    <path id="Path_624" data-name="Path 624" d="M179.564,674.37c5.215,2.627,25.105.809,25.105.809s-10.37-17.063-15.585-19.7a10.578,10.578,0,1,0-9.522,18.893Z" transform="translate(-51.571 -55.154)" fill="#54a591"/>
    <path id="Path_625" data-name="Path 625" d="M175.326,723.451c4.7,3.466,24.6,4.995,24.6,4.995S192.6,709.875,187.934,706.4a10.58,10.58,0,0,0-12.578,16.983Z" transform="translate(-51.569 -55.204)" fill="#54a591"/>
    <path id="Path_626" data-name="Path 626" d="M216.639,578.5c0,5.844-10.569,22.787-10.569,22.787S195.49,584.3,195.49,578.5a10.58,10.58,0,0,1,21.149,0Z" transform="translate(-51.593 -55.069)" fill="#54a591"/>
    <path id="Path_627" data-name="Path 627" d="M234.139,610.884c-3.167,4.905-21.259,13.377-21.259,13.377s.33-19.98,3.507-24.875a10.579,10.579,0,0,1,17.752,11.5Z" transform="translate(-51.61 -55.095)" fill="#54a591"/>
    <path id="Path_628" data-name="Path 628" d="M233.375,666.23c-5.215,2.627-25.105.809-25.105.809s10.37-17.073,15.585-19.7a10.578,10.578,0,1,1,9.522,18.893Z" transform="translate(-51.605 -55.146)" fill="#54a591"/>
    <path id="Path_629" data-name="Path 629" d="M223.366,707.981c-4.7,3.477-24.606,5-24.606,5s7.333-18.572,11.988-22.048a10.579,10.579,0,1,1,12.578,16.983Z" transform="translate(-51.596 -55.188)" fill="#54a591"/>
    <path id="Path_630" data-name="Path 630" d="M190.657,625.4c4.186,4.066,23.706,8.292,23.706,8.292s-4.785-19.39-8.991-23.466A10.579,10.579,0,1,0,190.637,625.4Z" transform="translate(-51.584 -55.107)" fill="#54a591"/>
    <path id="Path_631" data-name="Path 631" d="M179.564,674.37c5.215,2.627,25.105.809,25.105.809s-10.37-17.063-15.585-19.7a10.578,10.578,0,1,0-9.522,18.893Z" transform="translate(-51.571 -55.154)" fill="#54a591"/>
    <path id="Path_632" data-name="Path 632" d="M175.326,723.451c4.7,3.466,24.6,4.995,24.6,4.995S192.6,709.875,187.934,706.4a10.58,10.58,0,0,0-12.578,16.983Z" transform="translate(-51.569 -55.204)" fill="#54a591"/>
    <path id="Path_633" data-name="Path 633" d="M171,749.983s17.1-3.4,21.659-7.922,25.075-12.448,27.353-6.793,30.77,24.9,11.389,28.292-45.585,4.526-51.279,2.258S171,749.983,171,749.983Z" transform="translate(-51.568 -55.232)" fill="#a8a8a8"/>
    <path id="Path_634" data-name="Path 634" d="M231.43,761.458c-19.371,3.4-45.585,4.526-51.279,2.268-4.336-1.728-7.353-9.99-8.542-13.856L171,750s3.427,13.577,9.121,15.834,31.908,1.129,51.279-2.258c5.594-1,7.193-3.287,6.593-6.194C237.544,759.271,235.6,760.729,231.43,761.458Z" transform="translate(-51.568 -55.248)" opacity="0.2"/>
    <path id="Path_635" data-name="Path 635" d="M775.3,316.352c5.365-5.994,3.267-15.335,3.267-15.335s-25.315-64.516-28.122-65.225-9.85-16.983-9.85-16.983-67.5-64.166-69.931-64.166-27.073-17.722-30.23-18.072-8.092-2.128-13.367-5-58.722.36-60.83,2.837-11.988,4.256-11.988,4.256-20.04,1.059-22.857,4.605-23.547,5.425-23.547,5.425-10.2,3.8,3.646,13.876h0c-4.436.7-9.62,1.239-14.885,1.618-1.319.09-2.657.18-4,.25h-.789a13.067,13.067,0,0,0-4.915-6.6,41.223,41.223,0,0,0-4.665-2.168,37.239,37.239,0,0,1-6.913-4.745,226.557,226.557,0,0,0-32.687-21.659,15.656,15.656,0,0,0-5.824-2.188c-4.286-.41-8.112,2.6-12.308,3.606-7.373,1.768-14.805-2.727-22.388-2.8-9.471-.09-18.092,7.283-20.979,16.374-1.069,3.367-1.548,7.113-3.856,9.78-3,3.487-8.062,4-12.168,6.064a18.362,18.362,0,0,0-9.87,16.274v.08a9.416,9.416,0,0,0,.09,1.588c.47,4.276,2.448,8.222,3.9,12.278a50.78,50.78,0,0,1,2.8,12.887.657.657,0,0,1,0,.14c.06.729.11,1.459.14,2.2v2.587c0,3.816-.13,7.662-.12,11.479v2.348a13.456,13.456,0,0,0,.06,1.538v.539a13.564,13.564,0,0,0,.12,1.419,2.514,2.514,0,0,0,.05.609,10.3,10.3,0,0,0,.17,1.359l.09.639c.07.45.15.9.23,1.349l.12.619c.1.48.22,1,.34,1.439.05.17.08.33.12.5q.27,1,.6,1.918a28.152,28.152,0,0,0,18.642,17.573,17.312,17.312,0,0,0,4.945.619c3-.07,5.864-1,7.642-3.047.44.5.869,1,1.329,1.5a59.871,59.871,0,0,0,97.234-12.987c1.049-.23,2.088-.44,3.137-.639,1.818-.34,3.646-.659,5.485-1l1.768-.28h0l.7-.12c8.991-1.419,17.722-2.368,23.976-3l-24.716,3.067s-5.994,28.781-7.722,31.968,5.994,8.5,5.994,8.5,6.683,8.152,6.683,10.639,7.732,9.571,9.84,13.467a6,6,0,0,0,1,1.349,14.134,14.134,0,0,0-4.256,2.587c-4.885,4.625-3.257,12.737-5.495,19.091-1.4,4-4.326,7.233-7.143,10.38a14.162,14.162,0,0,0-2.518,3.487,8.566,8.566,0,0,0-.669,2.677h0a13.09,13.09,0,0,0-.06,1.538v.18a5.8,5.8,0,0,0,.08,1.179v.509c.49,4.176,1.908,8.212,2.338,12.388s-.09,8.382.769,12.448a18.563,18.563,0,0,0,1.379,4.106l-14.306,15.984s-.09.789-.12,2.088c-11.928,9.9-30.37,28.582-23.786,45.055q1.079,2.707,2,5.185c-4.845,3.087-6.444,6.753.819,10.41,1.149.579,2.258,1.079,3.347,1.528,3.726,10.939,5.185,13.986,11.429,5.924.669-.879,1.449-2,2.3-3.207,8.791-.18,13.876-4.246,13.876-4.246s24.606-1.419,30.969,2.487c3.187,2,10.679,2.4,17.313,2.348a181.325,181.325,0,0,0,1,21.4s-1.059,30.13,1.758,36.514,4.376,17.373,4.376,17.373-4.725,10.629-1.918,16.3-2.458,13.826-2.458,13.826v20.909l2-.14c-.15,1.409-.34,2.887-.589,4.3-.58,3.267-1.449,6.194-2.787,7.143-3.516,2.528-3.866,15.984-3.866,15.984s-5.625,16.314-4.576,19.151-6.673,8.5-4.915,12.757,5.355,31.189,8.482,38.961-6.374,5.674-6.374,5.674l2.807,20.2s2.817,20.56.709,21.978-14.236,11.7-5.894,17.722c.649.469,1.309.9,2,1.309a21.589,21.589,0,0,1-.07,2.8c-.16,1.588-.559,2.857-1.449,3-2.478.36-7.4,2.837-8.442,1.778s-6.993,2.677-12.987,3.9l-.829.13-7.782-2a54.766,54.766,0,0,0-35.165-1.3s-5.644.879-8.382,5.095c-1.389,2.158-2,5.195-.759,9.431,3.756,12.528,29.361,16.843,29.361,16.843s8.871,1.828,19.531,4.246h-1.069a11.759,11.759,0,1,0,4,.729c11.988,2.757,25.265,6.114,30.66,8.482a93.814,93.814,0,0,0,12.318,3.7,11.688,11.688,0,0,0,21.758,4.9c16.314,3.407,32.028,6.294,32.028,6.294l26.244.43h.18a11.7,11.7,0,1,0,.16,0l39.731.649a11.719,11.719,0,1,0,22.617.37l35.045.569,6.993-7.692a6.214,6.214,0,0,0,.689-2.408c.21-2.528-1.1-6.364-10.05-7.992-.659-.12-18.921.17-35.055.44V793.04s-.449-3.487-.729-7.593c-.08-1.209-.15-2.468-.18-3.706a9.617,9.617,0,0,0,3,1.369c6.683,1.069,15.824-18.432,15.824-18.432s0-10.989,2.108-19.85,5.994-38.642,5.994-38.642l8.452-35.794s3.5-73.028,1.738-75.865,2.118-7.8,2.118-7.8,2.807-15.595-1.408-20.909,2.458-10.639,2.458-10.639,1.758-18.432-3.167-25.515,2.307-12.048,2.307-12.048l1.758-28.712c7.383-7.443,14.056-51.749,14.416-61.319a39.382,39.382,0,0,1,3.517-15.6s4.915-7.443,5.624-12.408,5.994-15.235,5.994-15.235l9.141-34.036c3.686-13.726,2.747-23.876.3-31.109C776.073,318.171,775.693,317.242,775.3,316.352Zm-165.146,2c5.625,3.546,3.866,4.605,5.625,6.733s.35,1.768-1.059,5.315-.35,2.488.35,6.384.36,3.9.36,3.9l1.758.25-2.448,16.454c-4,2.607-5.824,7.6-6.653,12.757-2.358-3.077-4.735-6.274-6.863-9.251.729-1.628.589-3.566.609-5.395.08-5.994,2.318-11.718,3.347-17.623a44.523,44.523,0,0,0-.57-18.092,27.485,27.485,0,0,0-2.348-6.424c2.278,1.518,5.165,3.317,7.892,5.035Zm6.324,347.386s4.446-3,8.761-5.724c1.448,10.52,2.817,21.459,3.786,31.349-1.549-3.437-2.628-5.774-2.628-5.774a11.889,11.889,0,0,1-2.717-6.733c-.17-3.856-7.2-13.077-7.2-13.077ZM590.117,301.377c1,.14,2.418,1.409,3.756,2.927-1.239-1-2.487-2-3.766-2.937Zm-64.346,131.15c-4.056,1.279-17.8,1.089-25.974.609,3.057-5.225,6.094-10.539,8.791-15.3a32.468,32.468,0,0,0,4.845.869L540.2,395.194a46.094,46.094,0,0,0,31.069-.2l.729,1.139c.31.5.639,1,1,1.559l-.669-1.089s-10.33,6.154-9.281,8.991-1.4,9.92-5.265,17.513c-1,1.9-1.868,3.776-2.707,5.664C546.321,429.59,529.827,431.248,525.771,432.527Zm50.78,327.515-.15-2.807c1.7-.37,2.817-.709,2.817-.709a110.55,110.55,0,0,0-1.758-12.408c-1.059-4.256-.509-2.837,3.606-5.994s0-38.961,0-38.961,2-2.487,5.165,3.9,6.344,10.28,7.4,10.629-4.226,7.453,0,14.186A40.76,40.76,0,0,1,598.9,742.05s-2.807,11.259,1.409,16.264a6.194,6.194,0,0,0,2,1.369v2.847a34.894,34.894,0,0,1-.09,3.806,1.409,1.409,0,0,1-2.248.879c-1.089-.709-7.992.879-7.523,5.325a32.7,32.7,0,0,1-5.515,5.165l-9.581-2.478Z" transform="translate(-51.751 -54.632)" fill="url(#linear-gradient)"/>
    <path id="Path_636" data-name="Path 636" d="M490.4,393.056s-3.347,27.423,23.2,30.23l4-18.981-8.362-11.249L497.253,389Z" transform="translate(-51.884 -54.891)" fill="#54a591"/>
    <path id="Path_637" data-name="Path 637" d="M497.253,389l-6.853,4.046s-3.347,27.423,23.2,30.23" transform="translate(-51.885 -54.891)" opacity="0.1"/>
    <path id="Path_638" data-name="Path 638" d="M538.535,237.779s-17.912,1.1-35.874,4.076q-2.757.47-5.485,1c-1.059.2-2.1.41-3.137.639-9.411,1.938-17.982,4.456-22.977,7.672-5.994,3.846-7.992-6.514-8.182-20.909-.08-5.065.09-10.619.36-16.234.35-6.494.859-13.067,1.4-18.981,1.189-13.107,2.557-23.3,2.557-23.3s6.274,0,14.655-.29l2.7-.1c2.627-.1,5.415-.24,8.222-.41,1.329-.07,2.667-.15,4-.25,5.315-.38,10.56-.919,14.985-1.618,4.715-.759,8.542-1.718,10.619-3C531.862,160.425,538.535,237.779,538.535,237.779Z" transform="translate(-51.857 -54.67)" fill="#f8bdc5"/>
    <path id="Path_639" data-name="Path 639" d="M618.49,339.2l-3.5,23.207s-7.623,9.491-6.624,14.765,9.79,238.384,9.79,238.384S635.393,714,629.409,726.66s-.35,42.2-.35,42.2l35.865-5.625L676.912,332.87Z" transform="translate(-52.001 -54.836)" fill="#474463"/>
    <path id="Path_640" data-name="Path 640" d="M618.49,339.2l-3.5,23.207s-7.623,9.491-6.624,14.765,9.79,238.384,9.79,238.384S635.393,714,629.409,726.66s-.35,42.2-.35,42.2l35.865-5.625L676.912,332.87Z" transform="translate(-52.001 -54.836)" opacity="0.1"/>
    <path id="Path_641" data-name="Path 641" d="M697.62,775.243c-1.139,1.888-1.049,7.443-.729,12.168.28,4.066.729,7.522.729,7.522V818.84S659.3,805.483,638.2,791.417c-8.7-5.8-11.179-11.2-10.7-15.515.7-6.144,7.393-10.15,10.7-10.15,3.157,0,13.127-5.5,21.3-10.37,6.424-3.806,11.758-7.213,11.758-7.213S699.728,771.727,697.62,775.243Z" transform="translate(-52.02 -55.247)" fill="#575988"/>
    <path id="Path_642" data-name="Path 642" d="M697.652,775.243c-1.139,1.888-1.049,7.443-.729,12.168-8.521-4-34.905-29.591-37.393-32.028,6.424-3.806,11.758-7.213,11.758-7.213S699.76,771.727,697.652,775.243Z" transform="translate(-52.052 -55.247)" opacity="0.1"/>
    <path id="Path_643" data-name="Path 643" d="M776.363,355.355l-9.141,33.757s-5.275,10.19-5.994,15.115-5.625,12.308-5.625,12.308A38.963,38.963,0,0,0,752.087,432c-.35,9.5-6.993,53.447-14.416,60.83l-1.758,28.482s-6.993,4.915-2.108,11.988,3.167,25.315,3.167,25.315-6.683,5.275-2.458,10.55,1.4,20.749,1.4,20.749-3.866,4.915-2.108,7.732-1.738,75.245-1.738,75.245l-8.452,35.5s-3.876,29.541-5.994,38.332-2.108,19.68-2.108,19.68-9.141,19.341-15.824,18.292-39.021-32.707-39.021-32.707L665.233,645.1s3.866-45.355,1.409-54.146-4.216-52.738-4.216-52.738L657.5,468.952,608.329,391.6s-3.566-22.508,6.623-29.181L616.8,350.26l1.668-11.049,58.372-6.334,89.3-23.2s6.883,4.246,10.49,14.845C779.1,331.668,780.049,341.738,776.363,355.355Z" transform="translate(-52.001 -54.813)" fill="#474463"/>
    <path id="Path_644" data-name="Path 644" d="M620.947,390.963s-41.489,50.949-39.731,36.714c1.1-8.941-4.576-19.86-8.991-26.763-2.607-4.106-4.765-6.793-4.765-6.793s25.315-46.4,26.723-40.08c.45,2,3.377,6.584,7.143,11.818C609.268,376.827,620.947,390.963,620.947,390.963Z" transform="translate(-51.961 -54.856)" fill="#ffc1c8"/>
    <path id="Path_645" data-name="Path 645" d="M697.62,813.892v5S659.3,805.531,638.2,791.464c-8.7-5.8-11.179-11.2-10.7-15.515,11.649,5.894,33.317,17.133,39.881,22.2C672.955,802.444,687.36,809.247,697.62,813.892Z" transform="translate(-52.02 -55.274)" fill="#fff" opacity="0.3"/>
    <circle id="Ellipse_57" data-name="Ellipse 57" cx="11.718" cy="11.718" r="11.718" transform="translate(624.861 754.153)" fill="#474463"/>
    <circle id="Ellipse_58" data-name="Ellipse 58" cx="11.718" cy="11.718" r="11.718" transform="translate(505.159 737.699)" fill="#474463"/>
    <path id="Path_646" data-name="Path 646" d="M742.561,808.837a6.181,6.181,0,0,1-.689,2.388l-6.993,7.622-97.743-1.568-26.284-.43s-55.325-10.07-66.1-14.765S491.59,788.8,491.59,788.8,466,784.5,462.239,772.083c-1.269-4.206-.629-7.213.759-9.351,2.727-4.186,8.382-5.065,8.382-5.065a55.246,55.246,0,0,1,35.165,1.3l163.838,42.148,2.537.649s58.4-1.089,59.581-.879C741.463,802.523,742.771,806.33,742.561,808.837Z" transform="translate(-51.856 -55.254)" fill="#54a591"/>
    <path id="Path_647" data-name="Path 647" d="M742.561,808.844c-9.83-1.279-26.973-3.167-31.389-1.349,0,0-31.179-3.856-74.077,9.79l-26.244-.43s-55.325-10.07-66.1-14.766S491.59,788.8,491.59,788.8s-25.595-4.3-29.351-16.713c-1.269-4.206-.629-7.213.759-9.351,1.748,5.095,5.115,12.478,10.49,14.546,8.442,3.247,43.137,9.86,43.137,9.86L585.3,803.959s39.651,8.6,55.085,3c6.324-2.278,18.192-4.306,29.97-5.894l2.538.649s58.4-1.089,59.581-.879C741.463,802.53,742.771,806.337,742.561,808.844Z" transform="translate(-51.856 -55.261)" fill="#fff" opacity="0.3"/>
    <path id="Path_648" data-name="Path 648" d="M647.839,796.182a32.469,32.469,0,0,1-.549,4.386s-38.842,1.389-59.061-1.608c-5.585-.829-8.741-2.617-10.31-4.755a7.3,7.3,0,0,1-.729-6.993,10.974,10.974,0,0,1,.849-1.878c1.508-2.638,3.826-4.506,5.095-4.256,3.516.709,9.551-6.5,9.551-6.5-.48-4.406,6.443-5.994,7.522-5.275a1.408,1.408,0,0,0,2.248-.879c.07-.33.09-1.918.09-3.776,0-3.1-.09-6.993-.09-6.993L641.5,762.4l1.549,7.463c1.419,6.654,3.4,15.794,4.246,18.921A22.576,22.576,0,0,1,647.839,796.182Z" transform="translate(-51.97 -55.256)" fill="#474463"/>
    <path id="Path_649" data-name="Path 649" d="M647.841,796.218a32.412,32.412,0,0,1-.549,4.385s-38.841,1.389-59.061-1.608c-5.584-.829-8.741-2.617-10.31-4.755,5.185-.31,11.928-.48,16.1.539C599.978,796.258,635.593,796.258,647.841,796.218Z" transform="translate(-51.971 -55.292)" opacity="0.1"/>
    <path id="Path_650" data-name="Path 650" d="M577.914,785.3a2,2,0,0,1-.849,1.878c-4.915,3.8-28.5-.33-28.5-.33s-48.192-3-55.4-7.912a5.084,5.084,0,0,1-1.589-1.668c-3-5.415,7.852-14.506,8.791-14.506s13.9-1.768,14.765-1.938c5.994-1.209,11.988-4.925,12.987-3.866s5.994-1.409,8.432-1.758c.889-.13,1.3-1.389,1.448-3a33.306,33.306,0,0,0-.22-6.524l38.492,10.36.34,6.134,1.109,20.42.14,2.508A.912.912,0,0,1,577.914,785.3Z" transform="translate(-51.885 -55.244)" fill="#474463"/>
    <path id="Path_651" data-name="Path 651" d="M548.6,786.88s-48.192-3-55.4-7.912a5.086,5.086,0,0,1-1.588-1.668c9.76.8,26.034,2.148,28.971,2.9,4.226,1,27.972,2.458,27.972,2.458h29.2l.14,2.508C579.173,792.235,548.6,786.88,548.6,786.88Z" transform="translate(-51.886 -55.276)" opacity="0.1"/>
    <circle id="Ellipse_59" data-name="Ellipse 59" cx="11.718" cy="11.718" r="11.718" transform="translate(446.477 737.699)" fill="#474463"/>
    <circle id="Ellipse_60" data-name="Ellipse 60" cx="11.718" cy="11.718" r="11.718" transform="translate(573.751 762.025)" fill="#474463"/>
    <path id="Path_652" data-name="Path 652" d="M518.147,405.713s-2.218,4-5.554,9.93c-7.992,14.106-22.368,39.111-28.552,47.023-8.791,11.249-8.082.709-17.583-22.847-7.053-17.523,14.655-37.573,26.264-46.684,4-3.167,6.793-5,6.793-5Z" transform="translate(-51.86 -54.89)" fill="#f8bdc5"/>
    <path id="Path_653" data-name="Path 653" d="M560.684,432.83s-29.181,2.458-34.806,4.216-29.88.7-31.968,0-43.607,8.791-24.616,18.282,30.969,0,30.969,0,24.616-1.409,30.969,2.467,29.531,1.758,29.531,1.758Z" transform="translate(-51.859 -54.935)" fill="#ffc1c8"/>
    <path id="Path_654" data-name="Path 654" d="M500.063,217.394c3.6,9.2,1.349,17.213-2.887,25.435-10.609,2-20.59,4.745-26.144,8.312-15.824,10.2-3.866-79.461-3.866-79.461s7.652,0,17.353-.39C481.581,184.7,492.71,198.613,500.063,217.394Z" transform="translate(-51.857 -54.676)" opacity="0.1"/>
    <path id="Path_655" data-name="Path 655" d="M500.881,215.38a59.94,59.94,0,1,1-5.994-26.2,59.94,59.94,0,0,1,5.994,26.2Z" transform="translate(-51.776 -54.66)" fill="#f8bdc5"/>
    <path id="Path_656" data-name="Path 656" d="M776.662,324.5a13.727,13.727,0,0,1-7.992,5.544c-13.716,3.866-110.411,27.073-116.734,25.665-5.584-1.239-29.551-4.685-35.075-5.475l1.668-11.049,58.372-6.334,89.3-23.2S773.055,313.9,776.662,324.5Z" transform="translate(-52.01 -54.813)" opacity="0.1"/>
    <path id="Path_657" data-name="Path 657" d="M538.576,237.779a337.026,337.026,0,0,0-34.116,3.8,2.347,2.347,0,0,0-.06-1.568l23.377-2.887s-3.417-54.946-15.984-68.113c4.715-.759,8.542-1.718,10.62-3C531.9,160.425,538.576,237.779,538.576,237.779Z" transform="translate(-51.898 -54.67)" opacity="0.1"/>
    <path id="Path_658" data-name="Path 658" d="M507.989,155.232s20.75-1.868,23.557-5.385,22.857-4.565,22.857-4.565,9.84-1.758,11.988-4.226,55.545-5.624,60.82-2.807,10.2,4.565,13.367,4.925S668.35,161.1,670.807,161.1s69.931,63.647,69.931,63.647,6.993,16.174,9.85,16.873,28.132,64.7,28.132,64.7,3.516,15.465-10.19,19.341S658.12,352.726,651.8,351.318s-36.214-5.624-36.214-5.624.349,0-.35-3.866-1.758-2.817-.36-6.334,2.817-3.167,1.059-5.275,0-3.167-5.624-6.683S598.319,316.153,598,315.1s-5.275-8.092-7.733-8.442-71.379-19.69-71.379-19.69L502.714,281.7s-7.732-5.275-5.994-8.432,7.722-31.719,7.722-31.719l24.726-3.047s-3.686-59.541-17.533-69.531S507.989,155.232,507.989,155.232Z" transform="translate(-51.891 -54.642)" fill="#54a591"/>
    <path id="Path_659" data-name="Path 659" d="M518.175,405.713s-2.218,4-5.554,9.93c-.52-18.342-13.347-21.9-19.87-22.508,4-3.167,6.793-5,6.793-5Z" transform="translate(-51.887 -54.89)" opacity="0.1"/>
    <path id="Path_660" data-name="Path 660" d="M500.99,272.34l1.7,9.491s6.683,8.092,6.683,10.55,7.732,9.491,9.85,13.357,9.491,4.575,6.673,11.259-18.981,57.663-18.981,57.663L490.39,392.94s27.423-2.468,23.2,30.23L549.1,392.2l27.812-50.6s-27.073-51.329-28.122-55.545S500.99,272.34,500.99,272.34Z" transform="translate(-51.885 -54.776)" fill="#54a591"/>
    <path id="Path_661" data-name="Path 661" d="M583.31,289.922s22.5-15.824,22.5-17.583S583.31,289.922,583.31,289.922Z" transform="translate(-51.977 -54.775)" opacity="0.1"/>
    <path id="Path_662" data-name="Path 662" d="M621,309.639s11.988-2.817,12.987-9.141S621,309.639,621,309.639Z" transform="translate(-52.014 -54.802)" opacity="0.1"/>
    <path id="Path_663" data-name="Path 663" d="M630.82,325.83s16.883-8.362,16.174-9.81S630.82,325.83,630.82,325.83Z" transform="translate(-52.024 -54.819)" opacity="0.1"/>
    <path id="Path_664" data-name="Path 664" d="M721.265,272.23s-6.993,4.565-4.915,8.841S721.265,272.23,721.265,272.23Z" transform="translate(-52.108 -54.776)" opacity="0.1"/>
    <path id="Path_665" data-name="Path 665" d="M741.984,274.1s-19.92,18.981-15.415,19.341S741.984,274.1,741.984,274.1Z" transform="translate(-52.118 -54.777)" opacity="0.1"/>
    <path id="Path_666" data-name="Path 666" d="M696.64,568.68S722.3,573.6,723,575.363,696.64,568.68,696.64,568.68Z" transform="translate(-52.089 -55.069)" opacity="0.1"/>
    <path id="Path_667" data-name="Path 667" d="M705.79,585.57s13.706,8.442,14.056,10.9S705.79,585.57,705.79,585.57Z" transform="translate(-52.098 -55.086)" opacity="0.1"/>
    <path id="Path_668" data-name="Path 668" d="M702.62,604.58s2.108,9.491,5.624,10.9S702.62,604.58,702.62,604.58Z" transform="translate(-52.095 -55.104)" opacity="0.1"/>
    <path id="Path_669" data-name="Path 669" d="M494.947,188.867a.673.673,0,0,1-.05.31c-.479,3.127-1.758,6.514-4.7,7.552a7.473,7.473,0,0,1-5.325-.49c-4.995-2.188-9.441-7.443-14.775-6.174-2.538.6-4.316,2.527-5.575,4.9a24.579,24.579,0,0,0-2,5.365c-1,3.916-1.8,8.172-.27,11.9a12.133,12.133,0,0,0,.9,1.758c1.419,2.268,3.417,4.2,4.815,6.484,1.738,2.857,2.188,7.143-.519,9.1a5.484,5.484,0,0,1-4.655.649,27.689,27.689,0,0,1-5.684-2.518c-3.536-1.848-7.992-3-11.349-.859-1.159.719-2.088,1.758-3.2,2.517a11.528,11.528,0,0,1-7.722,1.608c-6.354-.649-8.731-4.675-13.587-7.792-3.556-2.3-10.989-3.277-13.107,1.419-1.359,3,.659,6.773-.669,9.83s-5.554,4-7.513,6.833c-2.577,3.736-.18,9.141-2.068,13.287a6.775,6.775,0,0,1-1.149,1.758,60.12,60.12,0,0,1,85.016-84.916l2.7-.1c2.627-.1,5.415-.24,8.222-.41a22.878,22.878,0,0,1,1.548,4.386A36.564,36.564,0,0,1,494.947,188.867Z" transform="translate(-51.776 -54.66)" opacity="0.1"/>
    <path id="Path_670" data-name="Path 670" d="M406.7,223.171c-1.369,3,.649,6.773-.669,9.82s-5.575,4-7.513,6.833c-2.587,3.746-.19,9.151-2.068,13.287-2.158,4.725-8.671,5.465-13.666,4.086a27.972,27.972,0,0,1-18.642-17.433c-3.387-9.641-1.2-20.25-2.078-30.43a50.478,50.478,0,0,0-2.8-12.777c-1.449-4-3.427-7.932-3.9-12.178a18.1,18.1,0,0,1,9.77-17.792c4.116-2,9.181-2.567,12.178-5.994,2.3-2.657,2.787-6.364,3.856-9.71,2.887-8.991,11.509-16.324,20.979-16.234,7.573.06,14.985,4.525,22.388,2.767,4.186-1,7.992-4,12.308-3.566a15.615,15.615,0,0,1,5.824,2.168A226.968,226.968,0,0,1,475.351,157.5a36.786,36.786,0,0,0,6.923,4.705,42.969,42.969,0,0,1,4.665,2.148c3.227,2,4.915,5.8,5.834,9.5a36.293,36.293,0,0,1,.739,13.607c-.44,3.207-1.7,6.8-4.745,7.872a7.462,7.462,0,0,1-5.335-.51c-5-2.168-9.431-7.423-14.765-6.164-4.356,1-6.454,5.934-7.593,10.26-1,3.916-1.818,8.172-.27,11.908,1.279,3.1,4,5.365,5.7,8.232s2.2,7.153-.519,9.1c-3,2.168-7.063-.14-10.35-1.858-3.516-1.848-7.992-3-11.339-.869-1.149.719-2.078,1.758-3.2,2.528a11.628,11.628,0,0,1-7.712,1.6c-6.364-.649-8.741-4.675-13.586-7.792C416.24,219.445,408.827,218.466,406.7,223.171Z" transform="translate(-51.751 -54.638)" fill="#474463"/>
    <path id="Path_671" data-name="Path 671" d="M601.336,365.808c-.27,1.5-2.328,1.668-2.747,3.127-4,14.1-12.787,26.773-26.354,31.968-2.607-4.106-4.765-6.793-4.765-6.793s25.315-46.4,26.724-40.08C594.643,356,597.57,360.573,601.336,365.808Z" transform="translate(-51.961 -54.856)" opacity="0.1"/>
    <path id="Path_672" data-name="Path 672" d="M602.028,356.054a46.244,46.244,0,1,1-13.547-32.862,46.416,46.416,0,0,1,13.547,32.862Z" transform="translate(-51.903 -54.813)" fill="#ffc1c8"/>
    <path id="Path_673" data-name="Path 673" d="M576.4,756.07l.34,6.134c-4.066.9-11.8,2.078-16.3-.679-5.824-3.567-14.426-4.436-22.308-9.291a33.3,33.3,0,0,0-.22-6.523Z" transform="translate(-51.932 -55.244)" opacity="0.1"/>
    <path id="Path_674" data-name="Path 674" d="M643.07,769.878c-.27,1.369-.519,2.208-.519,2.208s-31.019-3.177-39.961-7.463c0-3.1-.09-6.993-.09-6.993l39.041,4.745Z" transform="translate(-51.996 -55.256)" opacity="0.1"/>
    <path id="Path_675" data-name="Path 675" d="M636,630.216c-2.108,5.624-3.167,6.683-1.049,9.491s1.049,17.583-2.308,18.981-15.984,9.84-15.984,9.84,6.993,9.141,7.2,12.987a11.769,11.769,0,0,0,2.717,6.683s10.829,23.207,12.987,30.59S643.7,737.77,643.7,737.77s-3.786,10.55-1.169,16.534,0,14.765,0,14.765-37.772-3.866-41.958-8.831-1.4-16.134-1.4-16.134a40.389,40.389,0,0,0-5.275-14.066c-4.226-6.683,1-13.706,0-14.066s-4.226-4.216-7.4-10.54-5.155-3.876-5.155-3.876,4.116,35.515,0,38.682-4.675,1.758-3.616,5.994a108.691,108.691,0,0,1,1.758,12.308s-12.657,3.866-18.981,0-15.844-4.575-24.206-10.549,3.786-16.174,5.894-17.583-.7-21.8-.7-21.8l-2.817-20.04s9.491,2.108,6.374-5.624-6.723-34.456-8.482-38.672,5.994-9.85,4.925-12.658,4.565-18.981,4.565-18.981.36-13.357,3.866-15.864c1.339-.939,2.208-3.856,2.787-7.083a88,88,0,0,0,1.089-11.508s80.51-5.625,93.517,2.108c5.854,3.476,5.445,9.88,3,16.364-3,7.912-9.151,15.984-10.7,18.911C636.708,620.956,638.106,624.592,636,630.216Z" transform="translate(-51.927 -55.076)" fill="#575988"/>
    <path id="Path_676" data-name="Path 676" d="M650.233,596.65c-9.99,2.807-23.3,6.933-25.465,9.3-3.517,3.876-15.475-21.8-15.475-21.8s.709,19.3-15.115,11.229c-13.7-6.993-35.8-6.074-41.519-5.694a88.025,88.025,0,0,0,1.089-11.509s80.51-5.624,93.517,2.108C653.12,583.762,652.711,590.166,650.233,596.65Z" transform="translate(-51.946 -55.076)" opacity="0.1"/>
    <path id="Path_677" data-name="Path 677" d="M609.29,383.9s6.993-8.442,8.442-5.275,9.7,9.491,9.7,9.491,2.368,7.383,6.534,8.442,35.455,43.247,35.455,43.247l-11.259,22.847-9.141,55.555s.4,8.791-2.088,11.988-11.988,2.458-7.583,6.324,10.73,7.383,14.246,24.975,7.732,27.772,7.732,27.772-33.047,8.442-36.564,12.308-15.475-21.8-15.475-21.8.709,19.291-15.115,11.229-42.9-5.6-42.9-5.6V564.625s5.275-8.092,2.468-13.716,1.918-16.174,1.918-16.174-1.568-10.9-4.386-17.223-1.758-36.214-1.758-36.214-2.138-19.341-.19-29.191a87.319,87.319,0,0,1,8.662-24.456c3.866-7.532,6.314-14.565,5.265-17.383s9.281-8.911,9.281-8.911l5.724,9.261,1.459,5.535S610,394.454,609.29,383.9Z" transform="translate(-51.942 -54.88)" fill="#dce6f2"/>
    <path id="Path_678" data-name="Path 678" d="M659.92,432.83s19.691,19.331,21.8,22.5,9.171,19.631.03,24.626-44.955,12.7-48.512,10.04-24.975,3-24.975,3-35.825,8.791-28.092-5.624,26.024-11.988,26.024-11.988,29.551-.05,32.708-3,26.973-9.271,21.579-22.3S659.92,432.83,659.92,432.83Z" transform="translate(-51.973 -54.935)" fill="#ffc1c8"/>
    <path id="Path_679" data-name="Path 679" d="M602.079,519.41s-45.865,39.731-41.3,39.731S602.079,519.41,602.079,519.41Z" transform="translate(-51.954 -55.02)" opacity="0.1"/>
    <path id="Path_680" data-name="Path 680" d="M632.728,535.6s-14.576,3.507-11.758,5.624S632.728,535.6,632.728,535.6Z" transform="translate(-52.014 -55.036)" opacity="0.1"/>
    <path id="Path_681" data-name="Path 681" d="M581.29,439.16s18.192,1.628,14.985,7.323S581.29,439.16,581.29,439.16Z" transform="translate(-51.975 -54.941)" opacity="0.1"/>
    <path id="Path_682" data-name="Path 682" d="M569.939,610.09s-2.467,7.153,0,10.989,0,12.987,0,12.987v31.968s-.34,23.207,8.082,31.289Z" transform="translate(-51.962 -55.11)" opacity="0.1"/>
    <path id="Path_683" data-name="Path 683" d="M545.83,709.81s4.915,7.2,5.625,9.84S545.83,709.81,545.83,709.81Z" transform="translate(-51.939 -55.209)" opacity="0.1"/>
    <path id="Path_684" data-name="Path 684" d="M547.06,695.379s11.429-2.108,13.187-.879S547.06,695.379,547.06,695.379Z" transform="translate(-51.941 -55.193)" opacity="0.1"/>
    <path id="Path_685" data-name="Path 685" d="M543.719,738.49s-3.347.349,3.337,4,19.69,8.262,19.86,6.683S543.719,738.49,543.719,738.49Z" transform="translate(-51.937 -55.237)" opacity="0.1"/>
    <path id="Path_686" data-name="Path 686" d="M592.69,703.47c1.179,0,15.894-.879,15.045,1.409S592.69,703.47,592.69,703.47Z" transform="translate(-51.986 -55.202)" opacity="0.1"/>
    <path id="Path_687" data-name="Path 687" d="M612.7,682.876s3.337-5.794,4.565-3.337S612.7,682.876,612.7,682.876Z" transform="translate(-52.006 -55.178)" opacity="0.1"/>
    <path id="Path_688" data-name="Path 688" d="M602.028,356.054a46.247,46.247,0,0,1-1.778,12.757c-1.938,1.758-5.285,1.778-7.672.47-2.8-1.538-4.625-4.336-6.444-6.993s-3.886-5.315-6.863-6.454c-3.766-1.419-8.062,0-11.339,2.358s-5.894,5.475-8.991,7.992-7.043,4.556-10.989,3.936c-2.548-.39-4.805-1.828-6.993-3.217-3-1.888-6.214-4.825-9.5-6.094s-5.994,1-9.121,1c-2.488.9-5.195,2.947-4.7,5.535a8.582,8.582,0,0,0,1.279,2.677,11.238,11.238,0,0,1-1.469,12.378,46.414,46.414,0,1,1,84.586-26.4Z" transform="translate(-51.903 -54.813)" opacity="0.1"/>
    <path id="Path_689" data-name="Path 689" d="M522.318,360.441c-2.487.9-5.195,2.947-4.705,5.544a8.9,8.9,0,0,0,1.289,2.667c2.917,5.2.45,12.677-4.995,15.1a4.426,4.426,0,0,1-2.777.439,4.914,4.914,0,0,1-2-1.2,18.491,18.491,0,0,1-5.764-9.94c-.859-4-.33-8.232-.769-12.338s-1.848-8.152-2.338-12.288a11.4,11.4,0,0,1,.63-6.074,14.13,14.13,0,0,1,2.518-3.457c2.807-3.127,5.734-6.324,7.143-10.29,2.228-6.314.609-14.356,5.485-18.981,2.258-2.118,5.415-2.907,8.212-4.246a57.838,57.838,0,0,0,7.542-4.785c9.041-6.214,20.03-10.989,30.78-8.791a43.776,43.776,0,0,1,12.2,5,137.132,137.132,0,0,1,19.98,13.427,31.084,31.084,0,0,1,6.993,7.183,24.919,24.919,0,0,1,3.057,7.642,43.8,43.8,0,0,1,.579,17.982c-1,5.854-3.267,11.539-3.357,17.483,0,2,.16,4.156-.869,5.874-1.648,2.737-5.734,3-8.531,1.479s-4.625-4.336-6.434-6.993-3.886-5.315-6.863-6.444c-3.766-1.429-8.062,0-11.339,2.348s-5.884,5.475-8.991,7.992S552,369.323,548,368.7c-2.547-.39-4.805-1.818-6.993-3.207-3-1.9-6.214-4.835-9.49-6.094S525.435,360.441,522.318,360.441Z" transform="translate(-51.894 -54.794)" fill="#794f6a"/>
    <path id="Path_690" data-name="Path 690" d="M629.018,432.83s-51.679,47.813-41.139,71.719,56.943-18.282,56.943-18.282l16.544-38.282Z" transform="translate(-51.98 -54.935)" fill="#f8bdc5"/>
    <g id="Group_28" data-name="Group 28" transform="translate(448.235 279.123)" opacity="0.1">
      <path id="Path_691" data-name="Path 691" d="M513.886,380.964a4.4,4.4,0,0,1-2.767.44,4.776,4.776,0,0,1-2-1.209,18.523,18.523,0,0,1-5.774-9.93c-.849-4.046-.32-8.242-.759-12.348s-1.858-8.142-2.338-12.288a2.638,2.638,0,0,0-.05-.619,15.814,15.814,0,0,0,.05,3.437c.48,4.136,1.9,8.132,2.338,12.288s-.09,8.3.759,12.338a18.513,18.513,0,0,0,5.774,9.94,4.856,4.856,0,0,0,2,1.2,4.4,4.4,0,0,0,2.767-.44c4.3-1.908,6.723-6.933,6.154-11.528A11.079,11.079,0,0,1,513.886,380.964Z" transform="translate(-500.13 -333.971)"/>
      <path id="Path_692" data-name="Path 692" d="M605.323,340.244c-1,5.854-3.267,11.539-3.347,17.483,0,2,.16,4.156-.879,5.874-1.638,2.737-5.724,3-8.522,1.479s-4.625-4.326-6.444-6.993-3.876-5.315-6.863-6.444c-3.756-1.419-8.052,0-11.329,2.358s-5.894,5.465-8.991,7.992-7.043,4.555-10.989,3.946c-2.547-.4-4.805-1.828-6.993-3.217-3-1.9-6.214-4.825-9.49-6.094s-5.994,1-9.121,1c-2.488.909-5.195,2.947-4.715,5.555a4.13,4.13,0,0,0,.27.819,7.771,7.771,0,0,1,4.446-3.556c3.117,0,5.874-2.238,9.121-1s6.524,4.2,9.49,6.094c2.168,1.389,4.426,2.817,6.993,3.207,4,.619,7.912-1.389,10.989-3.936s5.724-5.694,8.991-7.992,7.573-3.776,11.329-2.348c3,1.129,5.055,3.816,6.863,6.444s3.646,5.415,6.444,6.993,6.883,1.259,8.522-1.479c1-1.718.849-3.866.879-5.874.08-5.944,2.318-11.629,3.347-17.483a44.214,44.214,0,0,0,.639-9.111A44.367,44.367,0,0,1,605.323,340.244Z" transform="translate(-500.147 -333.96)"/>
    </g>
    <path id="Path_693" data-name="Path 693" d="M567.113,189.26s-18.981,34.456,6.993,52.038,28.482,15.824,28.482,15.824-.359,4.216,0,5.275,6.993,3.507,6.993,3.507,8.082,12.987,19.68,18.641,13.717,18.981,13.717,18.981,0,4.575,5.994,8.791,10.609,16.524,10.609,16.524V340.1c0,1.758,2.108,6.993-2.458,7.553s-.709,11.079-.709,11.079-4.915,5.994-3.866,8.791-2.108,8.432-2.108,8.432-3.866,5.625-3.517,6.683-4.216,4.925-3.167,7.383-5.265,5.624-4.216,8.442-4.5,4.216-4.5,4.216l-15.2,35.165s31.968,6.993,40.22,24.606l40.3-73.837s22.5-55.2,23.207-58.712-4.925-16.174-4.925-16.174l-27.423-49.95-41.139-58.013S617.393,136.173,567.113,189.26Z" transform="translate(-51.954 -54.674)" opacity="0.1"/>
    <path id="Path_694" data-name="Path 694" d="M607.719,203.811s-49.391,17.333-23.377,34.915,28.482,15.814,28.482,15.814-.349,4.226,0,5.275,6.993,3.516,6.993,3.516,8.092,12.987,19.69,18.642,13.716,18.981,13.716,18.981,0,4.575,5.994,8.791,10.549,16.524,10.549,16.524v11.249c0,1.758,2.108,6.993-2.468,7.563s-.7,11.079-.7,11.079-4.925,5.994-3.866,8.781-2.108,8.442-2.108,8.442-3.866,5.624-3.517,6.683-4.226,4.925-3.167,7.383-5.275,5.624-4.216,8.442-4.506,4.216-4.506,4.216l-15.185,35.155s26.334,1.359,34.645,18.981l45.865-68.162s22.508-55.2,23.207-58.712-4.9-16.214-4.9-16.214L701.426,261.2,638.868,225.12S658,150.714,607.719,203.811Z" transform="translate(-51.97 -54.689)" opacity="0.1"/>
    <path id="Path_695" data-name="Path 695" d="M569.933,189.26s-18.981,34.456,6.993,52.038,28.482,15.824,28.482,15.824-.35,4.216,0,5.275S612.4,265.9,612.4,265.9s8.092,12.987,19.69,18.642,13.716,18.981,13.716,18.981,0,4.575,5.994,8.791,10.6,16.524,10.6,16.524V340.1c0,1.758,2.108,6.993-2.468,7.552s-.7,11.079-.7,11.079-4.925,5.994-3.866,8.791-2.108,8.432-2.108,8.432-3.866,5.624-3.516,6.683-4.226,4.925-3.167,7.383-5.275,5.624-4.216,8.442-4.506,4.216-4.506,4.216l-15.185,35.165s31.908,6.993,40.21,24.606l40.3-73.837s22.508-55.2,23.207-58.712-4.925-16.174-4.925-16.174l-27.423-49.95-41.129-57.993S620.2,136.173,569.933,189.26Z" transform="translate(-51.957 -54.674)" fill="#54a591"/>
    <g id="Group_29" data-name="Group 29" transform="translate(303.54 126.545)" opacity="0.1">
      <path id="Path_696" data-name="Path 696" d="M362.063,206.575a50.134,50.134,0,0,0-2.8-12.787c-1.449-4-3.427-7.932-3.9-12.178v-.38a16.283,16.283,0,0,0,0,3.2c.47,4.246,2.448,8.152,3.9,12.178a50.047,50.047,0,0,1,2.8,12.777c.14,1.638.2,3.3.22,5C362.313,211.73,362.283,209.142,362.063,206.575Z" transform="translate(-355.291 -181.23)"/>
      <path id="Path_697" data-name="Path 697" d="M396.456,250.394c-2.148,4.715-8.671,5.465-13.667,4.076a28.032,28.032,0,0,1-18.642-17.423,41.259,41.259,0,0,1-2-13.3c-.06,5.5.15,10.939,2,16.1a28.042,28.042,0,0,0,18.641,17.433c5,1.379,11.519.639,13.667-4.086.909-2,.819-4.316.779-6.594A10.3,10.3,0,0,1,396.456,250.394Z" transform="translate(-355.298 -181.272)"/>
      <path id="Path_698" data-name="Path 698" d="M493.617,184.677c-.43,3.2-1.7,6.793-4.745,7.862a7.473,7.473,0,0,1-5.325-.5c-4.995-2.178-9.441-7.433-14.775-6.164-4.356,1-6.444,5.924-7.592,10.26a25.263,25.263,0,0,0-1.069,8.462,32.968,32.968,0,0,1,1.069-5.654c1.149-4.326,3.237-9.221,7.592-10.26,5.335-1.259,9.74,4,14.775,6.164a7.433,7.433,0,0,0,5.325.51c3.047-1.069,4.316-4.665,4.745-7.872a36.3,36.3,0,0,0,.3-6.164C493.867,182.439,493.767,183.568,493.617,184.677Z" transform="translate(-355.395 -181.23)"/>
      <path id="Path_699" data-name="Path 699" d="M466.041,225.412c-3,2.168-7.063-.14-10.35-1.868-3.516-1.848-7.992-3-11.339-.869-1.149.719-2.078,1.758-3.2,2.528a11.5,11.5,0,0,1-7.712,1.6c-6.364-.649-8.741-4.675-13.586-7.792-3.556-2.288-10.989-3.267-13.107,1.429a8.521,8.521,0,0,0-.41,4.326,5.623,5.623,0,0,1,.41-1.508c2.128-4.705,9.551-3.726,13.107-1.429,4.845,3.117,7.223,7.143,13.586,7.792a11.559,11.559,0,0,0,7.712-1.608c1.119-.759,2.048-1.8,3.2-2.517,3.377-2.1,7.822-1,11.339.869,3.287,1.718,7.333,4,10.35,1.858,1.758-1.259,2.178-3.5,1.788-5.7A4.616,4.616,0,0,1,466.041,225.412Z" transform="translate(-355.342 -181.266)"/>
      <path id="Path_700" data-name="Path 700" d="M406.071,230.279c-1.369,3.137-5.574,4-7.513,6.823-1.449,2.1-1.329,4.715-1.279,7.343a8.312,8.312,0,0,1,1.279-4.526c1.938-2.827,6.144-3.7,7.513-6.833a8.692,8.692,0,0,0,.38-4.256,5.638,5.638,0,0,1-.38,1.449Z" transform="translate(-355.333 -181.277)"/>
    </g>
  </g>
</svg>
