<svg xmlns="http://www.w3.org/2000/svg" xmlns:xlink="http://www.w3.org/1999/xlink" width="1197.5" height="863.266" viewBox="0 0 1197.5 863.266">
  <defs>
    <linearGradient id="linear-gradient" x1="0.5" y1="1.001" x2="0.5" gradientUnits="objectBoundingBox">
      <stop offset="0" stop-color="gray" stop-opacity="0.251"/>
      <stop offset="0.54" stop-color="gray" stop-opacity="0.122"/>
      <stop offset="1" stop-color="gray" stop-opacity="0.102"/>
    </linearGradient>
  </defs>
  <g id="Group_30" data-name="Group 30" transform="translate(0.01 0.003)">
    <path id="Path_603" data-name="Path 603" d="M63.3,484.53c18.949,80.99,59.062,151,122.445,184.978C317.5,740.03,614.621,703.65,836.361,661.867a507.771,507.771,0,0,0,288.748-165.058Z" transform="translate(-50.365 -15.214)" fill="#de1a51" opacity="0.1"/>
    <path id="Path_604" data-name="Path 604" d="M1223.571,142.656H1101.9a10.511,10.511,0,1,1,0-21.022h21.033a10.522,10.522,0,0,1,0-21.033h-15.019a10.522,10.522,0,0,1,0-21.033h63.5c-14.091-6.549-30.562-11.21-49.543-13.655-173.157-22.234-234.98-7.52-256.788,7.641-26.906,18.665-56.922,32.4-89,39.01-106.837,22.038-306.637,48.561-487.73-8.492-90.006-28.379-156.893,19.56-197,99.633H1244.691c-1.506-23.271-6.014-44.752-14.288-63.569A10.434,10.434,0,0,1,1223.571,142.656Z" transform="translate(-47.797 -54.56)" fill="#de1a51" opacity="0.1"/>
    <path id="Path_605" data-name="Path 605" d="M54.06,329.66a536.048,536.048,0,0,0,4.715,141.3l1068.237,39.076a501.935,501.935,0,0,0,74.223-113.2Zm422.5,100.79H455.527a10.511,10.511,0,1,1,0,21.022H333.857a10.511,10.511,0,1,1,0-21.022H354.89a10.522,10.522,0,0,1,0-21.033H339.871a10.522,10.522,0,0,1,0-21.033h121.67a10.522,10.522,0,0,1,0,21.033h15.019a10.522,10.522,0,0,1,0,21.033Z" transform="translate(-51.45 -29.386)" fill="#de1a51" opacity="0.1"/>
    <path id="Path_606" data-name="Path 606" d="M1248.165,191.84,81.91,220.219C67.72,256.687,58.366,297.891,54,340.645H1227.732a498.912,498.912,0,0,0,16.951-76.766C1248.176,238.764,1249.573,214.467,1248.165,191.84ZM290.77,284.793H269.737a10.511,10.511,0,1,1,0,21.022H148.066a10.511,10.511,0,0,1,0-21.022H169.1a10.522,10.522,0,0,1,0-21.033H154.08a10.522,10.522,0,0,1,0-21.033h121.67a10.522,10.522,0,0,1,0,21.033H290.77a10.522,10.522,0,0,1,0,21.033Z" transform="translate(-51.216 -41.998)" fill="#de1a51" opacity="0.1"/>
    <ellipse id="Ellipse_56" data-name="Ellipse 56" cx="380.751" cy="20.608" rx="380.751" ry="20.608" transform="translate(234.446 822.048)" fill="#de1a51" opacity="0.1"/>
    <path id="Path_607" data-name="Path 607" d="M906.045,687.74s5.992,7.848-2.772,19.647-15.991,21.83-13.1,29.22c0,0,13.218-21.994,24.013-22.3S917.877,700.969,906.045,687.74Z" transform="translate(25.242 3.381)" fill="#de1a51"/>
    <path id="Path_608" data-name="Path 608" d="M906.014,687.74a10.125,10.125,0,0,1,1.222,2.456c10.5,12.345,16.089,23.86,6,24.144-9.409.273-20.684,17.082-23.38,21.328a8.344,8.344,0,0,0,.316.971s13.218-21.994,24.013-22.3S917.846,700.969,906.014,687.74Z" transform="translate(25.272 3.381)" opacity="0.1"/>
    <path id="Path_609" data-name="Path 609" d="M914.986,697.048c0,2.761-.306,5-.688,5s-.7-2.237-.7-5,.393-1.463.775-1.463S914.986,694.287,914.986,697.048Z" transform="translate(27.445 4.071)" fill="#ffd037"/>
    <path id="Path_610" data-name="Path 610" d="M918.766,700.079c-2.423,1.321-4.53,2.118-4.715,1.779s1.637-1.681,4.06-3,1.463-.36,1.648,0S921.189,698.758,918.766,700.079Z" transform="translate(27.485 4.337)" fill="#ffd037"/>
    <path id="Path_611" data-name="Path 611" d="M876.769,687.74s-5.992,7.848,2.772,19.647,15.98,21.83,13.1,29.22c0,0-13.229-21.994-24.013-22.3S864.926,700.969,876.769,687.74Z" transform="translate(22.842 3.381)" fill="#de1a51"/>
    <path id="Path_612" data-name="Path 612" d="M876.771,687.74a9.668,9.668,0,0,0-1.222,2.456c-10.5,12.345-16.1,23.86-6,24.144,9.4.273,20.739,17.082,23.38,21.328-.087.327-.2.644-.316.971,0,0-13.229-21.994-24.013-22.3S864.928,700.969,876.771,687.74Z" transform="translate(22.84 3.381)" opacity="0.1"/>
    <path id="Path_613" data-name="Path 613" d="M865.43,697.048c0,2.761.306,5,.688,5s.7-2.237.7-5-.393-1.463-.775-1.463S865.43,694.287,865.43,697.048Z" transform="translate(23.037 4.071)" fill="#ffd037"/>
    <path id="Path_614" data-name="Path 614" d="M862.044,700.079c2.423,1.321,4.541,2.118,4.726,1.779s-1.637-1.681-4.06-3-1.463-.36-1.648,0S859.62,698.758,862.044,700.079Z" transform="translate(22.592 4.337)" fill="#ffd037"/>
    <path id="Path_615" data-name="Path 615" d="M867.18,732.361s16.766-.524,21.83-4.115,25.792-7.9,27.048-2.183,25.192,28.7,6.265,28.848-43.977-2.947-49.02-6.014S867.18,732.361,867.18,732.361Z" transform="translate(23.197 6.634)" fill="#a8a8a8"/>
    <path id="Path_616" data-name="Path 616" d="M922.65,752.2c-18.927.153-43.977-2.947-49.02-6.014-3.842-2.347-5.37-10.741-5.883-14.6h-.557s1.092,13.513,6.1,16.591,30.093,6.167,49.019,6.014c5.458,0,7.357-1.987,7.248-4.868C928.795,751.085,926.71,752.166,922.65,752.2Z" transform="translate(23.198 7.393)" opacity="0.2"/>
    <path id="Path_617" data-name="Path 617" d="M324.083,738.916a12.8,12.8,0,0,0,4.191-6.32c.535-2.5-.535-5.458-2.925-6.429-2.685-1.026-5.556.84-7.739,2.718s-4.661,4.028-7.51,3.624a11.429,11.429,0,0,0,3.537-10.708,4.5,4.5,0,0,0-.982-2.183c-1.5-1.594-4.191-.917-5.982.338-5.676,3.995-7.259,11.712-7.291,18.643-.568-2.5-.087-5.108-.1-7.641s-.72-5.458-2.882-6.8a8.732,8.732,0,0,0-4.366-1.026c-2.554-.1-5.392.164-7.138,2.019-2.183,2.325-1.6,6.211.284,8.732s4.748,4.159,7.379,5.916a16.372,16.372,0,0,1,5.283,5.032,6.278,6.278,0,0,1,.393.906h15.991A44.491,44.491,0,0,0,324.083,738.916Z" transform="translate(-30.215 6.213)" fill="#de1a51"/>
    <path id="Path_618" data-name="Path 618" d="M204.757,766.936s-15.347-52.076,2.871-90.4a82.257,82.257,0,0,0,6.68-51.617,137.774,137.774,0,0,0-7.3-24.21" transform="translate(-37.973 -4.583)" fill="none" stroke="#535461" stroke-miterlimit="10" stroke-width="2"/>
    <path id="Path_619" data-name="Path 619" d="M218.6,579.449c0,6.385-11.548,24.9-11.548,24.9s-11.559-18.556-11.559-24.9a11.559,11.559,0,0,1,23.107,0Z" transform="translate(-38.268 -7.553)" fill="#de1a51"/>
    <path id="Path_620" data-name="Path 620" d="M236.107,612.373c-3.46,5.359-23.227,14.615-23.227,14.615s.36-21.83,3.831-27.178a11.559,11.559,0,0,1,19.4,12.563Z" transform="translate(-36.677 -5.124)" fill="#de1a51"/>
    <path id="Path_621" data-name="Path 621" d="M235.7,668.084c-5.7,2.871-27.43.884-27.43.884s11.33-18.654,17.028-21.524a11.558,11.558,0,1,1,10.4,20.642Z" transform="translate(-37.099 -0.419)" fill="#de1a51"/>
    <path id="Path_622" data-name="Path 622" d="M225.644,709.782c-5.13,3.8-26.884,5.458-26.884,5.458s8.012-20.291,13.1-24.09A11.559,11.559,0,1,1,225.6,709.705Z" transform="translate(-37.969 3.454)" fill="#de1a51"/>
    <path id="Path_623" data-name="Path 623" d="M190.974,627.1c4.573,4.443,25.9,9.059,25.9,9.059s-5.228-21.186-9.824-25.639a11.559,11.559,0,1,0-16.1,16.58Z" transform="translate(-39.024 -4.003)" fill="#de1a51"/>
    <path id="Path_624" data-name="Path 624" d="M180.1,676.224c5.7,2.871,27.43.884,27.43.884s-11.33-18.643-17.028-21.524a11.558,11.558,0,1,0-10.4,20.642Z" transform="translate(-40.258 0.325)" fill="#de1a51"/>
    <path id="Path_625" data-name="Path 625" d="M175.682,725.2c5.13,3.787,26.873,5.458,26.873,5.458s-8-20.291-13.1-24.09a11.559,11.559,0,0,0-13.742,18.556Z" transform="translate(-40.465 4.926)" fill="#de1a51"/>
    <path id="Path_626" data-name="Path 626" d="M218.6,579.449c0,6.385-11.548,24.9-11.548,24.9s-11.559-18.556-11.559-24.9a11.559,11.559,0,0,1,23.107,0Z" transform="translate(-38.268 -7.553)" fill="#de1a51"/>
    <path id="Path_627" data-name="Path 627" d="M236.107,612.373c-3.46,5.359-23.227,14.615-23.227,14.615s.36-21.83,3.831-27.178a11.559,11.559,0,0,1,19.4,12.563Z" transform="translate(-36.677 -5.124)" fill="#de1a51"/>
    <path id="Path_628" data-name="Path 628" d="M235.7,668.084c-5.7,2.871-27.43.884-27.43.884s11.33-18.654,17.028-21.524a11.558,11.558,0,1,1,10.4,20.642Z" transform="translate(-37.099 -0.419)" fill="#de1a51"/>
    <path id="Path_629" data-name="Path 629" d="M225.644,709.782c-5.13,3.8-26.884,5.458-26.884,5.458s8.012-20.291,13.1-24.09A11.559,11.559,0,1,1,225.6,709.705Z" transform="translate(-37.969 3.454)" fill="#de1a51"/>
    <path id="Path_630" data-name="Path 630" d="M190.974,627.1c4.573,4.443,25.9,9.059,25.9,9.059s-5.228-21.186-9.824-25.639a11.559,11.559,0,1,0-16.1,16.58Z" transform="translate(-39.024 -4.003)" fill="#de1a51"/>
    <path id="Path_631" data-name="Path 631" d="M180.1,676.224c5.7,2.871,27.43.884,27.43.884s-11.33-18.643-17.028-21.524a11.558,11.558,0,1,0-10.4,20.642Z" transform="translate(-40.258 0.325)" fill="#de1a51"/>
    <path id="Path_632" data-name="Path 632" d="M175.682,725.2c5.13,3.787,26.873,5.458,26.873,5.458s-8-20.291-13.1-24.09a11.559,11.559,0,0,0-13.742,18.556Z" transform="translate(-40.465 4.926)" fill="#de1a51"/>
    <path id="Path_633" data-name="Path 633" d="M171,751.528s18.687-3.711,23.664-8.656,27.4-13.6,29.885-7.422,33.618,27.2,12.443,30.912-49.806,4.945-56.027,2.467S171,751.528,171,751.528Z" transform="translate(-40.509 7.551)" fill="#a8a8a8"/>
    <path id="Path_634" data-name="Path 634" d="M237.025,762.531c-21.164,3.711-49.806,4.945-56.027,2.478-4.737-1.888-8.033-10.915-9.332-15.139l-.666.142s3.744,14.834,9.965,17.3,34.863,1.233,56.027-2.467c6.112-1.092,7.859-3.591,7.2-6.767C243.705,760.141,241.577,761.735,237.025,762.531Z" transform="translate(-40.509 9.067)" opacity="0.2"/>
    <path id="Path_635" data-name="Path 635" d="M814.2,333.881c5.861-6.549,3.569-16.755,3.569-16.755s-27.659-70.49-30.726-71.265-10.762-18.556-10.762-18.556S702.524,157.2,699.872,157.2s-29.58-19.363-33.029-19.745S658,135.128,652.238,132s-64.159.393-66.462,3.1-13.1,4.65-13.1,4.65-21.9,1.157-24.974,5.032-25.727,5.927-25.727,5.927-11.144,4.148,3.984,15.161h0c-4.846.764-10.511,1.354-16.263,1.768-1.441.1-2.9.2-4.366.273h-.862a14.278,14.278,0,0,0-5.37-7.215,45.048,45.048,0,0,0-5.1-2.369,40.687,40.687,0,0,1-7.553-5.185,247.536,247.536,0,0,0-35.714-23.664,17.106,17.106,0,0,0-6.364-2.39c-4.682-.448-8.863,2.838-13.447,3.94-8.055,1.932-16.176-2.98-24.461-3.056-10.348-.1-19.767,7.957-22.922,17.89-1.168,3.678-1.692,7.772-4.213,10.686-3.274,3.809-8.808,4.366-13.295,6.625a20.062,20.062,0,0,0-10.784,17.781v.087a10.29,10.29,0,0,0,.1,1.735c.513,4.672,2.674,8.983,4.257,13.415a55.481,55.481,0,0,1,3.056,14.08.727.727,0,0,1,0,.153c.065.8.12,1.594.153,2.4v2.827c0,4.17-.142,8.372-.131,12.541v2.565a14.708,14.708,0,0,0,.065,1.681v.589a14.843,14.843,0,0,0,.131,1.55,2.743,2.743,0,0,0,.055.666,11.257,11.257,0,0,0,.185,1.484l.1.7c.076.491.164.982.251,1.474l.131.677c.109.524.24,1.091.371,1.572.055.186.087.36.131.546q.295,1.091.655,2.1a30.759,30.759,0,0,0,20.368,19.2,18.914,18.914,0,0,0,5.4.677c3.274-.076,6.407-1.091,8.35-3.329.48.546.95,1.091,1.452,1.637a65.414,65.414,0,0,0,106.236-14.19c1.146-.251,2.281-.48,3.427-.7,1.987-.371,3.984-.72,5.992-1.091l1.932-.306h0l.764-.131c9.824-1.55,19.363-2.587,26.2-3.275l-27,3.351s-6.549,31.446-8.437,34.928,6.549,9.289,6.549,9.289,7.3,8.907,7.3,11.625,8.448,10.457,10.751,14.714a6.551,6.551,0,0,0,1.091,1.474,15.443,15.443,0,0,0-4.65,2.827c-5.337,5.054-3.558,13.917-6,20.859-1.528,4.366-4.726,7.9-7.8,11.341a15.472,15.472,0,0,0-2.751,3.809,9.36,9.36,0,0,0-.731,2.925h0a14.311,14.311,0,0,0-.066,1.681v.2a6.334,6.334,0,0,0,.087,1.288v.557c.535,4.563,2.085,8.972,2.554,13.535s-.1,9.158.84,13.6a20.275,20.275,0,0,0,1.506,4.486l-15.63,17.464s-.1.862-.131,2.281c-13.033,10.817-33.182,31.228-25.989,49.227q1.179,2.958,2.183,5.665c-5.294,3.373-7.04,7.379.9,11.374,1.255.633,2.467,1.179,3.657,1.67,4.071,11.952,5.665,15.281,12.487,6.473.731-.961,1.583-2.183,2.51-3.5,9.605-.2,15.161-4.639,15.161-4.639s26.884-1.55,33.837,2.718c3.482,2.183,11.668,2.62,18.916,2.565a198.119,198.119,0,0,0,1.092,23.38s-1.157,32.92,1.921,39.895,4.781,18.981,4.781,18.981-5.163,11.614-2.1,17.813-2.685,15.106-2.685,15.106V624.08l2.183-.153c-.164,1.539-.371,3.154-.644,4.693-.633,3.569-1.583,6.767-3.045,7.8-3.842,2.762-4.224,17.464-4.224,17.464s-6.145,17.824-5,20.924-7.291,9.289-5.37,13.938,5.85,34.077,9.267,42.569-6.964,6.2-6.964,6.2l3.067,22.07s3.078,22.463.775,24.013-15.554,12.781-6.44,19.363c.709.513,1.43.982,2.183,1.43a23.582,23.582,0,0,1-.076,3.056c-.175,1.736-.611,3.122-1.583,3.275-2.707.393-8.088,3.1-9.223,1.943s-7.641,2.925-14.19,4.257l-.906.142-8.5-2.183a59.836,59.836,0,0,0-38.421-1.419s-6.167.961-9.158,5.567c-1.517,2.358-2.183,5.676-.83,10.3,4.1,13.687,32.079,18.4,32.079,18.4s9.693,2,21.339,4.639h-1.168a12.847,12.847,0,1,0,4.366.8c13.1,3.012,27.6,6.68,33.5,9.267a102.514,102.514,0,0,0,13.458,4.039,12.771,12.771,0,0,0,23.773,5.348c17.824,3.722,34.994,6.877,34.994,6.877l28.674.469h.2a12.771,12.771,0,1,0,.175,0l43.409.709a12.8,12.8,0,1,0,24.712.4l38.29.622,7.641-8.4a6.789,6.789,0,0,0,.753-2.63c.229-2.762-1.2-6.953-10.981-8.732-.72-.131-20.673.186-38.3.48V854.7s-.491-3.809-.8-8.3c-.087-1.321-.164-2.7-.2-4.049a10.507,10.507,0,0,0,3.275,1.5c7.3,1.168,17.289-20.138,17.289-20.138s0-12.007,2.3-21.688,6.549-42.219,6.549-42.219l9.234-39.109s3.82-79.789,1.9-82.889,2.314-8.525,2.314-8.525,3.067-17.038-1.539-22.845,2.685-11.625,2.685-11.625,1.921-20.138-3.46-27.877,2.521-13.164,2.521-13.164l1.921-31.37c8.066-8.132,15.357-56.54,15.75-67a43.028,43.028,0,0,1,3.842-17.049s5.37-8.132,6.145-13.556,6.549-16.646,6.549-16.646L815.1,370.97c4.028-15,3-26.087.327-33.99C815.037,335.867,814.622,334.852,814.2,333.881Zm-180.437,2.183c6.145,3.875,4.224,5.032,6.145,7.357s.382,1.932-1.157,5.807-.382,2.718.382,6.975.393,4.257.393,4.257l1.921.273-2.674,17.977c-4.366,2.849-6.364,8.306-7.269,13.939-2.576-3.362-5.174-6.855-7.5-10.107.8-1.779.644-3.9.666-5.894.087-6.549,2.532-12.8,3.657-19.254a48.649,48.649,0,0,0-.622-19.767,30.028,30.028,0,0,0-2.565-7.018c2.489,1.659,5.643,3.624,8.623,5.5Zm6.909,379.55s4.857-3.275,9.573-6.254c1.583,11.494,3.078,23.446,4.137,34.251-1.692-3.755-2.871-6.309-2.871-6.309a12.989,12.989,0,0,1-2.969-7.357c-.186-4.213-7.87-14.288-7.87-14.288Zm-28.8-398.095c1.092.153,2.641,1.539,4.1,3.2-1.353-1.092-2.718-2.183-4.115-3.209Zm-70.3,143.293c-4.432,1.4-19.451,1.19-28.379.666,3.34-5.709,6.658-11.515,9.605-16.722a35.488,35.488,0,0,0,5.294.95l29.242-25.683a50.362,50.362,0,0,0,33.946-.218l.8,1.244c.338.546.7,1.092,1.091,1.7l-.731-1.19s-11.286,6.724-10.14,9.824-1.528,10.839-5.752,19.134c-1.092,2.074-2.041,4.126-2.958,6.189C564.012,457.6,545.991,459.415,541.56,460.812Zm55.481,357.84-.164-3.067c1.855-.4,3.078-.775,3.078-.775a120.777,120.777,0,0,0-1.921-13.557c-1.157-4.65-.557-3.1,3.94-6.549s0-42.569,0-42.569,2.183-2.718,5.643,4.257,6.931,11.232,8.088,11.614-4.617,8.143,0,15.5a44.536,44.536,0,0,1,5.752,15.489s-3.067,12.3,1.539,17.77a6.767,6.767,0,0,0,2.183,1.5v3.111a38.134,38.134,0,0,1-.1,4.158,1.539,1.539,0,0,1-2.456.961c-1.19-.775-8.732.961-8.219,5.818a35.736,35.736,0,0,1-6.025,5.643l-10.468-2.707Z" transform="translate(-23.649 -47.927)" fill="url(#linear-gradient)"/>
    <path id="Path_636" data-name="Path 636" d="M490.413,393.432s-3.657,29.962,25.345,33.029l4.366-20.739-9.136-12.29L497.9,389Z" transform="translate(-11.294 -23.956)" fill="#de1a51"/>
    <path id="Path_637" data-name="Path 637" d="M497.9,389l-7.488,4.421s-3.657,29.962,25.345,33.029" transform="translate(-11.294 -23.956)" opacity="0.1"/>
    <path id="Path_638" data-name="Path 638" d="M545.542,244.445s-19.571,1.2-39.2,4.453q-3.013.513-5.992,1.092c-1.157.218-2.292.448-3.427.7-10.282,2.117-19.647,4.868-25.1,8.383-6.549,4.2-8.732-7.117-8.939-22.845-.087-5.534.1-11.6.393-17.737.382-7.095.939-14.277,1.528-20.739,1.3-14.321,2.794-25.454,2.794-25.454s6.855,0,16.012-.317l2.947-.109c2.871-.109,5.916-.262,8.983-.448,1.452-.076,2.914-.164,4.366-.273,5.807-.415,11.537-1,16.373-1.768,5.152-.83,9.332-1.877,11.6-3.275C538.251,159.929,545.542,244.445,545.542,244.445Z" transform="translate(-13.802 -44.382)" fill="#f8bdc5"/>
    <path id="Path_639" data-name="Path 639" d="M619.435,339.79l-3.82,25.356s-8.328,10.369-7.237,16.133,10.7,260.456,10.7,260.456S637.9,749.291,631.366,763.121s-.382,46.105-.382,46.105l39.185-6.145,13.1-470.211Z" transform="translate(-0.495 -29.092)" fill="#474463"/>
    <path id="Path_640" data-name="Path 640" d="M619.435,339.79l-3.82,25.356s-8.328,10.369-7.237,16.133,10.7,260.456,10.7,260.456S637.9,749.291,631.366,763.121s-.382,46.105-.382,46.105l39.185-6.145,13.1-470.211Z" transform="translate(-0.495 -29.092)" opacity="0.1"/>
    <path id="Path_641" data-name="Path 641" d="M704.118,777.75c-1.244,2.063-1.146,8.132-.8,13.294.306,4.442.8,8.219.8,8.219v26.12s-41.87-14.594-64.923-29.962c-9.507-6.342-12.214-12.236-11.69-16.951.764-6.713,8.077-11.09,11.69-11.09,3.449,0,14.342-6.014,23.271-11.33,7.018-4.159,12.847-7.881,12.847-7.881S706.421,773.908,704.118,777.75Z" transform="translate(1.259 8.911)" fill="#575988"/>
    <path id="Path_642" data-name="Path 642" d="M701.182,777.75c-1.244,2.063-1.146,8.132-.8,13.294-9.311-4.366-38.137-32.33-40.855-34.994,7.018-4.159,12.847-7.881,12.847-7.881S703.485,773.908,701.182,777.75Z" transform="translate(4.195 8.911)" opacity="0.1"/>
    <path id="Path_643" data-name="Path 643" d="M791.977,359.584l-9.987,36.882s-5.763,11.133-6.549,16.515-6.145,13.447-6.145,13.447a42.57,42.57,0,0,0-3.842,16.9c-.382,10.38-7.641,58.4-15.75,66.462l-1.921,31.119s-7.641,5.37-2.3,13.1,3.46,27.659,3.46,27.659-7.3,5.763-2.685,11.526,1.528,22.671,1.528,22.671-4.224,5.37-2.3,8.448-1.9,82.212-1.9,82.212l-9.234,38.792s-4.235,32.276-6.549,41.881-2.3,21.5-2.3,21.5-9.987,21.132-17.289,19.986-42.634-35.736-42.634-35.736l4.988-116.792s4.224-49.554,1.539-59.16-4.606-57.621-4.606-57.621L662.109,483.7l-53.724-84.516s-3.9-24.592,7.237-31.883l2.019-13.284,1.823-12.072,63.777-6.92,97.57-25.345s7.521,4.639,11.461,16.22C794.968,333.7,796,344.707,791.977,359.584Z" transform="translate(-0.545 -31.214)" fill="#474463"/>
    <path id="Path_644" data-name="Path 644" d="M625.9,394.436s-45.33,55.667-43.409,40.113c1.2-9.769-5-21.7-9.823-29.241-2.849-4.486-5.206-7.422-5.206-7.422s27.659-50.7,29.2-43.791c.491,2.183,3.689,7.193,7.8,12.913C613.14,378.992,625.9,394.436,625.9,394.436Z" transform="translate(-4.23 -27.209)" fill="#ffc1c8"/>
    <path id="Path_645" data-name="Path 645" d="M704.118,817.405v5.458S662.248,808.27,639.2,792.9c-9.507-6.342-12.214-12.236-11.69-16.951,12.727,6.44,36.4,18.719,43.573,24.253C677.169,804.9,692.908,812.33,704.118,817.405Z" transform="translate(1.259 11.453)" fill="#fff" opacity="0.3"/>
    <circle id="Ellipse_57" data-name="Ellipse 57" cx="12.803" cy="12.803" r="12.803" transform="translate(682.717 823.98)" fill="#474463"/>
    <circle id="Ellipse_58" data-name="Ellipse 58" cx="12.803" cy="12.803" r="12.803" transform="translate(551.933 806.003)" fill="#474463"/>
    <path id="Path_646" data-name="Path 646" d="M768.58,813.784a6.755,6.755,0,0,1-.753,2.609l-7.641,8.328-106.793-1.714-28.718-.469s-60.448-11-72.225-16.132-58.079-14.517-58.079-14.517S466.407,787.2,462.3,773.628c-1.386-4.6-.688-7.881.829-10.216,2.98-4.573,9.158-5.534,9.158-5.534a60.36,60.36,0,0,1,38.421,1.419l179.007,46.051,2.772.71s63.81-1.19,65.1-.961C767.379,806.886,768.809,811.045,768.58,813.784Z" transform="translate(-13.921 9.573)" fill="#de1a51"/>
    <path id="Path_647" data-name="Path 647" d="M768.58,813.113c-10.74-1.4-29.471-3.46-34.3-1.473,0,0-34.066-4.213-80.936,10.7l-28.674-.469s-60.448-11-72.225-16.133-58.079-14.517-58.079-14.517-27.964-4.693-32.068-18.261c-1.386-4.6-.688-7.881.829-10.216,1.91,5.567,5.589,13.633,11.461,15.892,9.223,3.547,47.131,10.773,47.131,10.773l75.03,18.37s43.322,9.4,60.186,3.274c6.909-2.489,19.876-4.7,32.745-6.44l2.773.71s63.81-1.19,65.1-.96C767.379,806.215,768.809,810.373,768.58,813.113Z" transform="translate(-13.921 10.244)" fill="#fff" opacity="0.3"/>
    <path id="Path_648" data-name="Path 648" d="M654.434,799.75a35.463,35.463,0,0,1-.6,4.792s-42.438,1.517-64.53-1.757c-6.1-.906-9.551-2.86-11.264-5.2a7.979,7.979,0,0,1-.8-7.641,11.991,11.991,0,0,1,.928-2.052c1.648-2.882,4.18-4.923,5.567-4.65,3.842.775,10.435-7.106,10.435-7.106-.524-4.813,7.04-6.549,8.219-5.763a1.539,1.539,0,0,0,2.456-.961c.076-.36.1-2.1.1-4.126,0-3.384-.1-7.641-.1-7.641l42.656,5.185,1.692,8.154c1.55,7.27,3.711,17.257,4.639,20.673A24.666,24.666,0,0,1,654.434,799.75Z" transform="translate(-3.392 9.779)" fill="#474463"/>
    <path id="Path_649" data-name="Path 649" d="M654.315,796.423a35.419,35.419,0,0,1-.6,4.792s-42.438,1.517-64.53-1.757c-6.1-.906-9.551-2.86-11.264-5.2,5.665-.338,13.033-.524,17.6.589C602.021,796.467,640.933,796.467,654.315,796.423Z" transform="translate(-3.273 13.105)" opacity="0.1"/>
    <path id="Path_650" data-name="Path 650" d="M585.956,788.969a2.183,2.183,0,0,1-.928,2.052c-5.37,4.148-31.141-.36-31.141-.36s-52.654-3.275-60.524-8.645a5.556,5.556,0,0,1-1.736-1.823c-3.274-5.916,8.579-15.849,9.605-15.849s15.183-1.932,16.133-2.117c6.549-1.321,13.1-5.381,14.19-4.224s6.549-1.539,9.212-1.921c.971-.142,1.419-1.517,1.583-3.274a36.4,36.4,0,0,0-.24-7.128L584.166,757l.371,6.7,1.212,22.31.153,2.74A1,1,0,0,1,585.956,788.969Z" transform="translate(-11.221 8.683)" fill="#474463"/>
    <path id="Path_651" data-name="Path 651" d="M553.88,787.768s-52.654-3.275-60.524-8.645a5.561,5.561,0,0,1-1.735-1.823c10.664.873,28.445,2.347,31.654,3.165,4.617,1.091,30.562,2.685,30.562,2.685h31.9l.153,2.74C587.28,793.618,553.88,787.768,553.88,787.768Z" transform="translate(-11.17 11.577)" opacity="0.1"/>
    <circle id="Ellipse_59" data-name="Ellipse 59" cx="12.803" cy="12.803" r="12.803" transform="translate(487.818 806.003)" fill="#474463"/>
    <circle id="Ellipse_60" data-name="Ellipse 60" cx="12.803" cy="12.803" r="12.803" transform="translate(626.876 832.581)" fill="#474463"/>
    <path id="Path_652" data-name="Path 652" d="M523.061,407.34s-2.423,4.366-6.069,10.85c-8.732,15.412-24.439,42.733-31.2,51.377-9.605,12.29-8.83.775-19.211-24.963-7.706-19.145,16.012-41.052,28.7-51.006,4.366-3.46,7.422-5.458,7.422-5.458Z" transform="translate(-13.599 -24.034)" fill="#f8bdc5"/>
    <path id="Path_653" data-name="Path 653" d="M569.606,432.83s-31.883,2.685-38.028,4.606-32.647.764-34.928,0S449,447.041,469.754,457.411s33.837,0,33.837,0,26.895-1.539,33.837,2.7,32.265,1.921,32.265,1.921Z" transform="translate(-13.667 -19.945)" fill="#ffc1c8"/>
    <path id="Path_654" data-name="Path 654" d="M503.51,221.663c3.929,10.053,1.474,18.807-3.154,27.79-11.592,2.183-22.5,5.185-28.565,9.081-17.29,11.144-4.224-86.819-4.224-86.819s8.361,0,18.96-.426C483.317,185.938,495.477,201.143,503.51,221.663Z" transform="translate(-13.804 -43.878)" opacity="0.1"/>
    <path id="Path_655" data-name="Path 655" d="M511.982,220.938a65.49,65.49,0,1,1-6.549-28.63,65.49,65.49,0,0,1,6.549,28.63Z" transform="translate(-21.293 -45.336)" fill="#f8bdc5"/>
    <path id="Path_656" data-name="Path 656" d="M791.458,325.87a15,15,0,0,1-8.732,6.058c-14.986,4.224-120.634,29.58-127.543,28.041-6.1-1.353-32.287-5.119-38.323-5.981l1.823-12.072,63.777-6.92,97.57-25.345S787.517,314.289,791.458,325.87Z" transform="translate(0.291 -31.217)" opacity="0.1"/>
    <path id="Path_657" data-name="Path 657" d="M541.74,244.45a368.216,368.216,0,0,0-37.275,4.148,2.565,2.565,0,0,0-.066-1.714l25.541-3.154s-3.733-60.033-17.464-74.419c5.152-.829,9.332-1.877,11.6-3.275C534.449,159.935,541.74,244.45,541.74,244.45Z" transform="translate(-10 -44.388)" opacity="0.1"/>
    <path id="Path_658" data-name="Path 658" d="M509.056,156.907s22.671-2.041,25.738-5.883,24.974-4.988,24.974-4.988,10.751-1.921,13.1-4.617,60.688-6.145,66.451-3.067,11.144,4.988,14.6,5.381,30.344,19.582,33.029,19.582,76.406,69.54,76.406,69.54S771,250.526,774.117,251.29s30.737,70.686,30.737,70.686,3.842,16.9-11.134,21.132-120.633,29.58-127.543,28.041S626.611,365,626.611,365s.382,0-.382-4.224-1.921-3.078-.393-6.92,3.078-3.46,1.157-5.763,0-3.46-6.145-7.3-13.1-8.066-13.447-9.212-5.763-8.841-8.448-9.223-77.988-21.514-77.988-21.514l-17.672-5.763s-8.448-5.763-6.549-9.212,8.437-34.655,8.437-34.655l27.015-3.329s-4.028-65.054-19.156-75.969S509.056,156.907,509.056,156.907Z" transform="translate(-10.727 -47.003)" fill="#de1a51"/>
    <path id="Path_659" data-name="Path 659" d="M520.529,407.34s-2.423,4.366-6.069,10.85c-.568-20.04-14.583-23.926-21.71-24.592,4.366-3.46,7.422-5.458,7.422-5.458Z" transform="translate(-11.067 -24.034)" opacity="0.1"/>
    <path id="Path_660" data-name="Path 660" d="M501.971,272.34l1.856,10.369s7.3,8.841,7.3,11.526,8.448,10.369,10.762,14.593,10.369,5,7.291,12.3-20.739,63-20.739,63L490.39,404.107s29.962-2.7,25.345,33.029l38.8-33.837,30.388-55.285s-29.58-56.082-30.726-60.688S501.971,272.34,501.971,272.34Z" transform="translate(-11.283 -34.631)" fill="#de1a51"/>
    <path id="Path_661" data-name="Path 661" d="M583.31,291.561s24.581-17.289,24.581-19.211S583.31,291.561,583.31,291.561Z" transform="translate(-2.78 -34.641)" opacity="0.1"/>
    <path id="Path_662" data-name="Path 662" d="M621,310.626s13.1-3.078,14.19-9.987S621,310.626,621,310.626Z" transform="translate(0.669 -32.193)" opacity="0.1"/>
    <path id="Path_663" data-name="Path 663" d="M630.82,326.75s18.447-9.136,17.672-10.719S630.82,326.75,630.82,326.75Z" transform="translate(1.568 -30.646)" opacity="0.1"/>
    <path id="Path_664" data-name="Path 664" d="M721.756,272.23s-7.641,4.988-5.37,9.66S721.756,272.23,721.756,272.23Z" transform="translate(9.359 -34.641)" opacity="0.1"/>
    <path id="Path_665" data-name="Path 665" d="M743.473,274.1s-21.765,20.739-16.842,21.132S743.473,274.1,743.473,274.1Z" transform="translate(10.269 -34.47)" opacity="0.1"/>
    <path id="Path_666" data-name="Path 666" d="M696.64,568.68s28.041,5.381,28.8,7.3S696.64,568.68,696.64,568.68Z" transform="translate(7.591 -7.514)" opacity="0.1"/>
    <path id="Path_667" data-name="Path 667" d="M705.79,585.57s14.975,9.223,15.358,11.908S705.79,585.57,705.79,585.57Z" transform="translate(8.428 -5.968)" opacity="0.1"/>
    <path id="Path_668" data-name="Path 668" d="M702.62,604.58s2.3,10.369,6.145,11.908S702.62,604.58,702.62,604.58Z" transform="translate(8.138 -4.228)" opacity="0.1"/>
    <path id="Path_669" data-name="Path 669" d="M505.525,191.976a.735.735,0,0,1-.055.338c-.524,3.416-1.921,7.117-5.13,8.252a8.165,8.165,0,0,1-5.818-.535c-5.457-2.39-10.315-8.132-16.143-6.745-2.773.655-4.715,2.761-6.091,5.348a26.852,26.852,0,0,0-2.183,5.861c-1.091,4.279-1.965,8.929-.295,13a13.245,13.245,0,0,0,.982,1.921c1.55,2.478,3.733,4.584,5.261,7.084,1.9,3.122,2.39,7.8-.568,9.944a5.992,5.992,0,0,1-5.086.709,30.255,30.255,0,0,1-6.211-2.751c-3.864-2.019-8.732-3.275-12.4-.939-1.266.786-2.281,1.921-3.493,2.751a12.6,12.6,0,0,1-8.437,1.757c-6.942-.709-9.54-5.108-14.844-8.514-3.886-2.51-12.007-3.58-14.321,1.55-1.484,3.275.72,7.4-.731,10.74s-6.069,4.366-8.208,7.466c-2.816,4.082-.2,9.987-2.259,14.517a7.4,7.4,0,0,1-1.255,1.921,65.687,65.687,0,0,1,92.887-92.778l2.947-.109c2.871-.109,5.916-.262,8.983-.448a25.006,25.006,0,0,1,1.692,4.792A39.953,39.953,0,0,1,505.525,191.976Z" transform="translate(-21.32 -45.343)" opacity="0.1"/>
    <path id="Path_670" data-name="Path 670" d="M411.459,231.446c-1.5,3.275.709,7.4-.731,10.73s-6.091,4.366-8.208,7.466c-2.827,4.093-.207,10-2.26,14.517-2.358,5.163-9.474,5.971-14.932,4.464a30.562,30.562,0,0,1-20.368-19.047c-3.7-10.533-1.31-22.125-2.27-33.247a55.151,55.151,0,0,0-3.056-13.96c-1.583-4.366-3.744-8.667-4.257-13.306a19.778,19.778,0,0,1,10.675-19.44c4.5-2.183,10.031-2.805,13.306-6.549,2.51-2.9,3.045-6.953,4.213-10.609,3.154-9.824,12.574-17.835,22.922-17.737,8.274.065,16.373,4.945,24.461,3.023,4.573-1.091,8.732-4.366,13.447-3.9a17.061,17.061,0,0,1,6.363,2.369,247.986,247.986,0,0,1,35.7,23.467,40.19,40.19,0,0,0,7.564,5.141,46.947,46.947,0,0,1,5.1,2.347c3.526,2.183,5.37,6.342,6.374,10.38a39.654,39.654,0,0,1,.808,14.866c-.48,3.5-1.856,7.433-5.185,8.6a8.153,8.153,0,0,1-5.829-.557c-5.458-2.369-10.3-8.11-16.133-6.735-4.759,1.092-7.051,6.484-8.3,11.21-1.091,4.279-1.986,8.929-.295,13.011,1.4,3.384,4.366,5.861,6.232,8.994s2.4,7.815-.568,9.944c-3.275,2.369-7.717-.153-11.308-2.03-3.842-2.019-8.732-3.275-12.389-.95-1.255.786-2.27,1.921-3.493,2.762a12.7,12.7,0,0,1-8.426,1.746c-6.953-.709-9.551-5.108-14.845-8.514C421.883,227.374,413.784,226.3,411.459,231.446Z" transform="translate(-23.645 -47.308)" fill="#474463"/>
    <path id="Path_671" data-name="Path 671" d="M604.472,366.953c-.295,1.637-2.543,1.823-3,3.416-4.366,15.4-13.971,29.252-28.794,34.928-2.849-4.486-5.207-7.422-5.207-7.422s27.659-50.7,29.2-43.791C597.159,356.235,600.357,361.234,604.472,366.953Z" transform="translate(-4.229 -27.21)" opacity="0.1"/>
    <path id="Path_672" data-name="Path 672" d="M610.623,360.351a50.526,50.526,0,1,1-14.8-35.9,50.714,50.714,0,0,1,14.8,35.9Z" transform="translate(-9.561 -31.217)" fill="#ffc1c8"/>
    <path id="Path_673" data-name="Path 673" d="M579.966,757.029l.371,6.7c-4.442.982-12.891,2.27-17.813-.742-6.363-3.9-15.761-4.846-24.373-10.151a36.384,36.384,0,0,0-.24-7.127Z" transform="translate(-6.934 8.686)" opacity="0.1"/>
    <path id="Path_674" data-name="Path 674" d="M646.826,771.012c-.295,1.5-.568,2.412-.568,2.412s-33.891-3.471-43.66-8.154c0-3.384-.1-7.641-.1-7.641l42.656,5.185Z" transform="translate(-1.024 9.777)" opacity="0.1"/>
    <path id="Path_675" data-name="Path 675" d="M645.5,635.218c-2.3,6.145-3.46,7.3-1.146,10.369s1.146,19.21-2.521,20.739-17.464,10.751-17.464,10.751,7.641,9.987,7.87,14.189a12.859,12.859,0,0,0,2.969,7.3s11.832,25.356,14.19,33.422,4.519,20.739,4.519,20.739-4.137,11.526-1.277,18.065,0,16.132,0,16.132-41.27-4.224-45.843-9.649-1.528-17.628-1.528-17.628a44.128,44.128,0,0,0-5.763-15.368c-4.617-7.3,1.092-14.976,0-15.369s-4.617-4.606-8.088-11.515-5.632-4.235-5.632-4.235,4.5,38.8,0,42.263-5.108,1.921-3.951,6.549a118.746,118.746,0,0,1,1.921,13.447s-13.829,4.224-20.738,0-17.312-5-26.447-11.526,4.137-17.672,6.44-19.21-.764-23.817-.764-23.817l-3.078-21.9s10.369,2.3,6.964-6.145-7.346-37.646-9.267-42.252,6.549-10.762,5.381-13.829,4.988-20.739,4.988-20.739.393-14.593,4.224-17.333c1.463-1.026,2.412-4.213,3.045-7.739a96.172,96.172,0,0,0,1.19-12.574s87.964-6.145,102.176,2.3c6.4,3.8,5.949,10.8,3.275,17.879-3.275,8.645-10,17.464-11.69,20.662C646.273,625.1,647.8,629.072,645.5,635.218Z" transform="translate(-7.347 -6.825)" fill="#575988"/>
    <path id="Path_676" data-name="Path 676" d="M659.268,598.543c-10.915,3.067-25.454,7.575-27.823,10.162-3.842,4.235-16.908-23.817-16.908-23.817s.775,21.088-16.515,12.268c-14.965-7.641-39.12-6.636-45.363-6.222a96.155,96.155,0,0,0,1.19-12.574s87.965-6.145,102.176,2.3C662.422,584.462,661.975,591.459,659.268,598.543Z" transform="translate(-5.584 -6.825)" opacity="0.1"/>
    <path id="Path_677" data-name="Path 677" d="M614.917,384.458s7.641-9.223,9.223-5.763,10.6,10.369,10.6,10.369,2.587,8.066,7.138,9.223,38.738,47.251,38.738,47.251l-12.3,24.963-9.987,60.7s.437,9.605-2.281,13.1-13.1,2.685-8.285,6.909,11.723,8.066,15.565,27.288,8.448,30.344,8.448,30.344-36.107,9.223-39.949,13.447-16.907-23.817-16.907-23.817.775,21.077-16.514,12.269-46.869-6.123-46.869-6.123v-22.7s5.763-8.841,2.7-14.986,2.1-17.672,2.1-17.672-1.714-11.908-4.792-18.818-1.921-39.567-1.921-39.567-2.336-21.132-.207-31.894a95.4,95.4,0,0,1,9.464-26.72c4.224-8.23,6.9-15.914,5.752-18.992s10.14-9.736,10.14-9.736l6.254,10.118,1.594,6.047S615.692,395.985,614.917,384.458Z" transform="translate(-5.964 -24.97)" fill="#dce6f2"/>
    <path id="Path_678" data-name="Path 678" d="M667.405,432.83s21.514,21.121,23.817,24.581,10.02,21.448.033,26.906-49.118,13.873-53,10.97-27.288,3.274-27.288,3.274-39.142,9.605-30.693-6.145,28.434-13.1,28.434-13.1,32.287-.055,35.736-3.275,29.471-10.129,23.577-24.362S667.405,432.83,667.405,432.83Z" transform="translate(-3.167 -19.945)" fill="#ffc1c8"/>
    <path id="Path_679" data-name="Path 679" d="M605.932,519.41s-50.111,43.409-45.123,43.409S605.932,519.41,605.932,519.41Z" transform="translate(-4.871 -12.022)" opacity="0.1"/>
    <path id="Path_680" data-name="Path 680" d="M633.85,535.6s-15.925,3.831-12.847,6.145S633.85,535.6,633.85,535.6Z" transform="translate(0.634 -10.541)" opacity="0.1"/>
    <path id="Path_681" data-name="Path 681" d="M581.29,439.16s19.876,1.779,16.373,8S581.29,439.16,581.29,439.16Z" transform="translate(-2.964 -19.366)" opacity="0.1"/>
    <path id="Path_682" data-name="Path 682" d="M570.04,610.09s-2.7,7.815,0,12.007,0,14.19,0,14.19v34.928s-.371,25.356,8.83,34.186Z" transform="translate(-4.103 -3.724)" opacity="0.1"/>
    <path id="Path_683" data-name="Path 683" d="M545.83,709.81s5.37,7.87,6.145,10.751S545.83,709.81,545.83,709.81Z" transform="translate(-6.209 5.401)" opacity="0.1"/>
    <path id="Path_684" data-name="Path 684" d="M547.06,695.5s12.487-2.3,14.408-.96S547.06,695.5,547.06,695.5Z" transform="translate(-6.097 3.965)" opacity="0.1"/>
    <path id="Path_685" data-name="Path 685" d="M543.8,738.49s-3.657.382,3.646,4.366,21.513,9.027,21.7,7.3S543.8,738.49,543.8,738.49Z" transform="translate(-6.479 8.025)" opacity="0.1"/>
    <path id="Path_686" data-name="Path 686" d="M592.69,703.485c1.288,0,17.366-.961,16.438,1.539S592.69,703.485,592.69,703.485Z" transform="translate(-1.921 4.806)" opacity="0.1"/>
    <path id="Path_687" data-name="Path 687" d="M612.7,683.241s3.646-6.331,4.988-3.646S612.7,683.241,612.7,683.241Z" transform="translate(-0.09 2.575)" opacity="0.1"/>
    <path id="Path_688" data-name="Path 688" d="M610.622,360.357a50.524,50.524,0,0,1-1.943,13.939c-2.117,1.921-5.774,1.943-8.383.513-3.056-1.681-5.054-4.737-7.04-7.641s-4.246-5.807-7.5-7.051c-4.115-1.55-8.808,0-12.389,2.576s-6.44,5.982-9.823,8.732-7.7,4.977-12.006,4.3c-2.783-.426-5.25-2-7.641-3.515-3.275-2.063-6.789-5.272-10.38-6.658s-6.549,1.091-9.965,1.091c-2.718.982-5.676,3.22-5.13,6.047a9.377,9.377,0,0,0,1.4,2.925,12.279,12.279,0,0,1-1.6,13.524,50.711,50.711,0,1,1,92.418-28.849Z" transform="translate(-9.56 -31.224)" opacity="0.1"/>
    <path id="Path_689" data-name="Path 689" d="M524.375,366.847c-2.718.982-5.676,3.22-5.141,6.058a9.727,9.727,0,0,0,1.408,2.914c3.187,5.687.491,13.851-5.458,16.493a4.836,4.836,0,0,1-3.035.48,5.37,5.37,0,0,1-2.183-1.31,20.2,20.2,0,0,1-6.3-10.861c-.939-4.366-.36-8.994-.84-13.48s-2.019-8.907-2.554-13.426a12.452,12.452,0,0,1,.688-6.636,15.438,15.438,0,0,1,2.751-3.777c3.067-3.416,6.265-6.909,7.8-11.242,2.434-6.9.666-15.685,5.992-20.739,2.467-2.314,5.916-3.176,8.972-4.639a63.194,63.194,0,0,0,8.241-5.228c9.878-6.789,21.885-12.007,33.63-9.605a47.829,47.829,0,0,1,13.327,5.458,149.826,149.826,0,0,1,21.83,14.67,33.962,33.962,0,0,1,7.641,7.848,27.228,27.228,0,0,1,3.34,8.35,47.851,47.851,0,0,1,.633,19.647c-1.092,6.4-3.569,12.607-3.667,19.1,0,2.183.175,4.541-.95,6.418-1.8,2.991-6.265,3.274-9.321,1.615s-5.054-4.737-7.029-7.641-4.246-5.807-7.5-7.04c-4.115-1.561-8.808,0-12.389,2.565s-6.429,5.982-9.824,8.732-7.641,4.977-12.007,4.3c-2.783-.426-5.25-1.987-7.641-3.5-3.274-2.074-6.789-5.283-10.369-6.658S527.781,366.847,524.375,366.847Z" transform="translate(-10.394 -32.9)" fill="#794f6a"/>
    <path id="Path_690" data-name="Path 690" d="M632.958,432.83s-56.464,52.24-44.948,78.359,62.216-19.975,62.216-19.975L668.3,449.388Z" transform="translate(-2.491 -19.945)" fill="#f8bdc5"/>
    <g id="Group_28" data-name="Group 28" transform="translate(489.738 304.968)" opacity="0.1">
      <path id="Path_691" data-name="Path 691" d="M515.16,384.293a4.8,4.8,0,0,1-3.024.48,5.218,5.218,0,0,1-2.183-1.321,20.237,20.237,0,0,1-6.309-10.85c-.928-4.421-.349-9-.829-13.491s-2.03-8.9-2.554-13.425a2.881,2.881,0,0,0-.055-.677,17.278,17.278,0,0,0,.055,3.755c.524,4.519,2.074,8.885,2.554,13.426s-.1,9.07.829,13.48a20.227,20.227,0,0,0,6.309,10.861,5.3,5.3,0,0,0,2.183,1.31,4.8,4.8,0,0,0,3.024-.48c4.693-2.085,7.346-7.575,6.724-12.6A12.1,12.1,0,0,1,515.16,384.293Z" transform="translate(-500.13 -332.949)"/>
      <path id="Path_692" data-name="Path 692" d="M613.447,340.826c-1.092,6.4-3.569,12.607-3.656,19.1,0,2.183.174,4.541-.961,6.418-1.79,2.991-6.254,3.274-9.311,1.615s-5.054-4.726-7.04-7.641-4.235-5.807-7.5-7.04c-4.1-1.55-8.8,0-12.378,2.576s-6.44,5.97-9.824,8.732-7.7,4.977-12.007,4.311c-2.783-.437-5.25-2-7.641-3.515-3.274-2.074-6.789-5.272-10.369-6.658s-6.549,1.091-9.965,1.091c-2.718.993-5.676,3.22-5.152,6.069a4.519,4.519,0,0,0,.295.9A8.491,8.491,0,0,1,522.8,362.9c3.406,0,6.418-2.445,9.965-1.092s7.128,4.584,10.369,6.658c2.369,1.517,4.836,3.078,7.641,3.5,4.366.677,8.645-1.517,12.006-4.3s6.254-6.222,9.824-8.732,8.274-4.126,12.378-2.565c3.275,1.233,5.523,4.17,7.5,7.04s3.984,5.916,7.04,7.641,7.52,1.375,9.311-1.615c1.091-1.877.928-4.224.96-6.418.087-6.495,2.532-12.705,3.656-19.1a48.3,48.3,0,0,0,.7-9.955A48.481,48.481,0,0,1,613.447,340.826Z" transform="translate(-498.532 -333.96)"/>
    </g>
    <path id="Path_693" data-name="Path 693" d="M567.733,191.109s-20.739,37.646,7.641,56.857,31.119,17.289,31.119,17.289-.393,4.606,0,5.763,7.641,3.831,7.641,3.831,8.83,14.19,21.5,20.368,14.987,20.739,14.987,20.739,0,5,6.549,9.605,11.592,18.054,11.592,18.054v12.3c0,1.921,2.3,7.641-2.685,8.252s-.775,12.1-.775,12.1-5.37,6.549-4.224,9.605-2.3,9.212-2.3,9.212-4.224,6.145-3.842,7.3-4.606,5.381-3.46,8.066-5.752,6.145-4.606,9.223-4.912,4.606-4.912,4.606l-16.6,38.421s34.928,7.641,43.944,26.884l44.031-80.673s24.581-60.306,25.356-64.148S733.3,327.1,733.3,327.1l-29.962-54.575L658.394,209.14S622.669,133.106,567.733,191.109Z" transform="translate(-4.874 -44.06)" opacity="0.1"/>
    <path id="Path_694" data-name="Path 694" d="M610.585,205.58s-53.964,18.938-25.541,38.148,31.119,17.279,31.119,17.279-.382,4.617,0,5.763,7.641,3.842,7.641,3.842,8.841,14.19,21.514,20.368S660.3,311.719,660.3,311.719s0,5,6.549,9.605,11.526,18.054,11.526,18.054v12.29c0,1.921,2.3,7.641-2.7,8.263s-.764,12.1-.764,12.1-5.381,6.549-4.224,9.594-2.3,9.223-2.3,9.223-4.224,6.145-3.842,7.3-4.617,5.381-3.46,8.066-5.763,6.145-4.606,9.223-4.923,4.606-4.923,4.606l-16.591,38.41s28.772,1.484,37.853,20.739l50.111-74.474s24.592-60.306,25.356-64.148-5.359-17.715-5.359-17.715l-29.962-54.575-68.35-39.425S665.52,147.567,610.585,205.58Z" transform="translate(-3.378 -42.651)" opacity="0.1"/>
    <path id="Path_695" data-name="Path 695" d="M570.553,191.108s-20.739,37.646,7.641,56.857,31.119,17.289,31.119,17.289-.382,4.606,0,5.763,7.641,3.831,7.641,3.831,8.841,14.19,21.514,20.367,14.987,20.739,14.987,20.739,0,5,6.549,9.605,11.581,18.054,11.581,18.054v12.3c0,1.921,2.3,7.641-2.7,8.252s-.764,12.1-.764,12.1-5.381,6.549-4.224,9.605-2.3,9.212-2.3,9.212-4.224,6.145-3.842,7.3-4.617,5.381-3.46,8.066-5.763,6.145-4.606,9.223-4.923,4.606-4.923,4.606l-16.591,38.421s34.863,7.641,43.933,26.884l44.031-80.673s24.592-60.306,25.356-64.148-5.381-17.672-5.381-17.672l-29.962-54.575-44.937-63.362S625.478,133.106,570.553,191.108Z" transform="translate(-4.616 -44.06)" fill="#de1a51"/>
    <g id="Group_29" data-name="Group 29" transform="translate(331.646 138.262)" opacity="0.1">
      <path id="Path_696" data-name="Path 696" d="M362.69,208.922a54.775,54.775,0,0,0-3.056-13.971c-1.583-4.366-3.744-8.667-4.257-13.305v-.415a17.791,17.791,0,0,0,0,3.493c.513,4.639,2.674,8.907,4.257,13.306a54.679,54.679,0,0,1,3.056,13.96c.153,1.79.218,3.6.24,5.457C362.963,214.554,362.93,211.727,362.69,208.922Z" transform="translate(-355.291 -181.23)"/>
      <path id="Path_697" data-name="Path 697" d="M399.633,252.861c-2.347,5.152-9.474,5.97-14.932,4.453a30.628,30.628,0,0,1-20.368-19.036,45.081,45.081,0,0,1-2.183-14.528c-.065,6.014.164,11.952,2.183,17.6A30.638,30.638,0,0,0,384.7,260.392c5.458,1.506,12.585.7,14.932-4.464.993-2.183.9-4.715.851-7.2A11.255,11.255,0,0,1,399.633,252.861Z" transform="translate(-354.665 -177.339)"/>
      <path id="Path_698" data-name="Path 698" d="M496.721,184.987c-.469,3.493-1.856,7.422-5.185,8.59a8.164,8.164,0,0,1-5.818-.546c-5.458-2.379-10.315-8.121-16.143-6.735-4.759,1.092-7.04,6.473-8.3,11.21a27.6,27.6,0,0,0-1.168,9.245,36.018,36.018,0,0,1,1.168-6.178c1.255-4.726,3.536-10.075,8.3-11.21,5.829-1.375,10.642,4.366,16.143,6.735a8.121,8.121,0,0,0,5.818.557c3.329-1.168,4.715-5.1,5.185-8.6a39.662,39.662,0,0,0,.327-6.735C496.994,182.542,496.885,183.776,496.721,184.987Z" transform="translate(-345.702 -181.222)"/>
      <path id="Path_699" data-name="Path 699" d="M471.579,226.181c-3.274,2.369-7.717-.153-11.308-2.041-3.842-2.019-8.732-3.275-12.389-.95-1.255.786-2.27,1.921-3.493,2.762a12.563,12.563,0,0,1-8.426,1.746c-6.953-.71-9.551-5.108-14.844-8.514-3.886-2.5-12.007-3.569-14.321,1.561a9.31,9.31,0,0,0-.448,4.726,6.144,6.144,0,0,1,.448-1.648c2.325-5.141,10.435-4.071,14.321-1.561,5.294,3.406,7.892,7.8,14.844,8.514a12.629,12.629,0,0,0,8.426-1.757c1.222-.83,2.238-1.965,3.493-2.751,3.689-2.292,8.546-1.092,12.389.95,3.591,1.877,8.012,4.366,11.308,2.03,1.921-1.375,2.379-3.82,1.954-6.232A5.043,5.043,0,0,1,471.579,226.181Z" transform="translate(-350.63 -177.947)"/>
      <path id="Path_700" data-name="Path 700" d="M406.888,230.413c-1.5,3.427-6.091,4.366-8.208,7.455-1.583,2.292-1.452,5.152-1.4,8.023a9.081,9.081,0,0,1,1.4-4.945c2.118-3.089,6.713-4.039,8.208-7.466a9.5,9.5,0,0,0,.415-4.65,6.16,6.16,0,0,1-.415,1.583Z" transform="translate(-351.451 -176.874)"/>
    </g>
  </g>
</svg>
