<svg xmlns="http://www.w3.org/2000/svg" width="85.734" height="78" viewBox="0 0 85.734 78">
  <path id="Icon_awesome-heartbeat" data-name="Icon awesome-heartbeat" d="M53.616,39.129,45.294,56.434a2.635,2.635,0,0,1-4.839-.1L30.928,34.341,25.9,46.824H10.148L40.706,79.293a2.9,2.9,0,0,0,4.3,0L75.584,46.824H57.316ZM79.318,9.55l-.4-.435a21.354,21.354,0,0,0-31.378,0l-4.672,4.979L38.195,9.132a21.326,21.326,0,0,0-31.378,0l-.4.418a24.616,24.616,0,0,0-1.222,31.7H22.338l6.011-15.007a2.645,2.645,0,0,1,4.923-.07l9.745,22.511,8.2-17.044a2.631,2.631,0,0,1,4.789,0l4.621,9.61H80.54a24.616,24.616,0,0,0-1.222-31.7Z" transform="translate(0.001 -2.246)" fill="#54a591"/>
</svg>
