<svg xmlns="http://www.w3.org/2000/svg" width="129.455" height="80.008" viewBox="0 0 129.455 80.008">
  <path id="handshake" d="M86.57,4.5H69.463a6.3,6.3,0,0,0-4.3,1.706L45.585,24.48c-.02.02-.04.061-.06.081A8.027,8.027,0,0,0,56.279,36.481c.02-.02.06-.02.08-.041L72.271,21.577a3.157,3.157,0,0,1,4.5.2,3.29,3.29,0,0,1-.2,4.589l-5.2,4.853,29,24a14.482,14.482,0,0,1,1.573,1.564V17.5L91.071,6.409A6.266,6.266,0,0,0,86.57,4.5Zm21.767,13.036V63a6.429,6.429,0,0,0,6.373,6.5h12.746V17.536ZM117.9,63a3.249,3.249,0,1,1,3.186-3.249A3.228,3.228,0,0,1,117.9,63ZM0,69.477H12.746a6.429,6.429,0,0,0,6.373-6.5V17.536H0ZM9.559,56.5a3.249,3.249,0,1,1-3.186,3.249A3.228,3.228,0,0,1,9.559,56.5Zm86.809,3.777L66.635,35.669l-5.974,5.584a14.165,14.165,0,0,1-20.253-.893,14.829,14.829,0,0,1,.876-20.651L57.574,4.5H40.885a6.3,6.3,0,0,0-4.5,1.909L25.491,17.5V62.959h3.644l18.023,16.63A12.577,12.577,0,0,0,65.082,77.7l.04-.041,3.565,3.147a7.3,7.3,0,0,0,10.415-1.1l6.253-7.838,1.075.893a6.28,6.28,0,0,0,8.962-.954l1.892-2.376a6.6,6.6,0,0,0-.916-9.158Z" transform="translate(1 -3.5)" fill="#f4cc26" stroke="#707070" stroke-width="2"/>
</svg>
