<svg xmlns="http://www.w3.org/2000/svg" width="68.243" height="78" viewBox="0 0 68.243 78">
  <path id="Icon_simple-clockify" data-name="Icon simple-clockify" d="M46.932,26.806,64.605,8.885l5.06,5.125L51.992,31.931l-5.063-5.125ZM39.772,45.12a6.211,6.211,0,0,1-4.433-1.875,6.458,6.458,0,0,1-1.826-4.5,6.262,6.262,0,1,1,12.522,0,6.459,6.459,0,0,1-1.83,4.5,6.217,6.217,0,0,1-4.433,1.875ZM69.743,63.628,64.687,68.76,47.013,50.836l5.064-5.125ZM39.96,66.31a26.39,26.39,0,0,0,10.065-2l8.632,8.759A37.84,37.84,0,0,1,39.96,78C18.718,78,1.5,60.538,1.5,39S18.722,0,39.96,0A37.843,37.843,0,0,1,58.5,4.829l-8.486,8.612A26.413,26.413,0,0,0,39.96,11.45,27.187,27.187,0,0,0,13.028,38.88,27.185,27.185,0,0,0,39.96,66.31Z" transform="translate(-1.5)" fill="#de1a51"/>
</svg>
