<svg xmlns="http://www.w3.org/2000/svg" width="87.752" height="78.001" viewBox="0 0 87.752 78.001">
  <path id="holding-heart" d="M41.939,38.163a2.654,2.654,0,0,0,3.885,0l16.59-17.4a12.628,12.628,0,0,0-.853-18.1C56.868-1.4,49.876-.669,45.58,3.841L43.874,5.623,42.183,3.856C37.887-.669,30.894-1.4,26.2,2.668a12.641,12.641,0,0,0-.853,18.1ZM86.117,49.984a5.043,5.043,0,0,0-6.49,0L65.551,61.242a9.7,9.7,0,0,1-6.094,2.133H41.436a2.437,2.437,0,1,1,0-4.875H53.364a5.072,5.072,0,0,0,5.073-4.052,4.88,4.88,0,0,0-4.814-5.7H29.249a17.929,17.929,0,0,0-11.288,4.007L10.877,58.5H2.437A2.445,2.445,0,0,0,0,60.937V75.562A2.445,2.445,0,0,0,2.437,78H56.792a9.762,9.762,0,0,0,6.094-2.133L85.919,57.434A4.872,4.872,0,0,0,86.117,49.984Z" transform="translate(0 0.002)" fill="#de1a51"/>
</svg>
