<svg xmlns="http://www.w3.org/2000/svg" width="79.248" height="79.248" viewBox="0 0 79.248 79.248">
  <path id="Icon_awesome-smile-beam" data-name="Icon awesome-smile-beam" d="M38.624.563A38.624,38.624,0,1,0,77.248,39.186,38.617,38.617,0,0,0,38.624.563ZM17.443,34.109c.514-6.557,5.015-11.12,8.722-11.12s8.208,4.563,8.722,11.12a1.241,1.241,0,0,1-2.321.7l-1.48-2.648c-1.2-2.134-2.99-3.364-4.906-3.364s-3.707,1.23-4.906,3.364l-1.48,2.648a1.26,1.26,0,0,1-2.352-.7ZM56.5,53.234a23.265,23.265,0,0,1-35.758,0,2.494,2.494,0,0,1,3.831-3.193,18.3,18.3,0,0,0,28.1,0C54.79,47.519,58.606,50.711,56.5,53.234Zm.966-18.424-1.48-2.648C54.79,30.029,53,28.8,51.083,28.8s-3.707,1.23-4.906,3.364L44.7,34.81a1.244,1.244,0,0,1-2.321-.7c.514-6.557,5.015-11.12,8.722-11.12s8.208,4.563,8.722,11.12A1.26,1.26,0,0,1,57.469,34.81Z" transform="translate(1 0.438)" fill="#f4cc26" stroke="#707070" stroke-width="2"/>
</svg>
